<?xml version="1.0" encoding="UTF-8"?>
<!DOCTYPE svg PUBLIC "-//W3C//DTD SVG 1.1//EN" "http://www.w3.org/Graphics/SVG/1.1/DTD/svg11.dtd">
<!-- Creator: CorelDRAW X7 -->
<svg xmlns="http://www.w3.org/2000/svg" xml:space="preserve" width="1.9685in" height="1.9685in" version="1.1" style="shape-rendering:geometricPrecision; text-rendering:geometricPrecision; image-rendering:optimizeQuality; fill-rule:evenodd; clip-rule:evenodd"
viewBox="0 0 1969 1969"
 xmlns:xlink="http://www.w3.org/1999/xlink">
 <defs>
  <style type="text/css">
   <![CDATA[
    .str0 {stroke:black;stroke-width:6.94488}
    .str1 {stroke:#64C4E8;stroke-width:3}
    .fil5 {fill:#64C4E8}
    .fil1 {fill:#2C7B4D}
    .fil4 {fill:black}
    .fil3 {fill:black}
    .fil2 {fill:black}
    .fil0 {fill:#FF9933}
   ]]>
  </style>
 </defs>
 <g id="Layer_x0020_1">
  <metadata id="CorelCorpID_0Corel-Layer"/>
  <g id="_2391692462224">
   <circle class="fil0" cx="984" cy="984" r="984"/>
   <path class="fil1" d="M1952 1164c-84,454 -479,799 -957,804l-13 0c-452,-1 -832,-306 -946,-721 308,-114 685,-182 1093,-182 295,0 574,36 823,99z"/>
   <path class="fil2" d="M813 547c1,2 1,4 1,6 -1,-1 -3,-3 -4,-5 1,0 2,0 3,-1zm3 21c1,4 1,7 2,10 0,14 -4,1 -10,19 6,0 12,-1 17,-4 5,14 5,31 6,48 -17,0 -31,-2 -35,17 7,4 18,7 27,11 7,3 11,6 14,7 1,5 3,9 6,14 2,4 -41,25 -29,32 26,14 3,53 22,60 36,14 34,54 38,85 -56,-5 -104,-13 -159,-24l-52 116c-10,20 -20,35 -27,57 -7,17 -21,33 -31,52l-48 78c-11,26 -18,29 -32,49 -7,11 -6,17 -14,27l-38 45 -76 -2c-2,-37 1,-39 22,-53 12,-9 27,-20 24,-40 -5,-3 -5,-1 -12,-4l-12 -6c3,-9 6,-13 7,-23l0 -21c-10,-10 -32,-17 -21,-38 5,-7 46,-11 59,-20 16,-10 8,-1 14,-15l-41 0c4,-9 8,-5 17,-13 -5,-17 -15,-13 -20,-17 -3,-50 61,-27 74,-64 -10,-23 -7,11 -14,-24 -24,-3 -27,3 -36,-21 5,-10 21,-24 31,-31 43,-37 32,-25 9,-60l-15 -12c-7,-4 -7,-5 -12,-9 11,-42 38,-15 48,-54l-40 -10c7,-19 9,-12 27,-21 17,-9 50,-59 49,-82 -13,6 -31,6 -43,1 -1,-3 -1,-4 0,-11 1,-16 16,-24 26,-30 14,-9 24,-16 21,-43 -8,0 -23,5 -29,0 -21,-14 17,-28 22,-36 7,-9 2,-11 12,-21 -7,-30 9,24 -4,-11 -3,-8 -5,-20 0,-28 4,-9 12,-14 20,-21 -16,-32 -1,-36 14,-48 -1,-34 -23,-73 11,-92 34,18 -11,62 8,92 8,13 20,16 24,33 5,25 -10,25 0,54 10,22 31,6 30,48l-17 12c10,18 31,29 24,62l-29 7c6,16 17,22 25,36 7,-6 27,-15 32,-23l-25 -12c18,-22 40,-21 44,-65 -13,4 -19,5 -28,-3 5,-20 29,-15 34,-48l-12 -3c0,0 -6,-1 -9,-1 5,-12 10,-16 16,-25 7,-10 6,-6 6,-15 0,-5 -2,-6 -2,-8l-2 -6c21,-25 14,-6 12,-42 7,-7 7,-4 13,-11 -1,-16 -5,-22 -4,-33 0,-14 -1,-7 3,-14 6,-11 3,-5 9,-10 5,9 2,-8 5,15 1,18 -5,27 -3,46 14,5 6,1 18,10l-4 41c39,25 14,33 20,51 11,33 12,24 -7,38l10 21c1,11 -3,15 -5,24 13,7 17,3 25,10zm-116 108c1,-13 -22,-31 -32,-35l-10 21 20 12c24,14 21,3 22,2z"/>
   <path class="fil2" d="M1304 719c0,1 0,2 0,3 0,-1 1,-1 2,-2 -1,0 -1,0 -2,-1zm-1 9c-1,2 -1,3 -2,5 1,6 3,0 6,8 -3,0 -6,-1 -9,-2 -3,7 -3,14 -3,21 9,0 16,-1 18,7 -4,2 -9,3 -14,5 -4,2 -6,3 -7,3 -1,3 -2,5 -3,6 -2,2 21,11 15,14 -14,6 -2,23 -12,27 -18,6 -17,23 -19,36 29,-2 53,-5 82,-10l27 50c6,9 10,15 15,25 3,8 10,15 15,23l25 34c6,11 10,12 17,21 4,5 3,8 7,12l14 24 47 70 -1 -76c1,-16 -1,-16 -12,-23 -6,-3 -14,-8 -13,-17 3,-1 3,0 7,-2l6 -2c-2,-4 -3,-6 -3,-10l-1 -10c5,-4 17,-7 12,-16 -3,-3 -24,-5 -31,-9 -8,-4 -4,0 -8,-6l22 0c-2,-4 -5,-3 -9,-6 2,-7 8,-5 10,-7 2,-22 -32,-12 -38,-28 5,-10 4,5 7,-11 13,-1 14,2 19,-9 -3,-4 -11,-10 -16,-13 -23,-16 -17,-11 -5,-26l8 -5c4,-2 4,-2 6,-4 -6,-19 -20,-7 -25,-24l21 -4c-4,-9 -5,-5 -14,-9 -9,-4 -26,-26 -25,-36 6,3 15,3 22,0 0,-1 0,-1 0,-4 -1,-7 -9,-11 -14,-13 -7,-4 -12,-7 -11,-19 5,0 12,2 15,0 11,-6 -8,-12 -11,-16 -4,-4 -1,-5 -7,-9 5,-13 -4,11 3,-4 1,-4 2,-9 0,-13 -2,-4 -7,-6 -10,-9 7,-14 0,-16 -8,-21 1,-14 12,-31 -5,-40 -19,8 5,27 -5,40 -4,6 -10,7 -12,15 -3,10 5,11 0,23 -5,10 -16,3 -16,21l9 5c-5,8 -16,13 -13,27l15 3c-3,7 -8,10 -13,16 -3,-3 -13,-7 -16,-10l13 -5c-9,-10 -21,-9 -23,-29 7,2 10,3 15,-1 -3,-8 -15,-6 -18,-21l6 -1c0,0 4,0 5,-1 -3,-5 -5,-6 -9,-10 -3,-5 -3,-3 -2,-7 0,-2 0,-2 1,-4l1 -2c-11,-11 -8,-3 -7,-18 -3,-3 -3,-2 -7,-5 1,-7 3,-10 3,-15 0,-5 0,-2 -2,-5 -3,-5 -1,-2 -4,-5 -3,4 -2,-3 -3,7 -1,8 2,12 2,20 -8,2 -4,0 -10,4l2 18c-20,11 -7,14 -10,22 -6,14 -6,11 3,17l-5 9c0,5 2,6 3,10 -7,3 -9,2 -13,4zm60 47c0,-5 11,-13 16,-15l6 9 -11 5c-12,6 -10,2 -11,1z"/>
   <g>
    <path class="fil3" d="M1362 838c211,318 272,512 272,512 0,0 -185,32 -555,97 0,0 -222,-37 -668,-110 0,0 0,-24 -1,-70 76,-72 175,-215 297,-428 187,27 419,19 655,-1z"/>
    <polygon class="fil4 str0" points="1524,1384 1330,1017 1291,1428 "/>
    <g>
     <path class="fil5" d="M1633 1297l25 30c-8,-9 5,-7 -18,-7l-6 40 -18 12c-32,3 -113,34 -133,9 -6,-8 -8,-19 -16,-30 -7,-11 -11,-14 -18,-23 -12,-17 -19,-35 -27,-54 -9,-19 -20,-39 -29,-57 -12,-28 -31,-97 -39,-129 -4,-11 -6,-53 -21,-56 0,1 -1,2 -1,3l-2 26c0,71 -10,123 -11,177 0,42 -1,65 -7,102 -5,31 -13,67 -16,94 -58,2 -129,16 -185,27 -1,-118 -9,-80 33,-156 7,-13 14,-21 19,-31 7,-15 4,-17 12,-33 8,-14 23,-41 32,-54 12,-19 6,-9 14,-32l40 -73c7,-13 3,-3 7,-16 21,-63 46,-74 52,-120l-53 96c-7,23 -17,33 -28,54l-125 239c0,1 0,2 -1,3l-6 16c-2,5 -4,6 -6,11 -50,-2 -157,-26 -249,-34l-237 -37c-29,-4 -53,-12 -81,-12 -15,-1 -86,1 -83,-16l2 -5c0,-1 1,-2 1,-3 8,-14 27,-26 34,-35 42,-52 74,-91 110,-151 34,-55 24,-25 52,-84 5,-11 11,-16 17,-25 22,-33 37,-84 61,-109 31,3 38,12 73,12 24,0 51,3 76,6 52,7 105,5 159,5l234 -13c24,-4 53,-10 77,-9 -7,22 -29,55 -25,80 15,-13 27,-52 34,-69 19,7 14,5 20,27 5,19 33,51 48,84l194 296c14,15 14,4 15,24z"/>
     <path class="fil5" d="M972 1539c-21,11 -14,15 -25,32l-3 -25c22,-5 -6,4 12,0 19,-5 4,1 13,-8l66 -75c1,0 4,-3 4,-4l3 -4c-7,-6 -265,-49 -299,-55 -68,-13 -264,-30 -306,-49l0 -49c-15,9 -14,15 -27,25 -8,7 -7,4 -15,12 -14,13 -6,12 -41,40l-23 18c-43,38 -78,53 -103,74 -26,24 -6,18 -24,24 -3,-27 -4,-23 -12,-40 31,4 4,7 29,12 12,-11 12,-14 30,-23 4,-2 14,-6 18,-8 15,-8 5,-2 13,-10 19,-19 37,-29 56,-44 18,-15 34,-33 51,-49 19,-17 32,-33 47,-51 57,-2 252,41 329,49 17,2 31,-1 49,2l120 20c56,7 106,18 162,25l0 83c-20,1 -32,-9 -45,0 -9,6 -5,10 -26,29 -18,16 -26,47 -53,49z"/>
     <path class="fil5 str1" d="M1633 1297l26 25c5,4 0,0 9,6 4,2 5,2 8,5 9,6 4,3 12,10l60 42 12 -12c10,-7 5,-3 16,-5l-8 13c-2,5 -2,3 -3,11 -4,16 4,6 -6,20 -15,-8 -1,-9 -16,-20 -1,-1 -7,-4 -9,-5 -11,-6 -21,-12 -31,-18 -27,-18 -27,-34 -60,-42l0 37 -27 8 18 -12 6 -40c23,0 10,-2 18,7l-25 -30z"/>
     <path class="fil5" d="M972 1539l-15 22c-4,8 4,9 -11,17 -9,-14 -6,-14 -7,-32 -13,-11 -6,0 -10,-12 13,-1 18,3 26,7 24,-9 -7,11 14,-3 -9,9 6,3 -13,8 -18,4 10,-5 -12,0l3 25c11,-17 4,-21 25,-32z"/>
    </g>
   </g>
  </g>
 </g>
</svg>
