<?xml version="1.0" encoding="UTF-8"?>
<!DOCTYPE svg PUBLIC "-//W3C//DTD SVG 1.1//EN" "http://www.w3.org/Graphics/SVG/1.1/DTD/svg11.dtd">
<!-- Creator: CorelDRAW X7 -->
<svg xmlns="http://www.w3.org/2000/svg" xml:space="preserve" width="1.74188in" height="1.74189in" version="1.1" style="shape-rendering:geometricPrecision; text-rendering:geometricPrecision; image-rendering:optimizeQuality; fill-rule:evenodd; clip-rule:evenodd"
viewBox="0 0 22098 22098"
 xmlns:xlink="http://www.w3.org/1999/xlink">
 <defs>
  <style type="text/css">
   <![CDATA[
    .fil7 {fill:#FEFEFE}
    .fil42 {fill:#EF4937}
    .fil8 {fill:#B6E3EE}
    .fil9 {fill:#A6DEF1}
    .fil4 {fill:#7E808B}
    .fil37 {fill:#6C6E76}
    .fil6 {fill:#6B6C76}
    .fil1 {fill:#4FC8F1}
    .fil3 {fill:#54565B}
    .fil40 {fill:#50BEA1}
    .fil5 {fill:#47494D}
    .fil2 {fill:#27B0D1}
    .fil41 {fill:#35946B}
    .fil39 {fill:#2C7B4D}
    .fil38 {fill:#23583A}
    .fil18 {fill:black}
    .fil35 {fill:#021700}
    .fil29 {fill:#023644}
    .fil21 {fill:#040200}
    .fil12 {fill:#040306}
    .fil20 {fill:#061417}
    .fil10 {fill:#7ACFDD}
    .fil34 {fill:#A06300}
    .fil11 {fill:#A0E8F9}
    .fil28 {fill:#A84A04}
    .fil13 {fill:#BC590F}
    .fil16 {fill:#C99105}
    .fil31 {fill:#CE2C00}
    .fil24 {fill:#CE6600}
    .fil23 {fill:#CE8900}
    .fil25 {fill:#CEA15B}
    .fil14 {fill:#D6A56B}
    .fil33 {fill:#D6B185}
    .fil26 {fill:#E5C298}
    .fil0 {fill:#FAA954}
    .fil32 {fill:#FF1400}
    .fil30 {fill:#FF2F00}
    .fil22 {fill:#FF6A00}
    .fil27 {fill:#FF6D00}
    .fil19 {fill:#FF8E00}
    .fil43 {fill:#FFB76F}
    .fil17 {fill:#FFBE00}
    .fil15 {fill:#FFDFB2}
    .fil36 {fill:white}
   ]]>
  </style>
 </defs>
 <g id="Layer_x0020_1">
  <metadata id="CorelCorpID_0Corel-Layer"/>
  <g id="_2391697689392">
   <circle class="fil0" cx="11049" cy="11049" r="11049"/>
   <g>
    <path class="fil1" d="M16589 20610c-900,-34 -1931,-50 -2909,-50 -3308,0 -4379,363 -3294,379 1084,19 2237,480 -923,497 -1546,9 -2025,35 -1923,92 -2247,-752 -4172,-2206 -5514,-4101l4637 -802c0,0 6278,-46 13823,172 -960,1573 -2302,2887 -3897,3813zm-8953 950c246,59 875,145 1559,267 320,57 335,102 145,139 -584,-91 -1154,-228 -1704,-406z"/>
    <path class="fil2" d="M18588 19124l-178 5c-1137,28 -1258,-24 -1321,-76 -55,-44 -67,-89 -638,-83 -1239,14 -1259,-79 -710,-238 550,-159 -780,93 -2238,172 -1459,80 -2538,-39 -2479,-186 61,-145 -1229,-237 -769,-12 460,225 -530,225 -1179,264 -649,40 260,278 -440,332 -699,52 -2787,12 -4486,92 -118,6 -227,10 -326,14 -609,-527 -1160,-1120 -1642,-1767l5885 -1017c0,0 5893,-43 12404,197 -522,851 -1157,1625 -1883,2303z"/>
    <path class="fil3" d="M4759 18177l-1767 431c-1201,-1279 -2100,-2844 -2586,-4582l3663 -164 690 4315z"/>
    <path class="fil4" d="M4279 15172c-189,39 -371,59 -490,27 -349,-93 -1758,26 -2318,84 -218,23 -447,13 -639,-21 -165,-401 -308,-813 -426,-1236l3663 -164 210 1310z"/>
    <path class="fil3" d="M5478 12078c-3,88 -27,190 -68,305 -123,356 -400,819 -671,1223 -335,506 -659,920 -659,920 0,0 -1745,121 -2292,0 -252,-57 -743,-62 -1246,-51 -231,-712 -393,-1455 -476,-2222 185,-32 393,-81 576,-175 293,-149 2652,-219 3518,-62 390,72 502,36 594,0 113,-44 198,-88 724,62z"/>
    <path class="fil4" d="M5478 12079c-3,87 -27,189 -68,304 -735,-136 -1354,-14 -1560,88 -240,119 -1149,119 -2038,232 -738,94 -1104,-90 -1703,-103 -16,-115 -31,-231 -43,-347 185,-32 393,-81 576,-175 293,-149 2652,-219 3518,-62 865,159 359,-211 1318,63z"/>
    <polygon class="fil4" points="589,12741 1195,14373 715,12794 "/>
    <path class="fil5" d="M2297 17793c260,-71 526,-174 793,-278 56,-21 111,-42 166,-64 15,432 24,725 24,725l1479 0 0 1 -1767 431c-245,-260 -476,-532 -695,-815z"/>
    <polygon class="fil4" points="1641,12873 1934,14285 1735,12891 "/>
    <path class="fil5" d="M2625 14579c-340,0 -655,-13 -837,-53 -184,-42 -497,-56 -849,-56 -128,0 -262,2 -397,5 -68,-210 -131,-423 -187,-639 97,-26 186,-56 270,-86 105,-37 203,-74 300,-104l270 727 -225 -740c98,-27 197,-44 303,-44 156,0 328,38 539,140 2,2 5,3 8,4l114 552 -76 -534c204,92 378,127 545,127 245,0 473,-75 755,-149 42,-11 85,-23 130,-33 -93,79 -147,197 -141,377 3,104 9,278 16,497 -176,6 -360,9 -538,9z"/>
    <path class="fil6" d="M1195 14373l-270 -727c15,-4 30,-9 45,-13l225 740z"/>
    <path class="fil6" d="M1934 14285l-114 -552c13,6 25,12 38,18l76 534z"/>
    <path class="fil1" d="M9462 11894c0,0 -3537,185 -3984,185 -446,0 -772,53 -746,370 27,318 254,1015 -293,1068 -546,53 -1312,-97 -1292,556 20,653 133,4103 133,4103l5729 0 453 -6282z"/>
    <path class="fil3" d="M19780 17819c-93,3 -188,5 -285,5l-543 -5808c557,-670 855,-700 1176,-696 322,4 500,309 740,573 132,147 224,121 361,95 110,-21 250,-42 464,28 154,51 264,70 354,86 -202,2143 -1017,4108 -2267,5717z"/>
    <path class="fil4" d="M19781 17819l-45 1c-78,3 -158,4 -241,4l-335 -3590c1305,-2126 2399,-1206 2560,-313 -386,1435 -1053,2756 -1939,3898z"/>
    <path class="fil3" d="M19781 17819l-45 1 -226 -2428c894,-1457 1644,-825 1753,-213 4,21 8,41 11,60 -381,930 -886,1797 -1493,2580z"/>
    <path class="fil2" d="M9296 12048c-2249,-13 -4377,0 -4397,331 -20,331 50,1151 210,490 77,-320 219,-211 400,-102 193,118 431,234 679,-176 236,-391 392,-182 553,26 166,215 337,431 606,-13 230,-379 449,-200 700,-20 328,234 712,468 1249,-536z"/>
    <path class="fil2" d="M8846 13835c-3427,-172 -5606,-437 -5576,304 16,396 191,283 370,169 156,-99 314,-198 370,43 120,516 -30,1363 399,159 211,-592 285,-229 376,134 95,376 209,752 514,64 398,-896 525,-718 622,-540 50,90 91,179 157,130 188,-141 265,80 327,301 83,296 139,593 403,17 196,-431 463,-245 762,-59 398,248 853,496 1276,-722z"/>
    <path class="fil1" d="M15631 11894l2905 0c1094,0 1780,617 2225,4427 -208,382 -438,750 -687,1103l-4153 399 -290 -5929z"/>
    <path class="fil2" d="M15791 11982c480,6 917,-9 1313,-25 1189,-46 2008,-92 2498,457 653,732 -180,53 -487,-79 -128,-56 -172,41 -230,139 -80,134 -186,268 -576,2 -313,-214 -411,-10 -490,193 -90,234 -154,468 -489,72 -341,-405 -538,-289 -727,-174 -157,97 -308,193 -532,-12 -493,-450 -280,-573 -280,-573z"/>
    <path class="fil3" d="M17154 18177c0,0 -784,344 -2552,370 -1769,26 -3178,238 -3388,0 -209,-238 -2278,-159 -2278,-159 0,0 27,-911 -96,-1566 -44,-242 -110,-450 -204,-564 -31,-38 -60,-83 -89,-134 -192,-350 -337,-990 -416,-1398 -41,-221 -64,-375 -64,-375l519 -278 -70 -1417c0,-14 0,-26 1,-40 36,-571 852,-638 945,-978 123,-450 3421,-133 3281,145 -64,127 551,68 1284,9 871,-71 1908,-140 2174,101 0,0 -314,129 -233,260 48,78 276,3 501,86 165,61 329,204 421,550 15,54 28,109 42,166 62,257 116,542 161,811 9,57 18,112 27,166 53,338 90,635 110,797l15 130c0,0 -85,670 -174,869 -43,94 71,260 155,597 92,368 148,940 -72,1852z"/>
    <path class="fil4" d="M16469 12239c-415,25 -863,231 -1227,149 -490,-110 -2159,150 -2459,137 -299,-14 -679,-451 -1368,-251 -690,197 -821,38 -1490,197 -670,159 -719,-26 -1010,80 -128,46 -289,85 -398,65 28,-572 852,-638 945,-978 123,-450 3421,-133 3281,145 -139,278 2969,-335 3458,110 0,0 -314,129 -233,260 48,78 276,3 501,86z"/>
    <polygon class="fil4" points="12713,12714 12200,14541 12593,12591 "/>
    <polygon class="fil4" points="12460,12670 12327,13597 12354,12502 "/>
    <polygon class="fil4" points="8949,15238 9123,17162 8743,14991 "/>
    <polygon class="fil4" points="9929,15132 9802,17726 10095,15132 "/>
    <polygon class="fil4" points="10988,15158 11201,18317 11161,15044 "/>
    <polygon class="fil4" points="15032,12529 15465,14382 15212,12538 "/>
    <path class="fil2" d="M3413 17100c27,-1518 94,-2718 134,-1712 40,1006 293,1288 293,794 0,-494 -120,-935 0,-494 120,441 359,1553 573,600 213,-953 213,194 293,953 80,759 -1293,-141 -1293,-141z"/>
    <path class="fil2" d="M17523 16976c-226,-1094 -53,-829 -66,-2029 -14,-1201 -40,-2242 160,-1042 199,1200 319,2506 319,1924 0,-582 -160,-1553 67,-847 226,706 560,2224 413,759 -147,-1465 -333,-2806 -120,-2136 213,671 320,2224 360,1818 40,-406 -14,-1235 226,-388 240,847 587,1871 440,688 -147,-1182 -626,-2912 -320,-1994 307,918 586,2630 600,2100 13,-529 -27,-918 106,-459 134,459 560,1341 333,106 -226,-1235 -546,-2947 -159,-1871 319,892 585,2545 666,3088 -42,70 -84,140 -128,209l-2724 568 -173 -494z"/>
    <path class="fil5" d="M11846 18659c-335,0 -558,-28 -632,-112 -126,-143 -924,-172 -1540,-172 -409,0 -738,13 -738,13 0,0 3,-86 3,-223 0,-312 -14,-889 -99,-1343 84,33 163,62 238,85l45 255 -23 -248c245,74 442,98 618,98 41,0 80,-1 119,-3l-35 717 82 -720c90,-7 176,-19 262,-30 137,-19 274,-37 428,-37 156,0 330,19 539,76l88 1302 -16 -1282c199,60 428,153 703,294 279,144 585,203 907,203 1415,0 3154,-1133 4431,-1207 45,179 81,407 81,698 0,307 -40,685 -153,1154 0,0 -784,344 -2552,370 -1146,17 -2140,112 -2756,112z"/>
    <path class="fil6" d="M9123 17162l-45 -255c8,2 15,5 22,7l23 248z"/>
    <path class="fil6" d="M9802 17726l35 -717c16,-1 31,-2 46,-3l-81 720z"/>
    <path class="fil6" d="M11201 18317l-88 -1303c24,7 48,14 72,21l16 1282z"/>
    <path class="fil2" d="M6465 17241c266,-1536 186,-2400 359,-1447 173,953 613,1112 626,176 14,-935 267,-865 347,-159 41,360 85,207 132,54 46,-148 95,-295 148,17 106,635 373,1676 373,1676l-1985 -317z"/>
    <path class="fil7" d="M15991 18785c-74,-299 44,-623 267,-732 -119,-290 -60,-650 137,-850 197,-200 475,-180 655,47 48,-251 204,-441 397,-481 193,-40 386,77 489,297 124,-470 426,-818 795,-914 368,-97 748,73 997,445 35,-67 100,-93 157,-64 57,30 91,107 83,187 86,-391 388,-624 687,-529 49,15 95,39 138,69 -498,929 -1125,1779 -1857,2525l-2945 0z"/>
    <path class="fil8" d="M19811 17779c-85,-187 -227,-322 -393,-365 -205,-54 -417,40 -556,248 -20,-37 -56,-52 -88,-35 -32,16 -51,59 -46,104 -48,-218 -216,-348 -383,-296 -167,53 -273,270 -242,493 -185,-47 -370,85 -442,316 -73,230 -14,497 141,639l1038 0c347,-346 671,-715 971,-1104z"/>
    <path class="fil7" d="M2609 18179c13,-42 34,-79 63,-107 67,-64 157,-61 222,7 23,-60 66,-102 116,-112 50,-11 101,11 137,59 -73,-499 102,-1003 435,-1255 333,-251 750,-194 1037,143 79,-99 202,-99 280,0 -29,-337 88,-667 302,-855 214,-187 489,-200 712,-32 223,167 356,486 345,826 142,-60 293,42 340,229 -8,-145 53,-280 153,-340 100,-59 217,-29 293,75 87,-139 236,-175 355,-86 118,89 171,278 125,448 117,-412 450,-642 772,-533 323,108 532,520 487,957 201,-148 452,-99 611,121 160,219 188,554 68,814 54,-42 123,-31 168,26 45,58 56,148 26,221l-6495 0c-191,-195 -375,-397 -552,-606z"/>
    <path class="fil8" d="M8067 18999c-6,-157 -103,-281 -222,-281 19,-67 1,-142 -42,-183 -43,-42 -102,-40 -144,5 -15,-40 -43,-67 -76,-74 -33,-6 -66,8 -89,39 47,-325 -67,-654 -284,-817 -217,-164 -488,-127 -675,93 -51,-65 -132,-65 -182,0 18,-220 -58,-435 -197,-557 -139,-122 -319,-130 -464,-21 -145,109 -232,316 -225,537 -92,-38 -191,28 -221,150 5,-94 -35,-183 -100,-221 -65,-39 -141,-19 -191,49 -56,-91 -154,-115 -231,-57 -77,59 -111,182 -81,292 -77,-268 -293,-418 -503,-347 -210,70 -347,339 -317,623 -131,-96 -295,-64 -399,79 -104,143 -122,361 -44,530 -35,-27 -80,-20 -109,17 -6,8 -11,17 -15,26 40,40 81,79 121,118l4690 0z"/>
    <path class="fil5" d="M12689 14867c-370,0 -528,-74 -546,-185 -20,-133 -1248,-198 -1778,-198 -209,0 -564,31 -905,31 -524,0 -1013,-73 -874,-442l0 0 -37 -767c614,280 1157,344 1666,344 211,0 417,-11 619,-22 202,-11 401,-22 600,-22 308,0 615,27 931,120l-165 815 224 -796c139,44 279,103 423,178 239,125 482,177 728,177 553,0 1123,-261 1699,-536l191 818 -117 -854c525,-251 1056,-505 1584,-573 62,257 116,542 161,811 -1511,555 -858,710 -2001,889 -1180,186 -1630,168 -2169,204 -86,5 -164,8 -234,8z"/>
    <path class="fil6" d="M12200 14541l165 -815c19,6 39,12 59,19l-224 796z"/>
    <path class="fil6" d="M15465 14382l-191 -818c24,-12 49,-24 74,-36l117 854z"/>
    <path class="fil4" d="M17120 13932c-707,82 -1386,851 -1818,927 -471,83 -730,141 -1569,290 -839,148 -1429,207 -1848,0 -421,-209 -870,-268 -1240,-113 -370,153 -450,-340 -1183,0 -733,338 -336,-195 -825,-169 -166,8 -344,-54 -506,-141 -41,-221 -64,-375 -64,-375l519 -278c-229,609 1250,411 1779,411 530,0 1758,65 1778,198 21,132 240,211 780,177 539,-36 989,-18 2169,-204 1143,-179 490,-334 2001,-889 9,57 18,112 27,166z"/>
    <path class="fil9" d="M3782 15244c-69,0 -149,-194 -112,-628 5,-67 24,-98 47,-98 60,0 153,197 153,482 0,158 -42,245 -88,244z"/>
    <path class="fil9" d="M4689 15865c-42,0 -90,-150 -90,-389 0,-136 -30,-173 -69,-173 -23,0 -49,14 -74,27 -24,13 -47,26 -63,26 -30,0 -38,-46 6,-224 70,-278 130,93 120,-516 -2,-145 8,-205 26,-205 57,0 189,621 204,1065 9,273 -23,389 -60,389z"/>
    <path class="fil9" d="M6205 16146c-91,0 -237,-486 -257,-1054 -7,-213 -30,-287 -59,-287 -35,0 -79,100 -119,201 -40,100 -77,200 -97,200 -12,0 -18,-39 -15,-140 6,-163 -15,-208 -44,-208 -18,0 -38,17 -56,35 -18,17 -34,35 -43,35 -18,0 -6,-70 73,-352 27,-94 48,-128 65,-128 21,-1 37,54 55,108 18,54 37,108 64,108 20,0 44,-30 76,-114 23,-59 44,-84 64,-84 42,0 80,107 111,214 32,106 59,213 80,213 14,0 26,-54 35,-198 11,-172 24,-247 39,-247 39,-1 86,573 101,1253 7,316 -26,445 -73,445z"/>
    <path class="fil9" d="M7246 16362c-57,0 -135,-531 -169,-1098 -12,-208 -34,-278 -59,-278 -24,0 -51,71 -73,141 -22,71 -39,142 -44,142 -4,-1 5,-77 36,-309 19,-139 46,-183 76,-183 26,0 54,35 81,69 27,35 53,69 75,69 23,0 41,-41 48,-167 7,-111 17,-162 28,-162 37,0 85,581 62,1327 -10,320 -33,449 -61,449z"/>
    <path class="fil9" d="M7552 13366c-47,0 -68,-196 15,-497 40,-146 150,66 150,-252 0,-75 9,-107 24,-107 46,0 143,342 136,676 -2,100 -12,135 -26,135 -18,0 -44,-57 -73,-115 -28,-57 -59,-115 -88,-115 -19,0 -37,26 -53,95 -28,124 -60,180 -85,180z"/>
    <path class="fil9" d="M6603 13599c-18,0 -39,-51 -55,-174 -18,-135 -74,-176 -140,-176 -53,0 -112,25 -166,51 -54,25 -102,51 -132,51 -29,0 -40,-25 -22,-99 95,-378 191,-628 245,-628 25,0 42,56 45,178 2,96 14,127 30,127 17,0 39,-31 63,-61 24,-31 51,-62 78,-62 28,0 55,35 79,142 65,298 25,651 -25,651z"/>
    <path class="fil9" d="M5177 13284c-57,0 -101,-51 -58,-177 43,-127 84,-175 118,-175 49,0 82,100 82,201 0,90 -79,151 -142,151z"/>
    <path class="fil9" d="M17894 14658c-41,0 -122,-661 -194,-1300 -19,-161 23,-287 60,-287 24,0 46,52 50,181 3,96 11,139 23,139 29,0 75,-258 97,-615 10,-177 58,-246 115,-246 107,0 248,235 254,458 5,172 -45,264 -103,264 -59,0 -126,-92 -157,-291 -10,-67 -17,-97 -22,-97 -27,0 -1,730 33,1368 9,183 7,247 -1,247 -10,0 -27,-79 -47,-157 -19,-78 -40,-157 -56,-157 -14,0 -24,59 -26,226 -3,187 -12,267 -26,267z"/>
    <path class="fil9" d="M18801 14458c-3,0 -10,-21 -22,-67 -80,-318 -170,-437 -170,-437 -43,-558 -140,-1165 -124,-1165 6,0 28,85 74,291 145,645 261,1378 242,1378z"/>
    <path class="fil9" d="M19475 14587c-17,0 -170,-790 -356,-1374 -43,-134 -53,-176 -47,-176 6,0 25,30 47,59 23,30 50,60 72,60 29,0 51,-49 48,-208 -4,-190 9,-266 32,-266 43,0 122,279 188,557 100,424 -200,-251 -40,887 46,330 62,461 56,461z"/>
    <g>
     <path class="fil10" d="M6477 20953c-104,0 -206,4 -306,11 1471,726 3127,1134 4878,1134 1888,0 3666,-475 5220,-1310 -664,62 -1327,155 -1995,184 -1060,44 -2141,141 -3202,67 -715,-50 -1415,-236 -2126,-317 -605,-69 -1246,17 -1840,156 -125,29 -264,82 -389,89 -28,2 -61,-6 -94,-13 -70,-15 -141,-29 -176,35l30 -36z"/>
     <path class="fil11" d="M10393 20828c-752,-2 -944,-430 -1592,-653 -803,-276 -1090,279 -1795,377 -313,43 -682,38 -1066,32 -158,-2 -319,-4 -479,-3 447,263 915,495 1399,694 477,15 948,-21 1420,-57 479,-36 959,-72 1445,-56 635,21 1131,341 1775,334 975,-11 1940,-176 2909,-226 318,-16 631,-27 942,-41 700,-297 1363,-664 1981,-1092 -607,-66 -1438,79 -1777,79 -1443,0 -2927,-119 -4355,123 -409,69 -954,174 -1279,434l472 55z"/>
     <path class="fil12" d="M11891 17350c56,149 -35,256 83,383 91,98 49,182 104,293 78,155 312,168 442,173 185,7 385,-12 557,-100 226,-115 325,-438 315,-716 -7,-219 -113,-319 -200,-489 -38,27 -71,82 -105,119 -74,79 -158,141 -248,192 -159,89 -313,113 -478,172 -87,32 -176,55 -269,40 -43,-8 -153,-22 -180,-58l-21 -9z"/>
     <path class="fil12" d="M12682 14713c38,-1 92,30 129,44 39,14 77,39 118,49 86,22 174,7 247,78 74,72 111,189 132,297 9,44 12,92 28,133 14,37 40,63 61,94 66,98 107,212 144,328 15,46 23,93 37,139 12,43 36,92 38,136 -38,-3 -88,45 -115,73 -30,31 -34,90 -61,116 -38,-48 -90,-80 -128,-130 -45,-60 -86,-122 -123,-189 -36,-64 -78,-122 -112,-188 -32,-63 -41,-140 -86,-191 -33,-36 -65,-68 -88,-115 -48,-97 -42,-209 -67,-316 -23,-92 -44,-189 -96,-264 -20,-28 -56,-106 -91,-105l33 11z"/>
     <path class="fil13" d="M11825 14869c-83,5 -151,100 -221,133 -66,33 -180,79 -182,187 160,4 261,156 274,346 8,111 -19,173 -53,268 -35,100 -15,146 -11,253 8,198 -53,370 -55,565 -2,268 84,556 277,710 219,175 569,139 806,47 248,-96 486,-279 572,-590 58,-209 36,-493 -46,-688 -39,-93 -145,-182 -165,-280 -17,-83 25,-172 -5,-274 -49,-168 -113,-304 -144,-478 -23,-123 -106,-386 -247,-352 -55,188 -746,448 -747,375 -1,-73 16,-144 -35,-199l-18 -23z"/>
     <path class="fil14" d="M11977 14114c-92,1 -163,202 -185,285 -20,73 -16,170 11,239 13,36 44,60 41,102 -2,29 -24,66 -37,90 -8,18 -43,58 -39,78 5,23 59,45 75,57 -16,17 -7,30 -8,49l13 21c2,5 -9,16 -8,26 2,15 12,29 13,51 1,18 -12,47 -5,66 27,70 153,50 204,39 71,-15 141,-47 203,-91 37,-27 72,-56 103,-91 26,-28 35,-76 58,-100 24,-26 61,-19 92,-38 33,-22 55,-50 66,-91 24,-82 -2,-149 -83,-123 -6,-76 10,-128 -31,-198 -44,-77 -100,-162 -160,-223 -54,-55 -109,-89 -177,-107 -32,-9 -133,-44 -155,-31l9 -10z"/>
     <path class="fil12" d="M12212 13924c-211,18 -454,216 -441,485 21,-2 39,-30 59,-37 6,15 12,34 27,40 22,10 35,-14 53,-15 20,-1 22,13 40,21 23,11 31,-4 53,-4 39,0 37,42 63,72 33,37 67,27 102,46 29,16 33,56 38,87 11,69 39,121 76,177 48,72 33,-21 86,-32 34,-7 31,42 73,1 19,-18 45,-58 73,-43 27,15 17,59 58,36 56,-33 92,-170 102,-237 28,-199 -16,-357 -150,-493 -50,-50 -108,-93 -172,-108 -45,-10 -106,-23 -146,7l0 -10 6 7z"/>
     <path class="fil14" d="M12216 17812c29,50 60,57 106,33 -4,-51 -62,-109 -82,-155 -11,-23 -12,-50 -27,-69 -14,-19 -39,-33 -57,-46 -43,-31 -76,-74 -117,-110 -36,-31 -79,-51 -119,-73 -12,-53 -63,-107 -92,-143 -40,-49 -79,-84 -108,-144 -26,-52 -48,-104 -72,-157 -27,-59 -66,-113 -101,-166 -38,-55 -68,-112 -104,-170l-12 -16c14,-10 17,-34 30,-56 85,-150 171,-292 171,-478 0,-139 55,-243 100,-362 47,-125 17,-288 -41,-401 -37,-71 -86,-142 -157,-166l9 -4c-55,3 -115,61 -149,105 -53,66 -77,147 -92,235 -12,74 -9,151 -9,227 0,30 4,67 -3,95 -9,34 -35,68 -50,98 -59,122 -84,248 -91,387 -3,86 -7,176 -4,264 -13,28 -16,76 -24,107 -11,45 -9,50 11,88 36,66 50,148 85,214 96,184 236,340 375,477 23,22 49,41 68,68 10,14 14,29 19,44 4,25 23,45 29,69 7,26 7,59 9,87 5,62 17,135 42,192 13,27 29,48 35,79 5,29 4,61 6,91 2,26 1,166 34,112 21,-33 16,-101 18,-142 0,-11 -1,-63 9,-68 18,-10 32,36 36,51 13,45 13,94 26,140 13,46 33,86 49,130 63,21 14,-128 9,-159 -10,-60 -8,-122 -16,-184 39,47 55,91 70,152 10,42 30,139 70,159 49,24 13,-105 6,-134 -13,-52 -50,-123 -51,-177l0 -25c30,3 84,116 106,145 21,28 103,109 71,18 -20,-59 -54,-113 -76,-171 -11,-30 -43,-138 -24,-165 26,-39 66,52 79,74z"/>
     <path class="fil15" d="M13413 16150c61,72 45,191 45,285 0,112 20,199 61,300 47,117 111,234 135,361 10,52 14,102 20,154 3,33 18,87 8,121l-1 18c-58,17 -121,80 -121,155 0,38 4,81 4,121 0,43 -13,84 -12,125 67,4 31,-187 101,-168 24,53 -42,132 -65,173 -21,41 -55,122 -52,173 78,23 103,-141 153,-168 2,40 5,85 1,125 -3,40 -20,80 -16,120 67,3 81,-193 117,-235 20,53 -16,178 17,217 55,-73 60,-150 78,-241 27,30 20,101 44,140 35,-48 -1,-197 4,-261 7,-80 20,-160 9,-241 -12,-86 -45,-145 -41,-237 4,-96 7,-195 -5,-290 -24,-184 -53,-377 -100,-554 -20,-75 -52,-145 -95,-206 -25,-36 -55,-61 -74,-102 -18,-40 -13,-66 -56,-68 -93,-5 -119,109 -152,179 -3,10 2,-1 5,0l-12 4z"/>
     <path class="fil16" d="M11818 14192c-36,0 -65,-21 -87,-57 152,86 311,129 466,197 171,76 281,242 489,161 172,-67 197,-317 127,-489 -71,-176 -269,-310 -426,-348 -242,-59 -684,112 -649,454l80 82z"/>
     <path class="fil12" d="M12188 15171c51,97 59,262 74,376 29,227 52,454 84,681 42,305 85,626 109,931 3,45 -12,167 16,198 28,31 124,10 156,0 74,-25 94,-52 75,-140 -21,-95 -48,-188 -68,-285 -76,-356 -134,-702 -185,-1060 -39,-269 -111,-527 -145,-782 -42,8 -91,63 -130,90l14 -9z"/>
     <path class="fil12" d="M12952 15304c-27,39 -37,99 -62,144 -49,90 -123,159 -191,224 -134,129 -294,211 -463,246 -186,37 -399,63 -550,-97 -13,57 -39,103 -35,164 154,65 283,126 449,126 194,0 387,-90 564,-181 118,-61 241,-121 307,-260 41,-87 40,-256 -33,-324l14 -42z"/>
     <path class="fil12" d="M13096 15970c-2,178 -136,370 -249,465 -142,119 -330,197 -501,225 -165,27 -338,10 -496,-39 -81,-26 -185,-48 -241,-133 1,62 -1,125 1,187 155,66 287,151 454,187 210,44 428,-2 625,-96 186,-90 574,-305 497,-605 -16,-63 -44,-157 -103,-174l13 -17z"/>
     <path class="fil12" d="M8975 17320c56,149 -35,256 83,382 91,98 49,183 104,294 77,154 312,167 442,172 185,8 384,-12 557,-100 225,-115 324,-438 315,-715 -7,-219 -113,-320 -201,-489 -38,26 -70,81 -104,118 -74,79 -159,141 -248,192 -159,90 -314,114 -478,173 -87,31 -176,55 -269,39 -43,-7 -154,-22 -180,-58l-21 -8z"/>
     <path class="fil15" d="M9766 14683c38,-2 92,29 128,43 40,15 78,40 119,50 86,21 173,6 247,77 74,72 111,189 132,297 9,45 12,92 28,134 13,36 40,63 61,93 66,98 106,213 144,329 15,45 23,92 37,139 12,42 36,91 38,136 -39,-4 -89,44 -116,72 -29,32 -33,91 -61,117 -37,-49 -89,-80 -128,-131 -45,-59 -85,-122 -122,-188 -36,-64 -79,-123 -112,-188 -32,-63 -42,-140 -86,-191 -33,-37 -65,-69 -88,-116 -48,-97 -42,-208 -67,-316 -22,-92 -45,-189 -96,-263 -20,-29 -57,-107 -91,-105l33 11z"/>
     <path class="fil13" d="M8909 14839c-83,4 -151,99 -221,133 -66,32 -180,79 -182,187 159,4 261,156 274,345 8,111 -19,174 -53,269 -35,99 -15,146 -11,252 7,199 -53,370 -55,566 -3,268 84,555 277,710 219,175 568,139 806,47 248,-97 486,-280 572,-591 58,-208 35,-492 -46,-688 -39,-92 -145,-182 -165,-280 -18,-82 25,-171 -5,-274 -49,-168 -113,-304 -144,-477 -23,-123 -106,-386 -247,-353 -55,188 -746,449 -747,376 -1,-74 16,-145 -35,-200l-18 -22z"/>
     <path class="fil15" d="M9060 14083c-90,2 -162,203 -184,286 -20,73 -16,169 11,239 13,35 43,60 41,102 -2,29 -24,65 -37,90 -9,18 -43,57 -39,78 5,23 59,45 75,57 -16,17 -7,30 -9,49l14 21c1,5 -9,16 -8,25 2,15 12,29 13,51 1,18 -13,47 -5,67 27,69 153,50 204,39 70,-15 141,-48 203,-92 37,-26 72,-55 103,-90 25,-28 35,-77 58,-101 24,-25 61,-18 92,-38 33,-21 54,-50 66,-90 24,-83 -2,-149 -83,-123 -6,-76 9,-128 -31,-198 -45,-77 -100,-162 -160,-224 -54,-54 -109,-88 -177,-107 -32,-8 -134,-43 -155,-30l8 -11z"/>
     <path class="fil12" d="M9296 13894c-212,18 -454,215 -441,484 21,-2 38,-30 58,-37 6,16 13,34 28,41 22,10 35,-15 53,-16 20,-1 22,13 40,21 23,11 31,-4 53,-4 39,1 37,43 63,72 33,37 67,27 102,47 29,16 32,55 38,87 11,68 39,121 76,176 48,73 33,-20 86,-31 34,-7 31,42 73,1 19,-19 45,-58 73,-43 27,15 17,59 57,35 56,-33 93,-170 103,-237 28,-199 -16,-357 -151,-493 -49,-50 -107,-92 -172,-107 -44,-10 -105,-24 -146,7l0 -11 7 8z"/>
     <path class="fil15" d="M9300 17782c28,50 60,56 105,32 -3,-51 -61,-108 -82,-155 -10,-23 -12,-49 -26,-69 -14,-19 -39,-33 -57,-45 -43,-32 -76,-74 -117,-111 -36,-31 -79,-50 -119,-73 -12,-52 -63,-107 -93,-143 -39,-48 -78,-83 -108,-144 -25,-51 -47,-103 -71,-156 -27,-59 -66,-114 -102,-166 -37,-55 -68,-113 -103,-170l-12 -17c13,-9 17,-33 30,-56 85,-149 171,-291 171,-477 0,-139 55,-243 100,-363 47,-125 16,-287 -41,-400 -37,-71 -87,-143 -157,-167l9 -3c-55,2 -115,61 -150,105 -52,65 -76,147 -91,235 -13,74 -9,150 -9,226 0,31 4,67 -3,96 -9,34 -35,67 -50,98 -59,122 -84,247 -91,386 -4,87 -7,177 -4,265 -12,27 -16,75 -24,107 -11,45 -10,50 11,88 36,65 50,147 85,214 96,184 235,340 375,477 22,21 49,41 68,67 10,15 14,30 18,44 5,25 24,46 30,69 6,26 6,60 9,87 5,62 17,135 42,192 13,28 29,49 34,80 6,28 5,61 7,90 2,27 1,167 34,113 20,-34 16,-101 18,-142 0,-12 -1,-63 9,-68 18,-10 32,36 36,50 13,46 13,95 26,141 13,45 33,86 48,130 64,21 15,-129 9,-159 -10,-61 -7,-123 -15,-184 39,46 55,91 70,152 10,42 30,139 70,158 49,25 13,-104 5,-133 -13,-52 -49,-123 -50,-177l0 -25c29,2 83,116 105,145 22,28 104,108 72,17 -20,-59 -55,-113 -76,-170 -12,-30 -43,-138 -25,-165 27,-40 67,52 80,74z"/>
     <path class="fil15" d="M10497 16120c61,72 45,190 45,284 0,112 20,199 61,301 47,116 110,234 135,361 10,52 14,101 19,153 4,34 19,87 9,121l-1 19c-58,17 -122,80 -122,155 0,38 5,80 5,120 0,43 -13,84 -12,125 67,4 31,-187 101,-167 24,52 -43,131 -65,172 -22,41 -55,123 -52,173 78,23 103,-140 153,-167 2,40 5,85 1,125 -4,40 -20,79 -16,120 67,2 81,-193 117,-236 20,54 -16,178 17,218 54,-73 60,-151 78,-242 27,31 20,102 44,140 35,-47 -1,-197 4,-261 7,-79 20,-159 9,-241 -13,-86 -45,-145 -42,-236 4,-96 8,-195 -4,-291 -24,-183 -53,-377 -100,-553 -20,-75 -52,-145 -95,-206 -25,-36 -55,-61 -74,-103 -18,-39 -14,-65 -56,-67 -93,-5 -119,108 -152,178 -3,11 2,0 5,0l-12 5z"/>
     <path class="fil17" d="M8902 14161c-36,0 -65,-20 -87,-57 151,87 311,130 466,198 171,75 281,242 489,160 172,-67 197,-317 128,-488 -72,-176 -271,-310 -427,-349 -242,-59 -684,113 -649,454l80 82z"/>
     <path class="fil12" d="M9271 15141c52,96 60,261 74,376 30,227 53,454 85,680 42,306 85,626 108,931 4,46 -11,167 17,198 28,31 124,11 156,0 74,-24 94,-51 75,-139 -21,-95 -48,-189 -69,-285 -75,-356 -133,-702 -184,-1061 -39,-268 -111,-526 -146,-782 -42,9 -90,63 -129,90l13 -8z"/>
     <path class="fil12" d="M10036 15274c-27,38 -37,99 -62,143 -50,91 -123,159 -192,225 -133,128 -293,210 -462,245 -186,38 -399,63 -550,-97 -13,57 -40,103 -35,164 153,65 282,127 448,127 194,0 388,-90 565,-181 118,-61 241,-121 307,-260 41,-88 40,-257 -33,-324l14 -42z"/>
     <path class="fil12" d="M10180 15939c-2,178 -136,371 -249,466 -142,118 -331,196 -501,224 -165,28 -338,11 -496,-39 -81,-26 -185,-48 -241,-132 0,62 -2,125 1,187 154,66 287,151 453,186 211,44 429,-1 625,-95 187,-90 574,-306 498,-606 -16,-63 -45,-157 -104,-174l14 -17z"/>
     <path class="fil18" d="M5102 19243c126,-12 269,151 381,219 158,97 311,183 484,235 457,137 935,158 1402,279 995,257 2009,721 3029,765 62,2 134,6 180,-21 -178,-134 -446,-187 -651,-279 -283,-128 -561,-263 -839,-399 -493,-240 -1004,-451 -1521,-605 -532,-158 -1060,-289 -1606,-314 -259,-12 -717,-11 -908,120l49 0z"/>
     <path class="fil17" d="M10316 18145c-312,-220 -625,-434 -960,-601 -502,-250 -999,-528 -1504,-772 -819,-394 -2018,-544 -2759,140 -388,358 -555,983 -483,1572 123,1013 1296,1069 1943,1098 748,33 1442,311 2138,619 876,388 1819,672 2749,784 887,107 1735,49 2613,-140 846,-182 1714,-375 2422,-1004 368,-325 908,-937 831,-1557 -124,-1007 -1551,-633 -2072,-459 -1016,340 -2065,633 -3122,679 -277,12 -573,49 -842,0l-954 -359z"/>
     <path class="fil17" d="M15437 17762c0,0 0,0 0,0 157,-45 348,-92 548,-121 -200,29 -391,76 -548,121zm549 -121c1,0 1,0 2,0 -1,0 -1,0 -2,0z"/>
     <path class="fil19" d="M12325 21038c-292,0 -587,-17 -885,-53 -930,-112 -1873,-396 -2749,-784 -193,-85 -386,-169 -580,-245 12,-209 102,-452 156,-642 40,-143 88,-279 144,-410 307,61 614,117 922,167 742,122 1485,202 2231,235 -1,13 -2,26 -3,39 -24,268 -59,534 -132,788 -74,261 -131,543 -265,765 22,-8 48,-10 74,-10 10,0 20,0 30,0 10,1 20,1 30,1 7,0 14,0 20,-1 29,-374 194,-745 252,-1116 23,-150 42,-306 54,-464 235,10 470,14 705,14 43,0 85,0 128,0 8,26 14,53 19,81 16,99 3,181 48,269 53,102 128,182 176,290 65,143 92,307 157,449 58,128 145,274 223,387 73,104 171,154 282,162 1,0 2,0 4,0l4 6c-349,47 -696,72 -1045,72l0 0zm1819 -213l269 -308 -628 -752 -408 -19c-99,-87 -198,-175 -296,-264 -65,-58 -131,-115 -197,-172 325,-19 650,-62 966,-158 91,-28 180,-61 266,-99 123,202 256,410 404,579 197,226 364,485 561,709 20,21 41,41 64,58l6 168c-331,108 -670,185 -1007,258l0 0zm1939 -687l-189 -233 -265 -13c-25,-44 -55,-84 -83,-123 -109,-151 -197,-306 -330,-429 -207,-193 -420,-373 -632,-558 121,-87 239,-186 352,-294 191,-184 417,-430 501,-726 157,-45 348,-92 548,-121 0,0 1,0 1,0 1,0 1,0 2,0 126,-19 255,-30 381,-30 458,0 873,151 937,673 5,40 7,80 7,120 1,578 -494,1132 -838,1437 -126,112 -257,210 -392,297z"/>
     <path class="fil19" d="M8016 19919c-475,-180 -956,-314 -1463,-337 -647,-29 -1820,-85 -1943,-1098l0 0c-8,-67 -13,-134 -15,-202 212,-124 445,-171 686,-171 450,0 924,166 1322,306 376,132 743,262 1129,346 212,46 425,91 638,133 -123,327 -289,677 -354,1023z"/>
     <path class="fil15" d="M13918 17830c-74,23 -308,171 -307,295 1,79 85,150 120,203 43,64 72,145 140,171 134,49 254,-136 278,-295 28,-190 -70,-332 -225,-352l-6 -22z"/>
     <path class="fil20" d="M14004 17212c-147,159 -379,138 -561,149 -8,114 309,276 396,261 106,-17 173,-282 165,-410z"/>
     <path class="fil20" d="M13056 14870c-54,114 -104,215 -87,357 18,-15 46,-17 65,-47 21,61 4,240 110,127 61,90 125,47 190,-8 23,-19 32,-64 52,-84 10,-9 71,-27 88,-39 105,-75 208,-277 186,-424 -87,8 -202,190 -304,227 -91,33 -303,47 -289,-109l-11 0z"/>
     <path class="fil18" d="M8110 20020c-33,-16 -68,-33 -105,-40 4,-20 7,-41 11,-61 32,12 63,25 95,37 -1,22 -1,43 -1,64z"/>
     <path class="fil21" d="M9483 17611c-7,-5 -15,-9 -23,-13 16,-4 32,-8 48,-10 -8,8 -16,15 -25,23z"/>
     <path class="fil19" d="M8411 18904c-14,-2 -27,-5 -41,-8 3,-7 6,-15 8,-23 130,-350 338,-657 579,-906 126,-130 324,-318 503,-369 8,4 16,8 23,13 -119,106 -260,173 -379,284 -193,181 -356,389 -498,626 -74,124 -139,251 -195,383z"/>
     <path class="fil22" d="M8111 19956c-32,-12 -64,-25 -95,-37 65,-346 231,-696 354,-1023 14,3 27,6 41,8 -56,131 -104,267 -144,410 -54,190 -144,433 -156,642z"/>
     <path class="fil21" d="M9508 17588c1,-1 2,-2 2,-3l24 0c-9,1 -17,2 -26,3zm2 -3l-1 0c1,-1 3,-2 4,-2 -1,1 -2,1 -3,2zm3 -2c5,-5 9,-9 14,-14 -3,11 -8,11 -14,14z"/>
     <path class="fil17" d="M11583 18529c-5,0 -10,0 -16,0 0,-2 0,-4 1,-5 4,-7 8,-10 12,-10 6,0 11,6 16,15 -4,0 -8,0 -13,0z"/>
     <path class="fil19" d="M11624 19308c-20,-1 -40,-2 -60,-2 14,-160 24,-313 18,-475 -3,-99 -20,-204 -15,-302 6,0 11,0 16,0 5,0 9,0 13,0 21,37 36,136 38,165 10,201 5,409 -10,614z"/>
     <path class="fil22" d="M11164 20898c134,-222 191,-504 265,-765 73,-254 108,-520 132,-788 1,-13 2,-26 3,-39 20,0 40,1 60,2 -12,158 -31,315 -54,464 -58,371 -223,742 -252,1116 -6,1 -13,1 -20,1 -10,0 -20,0 -30,-1 -10,0 -20,0 -30,0 -26,0 -52,2 -74,10z"/>
     <path class="fil23" d="M12457 19322c-72,-249 -265,-435 -354,-673l533 670c-41,1 -82,2 -123,2 -18,1 -37,1 -56,1z"/>
     <path class="fil24" d="M13366 20960c-2,0 -3,0 -4,0 -111,-8 -209,-58 -282,-162 -78,-113 -165,-259 -223,-387 -65,-142 -92,-306 -157,-449 -48,-108 -123,-188 -176,-290 -45,-88 -32,-170 -48,-269 -5,-28 -11,-55 -19,-81 19,0 38,0 56,-1 41,0 82,-1 123,-2l252 318 -38 43 32 38 0 0 155 185 25 693 304 364z"/>
     <path class="fil23" d="M12815 19313l-161 -202c76,67 153,133 230,199 -23,1 -46,2 -69,3z"/>
     <path class="fil24" d="M13377 19746l-169 -8 -168 -202 0 0 -32 -37 -23 27 -170 -213c23,-1 46,-2 69,-3 66,57 132,114 197,172 98,89 197,177 296,264z"/>
     <path class="fil15" d="M11858 17725c-73,23 -308,171 -307,295 1,79 85,151 120,203 44,64 72,145 140,171 134,49 255,-136 278,-295 29,-190 -70,-332 -224,-352l-7 -22z"/>
     <path class="fil23" d="M14116 19053c-18,-30 -36,-60 -53,-90 -80,-133 -302,-417 -313,-605 34,58 63,119 121,141 15,5 30,8 45,8 24,0 47,-7 69,-20l352 454c-72,41 -145,78 -221,112z"/>
     <path class="fil24" d="M15145 20399c-23,-17 -44,-37 -64,-58 -197,-224 -364,-483 -561,-709 -148,-169 -281,-377 -404,-579 76,-34 149,-71 221,-112l644 830 -38 45 32 40 0 0 158 193 12 350z"/>
     <path class="fil25" d="M13916 18507c-15,0 -30,-3 -45,-8 -58,-22 -87,-83 -121,-141 -1,-12 -1,-23 0,-34l33 40c39,0 77,4 115,11l87 112c-22,13 -45,20 -69,20z"/>
     <path class="fil23" d="M14465 18864l-306 -394c140,74 272,179 391,283 11,10 22,20 34,29 -40,29 -79,56 -119,82z"/>
     <path class="fil24" d="M15629 19892l-322 -16 -171 -209 0 0 -33 -40 -24 29 -614 -792c40,-26 79,-53 119,-82 212,185 424,365 632,558 133,123 221,278 330,429 28,39 58,79 83,123z"/>
     <path class="fil20" d="M13872 18304c5,-99 21,70 0,0 -83,-277 -232,-284 -444,-296 -207,-12 -414,-28 -616,-87 -147,-43 -315,-169 -466,-95 -69,33 -124,96 -191,133 -46,26 -463,549 -511,569 915,35 1626,-98 2228,-224z"/>
     <path class="fil15" d="M13715 14864c4,-3 -1,-18 6,-8 -2,113 4,221 21,325 -51,28 -94,79 -144,111 -58,39 -120,52 -185,59 -69,7 -107,24 -124,-57 -11,-52 -18,-115 -28,-166 101,-9 208,-78 291,-147 31,-25 149,-210 174,-117l-11 0z"/>
     <path class="fil26" d="M13180 15280c-150,-104 -322,301 -385,427 -76,149 -151,273 -265,382 -113,108 -190,259 -97,437 163,314 328,-205 383,-372 65,-198 128,-392 201,-585 33,-87 63,-279 146,-310l17 21z"/>
     <path class="fil15" d="M13676 16480c31,-13 100,-115 123,-112 24,4 74,168 88,195 46,90 98,184 153,264 34,50 94,113 101,180 11,110 -43,283 -69,389 -33,132 -78,258 -117,387 -85,5 -202,-29 -274,34 -91,79 -81,177 0,257 81,80 208,204 308,127 153,-118 251,-266 337,-458 47,-106 98,-208 144,-313 43,-95 102,-193 138,-291 25,-70 -5,-139 -19,-215 -21,-121 -51,-235 -90,-347 -72,-205 -144,-407 -205,-619 -46,-158 -111,-359 -204,-483 -95,-124 -257,-164 -386,-121 -171,57 -389,335 -443,523 -52,186 64,386 183,534 32,39 260,147 265,69l-33 0z"/>
     <path class="fil27" d="M13255 15210c49,198 483,75 489,-144 67,-5 165,89 216,137 71,66 131,162 163,264 -350,-275 -869,220 -787,706 25,148 223,229 334,203 64,-15 64,-69 115,-10 37,42 69,116 98,169 54,101 116,191 172,286 24,39 51,83 51,131 1,76 -39,170 -62,241 -29,93 -49,190 -70,286 -20,93 -3,196 -24,284 -6,28 -27,50 -38,77 -12,31 -10,68 -24,97 -21,47 -65,62 -106,104 -78,80 -162,94 -262,90 -148,-6 -297,-26 -444,-49 -228,-35 -431,-84 -628,-236 -44,-33 -124,-71 -151,-125 -31,-63 7,-134 34,-192 94,-197 157,-352 173,-583 8,-118 36,-211 80,-314 41,-95 31,-183 32,-291 1,-113 35,-204 101,-284 59,-72 57,-114 74,-217 25,-158 103,-336 200,-442 41,-44 122,-114 172,-139 26,-13 16,11 42,-2 16,-8 52,-21 39,-26l11 -21z"/>
     <path class="fil20" d="M13289 15301c-362,379 -434,1087 -574,1615 -59,223 -139,454 -219,663 -29,78 -93,169 -63,239 15,37 143,138 175,136 7,0 22,8 32,9 9,-202 69,-388 113,-584 58,-261 102,-526 159,-789 56,-255 117,-514 202,-756 60,-171 113,-370 209,-512 -7,-19 -19,-19 -34,-21z"/>
     <path class="fil20" d="M13978 16685c-118,43 -220,123 -351,135 -146,12 -292,-11 -433,-42 -181,-40 -412,-71 -559,-217 -35,61 -83,102 -87,183 41,-68 236,133 295,172 153,101 316,135 485,153 236,26 548,45 758,-84 16,-115 -70,-218 -133,-290l25 -10z"/>
     <path class="fil20" d="M13364 15821c-169,0 -365,-67 -504,-178 -33,55 -47,127 -68,195 83,-24 262,155 356,178 59,16 149,34 183,-18 19,-30 33,-142 50,-187l-17 10z"/>
     <path class="fil28" d="M13272 15197c-51,-37 -206,108 -249,149 -63,60 -151,193 -150,296 57,-56 100,-137 158,-196 53,-53 111,-97 169,-135 123,175 628,50 542,-244 -31,43 -42,113 -87,155 -44,40 -105,55 -156,68 -62,17 -239,44 -236,-88l9 -5z"/>
     <path class="fil15" d="M13760 14479c-32,-5 -52,41 -62,73l-2 -21c-32,-219 -215,-507 -391,-555l12 0c-206,-24 -206,409 -261,537 -13,29 -61,73 -62,104 -4,92 44,48 68,104 50,113 8,185 8,295 0,229 327,146 440,73 88,-57 144,-149 172,-257l15 -10c72,-42 96,-145 97,-239 0,-38 4,-98 -34,-104z"/>
     <path class="fil17" d="M13028 14026c52,-162 133,-295 260,-384 201,-141 486,-127 679,30 215,176 300,527 217,822 -47,169 -136,391 -276,467 -99,54 -150,7 -187,-106 110,72 178,-112 168,-225 -9,-100 -56,-198 -92,-285 -35,-84 -81,-155 -145,-204 -114,-87 -222,-163 -359,-172 -53,-4 -111,-6 -160,17 -37,17 -68,45 -106,61l5 -5 -4 -16z"/>
     <path class="fil20" d="M13121 14208c-64,-18 -120,-150 -59,-212 109,-111 280,-75 403,-27 203,78 433,319 496,576 29,119 56,299 -54,367 -91,56 -155,-39 -235,-65 63,-62 113,-90 117,-202 2,-36 2,-91 -16,-120 -29,-47 -43,-3 -63,31 -11,-167 -120,-360 -228,-457 -61,-55 -134,-90 -210,-83 -102,8 -111,96 -139,187l-12 5z"/>
     <polygon class="fil29" points="15333,19983 15233,20095 11644,15470 11743,15357 "/>
     <path class="fil27" d="M15307 19876l-204 -249 -160 189 190 233 25 722 326 400c351,-154 692,-326 1023,-514l-613 -752 -587 -29z"/>
     <path class="fil30" d="M15958 20949l-937 -1148 72 -85 965 1183c-33,17 -67,33 -100,50z"/>
     <path class="fil31" d="M14975 19856l-32 -40 32 40 0 0zm161 -189l-33 -40 33 40 0 0z"/>
     <polygon class="fil30" points="14975,19856 14943,19816 15103,19627 15136,19667 15093,19716 15061,19677 14989,19762 15021,19801 "/>
     <polygon class="fil32" points="15021,19801 14989,19762 15061,19677 15093,19716 "/>
     <path class="fil33" d="M12332 16054c-152,38 -224,188 -172,331 37,97 141,278 224,312 43,17 100,14 138,-24l113 -196c24,-93 -42,-81 -65,-139 -3,-8 21,-58 4,-91 -13,-29 -51,-43 -80,-45 11,-96 -156,-266 -162,-148z"/>
     <path class="fil20" d="M11851 18522c4,-96 -33,-226 -53,-292 -82,-267 -228,-273 -437,-285 -203,-12 -407,-26 -605,-83 -145,-42 -310,-163 -459,-92 -67,32 -121,92 -187,129 -46,24 -252,-115 -300,-96 667,478 1448,839 2041,719z"/>
     <path class="fil15" d="M11643 14928c4,-3 0,-16 6,-7 -2,108 5,212 21,312 -50,26 -93,75 -141,106 -58,37 -119,50 -183,57 -67,6 -105,22 -122,-55 -11,-50 -18,-111 -27,-159 100,-9 205,-75 286,-141 30,-24 147,-201 171,-113l-11 0z"/>
     <path class="fil26" d="M11117 15328c-147,-100 -317,289 -378,409 -75,143 -149,262 -261,367 -111,103 -186,249 -95,419 160,301 323,-197 376,-357 64,-190 126,-376 199,-561 32,-83 61,-268 142,-297l17 20z"/>
     <path class="fil15" d="M11604 16479c31,-13 100,-111 122,-107 24,4 73,160 86,187 46,86 96,176 151,253 33,48 92,108 99,173 11,105 -42,271 -68,373 -32,127 -76,248 -115,371 -83,5 -199,-27 -269,33 -89,76 -79,170 0,247 80,76 205,195 303,121 150,-113 246,-254 331,-439 46,-101 96,-200 142,-300 41,-91 100,-186 135,-280 25,-67 -5,-133 -18,-206 -21,-116 -51,-225 -90,-333 -70,-197 -140,-391 -201,-594 -45,-151 -109,-344 -201,-463 -92,-119 -251,-157 -379,-116 -168,54 -382,321 -435,501 -52,179 62,370 180,513 31,37 256,141 261,66l-34 0z"/>
     <path class="fil27" d="M11191 15261c48,190 475,72 481,-139 66,-4 161,86 212,132 69,63 129,155 160,252 -344,-263 -854,212 -773,678 24,143 219,220 328,195 63,-14 64,-65 113,-10 37,41 68,112 96,163 53,97 114,183 170,275 23,37 50,79 50,125 0,73 -39,163 -61,231 -29,90 -49,182 -69,275 -19,89 -3,187 -23,272 -6,27 -27,48 -38,73 -12,30 -10,66 -23,94 -21,45 -64,59 -105,100 -77,76 -159,90 -257,86 -146,-5 -293,-24 -437,-47 -225,-34 -424,-81 -618,-226 -43,-32 -121,-68 -147,-120 -32,-61 6,-129 33,-184 92,-189 154,-338 169,-560 8,-113 36,-202 79,-301 41,-91 31,-176 32,-279 1,-109 34,-197 99,-273 58,-69 57,-109 73,-208 25,-152 101,-322 197,-424 40,-43 119,-110 168,-133 26,-13 16,10 41,-2 17,-8 52,-20 39,-25l11 -20z"/>
     <path class="fil20" d="M11224 15347c-356,365 -426,1044 -564,1550 -58,214 -136,436 -215,637 -29,75 -92,162 -62,229 15,35 140,132 171,130 8,0 23,8 32,9 9,-194 68,-373 111,-560 58,-251 101,-505 157,-757 55,-245 115,-494 198,-726 60,-164 111,-355 206,-492 -7,-17 -19,-17 -34,-20z"/>
     <path class="fil20" d="M11902 16675c-116,42 -216,119 -345,130 -144,12 -287,-10 -426,-40 -178,-38 -405,-69 -550,-208 -34,58 -81,98 -85,175 40,-65 232,128 290,165 150,97 311,130 477,148 232,24 538,42 745,-82 15,-110 -68,-209 -131,-278l25 -10z"/>
     <path class="fil20" d="M11299 15847c-167,0 -360,-65 -496,-171 -33,53 -46,122 -67,187 81,-23 258,148 350,171 58,15 146,33 180,-18 18,-28 32,-136 49,-179l-16 10z"/>
     <path class="fil28" d="M11208 15248c-51,-36 -203,103 -245,143 -62,57 -148,185 -147,284 55,-53 98,-132 155,-188 52,-51 109,-93 166,-130 121,169 617,49 533,-234 -31,42 -42,108 -86,149 -43,38 -103,52 -153,65 -61,16 -235,43 -232,-84l9 -5z"/>
     <path class="fil15" d="M11687 14559c-31,-5 -50,40 -61,70l-2 -20c-31,-210 -211,-486 -383,-533l11 0c-202,-22 -203,392 -257,516 -12,27 -59,69 -60,100 -4,88 42,46 67,99 48,109 6,178 6,284 1,219 323,139 434,69 87,-54 141,-143 169,-246l14 -10c72,-40 95,-139 95,-229 0,-37 5,-94 -33,-100z"/>
     <path class="fil17" d="M10968 14124c52,-155 131,-283 255,-368 198,-135 478,-122 668,29 212,168 295,505 214,789 -47,162 -135,374 -272,448 -97,52 -148,6 -183,-102 107,69 175,-108 164,-216 -8,-96 -55,-190 -91,-274 -34,-81 -79,-148 -142,-196 -112,-83 -218,-155 -353,-164 -51,-4 -109,-6 -157,16 -36,16 -67,43 -104,59l5 -6 -4 -15z"/>
     <path class="fil20" d="M11059 14299c-63,-18 -118,-144 -58,-203 107,-107 275,-72 396,-26 200,74 426,305 488,553 28,114 56,286 -53,351 -89,54 -152,-37 -231,-62 62,-59 111,-87 115,-193 1,-35 2,-88 -15,-115 -30,-46 -43,-3 -63,29 -10,-160 -117,-345 -224,-439 -60,-53 -131,-86 -206,-79 -100,8 -110,92 -137,179l-12 5z"/>
     <polygon class="fil29" points="13234,19840 13136,19948 9607,15510 9705,15402 "/>
     <polygon class="fil27" points="13208,19738 13008,19499 12850,19680 13037,19903 13062,20596 13690,21347 14413,20517 13785,19765 "/>
     <polygon class="fil34" points="14018,20970 14018,20970 14089,20889 14089,20889 "/>
     <polygon class="fil30" points="14018,20970 12927,19665 12998,19584 14089,20889 "/>
     <polygon class="fil35" points="12896,19628 12896,19628 12967,19546 12967,19546 "/>
     <polygon class="fil31" points="12882,19718 12850,19680 12882,19718 "/>
     <polygon class="fil30" points="12882,19718 12850,19680 12896,19628 12927,19665 "/>
     <polygon class="fil31" points="13040,19536 13008,19499 13040,19536 "/>
     <polygon class="fil30" points="12998,19584 12967,19546 13008,19499 13040,19536 "/>
     <polygon class="fil32" points="12927,19665 12896,19628 12967,19546 12998,19584 "/>
     <path class="fil15" d="M10283 16071c-149,36 -220,180 -168,317 35,93 138,267 220,299 42,16 98,14 135,-23l111 -188c24,-89 -41,-78 -63,-133 -4,-8 20,-55 4,-88 -14,-27 -51,-41 -80,-43 12,-92 -152,-255 -159,-141z"/>
     <path class="fil10" d="M13398 20918c-577,248 -1261,68 -1851,-23 -260,-40 -515,-107 -773,-159 -165,-34 -226,-26 -376,8 -152,35 -214,-24 -347,-79 -113,-48 -244,-60 -362,-81 -254,-44 -524,-50 -781,-57 -290,-9 -529,224 -819,266 -405,59 -831,146 -1231,249 343,-3 682,18 1025,18 348,0 652,-66 992,-125 269,-46 544,-114 815,-39 260,71 485,202 756,234 278,34 545,-19 807,103 266,123 521,161 807,147 245,-11 493,-55 735,-85 149,-19 388,-29 502,-160 49,-56 79,-117 71,-200l30 -17z"/>
     <path class="fil36" d="M12614 21078c41,-87 7,-167 -76,-131 5,-62 7,-214 -28,-257 -55,-65 -160,-58 -182,27 -33,-79 -106,-95 -147,-19 -141,-107 -147,-129 -295,-46 -104,58 -174,159 -309,175 -50,-89 -150,-98 -199,-5 -78,-100 -214,14 -302,24 -149,15 -286,-41 -435,-32 1,9 1,39 0,48 193,26 382,29 575,74 145,33 297,6 434,35 146,31 215,170 392,138 144,-25 197,-23 345,8 -48,35 -129,49 -179,81 173,54 376,39 542,57 190,21 426,-42 599,-143 -253,5 -524,31 -750,-70l15 36z"/>
     <path class="fil36" d="M10609 21664c39,-70 -76,-402 -136,-463 -97,-98 -176,-70 -276,-18 -11,6 -70,60 -86,71 -39,28 -90,56 -121,89 -107,-300 -422,-115 -546,70 -49,-44 -165,-41 -222,-51 -81,-15 -138,-54 -223,-20 -105,-197 -331,42 -471,73 -218,49 -434,75 -660,70 241,100 561,37 814,37 159,0 324,-17 480,14 108,20 98,57 150,92 8,6 12,54 40,73 24,15 96,-3 125,-2 89,4 151,-6 224,35 58,34 68,102 153,129 96,32 233,27 333,15 51,-6 77,-67 136,-52 35,10 77,105 123,127 203,96 443,-98 634,-152 353,-100 811,162 1141,-61 -325,-186 -882,-82 -1245,-75 14,-15 27,-38 38,-50 -106,-63 -326,-34 -390,49l-15 0z"/>
    </g>
    <g>
     <path class="fil4" d="M14882 21414c3,-123 -3,-231 -25,-301 -92,-295 331,-683 179,-908 -154,-225 75,-459 387,-708 143,-115 180,-183 176,-222 -2,-36 70,-66 168,-67 84,-2 184,0 288,8 270,23 127,-70 143,-231 15,-162 234,-82 433,-55 34,5 61,4 83,0 572,-99 -285,-243 707,-276 637,-174 496,-80 1603,41 -1146,1195 -2559,2134 -4142,2719z"/>
     <path class="fil37" d="M15271 21261c31,-269 -133,-487 39,-664 229,-237 31,-489 260,-763 230,-275 16,-297 628,-505 494,-169 558,-190 363,-399 10,-1 18,-4 27,-7l0 1 1 0 1 0 0 0 1 0 1 0 0 0 1 0 1 0 0 0 0 0 1 1 1 0 0 0 1 0 2 0 0 0 1 0 1 1 0 0 1 0 1 0 0 0 0 0 1 0 1 0 0 0 1 0 1 1 0 0 1 0 1 0 0 0 1 0 1 0 1 0 0 0 1 0 0 0 1 1 0 0 1 0 1 0 2 0 1 0 1 0 0 1 1 0 1 0 0 0 0 0 1 0 1 0 0 0 1 0 2 1 1 0 1 0 0 0 1 0 1 0 0 0c34,5 61,4 83,0 8,-1 15,-2 23,-4l5 -1c6,-1 10,-2 15,-3 484,-99 -301,-236 664,-268l10 -3c12,3 23,5 35,8 -327,1 -408,195 -436,286 -30,98 -99,153 -237,203 -137,49 -175,131 -344,186 -168,55 -420,74 -413,247 8,173 31,201 -60,277 -92,77 -330,124 -314,352 15,227 -237,400 -253,639 -11,179 25,205 21,345 -53,23 -106,45 -159,67z"/>
     <path class="fil3" d="M17636 19920c66,-73 113,-105 119,-145 1,-10 1,-20 -3,-31 -20,-64 65,-92 117,-106 198,-55 113,-141 240,-141 15,0 30,5 44,13 -168,142 -341,279 -517,410z"/>
     <path class="fil4" d="M15880 20988c16,-166 44,-339 98,-483 9,-25 19,-49 30,-72 190,-395 276,-482 387,-473 113,9 139,67 235,35 97,-33 189,45 235,153 27,63 67,151 103,231 -350,223 -713,426 -1088,609z"/>
     <path class="fil3" d="M14915 21402c-76,-13 -152,-27 -210,-43 -161,-44 -183,-57 -356,-16 -174,40 -112,89 -265,95 -145,6 -262,150 -206,293 353,-93 699,-203 1037,-329z"/>
     <path class="fil4" d="M14437 21539l-6 30c47,-15 95,-30 142,-46l17 -86 -153 102z"/>
    </g>
   </g>
   <g>
    <path class="fil38" d="M3339 12078c-2,10 -4,21 -7,31 -29,121 -131,212 -252,240 -52,11 -105,22 -158,32 -40,8 -80,14 -120,20 -379,58 -764,62 -1142,12 -207,-27 -412,-71 -614,-131 -95,-27 -188,-59 -281,-94 -52,-19 -101,-50 -137,-93 -38,-45 -64,-100 -74,-159 -17,-98 10,-199 74,-276 6,-46 48,-79 94,-74 47,4 81,44 78,91 21,-29 56,-45 92,-43 36,1 69,21 87,53 -101,-216 -16,-473 195,-583 211,-112 471,-37 592,168 59,-63 157,-70 225,-16 -1,-105 75,-195 178,-212 104,-17 205,45 237,145 59,-52 143,-63 213,-28 70,34 112,108 106,186 43,-95 139,-155 243,-151 104,3 196,69 232,167 36,97 9,207 -67,277 26,-24 64,-31 97,-18 32,13 55,44 57,80 2,35 -17,68 -48,85 78,76 115,184 100,291z"/>
    <path class="fil39" d="M3337 12117c-1,11 -3,21 -6,31 -28,117 -126,204 -244,231 -50,11 -101,22 -152,31 -39,7 -77,14 -116,20 -366,56 -737,59 -1103,11 -199,-27 -397,-69 -592,-126 -90,-27 -179,-56 -267,-89 -57,-21 -109,-55 -145,-103 -32,-41 -54,-90 -63,-143 -17,-94 9,-192 71,-266 6,-45 46,-76 91,-72 45,4 78,43 75,88 21,-28 54,-43 89,-41 35,1 67,21 84,51 -97,-208 -15,-456 189,-563 203,-107 454,-36 571,162 57,-60 152,-67 217,-15 -1,-101 72,-188 172,-205 101,-16 198,43 229,140 57,-50 138,-61 205,-27 68,33 109,104 103,180 41,-92 134,-149 234,-146 100,3 189,67 224,161 35,94 9,200 -64,268 25,-24 61,-30 93,-18 31,13 53,43 55,77 2,34 -16,67 -46,83 75,73 111,177 96,280z"/>
    <path class="fil40" d="M2935 12410c-603,111 -1223,78 -1811,-95 -19,-32 -21,-71 -4,-106 24,-47 78,-70 129,-55 -104,-133 -103,-319 1,-450 3,-67 56,-122 122,-126 68,-5 127,42 139,108 9,-29 31,-51 59,-61 28,-10 59,-6 84,10 -12,-89 48,-172 137,-190 89,-16 175,38 198,125 1,-33 28,-60 61,-62 33,-2 62,21 68,53 66,-109 208,-148 321,-87 113,60 159,199 105,315 166,-60 351,4 445,153 95,150 72,344 -54,468z"/>
    <path class="fil39" d="M2868 12313c4,45 -15,88 -49,117 -366,56 -737,59 -1103,11 -30,-29 -54,-65 -71,-105 -34,-83 -29,-177 12,-256 -25,-39 -19,-91 15,-124 32,-32 84,-37 123,-10 -32,-60 -25,-133 19,-184 44,-52 115,-71 179,-48 64,22 107,82 109,150 11,-39 49,-63 89,-56 39,7 67,42 64,82 34,-91 118,-154 215,-162 98,-6 190,45 236,131 46,85 38,191 -22,268 22,-12 49,-11 69,4 20,14 30,38 26,63 51,19 85,65 89,119z"/>
    <path class="fil41" d="M1467 11492c-1,-33 9,-65 30,-93 22,-27 52,-44 84,-51 1,33 -9,66 -31,93 -22,28 -51,44 -83,51z"/>
    <path class="fil41" d="M1439 11444c-26,-19 -47,-46 -56,-80 -9,-34 -4,-68 9,-97 27,18 47,46 56,80 9,34 5,68 -9,97z"/>
    <path class="fil41" d="M2978 11793c0,-32 9,-65 31,-93 22,-27 52,-44 84,-51 0,33 -9,66 -31,93 -22,28 -52,44 -84,51z"/>
    <path class="fil41" d="M2951 11745c-27,-19 -47,-46 -56,-80 -9,-34 -5,-68 9,-97 26,19 47,46 56,80 9,34 4,68 -9,97z"/>
    <path class="fil41" d="M2144 12204c-25,-20 -44,-49 -50,-83 -7,-35 0,-68 15,-97 25,21 44,49 51,84 7,34 0,68 -16,96z"/>
    <path class="fil41" d="M2054 12199c-21,0 -42,-4 -61,-14 -32,-15 -55,-40 -68,-70 11,-3 24,-5 36,-5 20,0 41,5 61,14 31,15 54,41 68,70 -12,3 -24,5 -36,5z"/>
    <path class="fil41" d="M2550 12032c-26,-21 -44,-49 -51,-84 -7,-34 0,-68 15,-96 26,20 44,49 51,83 7,35 0,68 -15,97z"/>
    <path class="fil41" d="M2459 12027c-21,0 -41,-5 -61,-14 -32,-15 -55,-41 -68,-70 12,-3 24,-5 36,-5 21,0 41,4 61,14 32,15 55,40 68,70 -12,3 -24,5 -36,5z"/>
    <path class="fil42" d="M2408 12298c19,0 34,-16 34,-35 0,-18 -15,-34 -34,-34 -19,0 -34,16 -34,34 0,19 15,35 34,35zm-34 -205c-24,0 -44,20 -44,44 0,24 20,44 44,44 24,0 44,-20 44,-44 0,-24 -20,-44 -44,-44zm-71 163c0,23 -19,42 -42,42 -22,0 -41,-19 -41,-42 0,-22 19,-41 41,-41 23,0 42,19 42,41z"/>
    <path class="fil42" d="M1260 11553c13,0 24,-10 24,-23 0,-14 -11,-24 -24,-24 -13,0 -24,10 -24,24 0,13 11,23 24,23zm-24 -142c-17,0 -30,13 -30,30 0,17 13,31 30,31 17,0 31,-14 31,-31 0,-17 -14,-30 -31,-30zm-49 114c0,15 -13,28 -29,28 -16,0 -29,-13 -29,-28 0,-16 13,-29 29,-29 16,0 29,13 29,29z"/>
    <path class="fil42" d="M2777 11654c14,0 24,-11 24,-24 0,-13 -10,-24 -24,-24 -13,0 -23,11 -23,24 0,13 10,24 23,24zm-23 -143c-17,0 -31,14 -31,31 0,17 14,31 31,31 17,0 30,-14 30,-31 0,-17 -13,-31 -30,-31zm-50 114c0,16 -13,29 -29,29 -16,0 -29,-13 -29,-29 0,-16 13,-29 29,-29 16,0 29,13 29,29z"/>
   </g>
   <g>
    <path class="fil38" d="M13858 11528c-1,11 -3,21 -6,32 -29,121 -131,212 -252,239 -53,12 -105,23 -158,32 -40,8 -80,14 -120,21 -379,57 -764,61 -1142,11 -207,-27 -412,-71 -614,-130 -95,-28 -188,-59 -281,-94 -52,-20 -101,-51 -137,-93 -38,-46 -64,-100 -74,-160 -17,-98 9,-199 74,-275 6,-47 47,-80 94,-75 47,4 81,45 77,91 22,-29 57,-45 93,-43 36,2 69,22 87,53 -101,-215 -16,-472 195,-583 211,-111 471,-37 591,168 60,-63 158,-69 226,-15 -2,-105 75,-196 178,-213 104,-16 205,45 237,145 59,-51 142,-63 212,-28 71,34 113,108 107,186 43,-95 139,-154 243,-151 104,4 195,70 232,167 35,98 9,207 -67,278 26,-25 63,-32 96,-19 33,13 56,45 58,80 2,35 -17,69 -48,86 78,75 115,183 99,290z"/>
    <path class="fil39" d="M13857 11568c-2,10 -4,20 -6,30 -28,117 -127,205 -244,231 -50,12 -101,22 -152,31 -39,8 -77,14 -116,20 -366,56 -738,59 -1103,11 -200,-26 -397,-68 -592,-126 -90,-26 -179,-56 -267,-89 -57,-21 -109,-55 -146,-102 -32,-42 -53,-91 -62,-143 -17,-95 9,-193 71,-266 6,-45 46,-77 91,-73 45,5 78,44 75,89 21,-28 54,-44 89,-42 35,2 67,21 84,51 -98,-208 -15,-456 188,-563 204,-107 455,-35 571,163 58,-61 152,-67 218,-15 -2,-102 72,-189 172,-205 100,-17 197,43 229,140 56,-50 137,-61 205,-28 68,33 109,105 103,180 41,-92 134,-149 234,-146 100,4 189,67 224,162 34,94 9,199 -64,267 25,-23 61,-30 93,-17 31,12 53,42 55,77 2,34 -16,66 -46,82 75,73 111,177 96,281z"/>
    <path class="fil40" d="M13455 11860c-603,111 -1224,79 -1811,-95 -19,-31 -21,-71 -4,-105 24,-48 78,-71 128,-56 -103,-132 -103,-319 2,-450 3,-67 56,-121 122,-126 67,-5 127,42 139,108 9,-28 31,-51 58,-61 29,-10 60,-6 85,11 -12,-90 48,-173 137,-190 89,-17 175,37 198,124 1,-32 27,-60 60,-62 33,-2 63,21 69,54 66,-110 208,-148 321,-88 113,61 159,200 105,316 166,-60 351,3 445,152 95,150 72,345 -54,468z"/>
    <path class="fil39" d="M13388 11763c4,45 -15,89 -49,117 -366,56 -738,59 -1103,11 -30,-29 -55,-64 -71,-104 -34,-83 -30,-178 12,-257 -25,-39 -19,-90 14,-123 33,-33 85,-37 124,-11 -32,-59 -25,-132 19,-184 44,-51 115,-71 179,-48 64,23 107,83 109,150 11,-38 49,-62 88,-55 40,6 68,42 65,81 34,-91 118,-154 215,-161 98,-7 190,44 236,130 46,86 38,191 -22,268 22,-12 49,-10 68,4 21,14 31,39 27,63 51,19 85,66 89,119z"/>
    <path class="fil41" d="M11987 10942c-1,-32 8,-65 30,-92 22,-28 52,-45 84,-51 1,32 -9,65 -31,93 -22,27 -52,44 -83,50z"/>
    <path class="fil41" d="M11959 10894c-27,-18 -47,-46 -56,-80 -9,-34 -5,-68 9,-97 27,19 47,46 56,80 9,34 5,68 -9,97z"/>
    <path class="fil41" d="M13498 11243c0,-32 9,-65 31,-92 22,-28 52,-45 84,-51 0,32 -9,65 -31,93 -22,27 -52,44 -84,50z"/>
    <path class="fil41" d="M13471 11195c-27,-18 -47,-46 -56,-80 -9,-34 -5,-67 9,-97 26,19 47,46 56,80 9,34 4,68 -9,97z"/>
    <path class="fil41" d="M12664 11655c-25,-21 -44,-49 -50,-84 -7,-34 -1,-68 15,-96 25,20 44,49 51,83 7,35 0,68 -16,97z"/>
    <path class="fil41" d="M12573 11649c-20,0 -41,-4 -60,-14 -32,-15 -55,-40 -69,-70 12,-3 24,-4 37,-4 20,0 41,4 61,14 31,15 54,40 68,70 -12,3 -24,4 -37,4z"/>
    <path class="fil41" d="M13069 11482c-25,-20 -44,-49 -50,-83 -7,-35 0,-68 15,-97 25,21 44,49 51,84 7,34 0,68 -16,96z"/>
    <path class="fil41" d="M12979 11477c-21,0 -42,-4 -61,-14 -32,-15 -55,-41 -68,-70 11,-3 24,-5 36,-5 20,0 41,5 61,14 31,15 54,41 68,70 -12,3 -24,5 -36,5z"/>
    <path class="fil42" d="M12928 11748c19,0 34,-15 34,-34 0,-19 -15,-34 -34,-34 -19,0 -34,15 -34,34 0,19 15,34 34,34zm-34 -204c-25,0 -44,19 -44,43 0,25 19,44 44,44 24,0 43,-19 43,-44 1,-24 -19,-43 -43,-43zm-71 163c0,22 -19,41 -42,41 -22,0 -41,-19 -41,-41 0,-23 19,-42 41,-42 23,0 42,19 42,42z"/>
    <path class="fil42" d="M11780 11004c13,0 24,-11 24,-24 0,-13 -11,-24 -24,-24 -13,0 -24,11 -24,24 0,13 11,24 24,24zm-24 -143c-17,0 -30,14 -30,31 0,16 13,30 30,30 17,0 31,-14 31,-30 0,-17 -14,-31 -31,-31zm-49 114c0,16 -13,29 -29,29 -16,0 -29,-13 -29,-29 0,-16 13,-29 29,-29 16,0 29,13 29,29z"/>
    <path class="fil42" d="M13297 11104c13,0 24,-10 24,-23 0,-14 -11,-24 -24,-24 -13,0 -24,10 -24,24 0,13 11,23 24,23zm-24 -142c-16,0 -30,13 -30,30 0,17 14,31 30,31 17,0 31,-14 31,-31 0,-17 -14,-30 -31,-30zm-49 114c0,16 -13,28 -29,28 -16,0 -29,-12 -29,-28 0,-16 13,-29 29,-29 16,0 29,13 29,29z"/>
   </g>
   <path class="fil43" d="M6361 6266c-3,-108 -70,-193 -151,-193 12,-46 0,-97 -30,-126 -29,-28 -70,-27 -98,4 -11,-27 -30,-46 -52,-51 -23,-4 -45,6 -61,27 32,-223 -46,-448 -195,-561 -149,-112 -335,-86 -463,64 -35,-44 -90,-44 -125,0 13,-151 -40,-298 -135,-382 -96,-84 -219,-89 -318,-14 -100,74 -160,217 -155,369 -63,-27 -131,19 -151,102 3,-65 -24,-125 -69,-152 -44,-26 -97,-13 -131,34 -39,-62 -105,-79 -158,-39 -53,40 -77,125 -56,200 -53,-184 -201,-286 -345,-238 -144,49 -238,233 -218,428 -89,-66 -202,-44 -273,54 -71,98 -84,247 -30,364 -24,-19 -55,-15 -75,11 -20,26 -25,66 -12,99l3301 0z"/>
   <path class="fil43" d="M18589 4691c-6,-162 -106,-290 -228,-291 19,-68 1,-146 -44,-188 -45,-43 -106,-41 -149,5 -15,-41 -44,-69 -78,-76 -33,-7 -68,8 -92,40 49,-335 -68,-674 -292,-843 -224,-169 -504,-130 -697,96 -52,-66 -135,-66 -187,0 19,-226 -59,-448 -203,-574 -144,-126 -328,-134 -478,-22 -150,113 -240,327 -232,555 -95,-40 -197,28 -228,154 5,-97 -36,-188 -103,-228 -67,-40 -146,-20 -197,50 -58,-93 -159,-118 -238,-58 -80,60 -115,187 -84,301 -79,-277 -302,-431 -519,-358 -216,73 -357,349 -327,643 -135,-100 -303,-66 -410,81 -107,148 -126,372 -46,547 -36,-29 -82,-22 -113,17 -30,39 -37,100 -17,149l4962 0z"/>
   <path class="fil43" d="M19359 7417c-3,-76 -49,-135 -106,-136 8,-32 0,-67 -21,-87 -21,-20 -49,-19 -69,2 -7,-19 -21,-32 -36,-35 -16,-3 -32,3 -43,18 23,-156 -32,-314 -136,-392 -105,-79 -235,-61 -325,45 -24,-31 -63,-31 -87,0 9,-106 -28,-209 -95,-268 -67,-59 -153,-63 -223,-10 -69,52 -111,152 -108,258 -44,-19 -91,13 -106,72 3,-45 -17,-88 -48,-106 -31,-19 -68,-10 -92,23 -27,-43 -73,-55 -110,-27 -37,28 -54,87 -40,140 -36,-129 -140,-200 -241,-167 -101,34 -167,163 -153,300 -62,-47 -141,-31 -191,38 -50,69 -58,173 -21,254 -17,-13 -38,-9 -53,9 -14,18 -17,46 -8,69l2312 0z"/>
  </g>
 </g>
</svg>
