<?xml version="1.0" encoding="UTF-8"?>
<!DOCTYPE svg PUBLIC "-//W3C//DTD SVG 1.1//EN" "http://www.w3.org/Graphics/SVG/1.1/DTD/svg11.dtd">
<!-- Creator: CorelDRAW X7 -->
<svg xmlns="http://www.w3.org/2000/svg" xml:space="preserve" width="1.9685in" height="1.9685in" version="1.1" style="shape-rendering:geometricPrecision; text-rendering:geometricPrecision; image-rendering:optimizeQuality; fill-rule:evenodd; clip-rule:evenodd"
viewBox="0 0 1969 1969"
 xmlns:xlink="http://www.w3.org/1999/xlink">
 <defs>
  <style type="text/css">
   <![CDATA[
    .str0 {stroke:#402007;stroke-width:3}
    .fil15 {fill:#402007}
    .fil16 {fill:#402007}
    .fil10 {fill:#492E16}
    .fil14 {fill:#4C6619}
    .fil5 {fill:#694C2E}
    .fil13 {fill:#749133}
    .fil3 {fill:#786146}
    .fil1 {fill:#7EC0D8}
    .fil4 {fill:#817764}
    .fil6 {fill:#817764}
    .fil9 {fill:#8D9A39}
    .fil12 {fill:#9BA743}
    .fil8 {fill:#A29989}
    .fil7 {fill:#A29989}
    .fil11 {fill:#B7C15E}
    .fil0 {fill:#CDECF7}
    .fil2 {fill:white}
   ]]>
  </style>
 </defs>
 <g id="Layer_x0020_1">
  <metadata id="CorelCorpID_0Corel-Layer"/>
  <g id="_2356031011280">
   <circle class="fil0" cx="984" cy="984" r="984"/>
   <path class="fil1" d="M177 1547l1615 -1c-52,76 -115,143 -186,201 -222,2 -483,4 -663,6 -189,1 -361,3 -569,3 -76,-59 -142,-130 -197,-209z"/>
   <path class="fil2" d="M1747 953l5 5c0,0 0,1 1,1 2,3 2,5 3,8l-9 7 0 -21z"/>
   <g>
    <path class="fil3" d="M916 1330c0,14 11,53 -17,72 0,-13 8,-34 12,-54 3,-17 -1,-13 5,-18z"/>
    <path class="fil4" d="M681 1539c5,-3 3,-1 5,-7 -8,3 -4,1 -5,7zm34 8l0 -20c-4,-2 0,0 -6,-2 12,-5 3,-1 6,-8l-2 0c-2,-13 1,-5 -11,-10l0 2 11 -4 0 -24 -6 -2c5,-4 4,-3 7,-18 2,-8 3,-19 -5,-18 2,-2 5,5 3,-12 -2,-10 -2,-8 -1,-17 -7,-4 -3,-1 -6,-4 1,0 4,1 8,0l0 -24 -6 -4c6,-4 5,2 3,-9 -1,-4 -2,-5 -3,-9 2,2 1,-1 3,4 1,3 1,2 2,6 1,4 1,10 3,14 0,26 6,50 6,75 1,9 2,12 2,22 1,10 2,13 2,24 1,11 1,9 3,18l50 9c0,13 0,32 0,47l-59 -6c-11,-1 -6,-6 -13,-12 -3,6 -1,8 -4,10 4,-6 2,-9 -2,-13l9 -6c-9,0 -7,-2 -16,-2 3,5 0,3 6,5 0,0 0,0 -1,0 -3,2 -3,2 -9,1 -1,10 -2,10 -10,12 -2,-9 0,-6 -8,-7l8 -11c-2,-2 -4,-3 -6,-10l4 0 0 -13c-13,-1 -4,0 -6,-4l6 -2c0,-36 -4,-15 -2,-42 1,-6 4,-13 2,-21 -2,-12 3,10 -2,-5 -2,-6 0,-9 0,-25 0,-3 0,-3 0,-6 -3,-21 2,-3 2,-20 1,-8 -2,-11 -2,-20 0,-7 1,-13 -1,-22 4,8 3,15 6,24 0,24 4,49 4,73 0,12 2,15 2,24 0,9 0,18 0,28 3,3 1,-2 2,4 0,0 1,3 1,4l13 0 -1 15c-5,-2 -11,-4 -11,4 0,21 37,15 41,11l4 -10c5,10 -6,14 -16,15l0 5c34,-8 22,-24 16,-24 -4,0 -1,5 -7,-1 -2,6 1,10 -13,11zm66 -46l3 0 0 6c1,9 2,17 2,30 4,1 14,3 20,4l1 3c-7,0 -9,-1 -17,-2l0 5c-2,12 -4,8 -4,10 0,1 -1,1 -1,2 0,-13 2,-21 -2,-22 -1,0 -2,-1 -2,-1l-1 1c6,-9 4,-30 3,-30 -1,-6 1,-2 -2,-6zm-56 64c15,0 18,-1 24,-11 -11,1 -9,8 -24,8l0 3z"/>
    <path class="fil5" d="M223 1608c280,-61 736,-101 1346,42 -85,123 -200,221 -332,286 -81,21 -165,33 -253,33 -307,0 -581,-141 -761,-361z"/>
    <path class="fil5" d="M540 1561c236,-64 661,-128 1251,-12 -133,189 -332,330 -562,389 -51,-1 -103,-6 -154,-17 -229,-45 -416,-180 -535,-360z"/>
    <path class="fil6" d="M1261 1486c158,6 335,24 530,63 -19,26 -39,52 -60,77 -86,11 -180,18 -277,26 -111,10 -225,62 -342,50 -199,-19 -370,-69 -498,-136 167,-39 383,-72 647,-80z"/>
    <path class="fil7" d="M614 1542c220,-50 560,-88 1007,-22 -100,63 -247,70 -409,84 -79,7 -160,43 -243,35 -142,-14 -264,-49 -355,-97z"/>
    <path class="fil5" d="M651 1543c0,-15 0,-14 -3,-26l21 3 1 41 -8 0c-2,4 -3,8 -4,13 10,3 8,5 24,4l20 -3c3,-2 1,-4 4,-10 7,6 2,11 13,12l59 6 1 25 -1 4c-2,-3 0,-4 -5,-7 -4,-3 -4,-2 -10,-2 -9,4 -23,-1 -47,5 -11,2 -30,9 -42,9l0 2c13,0 27,-4 39,-6 5,-1 14,-3 18,-3 7,-1 15,-2 21,2l-7 0 -2 2c-6,1 -6,2 -10,5 -11,2 -15,-3 -33,8 0,9 1,12 19,14 16,1 20,0 29,-6 4,0 21,-2 23,0 0,1 1,0 2,1 2,7 3,16 3,42 -2,-4 -2,6 -2,-7l-6 5c12,8 9,4 22,2 -1,-5 -1,-5 -7,-7 0,-12 -3,-29 4,-37 5,3 7,0 13,0l7 -11c0,0 1,-1 1,-1l1 12c-11,3 -10,1 -11,12 -2,-4 -2,-4 -8,-4 3,4 5,9 10,12 3,2 14,3 18,3l-5 3c-5,3 -2,-2 -1,1 14,0 23,1 26,-10 -8,3 -3,4 -11,6 -11,3 -6,-1 -9,-2 -10,-5 -16,1 -20,-9 9,4 13,4 27,3 1,0 5,-1 5,-1 5,-1 2,-2 7,-2 11,-1 -5,3 3,0 -3,-8 -4,-2 -8,-10l24 -8 0 2c-4,2 -2,1 -8,2l0 4c5,-1 4,-1 8,-2l0 2c-5,3 -6,2 0,4l0 79 -527 0c-10,-9 -20,-18 -30,-28l0 -95c6,-3 13,-4 19,-7 8,-3 11,-5 18,-8 11,-4 25,-11 35,-17l-1 18c-6,2 -4,1 -7,6l-5 -1c-1,0 -1,1 -1,1l-2 2c3,6 1,9 8,12 5,2 10,2 18,2 -2,-1 -1,-1 -4,-3 0,0 -1,0 -1,0l-8 -2c-6,-2 -8,-3 -9,-9 7,5 11,10 25,7 7,-1 12,-4 14,-8l2 -3c0,0 0,-1 0,-2l1 13c-6,2 -6,2 -10,3l-1 6 0 2c-4,-4 -2,-3 -7,-4 4,9 3,14 18,14 9,4 11,1 22,1 5,21 1,33 7,36 4,-3 3,5 3,-9 -1,-42 5,-20 19,-40 5,-7 7,-7 11,-13 4,-2 3,4 3,-2l-11 -1c1,-6 3,-6 -2,-9 -5,-3 0,2 -7,-1 -4,-6 -2,-12 -3,-21l22 0c-15,1 -19,1 -21,-6 -2,-6 -1,-8 -2,-16 15,-4 40,-8 57,-8l0 83c-6,0 -8,2 -12,5 -1,-4 2,-1 1,-5 -6,3 -4,0 -7,5 -14,20 22,23 28,25 3,-7 -1,-3 0,-7 10,-3 16,-4 22,-13 -1,-4 0,-3 -2,-6 -3,-3 -7,-1 -2,-4 4,6 5,3 6,12 5,-4 3,0 4,-11 0,-1 0,-2 0,-3 -10,2 -4,0 -14,-2 -1,5 1,3 -4,4 -3,-5 -4,-41 -4,-46 4,1 18,3 23,3l1 63c-9,0 -13,2 -14,12 2,7 44,17 44,-6l2 0c0,12 -2,4 -4,13 17,-4 2,-19 2,-19l12 -4c-10,0 -9,-2 -16,-2 2,7 3,3 2,8l-9 -2c-1,-18 -5,-40 -1,-58 -5,2 -3,2 -3,-3 5,0 4,-1 3,3 5,-1 14,-3 15,3l0 -1 0 30c-10,5 6,-4 -11,0l0 9c1,4 0,3 4,6 8,7 12,1 28,8l8 2c9,-2 8,-5 17,-6 -2,4 0,2 -4,5l-16 8c14,-1 23,-7 22,-11 -2,-10 1,-3 1,-16 -5,-4 -14,-6 -23,-6 0,-17 -2,-27 -2,-43 0,-8 -1,-10 -1,-19 0,-9 -2,-13 -2,-22 10,-1 28,-4 39,-4l-1 26c-1,0 -3,0 -3,0 -6,0 -7,-1 -10,2 -9,9 1,17 10,21 5,1 10,3 14,0 -11,0 -33,-3 -25,-20l3 -4c0,0 0,-1 0,-1l3 6c0,0 0,1 0,1 2,14 31,8 32,7l6 -5c0,-1 1,-1 1,-2 1,0 1,-2 2,-2 0,1 1,-1 2,-1 2,9 1,3 0,6l-1 -8c0,0 0,-1 0,-1 0,0 0,-1 1,-1 -3,1 -6,0 -6,0l-6 1c-1,0 -3,0 -3,1zm-308 53c1,5 -2,2 2,4 0,1 1,0 1,0l11 4c-2,-7 -2,-4 -6,-10l4 -8c-7,2 -6,2 -8,10l-4 0zm34 14c0,9 2,11 12,12l0 -4c-12,-3 -5,-3 -12,-8zm83 18c0,7 0,6 6,8l-2 -8 -4 0zm8 6c7,5 4,7 12,4 -13,-20 -8,-5 -5,-22l-7 6 0 12zm190 9c1,-12 -1,-27 4,-33 5,-4 5,0 11,-6 5,-5 4,-6 9,-10 8,0 12,-1 17,-4 8,-3 7,-3 10,-10 -10,3 -8,7 -19,8l-4 2 4 -2c4,-4 2,1 2,-7l-20 2c-7,-3 -8,1 -15,-6 -10,-12 -7,-4 -9,-9l2 6c1,2 3,5 4,6 2,3 3,5 14,6 -2,3 -2,3 -4,7l-6 -7c-4,5 -2,-5 -4,5l0 -2c-1,-4 -2,-3 -5,-3l-1 -1c-1,-1 -5,-7 -8,-9 0,8 -1,5 2,9l2 15c0,-3 -6,-7 -12,-8 -7,0 -13,4 -16,5 2,6 0,2 4,6 15,16 16,9 29,9 3,10 3,17 3,31 -4,1 -5,2 -7,3 8,6 8,5 18,3 -1,-7 2,-4 -5,-6zm127 5c0,8 3,11 11,11 -2,-6 1,-1 -5,-6 -3,-3 -3,-3 -6,-5zm-272 -8c15,22 10,19 42,19l0 -4c-51,0 -19,-13 -42,-15zm-6 9c1,8 1,10 6,13 5,3 7,3 10,1 -6,-8 -2,0 -9,-6 -5,-5 0,-2 -7,-8zm36 14l0 4c18,0 32,1 36,-14 -16,9 -12,10 -36,10z"/>
    <path class="fil8" d="M836 1554c0,0 0,1 1,0 2,-5 -1,-1 -1,0zm20 -4l0 -41c-7,-1 -4,-2 -12,-2 0,-9 -3,-20 -6,-26 -6,5 -6,23 -5,26l-17 0c0,13 4,22 3,37 6,2 5,2 13,2l0 63c0,8 -1,11 2,17l10 0c0,-5 0,-7 -1,-12 0,-1 0,-1 0,-2 -1,0 -1,-1 -1,-1 -4,-14 -2,7 0,-6l0 -6c-2,-4 1,1 -3,-3 -1,-1 -6,-4 -1,0 2,-4 2,-1 3,-6 5,-18 -13,-21 1,-16 0,-8 2,-16 2,-20 -1,-14 0,-3 -3,-8 -1,-3 -6,-3 1,-2 0,-19 -5,-18 4,-26 0,13 2,21 2,31 6,0 4,0 8,1z"/>
    <path class="fil8" d="M779 1608l-1 -25c0,-15 0,-34 0,-47l-50 -9c-2,-9 -2,-7 -3,-18 8,-5 32,-2 44,-2 9,-1 9,-2 12,-6 3,4 1,0 2,6 1,0 3,21 -3,30l1 -1c0,0 1,1 2,1 4,1 2,9 2,22l0 0c0,9 -2,18 -1,24 3,10 4,5 1,15 -3,10 1,-2 3,13l-1 3c-5,-6 -3,-2 -4,-10 0,1 -1,1 -1,1l-3 3z"/>
    <path class="fil9" d="M748 1635c-4,-6 -7,-7 -11,-11l-4 -5c4,-3 4,-4 10,-5l2 -2c0,3 1,2 -2,2 3,2 -1,1 4,2 6,2 5,-1 11,5 4,-3 3,4 3,-6l5 2 -3 -14c6,0 6,-1 10,2 5,3 3,4 5,7l1 -4 3 -3c0,0 1,0 1,-1 1,8 -1,4 4,10l1 -3 5 -5c7,-4 5,-6 14,-7l2 0c-7,7 -17,7 -15,22 4,-4 6,-6 9,-10 5,-6 7,-7 16,-7 -3,4 -5,6 -8,9l-3 0 0 5c-4,4 -5,6 -10,9 -2,1 -5,2 -7,3 -4,3 -2,1 -4,4 -7,8 -4,25 -4,37l0 6 -7 1c0,-26 -1,-35 -3,-42 -1,-1 -2,0 -2,-1 -2,-2 -19,0 -23,0z"/>
    <path class="fil8" d="M807 1544l-1 -3c-6,-1 -16,-3 -20,-4 0,-13 -1,-21 -2,-30l25 0c0,-12 -2,-15 2,-20 5,9 1,6 1,12 -1,10 1,5 2,14 1,16 -4,-2 -2,30 0,1 0,5 0,6l2 19c-1,7 -2,7 -2,15 -1,6 1,6 2,13l-6 3 -1 -55z"/>
    <path class="fil10" d="M809 1634l0 9 5 2c16,-5 3,-12 15,-10 -7,-13 -6,-8 -8,-28 6,1 5,1 11,2 0,8 -1,11 2,17l10 0c6,-2 3,-1 9,-3l0 -7 3 0 0 12 -24 8c4,8 5,2 8,10 -8,3 8,-1 -3,0 -5,0 -2,1 -7,2 0,0 -4,1 -5,1 -14,1 -18,1 -27,-3 4,10 10,4 20,9 3,1 -2,5 9,2 8,-2 3,-3 11,-6 -3,11 -12,10 -26,10 -1,-3 -4,2 1,-1l5 -3c-4,0 -15,-1 -18,-3 -5,-3 -7,-8 -10,-12 6,0 6,0 8,4 1,-11 0,-9 11,-12zm47 6l0 -4c-5,3 -6,2 0,4zm0 -6l0 -4c-4,2 -2,1 -8,2l0 4c5,-1 4,-1 8,-2z"/>
    <path class="fil4" d="M856 1552l-9 0c1,8 3,9 3,16 1,7 1,10 2,17 0,6 -1,10 -1,17 0,9 0,8 2,14l0 7c-6,2 -3,1 -9,3 0,-5 0,-7 -1,-12 0,-1 0,-1 0,-2 -1,0 -1,-1 -1,-1 -4,-14 -2,7 0,-6l0 -6c-2,-4 1,1 -3,-3 -1,-1 -6,-4 -1,0 2,-4 2,-1 3,-6 5,-18 -13,-21 1,-16 0,-8 2,-16 2,-20 -1,-14 0,-3 -3,-8 -1,-3 -6,-3 1,-2 0,-19 -5,-18 4,-26 0,13 2,21 2,31 6,0 4,0 8,1l0 2z"/>
    <path class="fil4" d="M808 1599l6 -3c-1,-7 -3,-7 -2,-13 0,-8 1,-8 2,-15l-2 -19c0,-1 0,-5 0,-6 -2,-32 3,-14 2,-30 -1,-9 -3,-4 -2,-14 0,-6 4,-3 -1,-12 0,-11 2,0 3,3 2,6 2,9 2,17 0,13 4,22 3,37l2 57 -12 -2 -2 0 1 0z"/>
    <path class="fil10" d="M763 1603l3 14 -5 -2 -9 -3c-6,-4 -14,-3 -21,-2 -4,0 -13,2 -18,3 -12,2 -26,6 -39,6l0 -2c12,0 31,-7 42,-9 24,-6 38,-1 47,-5z"/>
    <path class="fil4" d="M817 1616c-1,2 3,4 2,0 0,-5 5,-1 0,-1 -2,0 -2,-3 -2,1zm-6 -3c3,-3 5,-5 8,-9l2 -1 2 -2 -2 2 0 4c2,20 1,15 8,28 -12,-2 1,5 -15,10 -1,-8 2,-3 -4,-5l0 -5c10,-3 1,3 3,-14 1,-3 1,-4 1,-7l-3 -1z"/>
    <path class="fil4" d="M785 1559c9,0 1,0 5,3 0,9 2,10 1,22 0,10 2,11 2,22l-5 5c-2,-15 -6,-3 -3,-13 3,-10 2,-5 -1,-15 -1,-6 1,-15 1,-24z"/>
    <path class="fil11" d="M809 1599l12 2 2 0 -2 2 -2 1c-9,0 -11,1 -16,7 -3,4 -5,6 -9,10 -2,-15 8,-15 15,-22z"/>
    <path class="fil8" d="M809 1634l-1 -12 0 -4 0 -5 3 0 3 1c0,3 0,4 -1,7 -2,17 7,11 -3,14l0 5c6,2 3,-3 4,5l-5 -2 0 -9z"/>
    <path class="fil10" d="M808 1618l0 4c0,0 -1,1 -1,1l-7 11c-6,0 -8,3 -13,0 2,-3 0,-1 4,-4 2,-1 5,-2 7,-3 5,-3 6,-5 10,-9z"/>
    <path class="fil10" d="M776 1678l7 -1 0 -6c6,2 6,2 7,7 -13,2 -10,6 -22,-2l6 -5c0,13 0,3 2,7z"/>
    <path class="fil11" d="M743 1614c3,0 2,1 2,-2l7 0 9 3c0,10 1,3 -3,6 -6,-6 -5,-3 -11,-5 -5,-1 -1,0 -4,-2z"/>
    <path class="fil10" d="M785 1648c3,2 3,2 6,5 6,5 3,0 5,6 -8,0 -11,-3 -11,-11z"/>
    <path class="fil10" d="M817 1616c0,-4 0,-1 2,-1 5,0 0,-4 0,1 1,4 -3,2 -2,0z"/>
    <path class="fil4" d="M836 1554c0,-1 3,-5 1,0 -1,1 -1,0 -1,0z"/>
    <g>
     <path class="fil8" d="M702 1509c0,-17 -3,-31 -2,-46 1,-13 0,-26 0,-39 0,-15 3,-23 2,-36 0,-6 -1,-20 5,-24l0 0c1,4 2,5 3,9 2,11 3,5 -3,9l6 4 0 24c-4,1 -7,0 -8,0 3,3 -1,0 6,4 -1,9 -1,7 1,17 2,17 -1,10 -3,12 8,-1 7,10 5,18 -3,15 -2,14 -7,18l6 2 0 24 -11 4zm3 -54c0,1 1,2 1,0 1,-5 -1,-3 -1,0z"/>
     <path class="fil8" d="M670 1561l-1 -41 -21 -3 0 -3c11,0 13,0 22,-1l0 -52 0 -73c0,-7 0,-8 1,-15 1,-8 -1,-10 3,-9 2,9 1,15 1,22 0,9 3,12 2,20 0,17 -5,-1 -2,20 0,3 0,3 0,6 0,16 -2,19 0,25 5,15 0,-7 2,5 2,8 -1,15 -2,21 -2,27 2,6 2,42l-6 2c2,4 -7,3 6,4l0 13 -4 0c2,7 4,8 6,10l-8 11c8,1 6,-2 8,7 -10,0 -9,-1 -9,-11z"/>
     <path class="fil8" d="M572 1577c-1,-4 -1,-3 -2,-8l0 -46 1 -66c3,-8 2,-7 3,-17 0,-5 0,-4 1,-9 2,-12 -1,-5 4,-8 0,17 6,1 0,23l6 1 0 26 -8 0c0,5 -2,1 6,4 -2,32 6,23 -3,30l6 4c1,10 0,12 -2,20 -1,7 0,10 -5,16l5 1 1 30 -13 -1z"/>
     <path class="fil4" d="M542 1428l-1 -4 4 0c0,11 4,21 4,33 0,12 2,19 2,32 0,14 3,19 2,34 0,11 1,12 2,20 0,8 -1,16 -1,24l0 4c0,5 -2,5 3,3 -4,18 0,40 1,58l0 8c-7,2 -2,2 -9,3 -1,-9 1,-2 -9,-7 1,0 2,0 2,-1 1,-5 4,1 6,-6 2,-7 0,-5 -1,-5l-3 -3c-1,0 -1,0 -2,-1 2,-6 -1,-2 5,-5l0 -14c-14,0 -3,0 -8,-3 1,0 2,0 2,-1 3,-8 1,-1 4,-1 0,0 1,0 2,0 0,-39 -5,-20 -3,-40 7,-43 -1,-19 0,-43 1,-6 0,-20 0,-25 -3,-19 1,-1 3,-17 1,-8 -3,-16 -3,-21 0,-5 0,-1 1,-9l-3 -13z"/>
     <path class="fil9" d="M642 1585l6 0 1 1 5 3 0 2c2,-10 0,0 4,-5l6 7c2,-4 2,-4 4,-7 2,-2 1,-1 4,-3l20 -2c0,8 2,3 -2,7l-4 2 -4 4c-5,4 -4,5 -9,10 -6,6 -6,2 -11,6 -5,6 -3,21 -4,33 -1,5 1,2 -2,5 -5,-2 -3,0 -4,-5 0,-14 0,-21 -3,-31 -13,0 -14,7 -29,-9 -4,-4 -2,0 -4,-6 3,-1 9,-5 16,-5 6,1 12,5 12,8l-2 -15z"/>
     <path class="fil4" d="M589 1562c2,-2 2,-2 -1,-6l1 6zm-17 14l0 1 13 1 -1 -30 -5 -1c5,-6 4,-9 5,-16 2,-8 3,-10 2,-20l-6 -4c9,-7 1,2 3,-30 -8,-3 -6,1 -6,-4l8 0 0 -26 -6 -1c6,-22 0,-6 0,-23 2,8 7,21 7,34 0,8 3,24 4,33 1,10 3,22 3,31 0,9 2,13 2,22 0,9 1,11 1,19 0,16 2,26 2,43l2 8c-5,2 -7,4 -13,5 0,-26 1,-21 -7,-24 1,0 3,0 3,-1l2 -2c0,1 1,0 2,-1 -3,-13 -2,-11 -15,-14z"/>
     <path class="fil8" d="M539 1632l-1 -63c-3,-3 -1,0 -2,-7l1 -37c1,-11 0,-23 0,-34 0,-14 2,-19 2,-32 1,-11 0,-23 3,-31l3 13c-1,8 -1,4 -1,9 0,5 4,13 3,21 -2,16 -6,-2 -3,17 0,5 1,19 0,25 -1,24 7,0 0,43 -2,20 3,1 3,40 -1,0 -2,0 -2,0 -3,0 -1,-7 -4,1 0,1 -1,1 -2,1 5,3 -6,3 8,3l0 14c-6,3 -3,-1 -5,5 1,1 1,1 2,1l3 3c1,0 3,-2 1,5 -2,7 -5,1 -6,6 0,1 -1,1 -2,1 10,5 8,-2 9,7l-10 0 0 -11z"/>
     <path class="fil8" d="M499 1612l0 -83c2,-13 -5,-56 1,-68 0,0 0,-5 0,-5 1,-4 0,-3 1,-5 5,8 4,69 5,70 5,7 -3,-9 -1,4 6,32 -1,9 3,45 1,11 0,7 -2,11 -5,11 4,1 6,15 2,16 -3,17 -7,20 3,8 3,1 5,9 -10,0 -10,-3 -11,-13z"/>
     <path class="fil9" d="M401 1618c-4,-6 -4,-4 -9,-8l-2 -2 0 -2 8 -4 3 -2 -3 2c3,3 -2,0 6,3 1,0 4,1 5,1 3,1 8,4 5,-2l1 0c4,-2 4,5 3,-6 -1,-9 -1,-3 2,-5 5,3 3,1 6,6 6,-3 1,0 6,-4l6 5c4,-7 8,-11 17,-10 -9,6 -8,1 -13,13 7,-2 4,-1 10,-5 7,-5 2,-3 11,-5 -4,6 -6,6 -11,13 -14,20 -20,-2 -19,40 0,14 1,6 -3,9 -6,-3 -2,-15 -7,-36 -11,0 -13,3 -22,-1z"/>
     <path class="fil8" d="M428 1517l0 -1c0,0 0,1 0,1zm2 65c0,2 0,-1 0,0zm-6 -4l-1 -17 0 -4 1 -14 1 -72c0,-5 0,-10 0,-15 0,0 1,-5 2,-6 2,-6 -1,-2 3,-6l1 15c1,7 5,8 3,16 -2,7 0,4 -6,6l4 3c1,1 1,1 2,1 -2,6 -2,6 -1,13 0,1 6,9 -3,7 11,8 4,3 4,31 -12,-4 -1,-1 0,8 2,17 -2,10 -6,14 2,0 -3,-3 3,1 1,0 4,-1 3,8 -2,13 -3,-6 0,5 2,9 2,3 2,16l-10 0c-2,-5 -2,-2 -2,-10z"/>
     <path class="fil8" d="M631 1543l1 -26 1 -58c0,-15 -2,-21 -2,-35 0,-14 2,-25 3,-36 3,-3 1,-3 4,0 0,2 0,-1 -1,5 0,0 0,5 0,5 0,5 0,5 1,10 1,8 0,16 0,24 0,7 1,18 1,21 0,7 1,11 0,31l2 18c2,17 -8,7 -2,16 4,4 2,-4 5,7 3,12 0,16 -6,19 3,9 3,2 4,10 -12,-1 -10,-8 -11,-11z"/>
     <path class="fil4" d="M501 1451c2,-3 1,-3 3,0l3 7c0,0 0,1 0,1 0,24 2,46 5,68 2,14 3,20 2,35l1 4c0,5 1,41 4,46 -1,8 -1,12 -9,13 -2,-8 -2,-1 -5,-9 4,-3 9,-4 7,-20 -2,-14 -11,-4 -6,-15 2,-4 3,0 2,-11 -4,-36 3,-13 -3,-45 -2,-13 6,3 1,-4 -1,-1 0,-62 -5,-70z"/>
     <path class="fil10" d="M499 1612c1,10 1,13 11,13 8,-1 8,-5 9,-13 5,-1 3,1 4,-4 10,2 4,4 14,2 0,1 0,2 0,3 -1,11 1,7 -4,11 -1,-9 -2,-6 -6,-12 -5,3 -1,1 2,4 2,3 1,2 2,6 -6,9 -12,10 -22,13 -1,4 3,0 0,7 -6,-2 -42,-5 -28,-25 3,-5 1,-2 7,-5 1,4 -2,1 -1,5 4,-3 6,-5 12,-5z"/>
     <path class="fil10" d="M572 1606l1 12 14 0c6,-1 8,-3 13,-5l-2 -8c9,0 18,2 23,6 0,13 -3,6 -1,16 1,4 -8,10 -22,11l16 -8c4,-3 2,-1 4,-5 -9,1 -8,4 -17,6l-8 -1c-16,-8 -20,-2 -28,-9 -4,-3 -3,-2 -4,-6l0 -9c17,-4 1,5 11,0z"/>
     <path class="fil4" d="M413 1576c-8,2 -3,-2 -5,5 7,-3 2,2 5,-5zm-7 24l-2 -27c0,-1 3,-4 1,-21 -3,-16 2,-17 1,-29l-3 -29c0,-12 2,-7 3,-14l-2 -32c0,-5 2,5 3,9 1,4 1,11 1,18 0,12 3,19 3,34 0,13 2,20 1,36l-1 12 12 0 0 4 -10 0 0 36 0 6 2 1 -1 0 -1 -1 -7 -3z"/>
     <path class="fil4" d="M436 1562c8,4 4,1 6,0 -3,-2 2,-1 -4,-1l-2 1zm-6 -118c2,5 5,17 6,25 0,7 1,13 2,17 1,6 0,10 1,16 1,8 3,26 3,35 1,8 0,10 2,16 2,7 6,7 21,6l-22 0c1,9 -1,15 3,21 -1,6 1,4 -3,7l-7 1c0,-13 0,-7 -2,-16 -3,-11 -2,8 0,-5 1,-9 -2,-8 -3,-8 -6,-4 -1,-1 -3,-1 4,-4 8,3 6,-14 -1,-9 -12,-12 0,-8 0,-28 7,-23 -4,-31 9,2 3,-6 3,-7 -1,-7 -1,-7 1,-13 -1,0 -1,0 -2,-1l-4 -3c6,-2 4,1 6,-6 2,-8 -2,-9 -3,-16l-1 -15z"/>
     <path class="fil4" d="M638 1388c2,23 5,48 6,71 -1,19 4,37 4,55l0 3c3,12 3,11 3,26 0,0 -2,7 -2,8 -3,5 1,3 -7,3 -1,-8 -1,-1 -4,-10 6,-3 9,-7 6,-19 -3,-11 -1,-3 -5,-7 -6,-9 4,1 2,-16l-2 -18c1,-20 0,-24 0,-31 0,-3 -1,-14 -1,-21 0,-8 1,-16 0,-24 -1,-5 -1,-5 -1,-10 0,0 0,-5 0,-5 1,-6 1,-3 1,-5z"/>
     <path class="fil5" d="M512 1527c11,0 16,-2 25,-2l-1 37 -22 0c1,-15 0,-21 -2,-35z"/>
     <path class="fil10" d="M733 1619l4 5c4,4 7,5 11,11 -9,6 -13,7 -29,6 -18,-2 -19,-5 -19,-14 18,-11 22,-6 33,-8z"/>
     <path class="fil8" d="M400 1584l0 -2 0 -31c1,-10 -1,-25 -1,-38 0,-6 -1,-14 0,-20 0,-7 2,-7 2,-16 0,-5 0,-10 0,-16 0,-1 0,-6 0,-7 1,-6 0,-3 3,-6l2 32c-1,7 -3,2 -3,14l3 29c1,12 -4,13 -1,29 2,17 -1,20 -1,21l2 27 -5 0 0 -3 -1 -13z"/>
     <path class="fil5" d="M554 1567c0,-8 1,-16 1,-24 -1,-8 -2,-9 -2,-20l17 0 0 46c-7,0 -8,-2 -16,-2z"/>
     <path class="fil10" d="M539 1632l0 11 10 0c7,-1 2,-1 9,-3l0 -8 9 2c1,-5 0,-1 -2,-8 7,0 6,2 16,2l-12 4c0,0 15,15 -2,19 2,-9 4,-1 4,-13l-2 0c0,23 -42,13 -44,6 1,-10 5,-12 14,-12z"/>
     <path class="fil8" d="M701 1536l1 -15 -13 0c0,-1 -1,-4 -1,-4 -1,-6 1,-1 -2,-4 6,-4 1,-1 7,-2 2,0 3,0 4,-1 7,-2 2,3 5,-3 12,5 9,-3 11,10l2 0c-3,7 6,3 -6,8 6,2 2,0 6,2l0 20 -14 0 0 -11z"/>
     <path class="fil8" d="M370 1582l1 -18 0 -67 6 6 0 14c-3,1 0,33 2,41l-4 2c1,3 12,20 1,26 0,0 0,1 0,0 0,0 1,2 1,3 1,2 1,2 2,5 -4,-1 -4,0 -7,-3 -2,-4 -1,-3 -2,-9z"/>
     <path class="fil4" d="M371 1497l0 2 4 -4c0,-7 2,-24 -2,-29 2,-3 -3,-3 4,-3 0,11 0,12 2,20 0,6 -1,14 0,20 1,6 2,8 2,18l2 33c2,6 -1,1 2,4 0,5 0,10 0,14 0,2 0,5 0,6 1,4 0,2 2,4 -1,7 -1,12 -8,12 -1,-3 -1,-3 -2,-5 0,-1 -1,-3 -1,-3 0,1 0,0 0,0 11,-6 0,-23 -1,-26l4 -2c-2,-8 -5,-40 -2,-41l0 -14 -6 -6z"/>
     <path class="fil10" d="M701 1536l0 11 14 0c14,-1 11,-5 13,-11 6,6 3,1 7,1 6,0 18,16 -16,24l0 -5c10,-1 21,-5 16,-15l-4 10c-4,4 -41,10 -41,-11 0,-8 6,-6 11,-4z"/>
     <path class="fil10" d="M670 1561c0,10 -1,11 9,11 8,-2 9,-2 10,-12 6,1 6,1 9,-1 1,0 1,0 1,0 -6,-2 -3,0 -6,-5 9,0 7,2 16,2l-9 6c4,4 6,7 2,13l-20 3c-16,1 -14,-1 -24,-4 1,-5 2,-9 4,-13l8 0z"/>
     <path class="fil8" d="M572 1606l0 -30c13,3 12,1 15,14 -1,1 -2,2 -2,1l-2 2c0,1 -2,1 -3,1 8,3 7,-2 7,24l-14 0 -1 -12z"/>
     <path class="fil10" d="M370 1582c1,6 0,5 2,9 3,3 3,2 7,3 7,0 7,-5 8,-12 4,-2 10,-1 13,0l0 2c0,1 0,2 0,2l-2 3c-2,4 -7,7 -14,8 -14,3 -18,-2 -25,-7 1,6 3,7 9,9l8 2c0,0 1,0 1,0 3,2 2,2 4,3 -8,0 -13,0 -18,-2 -7,-3 -5,-6 -8,-12l2 -2c0,0 0,-1 1,-1l5 1c3,-5 1,-4 7,-6z"/>
     <path class="fil5" d="M385 1558c1,-1 0,0 3,-2 2,-2 0,-1 4,-2 4,-2 5,-2 8,-3l0 31c-3,-1 -9,-2 -13,0 -2,-2 -1,0 -2,-4 0,-1 0,-4 0,-6 0,-4 0,-9 0,-14z"/>
     <path class="fil10" d="M420 1593c-3,-9 -4,-1 -4,-15 7,-1 3,-2 8,0 0,8 0,5 2,10l10 0 7 -1c4,-3 2,-1 3,-7 7,3 2,-2 7,1 5,3 3,3 2,9 -9,-1 -13,3 -17,10l-6 -5c-5,4 0,1 -6,4 -3,-5 -1,-3 -6,-6z"/>
     <path class="fil10" d="M631 1543c1,3 -1,10 11,11 8,0 4,2 7,-3 0,-1 2,-8 2,-8 0,-1 2,-1 3,-1l6 -1c0,0 3,1 6,0 -1,0 -1,1 -1,1 0,0 0,1 0,1l1 8c1,-3 2,3 0,-6 -1,0 -2,2 -2,1 -1,0 -1,2 -2,2 0,1 -1,1 -1,2l-6 5c-1,1 -30,7 -32,-7 0,0 0,-1 0,-1l-3 -6c0,0 0,1 0,1l-3 4c-8,17 14,20 25,20 -4,3 -9,1 -14,0 -9,-4 -19,-12 -10,-21 3,-3 4,-2 10,-2 0,0 2,0 3,0z"/>
     <path class="fil5" d="M423 1561l1 17c-5,-2 -1,-1 -8,0 0,14 1,6 4,15 -3,2 -3,-4 -2,5l-5 -1 0 -36 10 0z"/>
     <path class="fil10" d="M513 1640c23,2 -9,15 42,15l0 4c-32,0 -27,3 -42,-19z"/>
     <path class="fil10" d="M543 1663c24,0 20,-1 36,-10 -4,15 -18,14 -36,14l0 -4z"/>
     <path class="fil5" d="M412 1545c8,-1 5,-1 12,-2l-1 14 -12 0 1 -12z"/>
     <path class="fil10" d="M468 1634l0 -12 7 -6c-3,17 -8,2 5,22 -8,3 -5,1 -12,-4z"/>
     <path class="fil10" d="M515 1566l-1 -4 22 0c1,7 -1,4 2,7 -5,0 -19,-2 -23,-3z"/>
     <path class="fil10" d="M686 1590l4 -2c11,-1 9,-5 19,-8 -3,7 -2,7 -10,10 -5,3 -9,4 -17,4l4 -4z"/>
     <path class="fil10" d="M672 1583c-3,2 -2,1 -4,3 -11,-1 -12,-3 -14,-6 -1,-1 -3,-4 -4,-6l-2 -6c2,5 -1,-3 9,9 7,7 8,3 15,6z"/>
     <path class="fil11" d="M455 1590l11 1c0,6 1,0 -3,2 -9,2 -4,0 -11,5 -6,4 -3,3 -10,5 5,-12 4,-7 13,-13z"/>
     <path class="fil8" d="M371 1487l2 -21c4,5 2,22 2,29l-4 4 0 -12z"/>
     <path class="fil10" d="M343 1596l4 0c2,-8 1,-8 8,-10l-4 8c4,6 4,3 6,10l-11 -4c0,0 -1,1 -1,0 -4,-2 -1,1 -2,-4z"/>
     <path class="fil10" d="M725 1562c15,0 13,-7 24,-8 -6,10 -9,11 -24,11l0 -3z"/>
     <path class="fil10" d="M390 1608l2 2c5,4 5,2 9,8 -15,0 -14,-5 -18,-14 5,1 3,0 7,4z"/>
     <path class="fil10" d="M507 1649c7,6 2,3 7,8 7,6 3,-2 9,6 -3,2 -5,2 -10,-1 -5,-3 -5,-5 -6,-13z"/>
     <path class="fil10" d="M557 1574c1,-4 2,-3 -3,-3l0 -4c8,0 9,2 16,2 1,5 1,4 2,8 -1,-6 -10,-4 -15,-3z"/>
     <path class="fil10" d="M652 1643c1,5 -1,3 4,5 3,-3 1,0 2,-5 7,2 4,-1 5,6 -10,2 -10,3 -18,-3 2,-1 3,-2 7,-3z"/>
     <path class="fil11" d="M398 1602l3 -2 5 0 7 3 1 1c3,6 -2,3 -5,2 -1,0 -4,-1 -5,-1 -8,-3 -3,0 -6,-3z"/>
     <path class="fil10" d="M377 1610c7,5 0,5 12,8l0 4c-10,-1 -12,-3 -12,-12z"/>
     <path class="fil10" d="M401 1597l0 3 -3 2 -8 4 1 -6c4,-1 4,-1 10,-3z"/>
     <path class="fil10" d="M649 1586c3,0 4,-1 5,3l-5 -3zm-7 -1c-3,-4 -2,-1 -2,-9 3,2 7,8 8,9l-6 0z"/>
     <path class="fil10" d="M460 1628l4 0 2 8c-6,-2 -6,-1 -6,-8z"/>
     <path class="fil10" d="M413 1603l0 -6 5 1c1,11 1,4 -3,6l-2 -1z"/>
     <path class="fil10" d="M686 1532c-2,6 0,4 -5,7 1,-6 -3,-4 5,-7z"/>
     <path class="fil5" d="M436 1562l2 -1c6,0 1,-1 4,1 -2,1 2,4 -6,0z"/>
     <path class="fil10" d="M413 1576c-3,7 2,2 -5,5 2,-7 -3,-3 5,-5z"/>
     <path class="fil5" d="M588 1556c3,4 3,4 1,6l-1 -6z"/>
     <path class="fil4" d="M705 1455c0,-3 2,-5 1,0 0,2 -1,1 -1,0z"/>
     <path class="fil4" d="M428 1517c0,0 0,-1 0,-1l0 1z"/>
     <path class="fil4" d="M430 1582c0,-1 0,2 0,0z"/>
    </g>
    <path class="fil12" d="M1481 1695l-4 -20c16,0 13,-1 18,9 4,-13 2,-4 7,-8l7 11c6,-16 22,-23 43,-17 -6,17 -4,-4 -20,19 -22,33 -34,8 -32,44 1,11 4,25 -2,33 -13,-4 3,-40 -11,-51 -9,-6 -15,4 -29,-4 -7,-5 -11,-15 -19,-14 13,-18 30,-17 42,-2z"/>
    <path class="fil13" d="M1114 1667c-8,-7 -24,-4 -36,-10 0,-19 11,-5 -5,-28l-12 -12c0,0 -1,-1 -2,-1 0,0 -1,-1 -2,-1l-7 -8c7,-3 10,-3 21,-3 27,0 32,16 41,23l5 -9c2,-4 -5,-2 6,-4 1,10 -1,6 5,12 3,-12 6,-8 13,-15 1,1 4,2 4,2 0,-1 2,1 2,2 0,1 -1,2 0,3 -1,12 2,10 -3,18 8,-2 3,-2 12,-5l12 -4c1,0 4,-1 5,-1 9,0 10,0 16,3l11 8c-2,8 -1,7 -21,21 3,6 -1,2 2,3l-32 3c-3,1 -5,1 -8,2 -24,6 -5,55 -16,64l-6 0 0 -51c0,-4 0,-3 -1,-6 -3,-11 0,-2 -4,-6z"/>
    <g>
     <path class="fil4" d="M1175 1503c-4,-2 -2,0 -4,-4 6,1 3,0 4,4zm-24 8l-2 -14c4,-2 0,0 5,-2 -9,-3 -3,0 -5,-5l1 -1c1,-9 -1,-3 8,-8l0 2 -9 -2 -2 -18 4 -1c-4,-3 -3,-2 -6,-13 -2,-6 -4,-14 2,-14 -1,-1 -3,4 -3,-8 1,-8 1,-6 -1,-13 6,-4 3,-1 4,-4 0,0 -3,2 -6,1l-1 -17 4 -3c-5,-3 -3,2 -3,-7 0,-3 1,-4 2,-7 -2,1 -1,-1 -2,3 -1,3 -1,1 -1,5 -1,3 0,7 -1,10 2,19 -1,37 1,56 0,6 -1,8 0,16 1,7 0,9 0,17 1,8 1,7 0,14l-36 10c1,10 2,24 4,35l42 -9c9,-2 4,-5 9,-10 3,4 1,6 4,7 -3,-4 -3,-6 1,-9l-8 -4c6,-1 5,-2 12,-3 -2,4 0,2 -4,4 0,0 0,0 0,0 3,2 3,1 7,0 2,7 2,7 8,8 1,-6 0,-5 6,-6l-7 -7c1,-2 3,-3 4,-8l-4 0 -1 -9c10,-2 3,0 5,-4l-5 -1c-3,-26 2,-11 -2,-30 -1,-5 -4,-10 -3,-16 1,-8 -1,8 1,-3 1,-5 -1,-7 -2,-19 0,-2 0,-2 0,-4 0,-16 -2,-2 -4,-14 0,-6 1,-8 1,-15 -1,-5 -2,-10 -2,-16 -2,6 -1,11 -2,18 2,17 1,36 3,54 1,8 0,10 0,17 1,7 2,13 2,20 -1,3 0,-1 -1,3 0,0 0,3 0,3l-9 1 1 12c4,-2 8,-5 9,1 2,16 -26,14 -30,12l-3 -7c-3,7 5,10 13,10l0 3c-25,-3 -17,-15 -13,-16 3,0 1,3 5,-1 2,4 0,7 10,6zm-52 -28l-2 1 0 4c1,7 0,12 1,22 -3,1 -10,4 -14,4l-1 3c6,-1 7,-2 13,-3l0 3c3,9 4,6 4,8 0,0 1,0 1,1 -1,-10 -3,-15 0,-16 0,-1 1,-1 1,-1l1 0c-5,-6 -5,-21 -5,-21 0,-5 -1,-2 1,-5zm46 42c-11,1 -13,2 -18,-5 8,-1 7,5 18,4l0 1z"/>
     <g>
      <path class="fil8" d="M1156 1483c-1,-12 0,-23 -2,-33 -2,-10 -3,-20 -4,-29 -1,-11 -3,-17 -4,-26 0,-5 -1,-15 -5,-18l0 0c-1,3 -1,5 -1,7 -1,9 -3,4 2,7l-4 3 2 18c3,0 5,-1 6,-1 -2,3 1,0 -4,3 1,7 1,5 1,13 -1,12 1,7 3,9 -7,0 -5,8 -3,13 4,11 3,10 7,13l-4 2 1 17 9 2zm-6 -39c0,0 -1,1 -1,0 -1,-3 0,-2 1,0z"/>
      <path class="fil8" d="M1184 1519l-3 -30 15 -4 0 -2c-8,1 -10,1 -16,0l-5 -37 -5 -54c-1,-5 -1,-6 -2,-11 -2,-5 -1,-7 -3,-6 -1,7 1,11 1,16 1,7 -1,9 0,15 1,12 3,-2 3,14 0,3 0,2 1,4 0,12 2,15 1,19 -2,11 0,-5 -1,4 0,6 2,11 3,15 5,20 -1,5 2,31l5 1c-1,3 5,2 -4,4l1 9 3 -1c-1,6 -3,7 -4,8l7 8c-6,1 -4,-1 -5,5 7,-1 6,-1 6,-8z"/>
      <path class="fil8" d="M1257 1522c0,-3 0,-2 0,-5l-3 -34 -7 -48c-2,-6 -2,-5 -3,-13 0,-3 0,-3 -1,-6 -3,-9 0,-3 -4,-6 2,13 -4,2 2,17l-4 2 2 19 6 -1c0,3 1,0 -4,4 3,23 -3,16 4,21l-4 4c0,7 1,8 3,14 2,5 1,8 5,11l-4 1 2 22 10 -2z"/>
      <path class="fil4" d="M1267 1411l0 -3 -3 0c1,9 -1,16 0,25 1,9 0,14 1,24 1,10 -1,14 1,25 1,7 1,9 1,14 -1,7 1,12 2,18l0 3c1,4 2,3 -2,2 4,13 3,30 4,42l1 7c5,1 1,1 7,1 0,-6 -2,-2 5,-6 0,0 -1,0 -1,0 -1,-4 -3,1 -5,-5 -2,-4 0,-3 0,-3l3 -2c0,0 0,-1 1,-1 -2,-4 0,-2 -4,-3l-1 -11c10,-1 2,0 5,-3 0,0 -1,0 -2,0 -2,-6 0,-1 -2,-1 0,0 -1,0 -2,1 -3,-29 3,-16 -1,-30 -8,-31 0,-14 -4,-32 0,-4 -1,-14 -1,-18 1,-14 -1,-1 -3,-12 -2,-6 1,-12 0,-16 0,-4 -1,0 -1,-6l1 -10z"/>
      <path class="fil9" d="M1206 1534l-4 1 -1 1 -3 2 0 2c-2,-8 0,-1 -4,-4l-3 6c-2,-3 -2,-3 -4,-5 -2,-1 -1,-1 -3,-2l-15 0c1,6 -1,2 2,5l3 1 4 3c4,2 3,3 6,6 6,4 5,1 9,4 4,4 4,15 6,24 1,3 -1,1 2,3 3,-2 2,0 2,-3 -1,-11 -1,-16 0,-23 9,-2 10,3 21,-10 2,-3 1,0 2,-4 -2,-1 -7,-3 -12,-3 -4,1 -9,5 -9,7l1 -11z"/>
      <path class="fil4" d="M1243 1513c-2,-2 -2,-1 0,-4l0 4zm14 9l0 0 -10 2 -2 -22 4 -1c-4,-3 -3,-6 -5,-11 -2,-6 -3,-7 -3,-14l4 -4c-7,-5 -1,2 -4,-21 5,-4 4,-1 4,-4l-6 1 -2 -19 4 -2c-6,-15 0,-4 -2,-17 -1,6 -4,16 -2,26 0,6 0,18 -1,24 0,8 0,17 1,23 0,7 -1,10 0,16 0,7 0,8 1,15 1,11 1,18 1,31l0 6c3,2 5,3 10,3 -2,-19 -3,-16 3,-18 -1,0 -2,0 -2,-1l-2 -1c0,1 -1,0 -1,-1 1,-10 0,-8 10,-11z"/>
      <path class="fil8" d="M1285 1560l-5 -46c2,-3 1,0 2,-5l-4 -27c-2,-8 -2,-17 -3,-25 -1,-10 -3,-14 -4,-23 -1,-8 -2,-17 -4,-23l-1 10c0,6 1,2 1,6 1,4 -2,10 0,16 2,11 4,-2 3,12 0,4 1,14 1,18 4,18 -4,1 4,32 4,14 -2,1 1,30 1,-1 2,-1 2,-1 2,0 0,-5 2,1 1,0 2,0 2,0 -3,3 5,2 -5,3l1 11c4,1 2,-1 4,3 -1,0 -1,1 -1,1l-3 2c0,0 -2,-1 0,3 2,6 4,1 5,5 0,0 1,0 1,0 -7,4 -5,0 -5,6l6 -1 0 -8z"/>
      <path class="fil8" d="M1313 1542l-7 -60c-2,-9 0,-41 -6,-50 0,0 -1,-4 -1,-4 0,-3 0,-1 -1,-3 -3,6 3,51 3,51 -4,6 0,-6 0,3 -1,24 2,7 2,33 0,8 0,6 2,8 4,8 -3,2 -3,12 0,12 3,12 6,14 -1,6 -2,1 -2,7 7,-1 7,-4 7,-11z"/>
      <path class="fil9" d="M1385 1539c2,-4 2,-3 6,-6l1 -2 0 -2 -7 -2 -1 -1 1 1c-1,2 2,0 -3,3 -1,0 -3,1 -4,1 -2,1 -5,3 -4,-1l-1 0c-3,-1 -2,4 -2,-4 0,-7 1,-2 -2,-4 -3,3 -2,1 -4,5 -4,-1 -1,1 -5,-3l-3 5c-4,-5 -8,-7 -14,-6 7,3 6,0 11,8 -6,0 -3,0 -8,-3 -6,-3 -2,-1 -8,-2 3,4 5,4 8,8 12,13 15,-3 17,28 1,10 0,4 3,6 4,-2 1,-11 2,-27 9,0 10,2 17,-2z"/>
      <path class="fil8" d="M1357 1467l0 0c0,0 0,0 0,0zm4 48c0,1 0,-1 0,0zm4 -3l-1 -13 0 -3 -2 -10 -6 -52c-1,-4 -1,-8 -2,-12 0,0 -1,-3 -2,-4 -2,-4 1,-1 -2,-4l0 11c0,5 -3,7 0,12 1,5 -1,3 4,4l-3 3c0,0 -1,0 -1,0 2,4 2,4 2,10 0,0 -4,7 3,5 -8,7 -3,2 -1,23 9,-4 1,-1 1,6 -1,12 2,6 5,9 -1,0 2,-2 -2,1 0,1 -3,0 -1,7 2,9 2,-5 0,3 -1,6 -1,2 0,12l7 -1c1,-4 1,-2 1,-7z"/>
      <path class="fil8" d="M1210 1502l-2 -18 -5 -43c-2,-11 -1,-15 -2,-26 -1,-10 -3,-18 -5,-26 -3,-1 -1,-1 -3,1 1,1 0,-1 1,3 0,0 1,4 1,4 0,4 0,4 0,7 0,6 1,12 1,18 1,5 1,13 2,15 0,5 -1,8 2,23l0 14c0,12 6,4 3,11 -3,3 -2,-3 -3,5 -2,9 1,12 6,14 -2,6 -3,1 -3,8 9,-2 7,-8 7,-10z"/>
      <path class="fil4" d="M1298 1425c-1,-2 -1,-3 -2,0l-1 5c0,1 0,1 -1,2 2,17 3,33 2,49 0,10 0,15 2,26l-1 3c0,4 3,30 1,34 1,6 2,9 8,9 0,-6 1,-1 2,-7 -3,-2 -6,-2 -6,-14 0,-10 7,-4 3,-12 -2,-2 -2,0 -2,-8 0,-26 -3,-9 -2,-33 0,-9 -4,3 0,-3 0,0 -6,-45 -3,-51z"/>
      <path class="fil10" d="M1313 1542c0,7 0,10 -7,11 -6,0 -7,-3 -8,-9 -4,-1 -2,1 -3,-3 -7,3 -3,4 -10,3 0,0 0,2 0,2 2,8 -1,5 4,8 -1,-7 0,-4 3,-9 4,2 1,1 -1,3 -1,2 -1,1 -1,4 5,6 10,7 17,8 1,3 -2,0 0,5 5,-2 31,-7 19,-20 -2,-4 -1,-2 -5,-4 -1,4 1,1 1,4 -3,-2 -5,-3 -9,-3z"/>
      <path class="fil10" d="M1259 1544l0 9 -10 1c-5,0 -7,-1 -10,-3l0 -6c-6,1 -12,3 -16,6 1,10 3,4 2,12 0,3 7,7 17,6l-12 -4c-3,-2 -2,-1 -3,-3 6,0 6,2 13,2l6 -1c11,-7 14,-3 19,-9 3,-2 2,-2 2,-5l0 -6c-13,-2 -1,3 -8,1z"/>
      <path class="fil4" d="M1373 1509c6,1 2,-1 4,3 -5,-1 -2,2 -4,-3zm7 17l-1 -20c0,-1 -3,-2 -2,-15 0,-12 -4,-12 -3,-21l-1 -22c-1,-8 -2,-4 -3,-9l-1 -24c0,-3 -1,3 -1,6 -1,4 -1,9 0,14 1,9 0,14 1,25 1,10 0,15 2,26l1 10 -8 0 0 3 7 0 3 26 0 4 -1 1 1 0 0 -1 6 -3z"/>
      <path class="fil4" d="M1355 1501c-6,3 -3,1 -5,1 2,-2 -1,-1 3,-2l2 1zm-5 -87c-1,4 -3,13 -2,19 0,5 0,9 -1,12 0,5 1,8 1,12 0,6 0,19 0,26 0,6 1,7 0,12 -1,5 -4,5 -15,6l16 -1c1,6 2,10 0,15 1,4 -1,3 3,5l5 0c-1,-10 -1,-6 0,-12 2,-8 2,6 0,-3 -2,-7 1,-6 1,-7 4,-3 1,-1 2,-1 -3,-3 -6,3 -5,-9 0,-7 8,-10 -1,-6 -2,-21 -7,-16 1,-23 -7,2 -3,-5 -3,-5 0,-6 0,-6 -2,-10 0,0 1,0 1,0l3 -3c-5,-1 -3,1 -4,-4 -3,-5 0,-7 0,-12l0 -11z"/>
      <path class="fil4" d="M1193 1390c1,16 0,35 1,52 2,14 0,27 2,41l0 2c-1,9 -2,8 0,19 0,0 2,5 2,6 3,3 -1,2 5,2 0,-7 1,-2 3,-8 -5,-2 -8,-5 -6,-14 1,-8 0,-2 3,-5 3,-7 -3,1 -3,-11l0 -14c-3,-15 -2,-18 -2,-23 -1,-2 -1,-10 -2,-15 0,-6 -1,-12 -1,-18 0,-3 0,-3 0,-7 0,0 -1,-4 -1,-4 -1,-4 0,-2 -1,-3z"/>
      <path class="fil5" d="M1296 1481c-8,1 -12,0 -18,1l4 27 16 -2c-2,-11 -2,-16 -2,-26z"/>
      <path class="fil10" d="M1142 1566l-3 4c-2,3 -4,4 -7,9 7,4 11,4 22,2 13,-3 13,-5 13,-12 -15,-6 -17,-2 -25,-3z"/>
      <path class="fil8" d="M1383 1514l0 -1 -3 -23c-1,-7 -1,-18 -2,-28 0,-5 -1,-10 -2,-14 -1,-6 -1,-6 -2,-12 -1,-4 -1,-8 -2,-12 0,-1 0,-4 0,-5 -2,-4 0,-2 -3,-4l1 24c1,5 2,1 3,9l1 22c-1,9 3,9 3,21 -1,13 2,14 2,15l1 20 4 0 -1 -2 0 -10z"/>
      <path class="fil5" d="M1269 1514c-1,-6 -3,-11 -2,-18 0,-5 0,-7 -1,-14l-12 1 3 34c6,-1 6,-2 12,-3z"/>
      <path class="fil10" d="M1285 1560l0 8 -6 1c-6,0 -2,0 -7,-1l-1 -7 -6 3c-2,-3 -1,-1 1,-6 -6,1 -5,2 -12,2l9 2c0,0 -10,13 3,15 -2,-7 -3,-1 -4,-10l2 0c2,17 31,6 32,1 -1,-7 -4,-8 -11,-8z"/>
      <path class="fil8" d="M1159 1503l-2 -11 9 -1c0,0 0,-3 0,-3 1,-4 0,-1 2,-3 -5,-3 -1,-1 -6,-1 0,0 -2,0 -3,0 -4,-1 0,2 -3,-2 -9,5 -7,-2 -8,8l-1 0c3,5 -4,3 5,5 -4,2 -1,1 -4,2l1 15 11 -1 -1 -8z"/>
      <path class="fil8" d="M1404 1510l-1 -13 -6 -49 -4 5 1 10c2,1 3,25 2,31l3 1c0,2 -7,15 1,18 1,0 1,1 0,1 0,0 0,1 0,2 0,2 -1,2 -1,4 3,-1 3,-1 4,-3 2,-3 2,-2 1,-7z"/>
      <path class="fil4" d="M1397 1448l0 2 -3 -3c-1,-5 -3,-17 -1,-22 -1,-1 2,-1 -3,-1 1,8 1,9 0,15 1,4 2,10 2,14 0,5 -1,7 0,13l1 25c-1,4 1,0 -2,3 1,3 2,7 2,10 0,1 0,4 0,5 0,3 0,1 -1,3 2,5 1,8 7,8 0,-2 1,-2 1,-4 0,-1 0,-2 0,-2 1,0 1,-1 0,-1 -8,-3 -1,-16 -1,-18l-3 -1c1,-6 0,-30 -2,-31l-1 -10 4 -5z"/>
      <path class="fil10" d="M1159 1503l1 8 -11 1c-10,0 -8,-2 -10,-7 -4,5 -2,1 -5,2 -4,0 -12,13 14,15l-1 -3c-7,0 -15,-2 -13,-10l4 7c3,3 31,4 29,-11 0,-6 -5,-4 -8,-2z"/>
      <path class="fil10" d="M1184 1519c0,7 1,7 -6,8 -6,-1 -7,-1 -9,-7 -4,1 -3,1 -6,0 0,0 -1,-1 -1,-1 4,-1 2,0 4,-3 -7,0 -5,2 -12,2l8 4c-3,3 -4,6 0,10l14 0c12,0 10,-2 17,-5 -1,-3 -2,-6 -4,-9l-5 1z"/>
      <path class="fil8" d="M1259 1544l-2 -22c-10,3 -9,1 -10,11 0,1 1,2 1,1l2 1c0,1 1,1 2,1 -6,2 -5,-1 -3,18l10 -1 0 -9z"/>
      <path class="fil10" d="M1404 1510c1,5 1,4 -1,7 -1,2 -1,2 -4,3 -6,0 -5,-3 -7,-8 -3,-1 -7,-1 -9,1l0 1c0,1 0,1 0,1l2 3c1,2 5,4 11,5 10,1 13,-4 17,-8 0,5 -2,5 -6,7l-5 3c0,0 -1,0 -1,0 -2,1 -1,1 -2,2 5,0 9,-1 12,-3 5,-3 4,-4 5,-9l-1 -2c0,0 -1,0 -1,0l-4 1c-2,-3 -1,-3 -6,-4z"/>
      <path class="fil5" d="M1391 1494c0,-1 0,0 -2,-1 -1,-1 0,-1 -3,-2 -3,-1 -3,0 -6,-1l3 23c2,-2 6,-2 9,-1 1,-2 1,0 1,-3 0,-1 0,-4 0,-5 0,-3 -1,-7 -2,-10z"/>
      <path class="fil10" d="M1369 1522c1,-6 3,0 1,-11 -4,0 -2,-1 -5,1 0,5 0,3 -1,7l-7 1 -5 0c-4,-2 -2,-1 -3,-5 -5,3 -2,-2 -5,1 -3,3 -2,2 -1,7 6,-1 10,1 14,6l3 -5c4,4 1,2 5,3 2,-4 1,-2 4,-5z"/>
      <path class="fil10" d="M1210 1502c0,2 2,8 -7,10 -6,0 -2,1 -5,-2 0,-1 -2,-6 -2,-6 0,0 -2,0 -2,0l-5 -1c0,0 -2,1 -4,0 0,1 0,1 1,2 0,0 0,0 0,0l0 6c-2,-2 -1,2 -1,-5 1,1 2,2 2,2 0,-1 1,0 1,1 1,0 1,0 1,1l5 3c1,1 22,3 23,-8 0,0 0,0 0,0l1 -5c0,0 1,1 1,1l2 3c7,12 -9,15 -17,16 3,2 7,0 10,-1 7,-4 14,-10 6,-16 -3,-2 -3,-1 -7,-1 0,0 -2,0 -3,0z"/>
      <path class="fil5" d="M1364 1499l1 13c3,-2 1,-1 5,-1 2,11 0,5 -1,11 3,2 2,-3 2,4l3 -1 -3 -26 -7 0z"/>
      <path class="fil10" d="M1304 1564c-16,3 8,11 -29,15l1 3c23,-3 19,-1 28,-18z"/>
      <path class="fil10" d="M1285 1583c-18,2 -16,1 -27,-4 4,10 14,9 27,7l0 -3z"/>
      <path class="fil5" d="M1371 1486c-6,1 -4,0 -9,0l2 10 8 0 -1 -10z"/>
      <path class="fil10" d="M1337 1556l-1 -9 -6 -4c4,12 7,1 -1,17 6,2 3,0 8,-4z"/>
      <path class="fil10" d="M1297 1510l1 -3 -16 2c-1,5 0,2 -2,5 5,0 14,-3 17,-4z"/>
      <path class="fil10" d="M1174 1541l-3 -1c-8,0 -7,-3 -15,-4 3,5 3,5 8,6 4,2 8,2 14,2l-4 -3z"/>
      <path class="fil10" d="M1184 1535c2,1 1,1 3,2 8,-2 8,-4 10,-6 0,-1 1,-3 2,-5l1 -4c-1,4 1,-2 -6,7 -4,6 -6,3 -10,6z"/>
      <path class="fil11" d="M1343 1523l-8 1c0,5 -1,1 3,2 6,1 2,-1 8,2 5,3 2,3 8,3 -5,-8 -4,-5 -11,-8z"/>
      <path class="fil8" d="M1396 1441l-3 -16c-2,5 0,17 1,22l3 3 -1 -9z"/>
      <path class="fil10" d="M1425 1518l-2 1c-2,-6 -2,-6 -7,-7l4 5c-3,5 -3,3 -4,8l8 -3c0,0 0,0 0,0 3,-2 1,0 1,-4z"/>
      <path class="fil10" d="M1143 1524c-11,1 -9,-4 -18,-4 5,7 7,7 19,6l-1 -2z"/>
      <path class="fil10" d="M1392 1531l-1 2c-4,3 -4,2 -6,6 10,-1 9,-5 12,-12 -4,2 -2,1 -5,4z"/>
      <path class="fil10" d="M1309 1571c-4,4 0,2 -4,5 -4,5 -2,0 -6,6 3,1 4,1 7,-2 4,-3 4,-4 3,-9z"/>
      <path class="fil10" d="M1267 1519c-1,-2 -1,-1 2,-2l0 -3c-6,1 -6,2 -12,3 0,3 0,2 0,5 -1,-4 7,-3 10,-3z"/>
      <path class="fil10" d="M1203 1578c0,3 1,1 -2,3 -3,-2 -1,0 -2,-3 -5,2 -3,-1 -3,4 7,1 7,2 13,-3 -2,-1 -3,-1 -6,-1z"/>
      <path class="fil11" d="M1385 1527l-1 -1 -4 0 -6 3 0 1c-1,4 2,2 4,1 1,0 3,-1 4,-1 5,-3 2,-1 3,-3z"/>
      <path class="fil10" d="M1402 1531c-5,5 0,4 -8,7l0 3c7,-2 8,-3 8,-10z"/>
      <path class="fil10" d="M1383 1524l1 2 1 1 7 2 -1 -4c-4,0 -3,-1 -8,-1z"/>
      <path class="fil10" d="M1201 1536c-2,0 -3,-1 -3,2l3 -2zm5 -2c2,-3 1,-1 1,-7 -2,2 -5,6 -5,8l4 -1z"/>
      <path class="fil10" d="M1343 1551l-3 0 -1 6c4,-2 4,-1 4,-6z"/>
      <path class="fil10" d="M1374 1529l0 -4 -3 1c0,8 -1,3 2,4l1 -1z"/>
      <path class="fil10" d="M1170 1499c1,4 0,2 3,4 0,-4 3,-3 -3,-4z"/>
      <path class="fil5" d="M1355 1501l-2 -1c-4,1 -1,0 -3,2 2,0 -1,2 5,-1z"/>
      <path class="fil10" d="M1373 1509c2,5 -1,2 4,3 -2,-4 2,-2 -4,-3z"/>
      <path class="fil5" d="M1243 1509c-2,3 -2,2 0,4l0 -4z"/>
      <path class="fil4" d="M1150 1444c-1,-2 -2,-3 -1,0 0,1 1,0 1,0z"/>
      <path class="fil4" d="M1357 1467c0,0 0,0 0,0l0 0z"/>
      <path class="fil4" d="M1361 1515c0,-1 0,1 0,0z"/>
     </g>
    </g>
    <path class="fil12" d="M1635 1584c-4,-4 -13,-2 -19,-5 0,-10 6,-3 -3,-15l-6 -7c0,0 -1,0 -1,0 0,0 -1,-1 -1,-1l-4 -4c4,-1 5,-2 11,-2 15,1 17,9 22,13l3 -5c1,-2 -3,-1 3,-2 1,5 0,3 3,6 1,-7 3,-4 7,-8 1,0 2,1 2,1 0,0 1,1 1,1 0,1 0,1 0,2 -1,6 1,5 -2,10 5,-2 2,-1 7,-3l6 -2c1,0 2,-1 3,-1 5,0 5,0 9,2l5 4c-1,4 0,4 -11,11 2,3 -1,1 1,2l-17 2c-1,0 -3,0 -4,0 -13,4 -3,30 -9,35l-3 0 0 -27c0,-3 0,-2 0,-4 -2,-5 0,-1 -3,-3z"/>
   </g>
   <g>
    <g>
     <path class="fil14" d="M997 505c11,4 -1,-1 5,6 4,5 -5,3 7,6 -3,9 -4,17 -1,27 14,39 50,-3 51,-3 2,8 5,6 6,8 0,1 1,1 1,1 12,-6 16,-6 20,-20 3,-10 3,-28 0,-35 20,-2 20,-14 31,-22 -2,22 2,32 26,27 -2,10 -6,19 -2,28 3,7 10,14 19,15 20,2 32,-20 41,-26 1,28 26,8 29,7 -1,15 -3,38 21,26 0,16 -4,12 8,34 -18,0 -17,-2 -24,10 1,12 4,15 16,16 -3,14 -9,3 -14,22 5,8 4,5 12,10 -2,7 -7,12 -6,21 1,8 6,11 13,12 -2,9 -6,16 -1,24 15,25 52,-25 54,-26 2,6 3,11 12,9 13,-2 -2,-8 24,-19 5,-2 8,-4 12,-7 5,53 59,44 48,-2 10,2 24,12 38,9 15,-5 14,-17 8,-28 25,-3 27,-30 0,-37 5,-7 13,-10 16,-18 5,-16 -7,-12 -16,-10 4,-19 4,-12 -5,-24 2,-3 0,0 3,-5 5,-7 9,-18 2,-26 -11,-12 -21,1 -31,4 7,-14 7,-21 0,-31 -15,1 -7,5 -17,12 -16,-30 -36,-12 -36,31 -8,-6 -3,-6 -11,-11 -5,-4 -12,-3 -13,-3 2,-21 15,-26 -7,-41 -12,6 -17,11 -17,29 -17,-5 0,-8 -29,-5 3,-13 18,-28 -2,-34 2,-9 2,-9 2,-21 19,4 23,3 31,-12 -4,-20 -13,-14 -21,-25 10,-2 14,-6 19,-14 -1,-27 -17,-17 -36,-17 20,-37 -29,-14 -29,-14l0 -10c-20,0 -8,4 -22,7 -2,-27 -38,0 -41,0 0,-25 -15,-6 -21,-2 1,-12 2,-4 0,-14 -7,0 -7,1 -12,2 -3,-12 -3,-13 -12,-19 -21,1 -20,14 -20,36 -11,0 -20,3 -21,19l-5 0c-7,-24 -33,-6 -36,-5 1,-16 5,-13 -2,-29 -13,-3 -7,-3 -20,0 0,-14 -8,-23 -19,-26 -15,0 -23,23 -26,28 0,-106 51,-118 89,-47 12,-8 3,-8 24,-8 3,7 6,11 7,20 11,-8 27,-35 57,-24 15,6 9,8 17,14 6,-21 49,-35 56,-5 9,-6 50,-33 53,-5 22,-11 39,-13 45,15 18,-2 18,-3 12,19 11,0 23,-6 31,3 9,11 -2,23 -4,31 32,0 17,18 7,33 10,0 57,-10 58,27 31,-21 17,18 16,19 16,-4 30,-4 40,7 22,52 -16,70 -34,87 17,7 22,3 22,28 -5,3 -6,5 -10,9 -6,3 -6,2 -12,5 9,1 11,8 17,12 0,14 0,16 -7,23 9,13 24,31 15,54 -6,15 -25,30 -46,22 4,11 2,12 0,24 -13,6 -14,4 -19,6 0,18 -2,42 -23,42 -11,0 -9,-1 -12,-7 -4,6 -4,14 -11,17 -13,6 -12,-1 -16,-8 -5,10 -4,11 -14,19 -6,4 -14,9 -22,11 -33,12 -44,-1 -54,-8 0,-11 -1,-11 3,-19 -10,1 -16,4 -25,3 -17,-2 -29,-15 -26,-33 2,-8 7,-12 10,-18 -5,1 -10,4 -18,1 -8,-2 -7,-5 -9,-14l17 -6c-6,-3 -13,-5 -19,-8 3,-18 2,-10 14,-17 -6,-12 -28,-43 5,-65 -13,-2 -26,-14 -26,-29 -2,1 -1,1 -6,3 -9,4 -9,5 -16,3 -8,-2 -12,-7 -12,-15 -7,11 -8,18 -19,27 -9,8 -23,8 -29,-3 -3,6 -4,12 -7,19 -3,4 -8,12 -12,15 -4,4 -12,9 -19,9 -12,0 -9,-4 -13,-12 -1,7 -6,15 -10,21 -7,10 -24,17 -25,2 -1,-9 2,-10 4,-16 -4,4 -24,9 -30,-11 -4,-15 4,-30 13,-34 -13,0 -17,3 -27,-3l0 -80z"/>
     <path class="fil13" d="M997 350c3,-5 11,-28 26,-28 11,3 19,12 19,26 13,-3 7,-3 20,0 7,16 3,13 2,29 3,-1 29,-19 36,5l5 0c1,-16 10,-19 21,-19 0,-22 -1,-35 20,-36 9,6 9,7 12,19 5,-1 5,-2 12,-2 2,10 1,2 0,14 6,-4 21,-23 21,2 3,0 39,-27 41,0 14,-3 2,-7 22,-7l0 10c0,0 49,-23 29,14 19,0 35,-10 36,17 -5,8 -9,12 -19,14 8,11 17,5 21,25 -8,15 -12,16 -31,12 0,12 0,12 -2,21 20,6 5,21 2,34 29,-3 12,0 29,5 0,-18 5,-23 17,-29 22,15 9,20 7,41 1,0 8,-1 13,3 8,5 3,5 11,11 0,-43 20,-61 36,-31 10,-7 2,-11 17,-12 7,10 7,17 0,31 10,-3 20,-16 31,-4 7,8 3,19 -2,26 -3,5 -1,2 -3,5 9,12 9,5 5,24 9,-2 21,-6 16,10 -3,8 -11,11 -16,18 27,7 25,34 0,37 6,11 7,23 -8,28 -14,3 -28,-7 -38,-9 11,46 -43,55 -48,2 -4,3 -7,5 -12,7 -26,11 -11,17 -24,19 -9,2 -10,-3 -12,-9 -2,1 -39,51 -54,26 -5,-8 -1,-15 1,-24 -7,-1 -12,-4 -13,-12 -1,-9 4,-14 6,-21 -8,-5 -7,-2 -12,-10 5,-19 11,-8 14,-22 -12,-1 -15,-4 -16,-16 7,-12 6,-10 24,-10 -12,-22 -8,-18 -8,-34 -24,12 -22,-11 -21,-26 -3,1 -28,21 -29,-7 -9,6 -21,28 -41,26 -9,-1 -16,-8 -19,-15 -4,-9 0,-18 2,-28 -24,5 -28,-5 -26,-27 -11,8 -11,20 -31,22 3,7 3,25 0,35 -4,14 -8,14 -20,20 0,0 -1,0 -1,-1 -1,-2 -4,0 -6,-8 -1,0 -37,42 -51,3 -3,-10 -2,-18 1,-27 -12,-3 -3,-1 -7,-6 -6,-7 6,-2 -5,-6l0 -155z"/>
     <path class="fil15" d="M1158 683c2,-19 5,-34 5,-56 -10,6 -7,5 -22,5 -6,24 0,42 17,51zm-161 -98l0 47 4 5c0,1 1,1 1,2 2,3 3,5 4,7l-9 8 0 24c12,2 7,3 19,-1l9 -2c0,22 3,36 3,56 8,-5 6,-3 9,-13 5,-12 6,-24 8,-28 2,-5 16,-13 21,-15l3 -7c18,0 25,-6 38,-10 3,10 3,10 10,15 9,-3 6,-5 15,-10 3,15 12,20 19,32 -7,4 -13,10 -20,14 -6,5 -13,9 -19,14l-34 34c-5,4 -4,4 -7,9 -6,13 -19,22 -24,37 -10,16 -19,49 -14,77 13,-17 -5,-73 118,-171l52 -43c3,10 1,7 -7,17 -5,6 -8,9 -13,14 5,-2 8,-5 13,-7l8 10c-12,2 -20,7 -25,16 7,10 19,12 34,12 0,39 4,24 7,37 3,14 -9,12 -4,31l9 -1c2,0 4,0 6,-1l8 -3 -1 6c-2,15 0,6 0,18 5,3 9,6 18,4 14,-2 4,-6 18,0 11,4 33,10 45,2 8,-1 4,-1 12,-2 10,-4 10,-3 19,-9 1,12 4,10 12,14 10,-5 12,-4 14,-16l5 5c7,5 14,6 21,1 7,-5 4,-6 8,-11 9,-12 45,-14 46,-48 31,15 29,6 29,-24 10,-3 21,-13 27,-21 19,-25 10,-43 21,-52 3,-2 27,-9 21,-25 -3,-8 -6,-6 -17,-6 0,-10 2,-9 -8,-11 -15,-4 7,5 -4,-1 0,-14 3,-23 -9,-26 3,-14 13,-9 12,-29 -1,-15 -8,-17 -24,-17 0,-20 -4,-10 4,-25 13,-24 16,-52 -3,-69 22,52 -16,70 -34,87 17,7 22,3 22,28 -5,3 -6,5 -10,9 -6,3 -6,2 -12,5 9,1 11,8 17,12 0,14 0,16 -7,23 9,13 24,31 15,54 -6,15 -25,30 -46,22 4,11 2,12 0,24 -13,6 -14,4 -19,6 0,18 -2,42 -23,42 -11,0 -9,-1 -12,-7 -4,6 -4,14 -11,17 -13,6 -12,-1 -16,-8 -5,10 -4,11 -14,19 -6,4 -14,9 -22,11 -33,12 -44,-1 -54,-8 0,-11 -1,-11 3,-19 -10,1 -16,4 -25,3 -17,-2 -29,-15 -26,-33 2,-8 7,-12 10,-18 -5,1 -10,4 -18,1 -8,-2 -7,-5 -9,-14l17 -6c-6,-3 -13,-5 -19,-8 3,-18 2,-10 14,-17 -6,-12 -28,-43 5,-65 -13,-2 -26,-14 -26,-29 -2,1 -1,1 -6,3 -9,4 -9,5 -16,3 -8,-2 -12,-7 -12,-15 -7,11 -8,18 -19,27 -9,8 -23,8 -29,-3 -3,6 -4,12 -7,19 -3,4 -8,12 -12,15 -4,4 -12,9 -19,9 -12,0 -9,-4 -13,-12 -1,7 -6,15 -10,21 -7,10 -24,17 -25,2 -1,-9 2,-10 4,-16 -4,4 -24,9 -30,-11 -4,-15 4,-30 13,-34 -13,0 -17,3 -27,-3zm174 90c6,-5 16,-15 22,-22 12,-16 1,-12 13,-35 -33,-16 -34,-5 -34,21 0,16 -4,24 -1,36z"/>
     <path class="fil2" d="M1066 675l3 -7c18,0 25,-6 38,-10 3,10 3,10 10,15 9,-3 6,-5 15,-10 3,15 12,20 19,32 -7,4 -13,10 -20,14 -6,5 -13,9 -19,14l-34 34c0,-9 -7,-29 -9,-41 -2,-12 -7,-30 -3,-41z"/>
     <path class="fil2" d="M1238 815c5,3 9,6 18,4 14,-2 4,-6 18,0 11,4 33,10 45,2 -4,21 -18,61 -45,56 -16,-3 -27,-28 -32,-43 -2,-7 -3,-14 -4,-19z"/>
     <path class="fil14" d="M1225 795c2,0 4,0 6,-1l8 -3 -1 6c-2,15 0,6 0,18 1,5 2,12 4,19 5,15 16,40 32,43 27,5 41,-35 45,-56 8,-1 4,-1 12,-2 -3,7 -5,16 -8,24 -3,8 -5,16 -10,23 -37,54 -88,0 -88,-71z"/>
     <path class="fil2" d="M1093 781c2,-8 8,-10 13,-17 6,-8 8,-9 14,-16 10,-10 19,-19 30,-27 0,13 -10,40 -16,49 -5,8 -9,13 -18,16 -13,4 -13,-2 -23,-5z"/>
     <path class="fil2" d="M1206 618c-12,23 -1,19 -13,35 -6,7 -16,17 -22,22 -3,-12 1,-20 1,-36 0,-26 1,-37 34,-21z"/>
     <path class="fil14" d="M1085 789l8 -8c10,3 10,9 23,5 9,-3 13,-8 18,-16 6,-9 16,-36 16,-49 4,-5 10,-9 15,-12 -4,9 -8,45 -22,67 -21,32 -40,21 -58,13z"/>
     <path class="fil2" d="M1158 683c-17,-9 -23,-27 -17,-51 15,0 12,1 22,-5 0,22 -3,37 -5,56z"/>
     <path class="fil2" d="M997 632l4 5c0,1 1,1 1,2 2,3 3,5 4,7l-9 8 0 -22z"/>
     <path class="fil2" d="M1066 675l3 -7c18,0 25,-6 38,-10 3,10 3,10 10,15 9,-3 6,-5 15,-10 3,15 12,20 19,32 -7,4 -13,10 -20,14 -6,5 -13,9 -19,14l-34 34c0,-9 -7,-29 -9,-41 -2,-12 -7,-30 -3,-41z"/>
     <path class="fil2" d="M1238 815c5,3 9,6 18,4 14,-2 4,-6 18,0 11,4 33,10 45,2 -4,21 -18,61 -45,56 -16,-3 -27,-28 -32,-43 -2,-7 -3,-14 -4,-19z"/>
     <path class="fil14" d="M1225 795c2,0 4,0 6,-1l8 -3 -1 6c-2,15 0,6 0,18 1,5 2,12 4,19 5,15 16,40 32,43 27,5 41,-35 45,-56 8,-1 4,-1 12,-2 -3,7 -5,16 -8,24 -3,8 -5,16 -10,23 -37,54 -88,0 -88,-71z"/>
     <path class="fil2" d="M1093 781c2,-8 8,-10 13,-17 6,-8 8,-9 14,-16 10,-10 19,-19 30,-27 0,13 -10,40 -16,49 -5,8 -9,13 -18,16 -13,4 -13,-2 -23,-5z"/>
     <path class="fil2" d="M1206 618c-12,23 -1,19 -13,35 -6,7 -16,17 -22,22 -3,-12 1,-20 1,-36 0,-26 1,-37 34,-21z"/>
     <path class="fil14" d="M1085 789l8 -8c10,3 10,9 23,5 9,-3 13,-8 18,-16 6,-9 16,-36 16,-49 4,-5 10,-9 15,-12 -4,9 -8,45 -22,67 -21,32 -40,21 -58,13z"/>
     <path class="fil2" d="M1158 683c-17,-9 -23,-27 -17,-51 15,0 12,1 22,-5 0,22 -3,37 -5,56z"/>
     <path class="fil2" d="M997 632l4 5c0,1 1,1 1,2 2,3 3,5 4,7l-9 8 0 -22z"/>
     <path class="fil14" d="M1161 495c-9,4 1,-1 -4,5 -4,4 4,2 -6,5 2,8 4,14 1,22 -12,33 -42,-2 -43,-2 -1,7 -4,5 -5,7 0,0 0,0 -1,1 -9,-5 -12,-6 -16,-18 -3,-7 -3,-22 0,-28 -17,-2 -17,-12 -26,-18 2,17 -2,26 -22,22 2,8 5,15 2,23 -2,6 -8,12 -16,13 -16,1 -26,-17 -34,-22 0,23 -21,6 -24,6 1,12 2,31 -18,22 1,13 4,9 -6,28 15,0 14,-2 20,8 -1,10 -4,13 -14,14 3,11 9,2 12,18 -4,6 -3,4 -10,8 2,6 6,10 5,17 -1,7 -5,9 -11,11 2,7 5,13 2,19 -13,21 -44,-20 -46,-21 -1,5 -2,9 -9,7 -12,-2 1,-6 -21,-15 -4,-2 -6,-4 -10,-6 -3,44 -49,37 -40,-2 -8,2 -20,10 -31,7 -13,-3 -12,-14 -7,-23 -20,-2 -22,-25 0,-30 -4,-7 -11,-9 -13,-15 -5,-14 6,-11 13,-9 -3,-16 -3,-10 4,-20 -2,-2 0,0 -2,-4 -5,-6 -8,-15 -1,-22 9,-10 16,1 25,4 -5,-12 -6,-18 0,-26 12,1 6,4 14,10 13,-25 30,-10 30,26 7,-5 2,-5 9,-10 5,-3 10,-2 11,-2 -1,-18 -12,-22 6,-34 10,5 14,9 14,24 14,-4 0,-6 24,-4 -2,-11 -15,-24 2,-28 -2,-8 -2,-8 -2,-18 -16,3 -19,2 -26,-10 4,-16 12,-11 18,-20 -8,-2 -12,-6 -16,-12 1,-23 14,-15 30,-14 -16,-32 24,-12 24,-12l0 -8c17,0 7,3 18,6 2,-23 32,-1 34,0 1,-21 13,-6 18,-2 -1,-10 -2,-4 0,-12 6,0 6,1 10,2 3,-11 3,-11 10,-16 18,1 16,11 16,30 10,0 17,2 18,16l4 0c6,-21 27,-5 30,-4 -1,-14 -4,-11 2,-24 11,-3 6,-3 16,0 1,-12 7,-20 16,-22 13,-1 19,19 22,23l0 -71c-5,3 -4,1 -6,8 -33,-8 -51,-8 -68,24 -10,-7 -3,-6 -20,-6 -3,5 -5,8 -6,16 -9,-7 -22,-30 -47,-20 -12,5 -7,6 -15,12 -4,-18 -40,-30 -46,-4 -7,-5 -42,-28 -44,-4 -18,-10 -32,-11 -38,12 -15,-2 -14,-3 -10,16 -9,-1 -19,-5 -25,2 -8,9 1,19 3,26 -26,0 -14,15 -6,28 -9,0 -47,-9 -48,22 -26,-18 -14,15 -14,16 -13,-3 -24,-4 -32,6 -19,42 12,57 27,72 -13,6 -18,2 -18,23 4,3 5,4 9,7 4,3 5,2 9,5 -7,1 -9,6 -14,10 0,11 0,13 6,19 -7,10 -20,26 -12,45 5,12 20,25 38,18 -4,9 -2,10 0,20 11,5 12,3 16,5 0,15 2,35 19,35 9,0 7,-1 10,-6 3,5 3,12 9,15 11,5 10,-1 13,-7 5,8 4,9 12,15 5,4 12,8 19,10 27,9 36,-1 44,-7 0,-9 1,-9 -2,-16 8,1 13,4 20,3 15,-2 25,-12 22,-28 -1,-7 -5,-10 -8,-15 4,1 9,3 15,1 7,-2 6,-4 7,-11l-14 -5c6,-3 11,-5 16,-7 -2,-15 -2,-9 -12,-14 5,-11 24,-36 -4,-54 11,-2 22,-12 22,-24 2,1 1,0 5,2 7,3 8,4 13,2 7,-1 10,-5 10,-12 6,9 7,15 16,22 8,7 19,7 24,-2 3,5 4,10 6,15 2,4 6,10 10,13 3,4 10,8 15,8 11,-1 8,-4 11,-10 1,5 6,12 9,17 6,8 20,14 21,1 1,-6 -2,-7 -4,-12 4,3 21,7 25,-10 4,-13 -3,-24 -11,-28 11,0 15,2 23,-2l0 -67z"/>
     <path class="fil13" d="M1161 366c-3,-4 -9,-24 -22,-23 -9,2 -15,10 -16,22 -10,-3 -5,-3 -16,0 -6,13 -3,10 -2,24 -3,-1 -24,-17 -30,4l-4 0c-1,-14 -8,-16 -18,-16 0,-19 2,-29 -16,-30 -7,5 -7,5 -10,16 -4,-1 -4,-2 -10,-2 -2,8 -1,2 0,12 -5,-4 -17,-19 -18,2 -2,-1 -32,-23 -34,0 -11,-3 -1,-6 -18,-6l0 8c0,0 -40,-20 -24,12 -16,-1 -29,-9 -30,14 4,6 8,10 16,12 -6,9 -14,4 -18,20 7,12 10,13 26,10 0,10 0,10 2,18 -17,4 -4,17 -2,28 -24,-2 -10,0 -24,4 0,-15 -4,-19 -14,-24 -18,12 -7,16 -6,34 -1,0 -6,-1 -11,2 -7,5 -2,5 -9,10 0,-36 -17,-51 -30,-26 -8,-6 -2,-9 -14,-10 -6,8 -5,14 0,26 -9,-3 -16,-14 -25,-4 -7,7 -4,16 1,22 2,4 0,2 2,4 -7,10 -7,4 -4,20 -7,-2 -18,-5 -13,9 2,6 9,8 13,15 -22,5 -20,28 0,30 -5,9 -6,20 7,23 11,3 23,-5 31,-7 -9,39 37,46 40,2 4,2 6,4 10,6 22,9 9,13 21,15 7,2 8,-2 9,-7 2,1 33,42 46,21 3,-6 0,-12 -2,-19 6,-2 10,-4 11,-11 1,-7 -3,-11 -5,-17 7,-4 6,-2 10,-8 -3,-16 -9,-7 -12,-18 10,-1 13,-4 14,-14 -6,-10 -5,-8 -20,-8 10,-19 7,-15 6,-28 20,9 19,-10 18,-22 3,0 24,17 24,-6 8,5 18,23 34,22 8,-1 14,-7 16,-13 3,-8 0,-15 -2,-23 20,4 24,-5 22,-22 9,6 9,16 26,18 -3,6 -3,21 0,28 4,12 7,13 16,18 1,-1 1,-1 1,-1 1,-2 4,0 5,-7 1,0 31,35 43,2 3,-8 1,-14 -1,-22 10,-3 2,-1 6,-5 5,-6 -5,-1 4,-5l0 -129z"/>
     <path class="fil15" d="M1027 643c-1,-15 -4,-28 -4,-46 8,5 5,4 18,4 5,20 0,34 -14,42zm134 -81l0 39 -3 4c-1,0 -1,1 -1,1 -2,3 -2,4 -3,7l7 6 0 20c-10,2 -6,3 -16,-1l-7 -1c0,18 -2,29 -2,46 -7,-4 -5,-2 -9,-10 -3,-10 -4,-21 -6,-24 -2,-4 -13,-11 -18,-12l-2 -6c-15,0 -20,-6 -32,-8 -2,8 -2,8 -8,12 -7,-2 -5,-4 -12,-8 -3,12 -11,16 -16,26 6,3 11,8 16,12 6,4 11,7 17,12l28 28c3,3 3,3 5,7 6,11 17,18 20,31 8,13 16,40 12,64 -10,-14 4,-61 -98,-142l-44 -36c-2,9 0,6 6,14 5,5 7,7 11,12 -4,-2 -6,-4 -10,-6l-7 8c10,2 16,6 20,14 -5,8 -15,10 -28,10 0,32 -3,20 -5,30 -3,12 7,10 3,26l-8 -1c-2,0 -3,0 -5,-1l-7 -2 1 5c2,12 1,5 1,15 -4,2 -8,5 -15,4 -13,-2 -4,-6 -15,-1 -9,4 -28,8 -38,2 -7,-1 -3,-1 -10,-2 -8,-3 -8,-2 -16,-7 -1,9 -3,8 -10,12 -8,-4 -9,-4 -12,-14l-4 4c-5,5 -12,5 -17,1 -6,-4 -4,-5 -7,-9 -7,-10 -37,-12 -38,-40 -26,13 -24,5 -24,-20 -8,-2 -18,-11 -22,-18 -16,-20 -9,-35 -18,-42 -3,-3 -22,-9 -18,-22 3,-6 5,-4 14,-4 0,-9 -1,-8 7,-10 13,-3 -6,4 3,0 0,-12 -2,-20 8,-22 -3,-12 -11,-7 -10,-24 1,-13 7,-14 20,-14 0,-17 4,-9 -3,-21 -11,-20 -14,-43 3,-57 -19,42 12,57 27,72 -13,6 -18,2 -18,23 4,3 5,4 9,7 4,3 5,2 9,5 -7,1 -9,6 -14,10 0,11 0,13 6,19 -7,10 -20,26 -12,45 5,12 20,25 38,18 -4,9 -2,10 0,20 11,5 12,3 16,5 0,15 2,35 19,35 9,0 7,-1 10,-6 3,5 3,12 9,15 11,5 10,-1 13,-7 5,8 4,9 12,15 5,4 12,8 19,10 27,9 36,-1 44,-7 0,-9 1,-9 -2,-16 8,1 13,4 20,3 15,-2 25,-12 22,-28 -1,-7 -5,-10 -8,-15 4,1 9,3 15,1 7,-2 6,-4 7,-11l-14 -5c6,-3 11,-5 16,-7 -2,-15 -2,-9 -12,-14 5,-11 24,-36 -4,-54 11,-2 22,-12 22,-24 2,1 1,0 5,2 7,3 8,4 13,2 7,-1 10,-5 10,-12 6,9 7,15 16,22 8,7 19,7 24,-2 3,5 4,10 6,15 2,4 6,10 10,13 3,4 10,8 15,8 11,-1 8,-4 11,-10 1,5 6,12 9,17 6,8 20,14 21,1 1,-6 -2,-7 -4,-12 4,3 21,7 25,-10 4,-13 -3,-24 -11,-28 11,0 15,2 23,-2zm-145 75c-5,-5 -13,-13 -18,-19 -10,-13 -1,-10 -11,-29 27,-13 29,-4 29,18 0,13 3,19 0,30z"/>
     <path class="fil2" d="M1103 637l-2 -6c-15,0 -20,-6 -32,-8 -2,8 -2,8 -8,12 -7,-2 -5,-4 -12,-8 -3,12 -11,16 -16,26 6,3 11,8 16,12 6,4 11,7 17,12l28 28c-1,-8 5,-24 7,-34 2,-10 6,-25 2,-34z"/>
     <path class="fil2" d="M961 753c-4,2 -8,5 -15,4 -13,-2 -4,-6 -15,-1 -9,4 -28,8 -38,2 4,17 15,51 38,47 13,-3 22,-24 26,-36 2,-6 2,-12 4,-16z"/>
     <path class="fil14" d="M971 736c-2,0 -3,0 -5,-1l-7 -2 1 5c2,12 1,5 1,15 -2,4 -2,10 -4,16 -4,12 -13,33 -26,36 -23,4 -34,-30 -38,-47 -7,-1 -3,-1 -10,-2 3,6 4,14 7,21 2,6 4,13 8,19 31,45 73,0 73,-60z"/>
     <path class="fil2" d="M1161 639c-10,2 -6,3 -16,-1l2 105 14 -26 0 -78z"/>
     <path class="fil2" d="M1099 712c6,11 17,18 20,31 3,-5 2,-5 2,-12l2 -36c0,-9 -8,-33 -11,-38 0,25 -11,47 -13,55z"/>
     <path class="fil2" d="M1081 725c-2,-7 -6,-9 -11,-15 -5,-6 -6,-7 -11,-13 -9,-8 -16,-15 -26,-22 0,11 9,33 14,40 4,7 7,11 15,14 11,3 10,-2 19,-4z"/>
     <path class="fil2" d="M987 589c10,19 1,16 11,29 5,6 13,14 18,19 3,-11 0,-17 0,-30 0,-22 -2,-31 -29,-18z"/>
     <path class="fil14" d="M1088 731l-7 -6c-9,2 -8,7 -19,4 -8,-3 -11,-7 -15,-14 -5,-7 -14,-29 -14,-40 -2,-4 -7,-8 -12,-10 4,7 7,37 19,56 17,26 32,17 48,10z"/>
     <path class="fil2" d="M1027 643c14,-8 19,-22 14,-42 -13,0 -10,1 -18,-4 0,18 3,31 4,46z"/>
     <path class="fil2" d="M1161 601l-3 4c-1,0 -1,1 -1,1 -2,3 -2,4 -3,7l7 6 0 -18z"/>
     <path class="fil2" d="M1103 637l-2 -6c-15,0 -20,-6 -32,-8 -2,8 -2,8 -8,12 -7,-2 -5,-4 -12,-8 -3,12 -11,16 -16,26 6,3 11,8 16,12 6,4 11,7 17,12l28 28c-1,-8 5,-24 7,-34 2,-10 6,-25 2,-34z"/>
     <path class="fil2" d="M961 753c-4,2 -8,5 -15,4 -13,-2 -4,-6 -15,-1 -9,4 -28,8 -38,2 4,17 15,51 38,47 13,-3 22,-24 26,-36 2,-6 2,-12 4,-16z"/>
     <path class="fil14" d="M971 736c-2,0 -3,0 -5,-1l-7 -2 1 5c2,12 1,5 1,15 -2,4 -2,10 -4,16 -4,12 -13,33 -26,36 -23,4 -34,-30 -38,-47 -7,-1 -3,-1 -10,-2 3,6 4,14 7,21 2,6 4,13 8,19 31,45 73,0 73,-60z"/>
     <path class="fil2" d="M1161 639c-10,2 -6,3 -16,-1l2 105 14 -26 0 -78z"/>
     <path class="fil2" d="M1099 712c6,11 17,18 20,31 3,-5 2,-5 2,-12l2 -36c0,-9 -8,-33 -11,-38 0,25 -11,47 -13,55z"/>
     <path class="fil2" d="M1081 725c-2,-7 -6,-9 -11,-15 -5,-6 -6,-7 -11,-13 -9,-8 -16,-15 -26,-22 0,11 9,33 14,40 4,7 7,11 15,14 11,3 10,-2 19,-4z"/>
     <path class="fil2" d="M987 589c10,19 1,16 11,29 5,6 13,14 18,19 3,-11 0,-17 0,-30 0,-22 -2,-31 -29,-18z"/>
     <path class="fil14" d="M1088 731l-7 -6c-9,2 -8,7 -19,4 -8,-3 -11,-7 -15,-14 -5,-7 -14,-29 -14,-40 -2,-4 -7,-8 -12,-10 4,7 7,37 19,56 17,26 32,17 48,10z"/>
     <path class="fil2" d="M1027 643c14,-8 19,-22 14,-42 -13,0 -10,1 -18,-4 0,18 3,31 4,46z"/>
     <path class="fil2" d="M1161 601l-3 4c-1,0 -1,1 -1,1 -2,3 -2,4 -3,7l7 6 0 -18z"/>
     <path class="fil14" d="M863 642c12,5 -1,-1 5,7 5,5 -5,2 7,5 -2,10 -4,17 0,27 14,39 50,-2 51,-3 2,8 5,6 5,9 1,0 1,0 2,1 11,-6 15,-7 20,-21 3,-9 2,-27 -1,-35 21,-1 21,-14 31,-21 -1,21 3,32 27,26 -3,10 -6,19 -2,29 2,7 9,14 19,15 19,1 31,-21 40,-27 1,29 26,8 29,7 -1,15 -2,38 22,27 0,15 -4,11 7,33 -17,0 -16,-1 -24,10 1,12 5,16 17,17 -4,13 -10,2 -14,22 5,7 3,5 12,9 -2,7 -8,13 -7,21 2,8 6,11 14,13 -2,8 -6,16 -2,23 15,25 53,-24 55,-26 1,6 2,11 11,10 14,-3 -2,-8 25,-19 4,-2 8,-5 12,-7 4,52 59,44 48,-3 10,3 24,13 37,9 16,-4 14,-17 8,-28 25,-2 27,-30 0,-36 6,-8 14,-10 16,-18 6,-17 -7,-13 -16,-11 5,-19 4,-12 -4,-24 2,-3 0,1 3,-4 5,-8 9,-18 1,-27 -11,-11 -20,2 -31,5 7,-14 7,-21 0,-32 -14,1 -7,5 -17,12 -15,-29 -36,-12 -36,32 -7,-6 -2,-7 -10,-12 -6,-3 -12,-2 -14,-3 2,-21 15,-26 -7,-41 -11,6 -17,11 -17,29 -16,-4 1,-7 -29,-5 4,-13 19,-28 -2,-33 2,-10 2,-10 2,-22 20,4 24,3 32,-12 -5,-19 -14,-13 -22,-24 10,-3 14,-7 19,-15 0,-27 -17,-17 -36,-16 20,-38 -29,-15 -29,-15l0 -9c-20,0 -7,3 -21,7 -3,-28 -39,-1 -41,0 -1,-25 -15,-7 -22,-3 1,-11 2,-4 0,-14 -6,0 -6,1 -12,2 -3,-12 -3,-13 -12,-19 -21,2 -19,14 -19,36 -12,0 -20,3 -22,19l-5 0c-6,-24 -32,-5 -36,-4 2,-16 6,-14 -2,-29 -13,-3 -7,-3 -19,0 -1,-14 -8,-24 -19,-27 -16,0 -23,24 -27,29l0 -86c6,4 5,1 7,9 40,-9 62,-9 82,29 12,-8 4,-7 24,-7 4,6 7,10 7,19 12,-8 28,-35 57,-23 15,6 9,7 18,13 5,-20 48,-35 55,-4 9,-6 51,-34 53,-5 22,-12 39,-13 46,14 18,-1 17,-3 12,20 10,-1 23,-6 30,2 10,11 -2,23 -4,31 32,0 17,19 7,34 11,0 57,-11 58,26 31,-20 17,19 17,20 16,-4 29,-4 39,7 22,51 -15,69 -33,86 16,8 22,3 22,28 -6,4 -6,5 -11,9 -5,4 -6,3 -11,5 8,2 11,8 17,12 0,14 0,16 -7,23 8,13 23,31 14,54 -6,15 -24,30 -46,22 5,12 3,13 0,24 -12,6 -14,4 -19,6 0,18 -2,42 -23,42 -11,0 -8,-1 -12,-7 -4,7 -3,14 -11,18 -12,6 -11,-1 -15,-8 -6,9 -5,11 -15,18 -6,4 -14,9 -22,12 -33,11 -43,-2 -53,-9 0,-11 -1,-11 2,-19 -9,1 -16,5 -24,3 -17,-2 -30,-14 -26,-33 1,-8 6,-12 9,-18 -4,2 -10,4 -17,2 -9,-3 -8,-6 -9,-14l16 -6c-6,-3 -12,-5 -19,-9 3,-17 3,-10 15,-16 -7,-13 -28,-43 4,-65 -13,-2 -25,-14 -26,-29 -2,1 -1,1 -5,3 -9,4 -10,4 -17,3 -7,-3 -11,-7 -12,-16 -6,12 -7,18 -18,27 -10,8 -24,8 -30,-3 -3,6 -4,13 -7,19 -2,5 -7,12 -11,16 -5,4 -12,9 -19,8 -13,0 -9,-4 -13,-11 -1,6 -7,15 -11,20 -7,10 -23,17 -25,2 -1,-8 2,-9 5,-15 -5,4 -25,9 -31,-12 -4,-15 4,-29 14,-34 -13,0 -18,3 -28,-2l0 -81z"/>
     <path class="fil13" d="M863 488c4,-5 11,-29 27,-29 11,3 18,13 19,27 12,-3 6,-3 19,0 8,15 4,13 2,29 4,-1 30,-20 36,4l5 0c2,-16 10,-19 22,-19 0,-22 -2,-34 19,-36 9,6 9,7 12,19 6,-1 6,-2 12,-2 2,10 1,3 0,14 7,-4 21,-22 22,3 2,-1 38,-28 41,0 14,-4 1,-7 21,-7l0 9c0,0 49,-23 29,15 19,-1 36,-11 36,16 -5,8 -9,12 -19,15 8,11 17,5 22,24 -8,15 -12,16 -32,12 0,12 0,12 -2,22 21,5 6,20 2,33 30,-2 13,1 29,5 0,-18 6,-23 17,-29 22,15 9,20 7,41 2,1 8,0 14,3 8,5 3,6 10,12 0,-44 21,-61 36,-32 10,-7 3,-11 17,-12 7,11 7,18 0,32 11,-3 20,-16 31,-5 8,9 4,19 -1,27 -3,5 -1,1 -3,4 8,12 9,5 4,24 9,-2 22,-6 16,11 -2,8 -10,10 -16,18 27,6 25,34 0,36 6,11 8,24 -8,28 -13,4 -27,-6 -37,-9 11,47 -44,55 -48,3 -4,2 -8,5 -12,7 -27,11 -11,16 -25,19 -9,1 -10,-4 -11,-10 -2,2 -40,51 -55,26 -4,-7 0,-15 2,-23 -8,-2 -12,-5 -14,-13 -1,-8 5,-14 7,-21 -9,-4 -7,-2 -12,-9 4,-20 10,-9 14,-22 -12,-1 -16,-5 -17,-17 8,-11 7,-10 24,-10 -11,-22 -7,-18 -7,-33 -24,11 -23,-12 -22,-27 -3,1 -28,22 -29,-7 -9,6 -21,28 -40,27 -10,-1 -17,-8 -19,-15 -4,-10 -1,-19 2,-29 -24,6 -28,-5 -27,-26 -10,7 -10,20 -31,21 3,8 4,26 1,35 -5,14 -9,15 -20,21 -1,-1 -1,-1 -2,-1 0,-3 -3,-1 -5,-9 -1,1 -37,42 -51,3 -4,-10 -2,-17 0,-27 -12,-3 -2,0 -7,-5 -6,-8 7,-2 -5,-7l0 -154z"/>
     <path class="fil15" d="M1025 820c1,-18 4,-34 4,-55 -10,5 -6,4 -22,4 -5,25 1,42 18,51zm-162 -97l0 47 5 5c0,0 0,1 1,1 2,3 2,5 3,8l-9 7 0 24c12,3 8,4 20,-1l9 -1c0,22 2,35 2,56 8,-5 6,-3 10,-13 4,-12 5,-25 7,-29 3,-5 17,-13 22,-14l2 -8c19,0 25,-6 39,-9 2,9 2,10 9,14 9,-2 7,-4 15,-9 4,15 13,19 19,31 -6,4 -13,10 -19,14 -7,5 -13,9 -20,15l-33 34c-5,4 -4,4 -8,8 -6,13 -19,22 -24,37 -9,16 -18,49 -14,77 13,-17 -5,-73 118,-170l53 -44c2,11 1,8 -7,17 -6,6 -9,9 -14,14 5,-2 8,-4 13,-7l8 10c-12,3 -19,7 -24,17 6,9 18,12 34,12 0,38 4,24 6,37 3,13 -8,11 -4,30l10 -1c2,0 3,0 6,-1l8 -3 -1 6c-3,15 -1,6 -1,18 5,3 9,6 18,5 15,-2 5,-7 18,-1 11,5 33,10 45,3 8,-2 4,-2 12,-3 11,-3 10,-3 20,-9 1,12 3,10 12,15 9,-5 11,-5 14,-17l5 5c6,6 14,6 20,1 8,-4 5,-5 9,-11 8,-11 44,-14 45,-48 31,16 29,6 29,-24 10,-2 21,-13 27,-21 19,-25 10,-43 21,-51 4,-3 27,-10 22,-26 -3,-8 -6,-5 -17,-5 0,-11 1,-9 -8,-12 -15,-4 7,5 -4,0 0,-15 2,-23 -10,-27 4,-13 14,-8 13,-29 -1,-14 -9,-16 -25,-16 0,-21 -4,-11 4,-25 14,-24 17,-53 -3,-69 22,51 -15,69 -33,86 16,8 22,3 22,28 -6,4 -6,5 -11,9 -5,4 -6,3 -11,5 8,2 11,8 17,12 0,14 0,16 -7,23 8,13 23,31 14,54 -6,15 -24,30 -46,22 5,12 3,13 0,24 -12,6 -14,4 -19,6 0,18 -2,42 -23,42 -11,0 -8,-1 -12,-7 -4,7 -3,14 -11,18 -12,6 -11,-1 -15,-8 -6,9 -5,11 -15,18 -6,4 -14,9 -22,12 -33,11 -43,-2 -53,-9 0,-11 -1,-11 2,-19 -9,1 -16,5 -24,3 -17,-2 -30,-14 -26,-33 1,-8 6,-12 9,-18 -4,2 -10,4 -17,2 -9,-3 -8,-6 -9,-14l16 -6c-6,-3 -12,-5 -19,-9 3,-17 3,-10 15,-16 -7,-13 -28,-43 4,-65 -13,-2 -25,-14 -26,-29 -2,1 -1,1 -5,3 -9,4 -10,4 -17,3 -7,-3 -11,-7 -12,-16 -6,12 -7,18 -18,27 -10,8 -24,8 -30,-3 -3,6 -4,13 -7,19 -2,5 -7,12 -11,16 -5,4 -12,9 -19,8 -13,0 -9,-4 -13,-11 -1,6 -7,15 -11,20 -7,10 -23,17 -25,2 -1,-8 2,-9 5,-15 -5,4 -25,9 -31,-12 -4,-15 4,-29 14,-34 -13,0 -18,3 -28,-2zm174 90c6,-6 17,-16 22,-23 13,-16 1,-11 13,-35 -32,-16 -34,-4 -34,22 0,15 -4,23 -1,36z"/>
     <path class="fil14" d="M1092 932c2,0 3,0 6,-1l8 -3 -1 6c-3,15 -1,6 -1,18 2,5 2,13 4,19 5,15 16,41 32,44 27,5 41,-36 45,-56 8,-2 4,-2 12,-3 -3,8 -4,17 -7,25 -3,7 -6,16 -11,23 -36,54 -87,0 -87,-72z"/>
     <path class="fil14" d="M943 918l8 -7c10,3 10,8 23,4 9,-3 13,-8 18,-16 5,-9 16,-35 16,-48 3,-6 9,-9 15,-13 -5,9 -8,45 -23,67 -21,32 -39,22 -57,13z"/>
     <path class="fil2" d="M863 770l5 5c0,0 0,1 1,1 2,3 2,5 3,8l-9 7 0 -21z"/>
     <path class="fil14" d="M863 642c12,5 -1,-1 5,7 5,5 -5,2 7,5 -2,10 -4,17 0,27 14,39 50,-2 51,-3 2,8 5,6 5,9 1,0 1,0 2,1 11,-6 15,-7 20,-21 3,-9 2,-27 -1,-35 21,-1 21,-14 31,-21 -1,21 3,32 27,26 -3,10 -6,19 -2,29 2,7 9,14 19,15 19,1 31,-21 40,-27 1,29 26,8 29,7 -1,15 -2,38 22,27 0,15 -4,11 7,33 -17,0 -16,-1 -24,10 1,12 5,16 17,17 -4,13 -10,2 -14,22 5,7 3,5 12,9 -2,7 -8,13 -7,21 2,8 6,11 14,13 -2,8 -6,16 -2,23 15,25 53,-24 55,-26 1,6 2,11 11,10 14,-3 -2,-8 25,-19 4,-2 8,-5 12,-7 4,52 59,44 48,-3 10,3 24,13 37,9 16,-4 14,-17 8,-28 25,-2 27,-30 0,-36 6,-8 14,-10 16,-18 6,-17 -7,-13 -16,-11 5,-19 4,-12 -4,-24 2,-3 0,1 3,-4 5,-8 9,-18 1,-27 -11,-11 -20,2 -31,5 7,-14 7,-21 0,-32 -14,1 -7,5 -17,12 -15,-29 -36,-12 -36,32 -7,-6 -2,-7 -10,-12 -6,-3 -12,-2 -14,-3 2,-21 15,-26 -7,-41 -11,6 -17,11 -17,29 -16,-4 1,-7 -29,-5 4,-13 19,-28 -2,-33 2,-10 2,-10 2,-22 20,4 24,3 32,-12 -5,-19 -14,-13 -22,-24 10,-3 14,-7 19,-15 0,-27 -17,-17 -36,-16 20,-38 -29,-15 -29,-15l0 -9c-20,0 -7,3 -21,7 -3,-28 -39,-1 -41,0 -1,-25 -15,-7 -22,-3 1,-11 2,-4 0,-14 -6,0 -6,1 -12,2 -3,-12 -3,-13 -12,-19 -21,2 -19,14 -19,36 -12,0 -20,3 -22,19l-5 0c-6,-24 -32,-5 -36,-4 2,-16 6,-14 -2,-29 -13,-3 -7,-3 -19,0 -1,-14 -8,-24 -19,-27 -16,0 -23,24 -27,29l0 -86c6,4 5,1 7,9 40,-9 62,-9 82,29 12,-8 4,-7 24,-7 4,6 7,10 7,19 12,-8 28,-35 57,-23 15,6 9,7 18,13 5,-20 48,-35 55,-4 9,-6 51,-34 53,-5 22,-12 39,-13 46,14 18,-1 17,-3 12,20 10,-1 23,-6 30,2 10,11 -2,23 -4,31 32,0 17,19 7,34 11,0 57,-11 58,26 31,-20 17,19 17,20 16,-4 29,-4 39,7 22,51 -15,69 -33,86 16,8 22,3 22,28 -6,4 -6,5 -11,9 -5,4 -6,3 -11,5 8,2 11,8 17,12 0,14 0,16 -7,23 8,13 23,31 14,54 -6,15 -24,30 -46,22 5,12 3,13 0,24 -12,6 -14,4 -19,6 0,18 -2,42 -23,42 -11,0 -8,-1 -12,-7 -4,7 -3,14 -11,18 -12,6 -11,-1 -15,-8 -6,9 -5,11 -15,18 -6,4 -14,9 -22,12 -33,11 -43,-2 -53,-9 0,-11 -1,-11 2,-19 -9,1 -16,5 -24,3 -17,-2 -30,-14 -26,-33 1,-8 6,-12 9,-18 -4,2 -10,4 -17,2 -9,-3 -8,-6 -9,-14l16 -6c-6,-3 -12,-5 -19,-9 3,-17 3,-10 15,-16 -7,-13 -28,-43 4,-65 -13,-2 -25,-14 -26,-29 -2,1 -1,1 -5,3 -9,4 -10,4 -17,3 -7,-3 -11,-7 -12,-16 -6,12 -7,18 -18,27 -10,8 -24,8 -30,-3 -3,6 -4,13 -7,19 -2,5 -7,12 -11,16 -5,4 -12,9 -19,8 -13,0 -9,-4 -13,-11 -1,6 -7,15 -11,20 -7,10 -23,17 -25,2 -1,-8 2,-9 5,-15 -5,4 -25,9 -31,-12 -4,-15 4,-29 14,-34 -13,0 -18,3 -28,-2l0 -81z"/>
     <path class="fil13" d="M863 488c4,-5 11,-29 27,-29 11,3 18,13 19,27 12,-3 6,-3 19,0 8,15 4,13 2,29 4,-1 30,-20 36,4l5 0c2,-16 10,-19 22,-19 0,-22 -2,-34 19,-36 9,6 9,7 12,19 6,-1 6,-2 12,-2 2,10 1,3 0,14 7,-4 21,-22 22,3 2,-1 38,-28 41,0 14,-4 1,-7 21,-7l0 9c0,0 49,-23 29,15 19,-1 36,-11 36,16 -5,8 -9,12 -19,15 8,11 17,5 22,24 -8,15 -12,16 -32,12 0,12 0,12 -2,22 21,5 6,20 2,33 30,-2 13,1 29,5 0,-18 6,-23 17,-29 22,15 9,20 7,41 2,1 8,0 14,3 8,5 3,6 10,12 0,-44 21,-61 36,-32 10,-7 3,-11 17,-12 7,11 7,18 0,32 11,-3 20,-16 31,-5 8,9 4,19 -1,27 -3,5 -1,1 -3,4 8,12 9,5 4,24 9,-2 22,-6 16,11 -2,8 -10,10 -16,18 27,6 25,34 0,36 6,11 8,24 -8,28 -13,4 -27,-6 -37,-9 11,47 -44,55 -48,3 -4,2 -8,5 -12,7 -27,11 -11,16 -25,19 -9,1 -10,-4 -11,-10 -2,2 -40,51 -55,26 -4,-7 0,-15 2,-23 -8,-2 -12,-5 -14,-13 -1,-8 5,-14 7,-21 -9,-4 -7,-2 -12,-9 4,-20 10,-9 14,-22 -12,-1 -16,-5 -17,-17 8,-11 7,-10 24,-10 -11,-22 -7,-18 -7,-33 -24,11 -23,-12 -22,-27 -3,1 -28,22 -29,-7 -9,6 -21,28 -40,27 -10,-1 -17,-8 -19,-15 -4,-10 -1,-19 2,-29 -24,6 -28,-5 -27,-26 -10,7 -10,20 -31,21 3,8 4,26 1,35 -5,14 -9,15 -20,21 -1,-1 -1,-1 -2,-1 0,-3 -3,-1 -5,-9 -1,1 -37,42 -51,3 -4,-10 -2,-17 0,-27 -12,-3 -2,0 -7,-5 -6,-8 7,-2 -5,-7l0 -154z"/>
     <path class="fil14" d="M1092 932c2,0 3,0 6,-1l8 -3 -1 6c-3,15 -1,6 -1,18 2,5 2,13 4,19 5,15 16,41 32,44 27,5 41,-36 45,-56 8,-2 4,-2 12,-3 -3,8 -4,17 -7,25 -3,7 -6,16 -11,23 -36,54 -87,0 -87,-72z"/>
     <path class="fil2" d="M863 770l5 5c0,0 0,1 1,1 2,3 2,5 3,8l-9 7 0 -21z"/>
     <path class="fil2" d="M219 954l-3 4c0,1 -1,1 -1,1 -2,3 -2,4 -3,6l7 6 0 -17z"/>
     <path class="fil14" d="M809 603c-9,3 1,-1 -4,5 -3,4 4,2 -5,4 1,8 3,14 0,21 -11,31 -40,-2 -40,-2 -2,6 -4,5 -5,7 0,0 0,0 -1,0 -9,-4 -12,-5 -16,-16 -2,-7 -2,-21 1,-27 -16,-1 -16,-11 -24,-17 1,17 -2,25 -21,21 2,8 4,15 1,22 -2,6 -7,11 -15,12 -15,1 -24,-16 -32,-21 0,22 -20,6 -22,6 1,12 2,30 -17,20 0,13 3,10 -6,27 14,0 13,-1 19,7 -1,10 -4,13 -13,14 3,10 8,2 11,17 -4,6 -3,4 -9,7 1,6 5,10 4,17 -1,6 -4,8 -10,10 2,6 5,12 1,18 -12,20 -41,-19 -43,-20 -1,4 -2,8 -8,7 -11,-2 1,-6 -20,-15 -4,-1 -6,-3 -9,-5 -4,41 -47,34 -38,-2 -8,2 -19,10 -30,7 -12,-4 -11,-14 -6,-22 -20,-2 -21,-24 0,-29 -4,-6 -10,-8 -13,-14 -4,-13 6,-10 13,-8 -3,-15 -3,-10 4,-19 -2,-2 0,0 -3,-4 -4,-6 -7,-14 -1,-20 9,-10 16,1 25,3 -6,-11 -6,-17 0,-25 11,1 5,4 13,10 12,-24 28,-9 28,24 6,-4 2,-4 8,-8 5,-3 10,-2 11,-3 -1,-16 -12,-20 6,-32 9,5 13,9 13,23 13,-4 0,-6 23,-4 -3,-11 -15,-22 1,-27 -1,-7 -1,-7 -1,-17 -16,4 -19,3 -25,-9 3,-15 11,-10 17,-19 -8,-2 -11,-5 -15,-11 0,-22 13,-14 28,-14 -15,-29 23,-11 23,-11l0 -7c16,0 6,2 17,5 2,-22 30,0 32,0 0,-20 12,-5 17,-2 -1,-9 -2,-3 0,-11 5,0 5,1 9,2 3,-10 3,-10 10,-15 16,1 15,11 15,28 9,0 16,3 17,15l4 0c5,-19 25,-4 28,-4 -1,-12 -4,-10 2,-22 10,-3 5,-3 15,0 0,-11 6,-19 15,-21 12,0 18,18 21,22 0,-83 -41,-93 -70,-37 -9,-6 -3,-6 -19,-6 -3,5 -5,8 -5,15 -10,-6 -22,-27 -45,-18 -12,5 -7,6 -14,11 -4,-17 -38,-28 -43,-4 -7,-5 -40,-26 -42,-4 -17,-9 -31,-10 -36,12 -14,-2 -13,-3 -9,15 -9,-1 -18,-5 -25,2 -7,8 2,18 4,24 -25,0 -14,15 -6,27 -8,0 -44,-9 -45,20 -24,-16 -14,15 -13,15 -13,-2 -23,-3 -31,6 -17,40 12,55 26,68 -13,6 -17,2 -17,22 4,3 4,4 8,7 4,3 5,2 9,4 -7,1 -9,7 -13,10 0,11 0,12 5,18 -6,10 -18,24 -11,42 5,12 19,24 36,17 -4,9 -2,10 0,19 10,5 11,3 15,5 0,14 2,33 18,33 9,0 6,-1 9,-6 3,5 3,11 9,14 10,5 9,-1 12,-6 5,7 4,8 11,14 5,4 12,7 18,9 26,9 34,-1 42,-6 0,-9 1,-9 -2,-15 7,0 12,3 19,2 14,-1 23,-11 21,-26 -2,-6 -5,-9 -8,-14 4,1 8,3 14,1 7,-2 6,-4 7,-11l-13 -4c5,-3 10,-5 15,-7 -2,-14 -2,-8 -11,-13 4,-10 22,-34 -4,-51 10,-2 20,-11 21,-23 1,1 0,1 4,2 7,3 7,4 13,3 6,-2 9,-6 9,-12 5,9 6,14 15,21 7,6 18,6 23,-3 2,5 3,10 6,15 1,4 5,10 8,12 4,4 10,7 15,7 10,0 7,-3 10,-9 1,5 6,12 9,16 5,8 18,14 19,2 1,-7 -1,-8 -3,-12 4,3 19,7 24,-9 3,-12 -3,-23 -11,-27 11,0 14,2 22,-2l0 -63z"/>
     <path class="fil13" d="M809 481c-3,-4 -9,-22 -21,-22 -8,2 -14,9 -15,20 0,0 -1,0 -1,0 -8,-2 -5,-1 -14,1 -6,12 -3,10 -2,22 -3,0 -23,-15 -28,4l-4 0c1,-5 2,-5 -2,-13 -7,-2 -5,-2 -9,-1 -1,-1 -2,-1 -4,-1 0,-3 -1,-6 -2,-8 0,-12 -1,-19 -15,-20 -7,5 -7,5 -10,15 -4,-1 -4,-2 -9,-2 -2,8 -1,2 0,11 -5,-3 -17,-18 -17,2 -2,0 -30,-22 -32,0 -11,-3 -1,-5 -17,-5l0 7c0,0 -38,-18 -23,11 -15,0 -28,-8 -28,14 4,6 7,9 15,11 -6,9 -14,4 -17,19 6,12 9,13 25,9 0,10 0,10 1,17 -16,5 -4,16 -1,27 -23,-2 -10,0 -23,4 0,-14 -4,-18 -13,-23 -18,12 -7,16 -6,32 -1,1 -6,0 -11,3 -6,4 -2,4 -8,8 0,-33 -16,-48 -28,-24 -8,-6 -2,-9 -13,-10 -6,8 -6,14 0,25 -9,-2 -16,-13 -25,-3 -6,6 -3,14 1,20 3,4 1,2 3,4 -7,9 -7,4 -4,19 -7,-2 -17,-5 -13,8 3,6 9,8 13,14 -21,5 -20,27 0,29 -5,8 -6,18 6,22 11,3 22,-5 30,-7 -9,36 34,43 38,2 3,2 5,4 9,5 21,9 9,13 20,15 6,1 7,-3 8,-7 2,1 31,40 43,20 4,-6 1,-12 -1,-18 6,-2 9,-4 10,-10 1,-7 -3,-11 -4,-17 6,-3 5,-1 9,-7 -3,-15 -8,-7 -11,-17 9,-1 12,-4 13,-14 -6,-8 -5,-7 -19,-7 9,-17 6,-14 6,-27 19,10 18,-8 17,-20 2,0 22,16 22,-6 8,5 17,22 32,21 5,-1 8,-3 11,-6 11,13 29,-8 29,-9 2,6 4,4 4,6 0,0 1,0 1,1 7,-4 9,-5 12,-11 0,3 1,6 1,8 4,11 7,12 16,16 1,0 1,0 1,0 1,-2 3,-1 5,-7 0,0 29,33 40,2 2,-6 2,-12 0,-18 6,-4 10,-10 13,-12 1,18 17,5 19,4 -1,10 -2,25 14,18 0,10 -3,7 5,22 -11,0 -11,-1 -16,6 1,8 3,10 11,11 -2,9 -6,1 -9,14 3,5 2,4 8,6 -2,5 -5,9 -4,14 0,5 3,7 8,8 -1,6 -4,11 -1,15 10,17 35,-15 36,-16 1,4 2,7 7,6 9,-2 -1,-5 16,-13 4,-1 6,-2 8,-4 3,34 39,29 32,-2 6,2 15,8 24,6 10,-3 10,-11 6,-18 16,-2 17,-20 0,-24 3,-5 8,-7 10,-12 4,-11 -5,-8 -10,-7 3,-12 2,-7 -3,-16 1,-1 0,1 2,-2 3,-5 5,-12 0,-18 -7,-7 -13,1 -20,3 5,-9 5,-14 0,-20 -9,1 -5,3 -11,8 -10,-20 -23,-8 -23,20 -5,-4 -2,-4 -7,-7 -4,-3 -8,-2 -9,-2 1,-14 10,-17 -5,-27 -7,4 -11,7 -11,19 -11,-3 0,-5 -19,-3 2,-9 12,-19 -1,-22 1,-6 1,-7 1,-15 13,3 16,2 21,-7 -3,-13 -9,-9 -14,-16 6,-2 9,-5 12,-10 0,-17 -11,-11 -23,-11 13,-24 -19,-9 -19,-9l0 -6c-13,0 -5,2 -14,4 -2,-15 -19,-4 -25,-1l0 -18z"/>
     <path class="fil15" d="M682 743c-1,-15 -4,-27 -4,-44 8,4 5,4 18,4 4,19 0,32 -14,40zm127 -77l0 37 -4 4c0,0 0,1 0,1 -2,2 -2,4 -3,6l7 6 0 19c-9,2 -6,2 -16,-1l-6 -1c0,17 -2,28 -2,43 -7,-3 -5,-2 -8,-10 -4,-9 -4,-19 -6,-22 -2,-4 -13,-10 -17,-11l-2 -6c-14,0 -19,-5 -30,-8 -2,8 -2,8 -7,12 -8,-2 -6,-4 -12,-8 -3,12 -10,16 -15,25 5,3 10,8 15,11 5,4 10,7 16,11l26 27c4,3 3,3 6,7 5,10 15,17 18,29 8,12 15,38 11,60 -9,-13 4,-57 -92,-134l-42 -34c-1,9 0,6 6,13 4,5 7,8 11,12 -4,-2 -6,-4 -11,-6l-6 8c9,2 15,6 19,13 -5,7 -14,9 -26,9 0,30 -3,19 -5,29 -3,11 6,9 3,24l-7 0c-2,-1 -4,-1 -5,-1l-7 -3 1 5c2,12 0,5 1,14 -4,3 -7,5 -15,4 -11,-2 -3,-5 -14,-1 -8,4 -25,8 -35,2 -7,-1 -3,-1 -10,-1 -8,-3 -8,-3 -15,-8 -1,10 -3,8 -9,12 -8,-4 -9,-4 -11,-13l-4 4c-5,4 -11,4 -17,1 -5,-4 -3,-5 -6,-9 -7,-9 -35,-11 -36,-38 -24,12 -22,5 -22,-19 -8,-2 -17,-10 -22,-16 -15,-20 -8,-34 -16,-41 -3,-2 -21,-7 -17,-20 2,-6 5,-4 13,-4 0,-8 -1,-7 6,-9 12,-3 -5,4 4,-1 0,-11 -2,-18 7,-20 -3,-11 -10,-7 -10,-23 1,-12 7,-13 20,-13 0,-16 3,-8 -4,-20 -10,-18 -13,-41 3,-54 -17,40 12,55 26,68 -13,6 -17,2 -17,22 4,3 4,4 8,7 4,3 5,2 9,4 -7,1 -9,7 -13,10 0,11 0,12 5,18 -6,10 -18,24 -11,42 5,12 19,24 36,17 -4,9 -2,10 0,19 10,5 11,3 15,5 0,14 2,33 18,33 9,0 6,-1 9,-6 3,5 3,11 9,14 10,5 9,-1 12,-6 5,7 4,8 11,14 5,4 12,7 18,9 26,9 34,-1 42,-6 0,-9 1,-9 -2,-15 7,0 12,3 19,2 14,-1 23,-11 21,-26 -2,-6 -5,-9 -8,-14 4,1 8,3 14,1 7,-2 6,-4 7,-11l-13 -4c5,-3 10,-5 15,-7 -2,-14 -2,-8 -11,-13 4,-10 22,-34 -4,-51 10,-2 20,-11 21,-23 1,1 0,1 4,2 7,3 7,4 13,3 6,-2 9,-6 9,-12 5,9 6,14 15,21 7,6 18,6 23,-3 2,5 3,10 6,15 1,4 5,10 8,12 4,4 10,7 15,7 10,0 7,-3 10,-9 1,5 6,12 9,16 5,8 18,14 19,2 1,-7 -1,-8 -3,-12 4,3 19,7 24,-9 3,-12 -3,-23 -11,-27 11,0 14,2 22,-2zm-137 71c-5,-5 -13,-12 -17,-18 -10,-12 -1,-9 -10,-28 25,-12 27,-3 26,17 0,12 3,19 1,29z"/>
     <path class="fil2" d="M754 737l-2 -6c-14,0 -19,-5 -30,-8 -2,8 -2,8 -7,12 -8,-2 -6,-4 -12,-8 -3,12 -10,16 -15,25 5,3 10,8 15,11 5,4 10,7 16,11l26 27c0,-7 5,-23 7,-32 2,-10 6,-24 2,-32z"/>
     <path class="fil2" d="M620 846c-4,3 -7,5 -15,4 -11,-2 -3,-5 -14,-1 -8,4 -25,8 -35,2 3,17 14,48 35,44 13,-2 22,-22 25,-34 2,-5 2,-11 4,-15z"/>
     <path class="fil14" d="M630 831c-2,-1 -4,-1 -5,-1l-7 -3 1 5c2,12 0,5 1,14 -2,4 -2,10 -4,15 -3,12 -12,32 -25,34 -21,4 -32,-27 -35,-44 -7,-1 -3,-1 -10,-1 3,5 4,12 6,19 3,6 5,12 9,18 28,42 69,0 69,-56z"/>
     <path class="fil2" d="M733 820c-2,-7 -6,-8 -10,-14 -5,-6 -6,-7 -11,-12 -8,-8 -15,-15 -24,-21 0,10 8,31 13,38 4,6 7,10 14,12 10,4 10,-1 18,-3z"/>
     <path class="fil2" d="M645 691c9,19 0,16 10,28 4,6 12,13 17,18 2,-10 -1,-17 -1,-29 1,-20 -1,-29 -26,-17z"/>
     <path class="fil14" d="M739 826l-6 -6c-8,2 -8,7 -18,3 -7,-2 -10,-6 -14,-12 -5,-7 -13,-28 -13,-38 -3,-4 -7,-7 -11,-10 3,7 6,35 17,53 17,25 31,16 45,10z"/>
     <path class="fil2" d="M682 743c14,-8 18,-21 14,-40 -13,0 -10,0 -18,-4 0,17 3,29 4,44z"/>
     <path class="fil2" d="M809 703l-4 4c0,0 0,1 0,1 -2,2 -2,4 -3,6l7 6 0 -17z"/>
     <path class="fil2" d="M754 737l-2 -6c-14,0 -19,-5 -30,-8 -2,8 -2,8 -7,12 -8,-2 -6,-4 -12,-8 -3,12 -10,16 -15,25 5,3 10,8 15,11 5,4 10,7 16,11l26 27c0,-7 5,-23 7,-32 2,-10 6,-24 2,-32z"/>
     <path class="fil2" d="M620 846c-4,3 -7,5 -15,4 -11,-2 -3,-5 -14,-1 -8,4 -25,8 -35,2 3,17 14,48 35,44 13,-2 22,-22 25,-34 2,-5 2,-11 4,-15z"/>
     <path class="fil14" d="M630 831c-2,-1 -4,-1 -5,-1l-7 -3 1 5c2,12 0,5 1,14 -2,4 -2,10 -4,15 -3,12 -12,32 -25,34 -21,4 -32,-27 -35,-44 -7,-1 -3,-1 -10,-1 3,5 4,12 6,19 3,6 5,12 9,18 28,42 69,0 69,-56z"/>
     <path class="fil2" d="M733 820c-2,-7 -6,-8 -10,-14 -5,-6 -6,-7 -11,-12 -8,-8 -15,-15 -24,-21 0,10 8,31 13,38 4,6 7,10 14,12 10,4 10,-1 18,-3z"/>
     <path class="fil2" d="M645 691c9,19 0,16 10,28 4,6 12,13 17,18 2,-10 -1,-17 -1,-29 1,-20 -1,-29 -26,-17z"/>
     <path class="fil14" d="M739 826l-6 -6c-8,2 -8,7 -18,3 -7,-2 -10,-6 -14,-12 -5,-7 -13,-28 -13,-38 -3,-4 -7,-7 -11,-10 3,7 6,35 17,53 17,25 31,16 45,10z"/>
     <path class="fil2" d="M682 743c14,-8 18,-21 14,-40 -13,0 -10,0 -18,-4 0,17 3,29 4,44z"/>
     <path class="fil2" d="M809 703l-4 4c0,0 0,1 0,1 -2,2 -2,4 -3,6l7 6 0 -17z"/>
     <path class="fil14" d="M680 595c7,3 -1,-1 3,4 3,3 -3,2 4,4 -1,6 -2,11 0,17 9,26 33,-1 33,-2 2,6 4,4 4,6 0,0 1,0 1,1 8,-4 10,-5 13,-14 2,-6 2,-18 0,-23 13,-1 13,-9 20,-14 -1,14 2,21 17,18 -1,6 -3,12 -1,18 2,5 6,9 13,10 12,1 20,-13 26,-17 1,18 17,5 19,4 -1,10 -2,25 14,18 0,10 -3,7 5,22 -11,0 -11,-1 -16,6 1,8 3,10 11,11 -2,9 -6,1 -9,14 3,5 2,4 8,6 -2,5 -5,9 -4,14 0,5 3,7 8,8 -1,6 -4,11 -1,15 10,17 35,-15 36,-16 1,4 2,7 7,6 9,-2 -1,-5 16,-13 4,-1 6,-2 8,-4 3,34 39,29 32,-2 6,2 15,8 24,6 10,-3 10,-11 6,-18 16,-2 17,-20 0,-24 3,-5 8,-7 10,-12 4,-11 -5,-8 -10,-7 3,-12 2,-7 -3,-16 1,-1 0,1 2,-2 3,-5 5,-12 0,-18 -7,-7 -13,1 -20,3 5,-9 5,-14 0,-20 -9,1 -5,3 -11,8 -10,-20 -23,-8 -23,20 -5,-4 -2,-4 -7,-7 -4,-3 -8,-2 -9,-2 1,-14 10,-17 -5,-27 -7,4 -11,7 -11,19 -11,-3 0,-5 -19,-3 2,-9 12,-19 -1,-22 1,-6 1,-7 1,-15 13,3 16,2 21,-7 -3,-13 -9,-9 -14,-16 6,-2 9,-5 12,-10 0,-17 -11,-11 -23,-11 13,-24 -19,-9 -19,-9l0 -6c-13,0 -5,2 -14,4 -2,-18 -26,0 -27,0 0,-16 -10,-4 -14,-1 0,-8 1,-3 0,-10 -4,1 -5,1 -8,2 -2,-8 -2,-9 -8,-13 -14,2 -13,10 -13,24 -7,0 -13,2 -14,13l-3 0c-4,-16 -21,-4 -23,-4 0,-10 3,-8 -2,-18 -8,-2 -4,-2 -13,0 0,-10 -5,-16 -12,-18 -10,0 -15,15 -17,19l0 -56c4,2 3,0 4,6 26,-6 41,-6 54,19 8,-6 2,-5 15,-5 3,4 5,7 5,12 8,-5 18,-22 37,-15 10,4 6,5 12,9 4,-13 31,-23 36,-3 6,-4 33,-22 35,-3 14,-8 25,-9 30,9 11,-1 11,-2 7,13 7,0 15,-4 20,2 7,7 -1,15 -2,20 20,0 11,12 4,22 7,0 38,-7 38,17 20,-13 11,12 11,13 11,-3 19,-3 26,5 14,33 -10,45 -22,56 11,5 14,2 14,18 -3,3 -3,4 -7,6 -3,3 -4,2 -7,4 5,1 7,5 11,8 0,9 0,10 -5,14 6,9 16,21 10,36 -4,10 -16,19 -30,14 3,8 1,8 0,16 -8,4 -9,2 -13,4 0,12 -1,27 -15,27 -7,0 -5,0 -7,-5 -3,5 -3,10 -8,12 -8,4 -7,-1 -10,-5 -3,6 -3,7 -9,12 -4,3 -9,6 -15,8 -21,7 -28,-2 -35,-6 0,-7 0,-7 2,-13 -6,1 -10,3 -16,3 -11,-2 -19,-10 -17,-22 1,-6 4,-8 6,-12 -3,1 -6,3 -11,1 -6,-2 -5,-3 -6,-9l11 -4c-4,-2 -9,-3 -13,-5 2,-12 2,-7 10,-11 -4,-9 -19,-29 3,-43 -9,-1 -17,-9 -17,-19 -2,1 -1,1 -4,2 -6,3 -6,3 -11,2 -5,-1 -7,-4 -7,-10 -5,7 -5,12 -13,18 -6,5 -15,5 -19,-2 -2,4 -3,8 -5,12 -1,3 -4,8 -7,10 -3,3 -8,6 -12,6 -9,0 -6,-3 -9,-8 -1,4 -4,10 -7,14 -4,6 -15,11 -16,1 -1,-6 1,-6 3,-10 -3,2 -16,6 -20,-8 -3,-10 3,-19 9,-22 -9,0 -12,2 -18,-2l0 -52z"/>
     <path class="fil15" d="M785 711c1,-12 3,-22 3,-36 -6,4 -4,3 -14,3 -4,16 0,27 11,33zm-105 -64l0 31 2 3c1,1 1,1 1,1 1,2 2,4 3,5l-6 5 0 16c7,2 5,2 13,-1l5 -1c0,15 2,24 2,37 5,-3 4,-2 6,-9 3,-7 4,-16 5,-18 2,-4 11,-9 14,-10l2 -4c12,0 16,-5 25,-7 1,6 2,7 6,10 6,-2 4,-3 10,-7 2,10 8,13 12,21 -4,3 -8,6 -12,9 -5,3 -9,6 -13,10l-22 22c-3,2 -3,3 -5,5 -4,9 -13,15 -16,25 -6,10 -12,32 -9,50 9,-11 -3,-48 77,-112l35 -28c1,7 0,5 -5,11 -3,4 -5,6 -9,9 4,-1 5,-3 9,-4l5 6c-8,2 -13,5 -16,11 4,6 12,8 22,8 0,25 3,16 5,24 1,9 -6,8 -3,20l6 0c2,-1 3,-1 4,-1l5 -2 0 4c-2,10 -1,4 -1,11 3,2 6,4 12,3 10,-1 3,-4 12,0 7,3 21,7 29,2 6,-1 3,-1 8,-2 7,-2 7,-2 13,-6 0,8 2,7 8,10 6,-4 7,-3 9,-11l3 3c4,4 9,4 14,1 4,-3 2,-4 5,-7 6,-8 29,-10 30,-32 20,10 19,4 19,-16 6,-1 14,-8 17,-13 13,-17 7,-28 14,-34 2,-2 18,-6 14,-17 -2,-5 -4,-3 -11,-3 0,-7 1,-6 -5,-8 -10,-2 4,4 -3,0 0,-9 2,-15 -6,-17 2,-9 9,-6 8,-19 -1,-10 -6,-11 -16,-11 0,-13 -3,-7 3,-16 8,-16 11,-35 -2,-45 14,33 -10,45 -22,56 11,5 14,2 14,18 -3,3 -3,4 -7,6 -3,3 -4,2 -7,4 5,1 7,5 11,8 0,9 0,10 -5,14 6,9 16,21 10,36 -4,10 -16,19 -30,14 3,8 1,8 0,16 -8,4 -9,2 -13,4 0,12 -1,27 -15,27 -7,0 -5,0 -7,-5 -3,5 -3,10 -8,12 -8,4 -7,-1 -10,-5 -3,6 -3,7 -9,12 -4,3 -9,6 -15,8 -21,7 -28,-2 -35,-6 0,-7 0,-7 2,-13 -6,1 -10,3 -16,3 -11,-2 -19,-10 -17,-22 1,-6 4,-8 6,-12 -3,1 -6,3 -11,1 -6,-2 -5,-3 -6,-9l11 -4c-4,-2 -9,-3 -13,-5 2,-12 2,-7 10,-11 -4,-9 -19,-29 3,-43 -9,-1 -17,-9 -17,-19 -2,1 -1,1 -4,2 -6,3 -6,3 -11,2 -5,-1 -7,-4 -7,-10 -5,7 -5,12 -13,18 -6,5 -15,5 -19,-2 -2,4 -3,8 -5,12 -1,3 -4,8 -7,10 -3,3 -8,6 -12,6 -9,0 -6,-3 -9,-8 -1,4 -4,10 -7,14 -4,6 -15,11 -16,1 -1,-6 1,-6 3,-10 -3,2 -16,6 -20,-8 -3,-10 3,-19 9,-22 -9,0 -12,2 -18,-2zm113 59c5,-3 11,-10 15,-14 8,-11 1,-8 8,-23 -21,-11 -22,-3 -22,14 0,10 -2,15 -1,23z"/>
     <path class="fil2" d="M725 706l2 -4c12,0 16,-5 25,-7 1,6 2,7 6,10 6,-2 4,-3 10,-7 2,10 8,13 12,21 -4,3 -8,6 -12,9 -5,3 -9,6 -13,10l-22 22c0,-6 -5,-19 -6,-27 -1,-8 -5,-20 -2,-27z"/>
     <path class="fil2" d="M837 797c3,2 6,4 12,3 10,-1 3,-4 12,0 7,3 21,7 29,2 -3,13 -12,40 -29,36 -11,-2 -18,-18 -21,-28 -1,-4 -2,-9 -3,-13z"/>
     <path class="fil14" d="M829 785c2,-1 3,-1 4,-1l5 -2 0 4c-2,10 -1,4 -1,11 1,4 2,9 3,13 3,10 10,26 21,28 17,4 26,-23 29,-36 6,-1 3,-1 8,-2 -2,5 -3,11 -5,16 -2,5 -4,11 -7,15 -24,35 -57,0 -57,-46z"/>
     <path class="fil2" d="M680 708c7,2 5,2 13,-1l-2 83 -11 -21 0 -61z"/>
     <path class="fil2" d="M728 765c-4,9 -13,15 -16,25 -2,-4 -1,-4 -1,-10l-1 -28c0,-7 6,-26 9,-30 0,20 8,37 9,43z"/>
     <path class="fil2" d="M743 776c1,-6 5,-7 8,-12 4,-5 5,-6 9,-10 7,-6 13,-12 20,-18 0,9 -7,26 -10,32 -4,5 -6,9 -12,11 -9,2 -9,-1 -15,-3z"/>
     <path class="fil2" d="M816 669c-7,15 0,12 -8,23 -4,4 -10,11 -15,14 -1,-8 1,-13 1,-23 0,-17 1,-25 22,-14z"/>
     <path class="fil14" d="M738 780l5 -4c6,2 6,5 15,3 6,-2 8,-6 12,-11 3,-6 10,-23 10,-32 2,-3 6,-6 10,-8 -3,6 -5,30 -15,44 -14,21 -26,14 -37,8z"/>
     <path class="fil2" d="M785 711c-11,-6 -15,-17 -11,-33 10,0 8,1 14,-3 0,14 -2,24 -3,36z"/>
     <path class="fil2" d="M680 678l2 3c1,1 1,1 1,1 1,2 2,4 3,5l-6 5 0 -14z"/>
     <path class="fil2" d="M725 706l2 -4c12,0 16,-5 25,-7 1,6 2,7 6,10 6,-2 4,-3 10,-7 2,10 8,13 12,21 -4,3 -8,6 -12,9 -5,3 -9,6 -13,10l-22 22c0,-6 -5,-19 -6,-27 -1,-8 -5,-20 -2,-27z"/>
     <path class="fil2" d="M837 797c3,2 6,4 12,3 10,-1 3,-4 12,0 7,3 21,7 29,2 -3,13 -12,40 -29,36 -11,-2 -18,-18 -21,-28 -1,-4 -2,-9 -3,-13z"/>
     <path class="fil14" d="M829 785c2,-1 3,-1 4,-1l5 -2 0 4c-2,10 -1,4 -1,11 1,4 2,9 3,13 3,10 10,26 21,28 17,4 26,-23 29,-36 6,-1 3,-1 8,-2 -2,5 -3,11 -5,16 -2,5 -4,11 -7,15 -24,35 -57,0 -57,-46z"/>
     <path class="fil2" d="M680 708c7,2 5,2 13,-1l-2 83 -11 -21 0 -61z"/>
     <path class="fil2" d="M728 765c-4,9 -13,15 -16,25 -2,-4 -1,-4 -1,-10l-1 -28c0,-7 6,-26 9,-30 0,20 8,37 9,43z"/>
     <path class="fil2" d="M743 776c1,-6 5,-7 8,-12 4,-5 5,-6 9,-10 7,-6 13,-12 20,-18 0,9 -7,26 -10,32 -4,5 -6,9 -12,11 -9,2 -9,-1 -15,-3z"/>
     <path class="fil2" d="M816 669c-7,15 0,12 -8,23 -4,4 -10,11 -15,14 -1,-8 1,-13 1,-23 0,-17 1,-25 22,-14z"/>
     <path class="fil14" d="M738 780l5 -4c6,2 6,5 15,3 6,-2 8,-6 12,-11 3,-6 10,-23 10,-32 2,-3 6,-6 10,-8 -3,6 -5,30 -15,44 -14,21 -26,14 -37,8z"/>
     <path class="fil2" d="M785 711c-11,-6 -15,-17 -11,-33 10,0 8,1 14,-3 0,14 -2,24 -3,36z"/>
     <path class="fil2" d="M680 678l2 3c1,1 1,1 1,1 1,2 2,4 3,5l-6 5 0 -14z"/>
     <path class="fil14" d="M914 711c-9,3 0,-1 -4,5 -4,4 4,2 -6,4 2,8 4,13 1,21 -11,31 -40,-2 -40,-2 -2,6 -4,5 -5,7 0,0 -1,0 -1,0 -9,-4 -12,-5 -16,-16 -2,-7 -2,-21 1,-27 -16,-1 -16,-11 -25,-17 2,17 -2,25 -20,21 2,8 4,15 1,22 -2,5 -7,11 -15,12 -15,1 -24,-16 -32,-21 0,22 -20,6 -22,6 1,12 2,30 -17,20 0,13 3,10 -6,27 14,0 13,-1 19,7 -1,10 -4,13 -13,14 2,10 7,2 11,17 -4,6 -3,4 -9,7 1,6 5,10 4,17 -1,6 -4,8 -10,10 1,6 5,12 1,18 -12,20 -41,-19 -43,-20 -1,4 -2,8 -9,7 -11,-2 2,-6 -19,-15 -4,-1 -6,-3 -9,-5 -4,41 -47,34 -38,-2 -8,1 -19,10 -30,7 -12,-4 -11,-14 -6,-22 -20,-2 -21,-24 0,-29 -4,-6 -11,-8 -13,-14 -4,-13 6,-10 13,-8 -3,-15 -3,-10 4,-19 -2,-2 0,0 -3,-4 -4,-6 -7,-14 -1,-20 9,-10 16,1 24,3 -5,-11 -5,-17 0,-25 12,1 6,4 14,10 12,-24 28,-10 28,24 6,-4 2,-4 8,-9 5,-2 10,-1 11,-2 -1,-16 -12,-21 6,-32 9,5 13,9 13,23 13,-4 0,-6 22,-4 -2,-11 -14,-22 2,-27 -1,-7 -2,-7 -2,-17 -15,4 -18,3 -24,-9 3,-15 11,-10 17,-19 -8,-2 -11,-5 -15,-11 0,-22 13,-14 28,-14 -15,-29 23,-11 23,-11l0 -8c16,0 6,3 17,6 2,-22 30,0 32,0 0,-20 12,-5 17,-2 -1,-9 -2,-3 0,-11 5,0 5,1 9,2 3,-10 3,-10 10,-15 16,1 15,11 15,28 9,0 16,2 17,15l4 0c5,-19 25,-4 28,-4 -1,-12 -4,-10 2,-22 10,-3 5,-3 15,0 0,-11 6,-19 15,-21 12,0 18,18 21,22l0 -67c-5,3 -4,1 -6,7 -31,-7 -48,-7 -64,23 -9,-7 -3,-6 -19,-6 -3,5 -5,8 -6,15 -9,-6 -21,-27 -44,-18 -12,5 -7,6 -14,11 -4,-17 -38,-28 -44,-4 -6,-5 -39,-26 -41,-4 -17,-9 -31,-10 -36,11 -14,-1 -14,-2 -9,16 -9,-1 -18,-5 -25,2 -7,8 2,18 4,24 -25,0 -14,15 -6,27 -8,0 -45,-9 -45,20 -24,-16 -14,15 -13,15 -13,-3 -24,-3 -31,6 -17,40 12,55 26,68 -13,6 -17,2 -17,22 4,3 4,4 8,7 4,3 5,2 9,4 -7,1 -9,6 -13,10 0,10 0,12 5,18 -6,10 -18,24 -11,42 5,12 19,24 36,17 -4,9 -2,10 0,19 10,5 11,3 15,5 0,14 1,33 18,33 8,0 6,-1 9,-6 3,5 3,11 9,14 10,5 9,-1 12,-6 5,7 3,8 11,14 5,4 12,7 18,9 26,9 34,-1 42,-6 0,-9 1,-9 -2,-15 7,0 12,3 19,2 13,-1 23,-11 20,-26 -1,-6 -4,-9 -7,-14 4,1 8,3 14,1 7,-2 6,-4 7,-11l-13 -4c5,-3 10,-5 15,-7 -2,-14 -2,-8 -11,-13 4,-10 22,-34 -4,-51 10,-2 20,-11 21,-23 1,1 0,1 4,2 7,3 7,4 13,2 5,-1 9,-5 9,-12 5,10 6,15 15,22 7,6 18,6 23,-3 2,5 3,10 5,15 2,4 6,10 9,12 4,3 10,7 15,7 10,0 7,-3 10,-9 1,5 6,12 9,16 5,8 18,14 19,2 1,-7 -1,-8 -3,-12 4,3 19,7 24,-10 3,-11 -3,-22 -11,-26 10,0 14,2 22,-2l0 -63z"/>
     <path class="fil13" d="M914 589c-3,-4 -9,-22 -21,-22 -9,2 -15,10 -15,21 -10,-3 -5,-3 -15,0 -6,12 -3,10 -2,22 -3,0 -23,-15 -28,4l-4 0c-1,-13 -8,-15 -17,-15 0,-17 1,-27 -15,-28 -7,5 -7,5 -10,15 -4,-1 -4,-2 -9,-2 -2,8 -1,2 0,11 -5,-3 -17,-18 -17,2 -2,0 -30,-22 -32,0 -11,-3 -1,-6 -17,-6l0 8c0,0 -38,-18 -23,11 -15,0 -28,-8 -28,14 4,6 7,9 15,11 -6,9 -14,4 -17,19 6,12 9,13 24,9 0,10 1,10 2,17 -16,5 -4,16 -2,27 -22,-2 -9,0 -22,4 0,-14 -4,-18 -13,-23 -18,11 -7,16 -6,32 -1,1 -6,0 -11,2 -6,5 -2,5 -8,9 0,-34 -16,-48 -28,-24 -8,-6 -2,-9 -14,-10 -5,8 -5,14 0,25 -8,-2 -15,-13 -24,-3 -6,6 -3,14 1,20 3,4 1,2 3,4 -7,9 -7,4 -4,19 -7,-2 -17,-5 -13,8 2,6 9,8 13,14 -21,5 -20,27 0,29 -5,8 -6,18 6,22 11,3 22,-6 30,-7 -9,36 34,43 38,2 3,2 5,4 9,5 21,9 8,13 19,15 7,1 8,-3 9,-7 2,1 31,40 43,20 4,-6 0,-12 -1,-18 6,-2 9,-4 10,-10 1,-7 -3,-11 -4,-17 6,-3 5,-1 9,-7 -4,-15 -9,-7 -11,-17 9,-1 12,-4 13,-14 -6,-8 -5,-7 -19,-7 9,-17 6,-14 6,-27 19,10 18,-8 17,-20 2,0 22,16 22,-6 8,5 17,22 32,21 8,-1 13,-7 15,-12 3,-7 1,-14 -1,-22 18,4 22,-4 20,-21 9,6 9,16 25,17 -3,6 -3,20 -1,27 4,11 7,12 16,16 0,0 1,0 1,0 1,-2 3,-1 5,-7 0,0 29,33 40,2 3,-8 1,-13 -1,-21 10,-2 2,0 6,-4 4,-6 -5,-2 4,-5l0 -122z"/>
     <path class="fil15" d="M787 851c-1,-15 -4,-27 -4,-44 8,4 5,4 18,4 4,19 -1,32 -14,40zm127 -77l0 37 -4 4c0,0 0,0 0,1 -2,2 -3,4 -3,6l7 6 0 19c-10,2 -6,2 -16,-1l-6 -1c0,17 -2,28 -2,43 -7,-3 -5,-2 -8,-10 -4,-9 -4,-19 -6,-22 -2,-4 -13,-10 -17,-11l-2 -6c-14,0 -19,-5 -30,-8 -2,8 -2,8 -8,12 -7,-2 -5,-4 -11,-8 -3,12 -10,15 -15,25 5,3 10,8 15,11 5,4 10,7 16,11l26 27c4,3 3,3 5,7 5,10 16,17 19,29 8,12 15,38 11,60 -10,-13 4,-57 -92,-134l-42 -34c-1,8 0,6 6,13 4,5 7,8 11,12 -4,-2 -6,-4 -11,-6l-6 8c9,2 15,5 19,13 -5,7 -14,9 -26,9 0,30 -3,19 -5,29 -3,11 6,9 3,24l-8 0c-1,-1 -3,-1 -4,-1l-7 -3 1 5c2,12 0,5 1,14 -4,3 -8,5 -15,4 -11,-2 -3,-5 -14,-1 -8,4 -26,8 -35,2 -7,-1 -3,-1 -10,-1 -8,-3 -8,-3 -15,-8 -1,10 -3,8 -9,12 -8,-4 -9,-4 -11,-14l-4 5c-5,4 -11,4 -17,1 -5,-4 -3,-5 -6,-9 -7,-9 -35,-11 -36,-38 -24,12 -22,5 -22,-19 -8,-2 -17,-10 -22,-16 -15,-20 -8,-34 -16,-41 -3,-2 -21,-7 -17,-20 2,-6 4,-4 13,-4 0,-8 -1,-7 6,-9 12,-3 -5,4 3,-1 0,-11 -1,-18 8,-20 -3,-11 -11,-7 -10,-23 1,-12 7,-13 19,-13 0,-16 4,-8 -3,-20 -10,-18 -13,-41 3,-54 -17,40 12,55 26,68 -13,6 -17,2 -17,22 4,3 4,4 8,7 4,3 5,2 9,4 -7,1 -9,6 -13,10 0,10 0,12 5,18 -6,10 -18,24 -11,42 5,12 19,24 36,17 -4,9 -2,10 0,19 10,5 11,3 15,5 0,14 1,33 18,33 8,0 6,-1 9,-6 3,5 3,11 9,14 10,5 9,-1 12,-6 5,7 3,8 11,14 5,4 12,7 18,9 26,9 34,-1 42,-6 0,-9 1,-9 -2,-15 7,0 12,3 19,2 13,-1 23,-11 20,-26 -1,-6 -4,-9 -7,-14 4,1 8,3 14,1 7,-2 6,-4 7,-11l-13 -4c5,-3 10,-5 15,-7 -2,-14 -2,-8 -11,-13 4,-10 22,-34 -4,-51 10,-2 20,-11 21,-23 1,1 0,1 4,2 7,3 7,4 13,2 5,-1 9,-5 9,-12 5,10 6,15 15,22 7,6 18,6 23,-3 2,5 3,10 5,15 2,4 6,10 9,12 4,3 10,7 15,7 10,0 7,-3 10,-9 1,5 6,12 9,16 5,8 18,14 19,2 1,-7 -1,-8 -3,-12 4,3 19,7 24,-10 3,-11 -3,-22 -11,-26 10,0 14,2 22,-2zm-137 71c-5,-5 -13,-12 -17,-18 -10,-12 -1,-9 -11,-28 26,-12 27,-3 27,17 0,12 3,19 1,29z"/>
     <path class="fil14" d="M734 939c-1,-1 -3,-1 -4,-1l-7 -3 1 5c2,12 0,5 1,14 -2,4 -2,10 -4,15 -4,12 -12,32 -25,34 -21,4 -32,-27 -35,-44 -7,-1 -3,-1 -10,-1 3,5 4,12 6,19 3,6 5,12 9,18 28,42 68,0 68,-56z"/>
     <path class="fil14" d="M734 939c-1,-1 -3,-1 -4,-1l-7 -3 1 5c2,12 0,5 1,14 -2,4 -2,10 -4,15 -4,12 -12,32 -25,34 -21,4 -32,-27 -35,-44 -7,-1 -3,-1 -10,-1 3,5 4,12 6,19 3,6 5,12 9,18 28,42 68,0 68,-56z"/>
     <path class="fil14" d="M847 913l-7 -5c-8,3 -7,8 -18,6 -7,-2 -11,-5 -15,-11 -6,-7 -16,-26 -17,-37 -3,-3 -8,-6 -13,-8 4,6 10,35 24,51 19,23 32,12 46,4z"/>
    </g>
    <g>
     <path class="fil15" d="M889 1379c-4,20 -12,41 -12,54 28,-19 17,-58 17,-72 -5,5 -2,1 -5,18zm-26 -504l0 90c10,22 11,187 11,227 0,35 -6,210 -11,227l0 41c12,-7 18,-25 37,-16 13,6 26,18 30,32 4,9 0,5 7,10 5,-6 4,-1 4,-12 0,-9 -1,-6 -2,-15 -1,-12 1,-22 0,-35 -4,-5 -4,-6 -6,-13 -18,-65 -12,-190 -12,-260 0,-26 -4,-199 2,-216 5,-12 19,-36 29,-43l7 -8c3,-8 8,-10 14,-17 5,-7 7,-9 13,-15 10,-10 19,-19 31,-27 3,-6 9,-9 14,-13 7,-5 9,-9 18,-12 5,-5 8,-8 13,-14 8,-10 10,-6 8,-17l-53 43c-123,98 -105,154 -118,171 -5,-28 5,-61 14,-77 -3,-6 -2,-6 -2,-14l-2 -43c0,-11 9,-40 14,-46 0,30 13,57 14,66 3,-4 3,-4 7,-8 1,-10 -7,-29 -9,-41 -2,-13 -7,-31 -2,-41 -6,1 -20,9 -22,14 -2,4 -3,17 -7,29 -4,9 -2,8 -10,12 0,-20 -3,-33 -3,-55l-8 1 -3 126 -17 -31z"/>
     <g>
      <path class="fil16 str0" d="M870 1271c9,-2 6,0 11,-7 18,-26 9,-50 9,-68 -5,3 -1,-3 -4,5 0,0 -2,10 -2,10 -1,8 -2,13 -4,21l-10 39zm137 315c0,-3 1,-7 1,-10l12 -84c-1,-10 -5,-5 -1,-10 0,0 19,40 15,57 1,6 2,8 3,15 1,0 2,5 2,5 1,5 1,3 2,5 -1,-13 -3,-17 -3,-32 4,4 1,-1 5,6 4,7 9,35 11,48l11 0 0 -35 -1 -1 -1 -3c-15,-31 -17,-59 -35,-94 -6,-11 -9,-21 -15,-32 -10,-21 -18,-41 -31,-60 -18,-28 -20,-30 -32,-59 -7,-18 -22,-48 -26,-66 -8,-42 -8,-87 -8,-129 0,-8 1,-16 -1,-23 -4,-32 1,-21 1,-42l0 -64 -23 0c8,35 -3,81 -3,106l-3 0c0,-20 -4,-34 -1,-54 2,-15 1,-35 1,-52l-17 0c0,25 1,53 0,79 0,10 -1,7 -2,16 -1,17 2,37 -2,57 -2,12 0,26 -1,40 0,14 -2,7 -2,36 0,10 1,28 -1,38 0,2 -3,12 -3,15 -3,6 -4,7 -5,14 1,32 -50,109 -65,166 -4,16 -4,50 -20,58 -3,3 -4,4 -6,7l0 82 26 0c-4,-8 -10,-18 -10,-22 0,-9 13,-59 16,-71 7,-30 6,-35 16,-67 4,-11 7,-21 11,-30 5,-10 9,-18 14,-30 4,-10 8,-20 14,-27l1 -2 -1 2c-5,-4 -4,0 -4,-8 1,-8 22,-28 32,-30 -2,12 -1,9 -9,16l-2 2 2 -2c0,1 3,36 4,40 0,21 7,21 -7,35 -35,35 -60,134 -68,184 -1,5 -1,7 -1,10l16 0c9,-54 35,-160 62,-180l0 8c4,-6 2,5 4,-8 9,17 0,108 -6,119 0,3 0,10 0,13l-8 21c-7,15 -9,16 -14,27l15 0c2,-5 3,-7 7,-12 0,3 -1,7 -1,12l20 0c0,-24 -3,-110 3,-121 1,13 6,19 9,31 7,3 4,-1 9,9 16,33 20,52 27,81l15 0c-1,-3 -1,-5 -2,-8 -17,-84 -23,-64 -47,-136 -12,-39 -8,-61 -14,-106 -5,-39 -5,-41 12,-38l2 2 -2 -2c-7,-8 -4,-2 -10,-8 -7,-6 -4,-3 -4,-9 18,5 26,19 35,33 3,7 0,3 6,7 8,2 5,0 10,6 12,12 22,24 29,39l12 25c5,11 42,75 31,84 0,49 -18,62 -17,96 0,5 0,10 0,15l11 0z"/>
      <path class="fil16 str0" d="M854 1273c1,32 -50,109 -65,166 -4,16 -4,50 -20,58 0,-12 3,-22 6,-33 7,-36 8,-56 25,-91l54 -100z"/>
      <path class="fil16 str0" d="M1034 1539c0,0 -1,0 -1,-1l-9 -15c0,14 -6,36 -11,63l-6 0c0,-3 1,-7 1,-10l12 -84c-1,-10 -5,-5 -1,-10 0,0 19,40 15,57z"/>
      <path class="fil16 str0" d="M931 1321c8,2 5,0 10,6 12,12 22,24 29,39l12 25c5,11 42,75 31,84 -7,-10 -41,-86 -61,-115 -8,-13 -14,-25 -21,-39z"/>
      <path class="fil16 str0" d="M931 1586c-8,-46 -9,-46 -27,-90 7,3 4,-1 9,9 16,33 20,52 27,81l-9 0z"/>
      <path class="fil16 str0" d="M875 1414c4,-6 2,5 4,-8 9,17 0,108 -6,119 -1,-19 0,-38 0,-57 0,-10 -1,-19 -1,-29 0,-13 3,-16 3,-25z"/>
      <path class="fil16 str0" d="M1041 1564c-1,-13 -3,-17 -3,-32 4,4 1,-1 5,6 4,7 9,35 11,48l-9 0c-2,-9 -4,-12 -4,-22z"/>
      <path class="fil16 str0" d="M893 978c8,35 -3,81 -3,106l-3 0c0,-20 -4,-34 -1,-54 2,-15 1,-35 1,-52l6 0z"/>
      <path class="fil16 str0" d="M880 1232c2,-8 3,-13 4,-21 0,0 2,-10 2,-10 3,-8 -1,-2 4,-5 0,18 9,42 -9,68 -5,7 -2,5 -11,7l10 -39z"/>
      <path class="fil16 str0" d="M869 1317l-2 2c-6,3 -6,2 -10,8 -4,4 -4,5 -6,10l-1 2c-5,-4 -4,0 -4,-8 1,-8 22,-28 32,-30 -2,12 -1,9 -9,16z"/>
      <path class="fil16 str0" d="M906 1300l-2 -2c-7,-8 -4,-2 -10,-8 -7,-6 -4,-3 -4,-9 18,5 26,19 35,33 -16,-5 -6,-8 -19,-14z"/>
     </g>
     <path class="fil15" d="M887 1367c13,-8 20,-28 41,-18 15,7 29,20 33,36 -15,-5 -11,-11 -21,-17 -14,-8 -20,-3 -20,14 0,22 8,46 9,67l-24 0c-3,-15 -5,-43 -5,-61 -5,2 -8,5 -13,8l0 -29z"/>
    </g>
   </g>
   <path class="fil3" d="M930 1380l1 -8 6 2c0,15 5,41 6,57 1,14 17,46 25,59l11 13c0,1 1,1 1,2l2 16c-18,1 -14,0 -23,-14 -4,-7 -9,-14 -13,-22l5 48c2,18 0,32 4,48 5,2 3,0 7,-1l15 -2 0 19c-12,-5 -8,-19 -14,-11 8,6 5,0 6,14 -20,13 -38,10 -59,-2 4,13 15,13 35,17 -4,6 -4,6 -18,3 -12,-2 -28,-9 -26,-24 1,-12 2,-5 5,-9l6 -6c1,0 1,1 1,1 6,5 -3,4 5,4l12 -5 4 -61c-3,-20 -1,-40 -2,-60 0,-11 -3,-15 -3,-24 0,-9 3,-47 1,-54z"/>
  </g>
 </g>
</svg>
