<?xml version="1.0" encoding="UTF-8"?>
<!DOCTYPE svg PUBLIC "-//W3C//DTD SVG 1.1//EN" "http://www.w3.org/Graphics/SVG/1.1/DTD/svg11.dtd">
<!-- Creator: CorelDRAW X7 -->
<svg xmlns="http://www.w3.org/2000/svg" xml:space="preserve" width="1.9685in" height="1.9685in" version="1.1" style="shape-rendering:geometricPrecision; text-rendering:geometricPrecision; image-rendering:optimizeQuality; fill-rule:evenodd; clip-rule:evenodd"
viewBox="0 0 1889 1889"
 xmlns:xlink="http://www.w3.org/1999/xlink">
 <defs>
  <style type="text/css">
   <![CDATA[
    .fil25 {fill:none}
    .fil14 {fill:#FEFEFE}
    .fil30 {fill:#FCCFB5}
    .fil37 {fill:#F05959}
    .fil31 {fill:#F5C3A7}
    .fil15 {fill:#EA4737}
    .fil12 {fill:#F1E9E5}
    .fil24 {fill:#EEF4F7}
    .fil32 {fill:#E9B9A0}
    .fil33 {fill:#E9B497}
    .fil26 {fill:#D8DEE3}
    .fil11 {fill:#CCBBBC}
    .fil6 {fill:#B4E2EE}
    .fil29 {fill:#A0DAE0}
    .fil28 {fill:#91D5DC}
    .fil22 {fill:#7ECFD5}
    .fil17 {fill:#7ACEDA}
    .fil16 {fill:#72CCD7}
    .fil20 {fill:#74CBCF}
    .fil19 {fill:#68C8CF}
    .fil23 {fill:#6AC0C3}
    .fil10 {fill:#57C6D3}
    .fil18 {fill:#58C5CA}
    .fil5 {fill:#4CC4D0}
    .fil7 {fill:#50C3C8}
    .fil27 {fill:#5FB1B7}
    .fil21 {fill:#60B0B3}
    .fil2 {fill:#3BBFC4}
    .fil9 {fill:#21BDC4}
    .fil40 {fill:#4599D3}
    .fil4 {fill:#25AEB6}
    .fil8 {fill:#36A6AA}
    .fil35 {fill:#2F3034}
    .fil13 {fill:#22A1A5}
    .fil34 {fill:#33343C}
    .fil3 {fill:#2D9396}
    .fil38 {fill:#397EC0}
    .fil36 {fill:#373845}
    .fil39 {fill:#296FAF}
    .fil1 {fill:#AEE0ED}
    .fil0 {fill:#FFB76F}
   ]]>
  </style>
     <clipPath id="id0">
      <path d="M1366 1231c-12,0 -24,-1 -36,-1 -5,0 -9,0 -13,-1 -4,-1 -7,-2 -10,-3 -3,-1 -6,-2 -8,-3 -3,-2 -5,-4 -7,-6 -3,-3 -6,-6 -10,-8 4,-1 8,-1 12,0 11,3 19,9 28,15 2,1 5,3 8,3 3,1 5,1 8,1 9,0 17,-1 26,-2 9,-1 18,-1 25,2 0,2 -3,2 -5,3 -3,0 -7,0 -10,0 -3,0 -5,0 -8,0zm-179 -233l0 0zm-21 -9c-3,-5 0,-11 7,-14 5,-3 12,-5 11,-8 -1,-1 -2,-2 -4,-3 -4,-3 -9,-6 -15,-9 3,-1 7,1 9,2 2,1 5,3 8,3 5,0 7,-3 8,-6 5,2 7,6 4,10 6,0 13,-1 18,-3 2,0 4,-1 6,-1 2,0 4,1 6,2l1 0c-1,-1 -1,-3 -2,-4 0,-1 -1,-2 0,-3 1,-2 3,-2 6,-3 7,-2 14,-2 20,-4 3,-1 6,-3 8,-4 -2,4 -3,8 -5,13 -1,5 -3,12 0,17 7,11 29,14 42,22l-53 -4c-4,-2 -6,-5 -7,-8 -2,-5 -4,-9 -6,-13 -4,-2 -8,-4 -13,-6 -2,0 -4,-1 -6,0 -2,0 -3,0 -4,1 -10,5 -19,10 -27,15 -2,1 -3,2 -3,4l1 2c4,4 8,7 11,11 -9,0 -18,-4 -21,-9z"/>
     </clipPath>
 </defs>
 <g id="Layer_x0020_1">
  <metadata id="CorelCorpID_0Corel-Layer"/>
  <g id="_2356038719120">
   <circle class="fil0" cx="944" cy="944" r="944"/>
   <path class="fil1" d="M1873 1118c-383,-211 -838,-460 -837,-456 0,7 -742,436 -990,573 122,379 478,654 898,654 463,0 847,-333 929,-771z"/>
   <g>
    <polygon class="fil2" points="1078,752 177,1272 177,1304 794,1660 1723,1124 "/>
    <polygon class="fil2" points="1518,1242 1439,1288 1439,1288 1436,1290 1357,1336 1354,1337 1274,1383 1274,1383 1272,1385 1192,1431 1189,1432 1110,1478 1110,1478 1107,1480 1027,1526 1025,1527 945,1573 945,1573 942,1575 863,1621 860,1622 830,1605 765,1643 762,1642 682,1596 680,1594 600,1548 597,1547 518,1501 515,1499 435,1453 433,1452 353,1406 419,1368 422,1366 501,1320 504,1319 584,1273 586,1271 666,1225 669,1224 748,1178 751,1176 831,1130 833,1129 913,1083 916,1081 995,1035 998,1034 1078,988 1157,1034 1160,1035 1239,1081 1242,1083 1322,1129 1324,1130 1404,1176 1407,1178 1486,1224 1489,1225 "/>
    <polygon class="fil3" points="1490,1225 1489,1225 1409,1271 1407,1273 1327,1319 1324,1320 1245,1366 1242,1368 1162,1414 1160,1415 1080,1461 1077,1463 998,1509 995,1510 915,1556 913,1558 833,1604 830,1605 765,1643 762,1642 828,1604 830,1602 910,1556 913,1555 992,1509 995,1507 1075,1461 1077,1460 1077,1460 1157,1414 1160,1412 1239,1366 1242,1365 1322,1319 1324,1317 1324,1317 1404,1271 1404,1271 1407,1270 1486,1224 1488,1222 1490,1223 "/>
    <polygon class="fil3" points="1407,1177 1407,1178 1327,1224 1324,1225 1245,1271 1242,1273 1162,1319 1160,1320 1080,1366 1077,1368 998,1414 995,1415 915,1461 913,1463 833,1509 830,1510 751,1556 748,1558 682,1596 680,1594 745,1556 748,1555 828,1509 830,1507 910,1461 913,1460 992,1414 995,1412 1075,1366 1077,1365 1157,1319 1160,1317 1239,1271 1242,1270 1322,1224 1324,1222 1404,1176 1406,1175 1408,1175 "/>
    <polygon class="fil3" points="1325,1130 1324,1130 1245,1176 1242,1178 1162,1224 1160,1225 1080,1271 1077,1273 998,1319 995,1320 915,1366 913,1368 833,1414 830,1415 751,1461 748,1463 668,1509 666,1510 600,1548 586,1556 583,1558 581,1556 583,1555 597,1547 663,1509 666,1507 745,1461 748,1460 748,1460 828,1414 830,1412 910,1366 913,1365 913,1365 992,1319 995,1317 995,1317 1075,1271 1077,1270 1077,1270 1157,1224 1160,1222 1160,1222 1239,1176 1242,1175 1322,1129 1324,1127 1326,1128 "/>
    <polygon class="fil3" points="1243,1082 1242,1083 1162,1129 1162,1129 1160,1130 1080,1176 1077,1178 998,1224 995,1225 915,1271 913,1273 833,1319 830,1320 751,1366 748,1368 668,1414 666,1415 586,1461 583,1463 518,1501 504,1509 501,1510 498,1509 501,1507 515,1499 581,1461 583,1460 663,1414 666,1412 745,1366 748,1365 828,1319 830,1317 910,1271 913,1270 992,1224 995,1222 1075,1176 1077,1175 1157,1129 1160,1127 1239,1081 1241,1080 1243,1080 "/>
    <polygon class="fil3" points="1160,1035 1160,1035 1080,1081 1077,1083 998,1129 995,1130 915,1176 913,1178 833,1224 830,1225 751,1271 748,1273 668,1319 666,1320 586,1366 583,1368 504,1414 501,1415 435,1453 433,1452 498,1414 501,1412 581,1366 583,1365 663,1319 666,1317 745,1271 748,1270 828,1224 830,1222 910,1176 913,1175 992,1129 995,1127 1075,1081 1077,1079 1157,1034 1159,1032 1161,1033 "/>
    <polygon class="fil3" points="1409,1271 1439,1288 1436,1290 1407,1273 1404,1271 1404,1271 1324,1225 1322,1224 1242,1178 1239,1176 1160,1130 1157,1129 1077,1083 1075,1081 995,1035 994,1035 994,1033 996,1032 998,1034 1077,1079 1080,1081 1080,1081 1160,1127 1162,1129 1162,1129 1242,1175 1245,1176 1324,1222 1327,1224 1327,1224 1407,1270 "/>
    <polygon class="fil3" points="1327,1319 1357,1336 1354,1337 1324,1320 1322,1319 1242,1273 1239,1271 1160,1225 1157,1224 1077,1178 1075,1176 995,1130 992,1129 913,1083 912,1082 912,1080 913,1080 916,1081 995,1127 998,1129 1077,1175 1080,1176 1160,1222 1160,1222 1162,1224 1242,1270 1245,1271 1324,1317 1324,1317 "/>
    <polygon class="fil3" points="1245,1366 1274,1383 1272,1385 1242,1368 1239,1366 1160,1320 1157,1319 1077,1273 1075,1271 995,1225 992,1224 913,1178 910,1176 831,1130 830,1130 829,1128 831,1127 833,1129 913,1175 915,1176 915,1176 995,1222 998,1224 1077,1270 1077,1270 1080,1271 1160,1317 1162,1319 1242,1365 "/>
    <polygon class="fil3" points="1162,1414 1192,1431 1189,1432 1160,1415 1157,1414 1077,1368 1075,1366 995,1320 992,1319 913,1273 910,1271 830,1225 828,1224 748,1178 747,1177 747,1175 749,1175 751,1176 830,1222 833,1224 913,1270 915,1271 995,1317 995,1317 998,1319 1077,1365 1080,1366 1160,1412 "/>
    <polygon class="fil3" points="1080,1461 1110,1478 1107,1480 1077,1463 1075,1461 995,1415 992,1414 913,1368 910,1366 830,1320 828,1319 748,1273 745,1271 666,1225 665,1225 665,1223 666,1222 669,1224 748,1270 751,1271 830,1317 833,1319 913,1365 913,1365 915,1366 995,1412 998,1414 1077,1460 1077,1460 "/>
    <polygon class="fil3" points="998,1509 1027,1526 1025,1527 995,1510 992,1509 913,1463 910,1461 830,1415 828,1414 748,1368 745,1366 666,1320 663,1319 584,1273 583,1272 582,1270 584,1270 586,1271 666,1317 668,1319 748,1365 751,1366 830,1412 833,1414 913,1460 915,1461 995,1507 "/>
    <polygon class="fil3" points="915,1556 945,1573 942,1575 913,1558 910,1556 830,1510 828,1509 748,1463 745,1461 666,1415 663,1414 583,1368 581,1366 501,1320 500,1320 500,1318 502,1318 504,1319 583,1365 586,1366 666,1412 668,1414 748,1460 748,1460 751,1461 830,1507 833,1509 913,1555 "/>
    <polygon class="fil3" points="833,1604 863,1621 860,1622 830,1605 828,1604 748,1558 745,1556 666,1510 663,1509 583,1463 581,1461 501,1415 498,1414 419,1368 418,1367 418,1366 419,1365 422,1366 501,1412 504,1414 583,1460 586,1461 666,1507 668,1509 748,1555 751,1556 830,1602 "/>
    <polygon class="fil4" points="1078,752 1078,988 1518,1242 1723,1124 "/>
    <polygon class="fil5" points="180,1270 180,1306 353,1406 1078,988 1078,752 "/>
    <path class="fil4" d="M1033 919l-79 45 0 -35 0 -7 79 -45 0 7 0 35zm-79 94l0 -42 79 -45 0 41 -79 46zm79 -206l0 63 -79 46 0 -63 -8 4 0 77 0 120 8 -5 0 -30 79 -45 0 30 8 -5 0 -120 0 -76 -8 4z"/>
    <path class="fil6" d="M948 1579c-1,0 -2,-1 -4,-1 -1,-1 -1,-2 -1,-4l1 0 1 -1 0 0 7 -4c1,1 1,1 1,2 2,2 2,5 0,6 -2,1 -3,2 -5,2z"/>
    <path class="fil7" d="M943 1574c0,0 0,0 0,0l1 0 -1 0zm-373 -294c0,0 0,0 0,0l10 -5c0,0 0,0 0,0l-10 5zm85 -48c0,0 0,0 0,0l6 -4c0,0 0,0 0,0l-6 4zm803 -25l-8 -4 8 4 0 0zm-63 -36c0,0 0,0 0,0l-15 -8c0,0 0,0 0,0l15 8zm-600 -20c0,0 0,0 0,0l4 -2c0,0 0,0 0,0l-4 2zm507 -34l-7 -4 0 0 7 4zm-416 -19l18 -10c0,0 0,0 0,0l-18 10c0,0 0,0 0,0zm346 -21c0,0 0,0 0,0l-12 -7c0,0 0,0 0,0l12 7zm-303 -3c0,0 0,0 0,0l37 -22c0,0 0,0 0,0l-37 22zm286 -7l-6 -3 0 0 6 3c0,0 0,0 0,0zm-94 -54l-9 -6c0,0 0,0 0,0l9 6c0,0 0,0 0,0zm-65 -13c0,0 0,0 0,0l7 -4c0,0 0,0 0,0l-7 4z"/>
    <path class="fil7" d="M809 1600l-7 -4c1,-2 2,-4 3,-5l7 4c-1,2 -2,3 -3,5zm4 -8l-7 -4c5,-12 11,-23 16,-35 5,-13 10,-26 15,-39l7 4c-1,1 -1,1 -1,2 -3,8 -6,16 -9,23 -6,16 -12,31 -19,46 -1,1 -1,2 -2,3zm132 -19l0 0 -4 -2c-1,0 -1,0 -1,-1l8 -4c2,1 3,2 4,3l-7 4zm-331 -23c-1,0 -2,-1 -2,-2 0,-3 0,-5 1,-7l7 -4c-1,4 -2,8 -4,12 0,0 -1,1 -2,1zm294 -5c-4,-3 -9,-7 -14,-10 -6,-4 -13,-8 -19,-12l0 1c0,1 0,2 -1,2 -1,0 -1,0 -2,-1 -8,-7 -15,-12 -25,-16 0,2 -1,4 -2,7l-7 -4c1,-2 2,-5 2,-6l-1 -1 8 -4c1,0 2,0 3,1 4,2 8,4 12,7 4,2 9,4 13,6 2,1 4,2 6,3 12,-4 26,-7 39,-8 7,-1 14,-2 22,-2 3,-1 6,-1 10,-1 3,0 4,-1 6,-4 3,-3 6,-6 9,-9l7 4c0,1 -1,1 -1,1 -5,5 -8,10 -13,14 -2,2 -5,2 -9,2 -1,0 -3,0 -4,0 -1,0 -2,0 -3,0 -1,0 -1,0 -1,0 -7,0 -14,1 -22,2 -11,1 -23,3 -35,4 6,4 12,7 17,10 5,3 9,6 13,9l-8 5zm-295 -8c1,-1 1,-3 2,-5l4 2 -6 3zm80 -3l-10 -6c3,-1 6,-2 9,-2l10 6c-3,0 -6,1 -9,2zm13 -3l-10 -6c7,-2 15,-4 22,-6 -2,-1 -5,-3 -7,-3 -8,-3 -15,-6 -22,-9 -4,-1 -7,-2 -11,-4l8 -4c2,0 3,0 5,1 7,3 15,5 23,8 5,2 11,4 16,6 1,0 2,0 3,-1 21,-7 42,-15 62,-23 0,3 0,7 -1,10 -20,7 -40,15 -59,22l-3 1 0 0 0 0c-9,2 -17,5 -26,8zm130 -27c-5,-2 -10,-4 -14,-6 -5,-1 -9,-3 -13,-4 -1,0 -1,0 -1,0l-1 0c2,-3 4,-7 4,-10l-1 -2c0,-1 -1,-1 -1,-1 -2,-20 3,-39 9,-57 0,-1 0,-1 1,-2l11 -7 23 14c-1,1 -3,3 -4,4 -14,15 -26,32 -32,51l0 3 0 0c6,2 11,6 16,8 2,0 3,1 5,1 2,1 5,2 7,3l-9 5zm-20 -30l0 0 0 1 0 -1zm-141 28c-11,-4 -21,-8 -32,-12 -1,-1 -2,-2 -2,-4 5,-13 9,-27 13,-41 -2,3 -4,6 -6,9 -4,5 -7,11 -10,16 -1,6 -3,13 -4,19l-10 -6c1,-5 3,-9 5,-13 2,-7 3,-13 6,-19 1,-3 2,-6 4,-9 -4,2 -8,3 -12,5 -9,3 -18,5 -27,7 -1,0 -1,0 -2,0l13 -7c11,-3 21,-7 32,-11 4,-6 10,-11 16,-16 1,-1 1,-1 2,-2l5 -3 12 7c-1,1 -2,2 -4,3 -6,4 -12,10 -16,16 -2,15 -6,30 -10,44 11,4 23,8 35,12l-8 5zm-44 -4l-10 -6c0,-2 1,-4 2,-7l10 6c-1,2 -1,5 -2,7zm345 -2l-7 -4c13,-11 27,-21 42,-28 -13,-10 -27,-20 -40,-29 2,-2 4,-4 6,-5l44 31c1,1 2,2 2,3 5,-2 10,-5 14,-8l15 -8 8 5 -19 10c-10,6 -19,12 -30,17l-1 0c-1,3 -1,5 -1,7l-7 4c1,-5 2,-10 3,-15l0 0c-6,3 -11,7 -17,11 -4,3 -8,6 -12,9zm-412 -37l-9 -5c1,0 1,-1 2,-1 2,0 5,-1 7,-1l9 5c-2,0 -3,0 -4,0 -1,1 -3,1 -5,2zm13 -3l-9 -5c1,0 2,-1 3,-1 9,-1 18,-1 27,-1 1,0 3,0 5,-1l-11 7c-5,0 -10,1 -15,1zm564 -2c0,0 0,0 -1,0l6 -3c0,2 -1,3 -5,3 0,0 0,0 0,0zm-79 -3l-8 -5 12 -6c18,-11 36,-21 54,-32 -5,-5 -9,-12 -12,-18 -1,-2 -1,-4 -2,-6l11 7c3,5 7,11 11,16 2,1 2,2 1,4 3,-3 7,-6 10,-8l6 4c0,0 -1,1 -2,1 -2,1 -4,3 -5,4l-14 8c-1,-1 -1,-3 -2,-4 -17,10 -35,20 -52,31l-8 4zm66 -38l-3 1 1 1 2 -2zm-158 21c-1,-1 -2,-2 -3,-2l2 -2c1,2 2,3 1,4zm-6 -4c-7,-5 -15,-11 -22,-16 -1,0 -1,0 -1,0 -2,0 -4,-2 -4,-3 -4,-3 -8,-6 -12,-9 -2,-1 -4,-2 -6,-3 -1,1 -2,2 -3,2 -1,0 -3,-1 -3,-3 -2,-1 -3,-1 -4,-1 -1,0 -2,0 -3,0 -1,1 -3,1 -4,1 3,-3 4,-6 7,-9 1,0 1,0 1,0 0,0 1,0 1,0 0,0 0,0 0,0 2,-1 5,-2 7,-2 1,1 1,2 1,4 2,0 4,1 5,2 7,3 13,8 19,13 7,-3 13,-7 19,-10l7 4c-6,4 -13,7 -19,10 5,4 11,9 17,13 0,1 0,3 0,5 1,0 1,0 1,0l-4 2zm-109 -3l-22 -13 10 -6c3,-1 6,-3 9,-4 8,-3 16,-6 23,-8 8,-3 18,-5 27,-6 -2,1 -3,3 -5,5 -1,1 -2,3 -4,4 -2,1 -5,2 -7,3 -5,2 -8,5 -10,8 -8,5 -14,11 -21,17zm-355 -5l-5 -3 6 -4 0 0c0,1 0,2 0,2 -1,2 -1,3 -1,5zm180 -2l-12 -6 28 -16c1,0 1,1 2,1l1 1c2,-1 5,-2 7,-3 6,-1 12,-2 18,-3 5,-1 10,-1 16,-1 7,0 14,1 21,1 -3,-6 -5,-13 -5,-19l0 -1c0,-1 0,-1 0,-2l6 4c0,5 2,9 3,14 13,2 25,5 37,9 0,0 1,0 1,0l24 14 0 1 -7 4c0,-1 0,-2 1,-2 0,-5 -5,-6 -9,-7 -5,-2 -11,-4 -16,-6 -10,-3 -19,-6 -29,-8l0 1c1,1 0,3 -2,3 0,0 0,0 0,0 -8,-2 -16,-3 -25,-3 -13,0 -27,2 -40,6 0,2 -1,4 -3,4l0 1c-1,2 -4,4 -7,6 -3,2 -7,5 -10,7zm-187 -3c1,-2 1,-4 1,-6l4 3 -5 3zm8 -5l-6 -3c1,-2 1,-5 2,-7 7,-18 18,-34 33,-46 -5,-10 -10,-19 -16,-28l14 8c3,5 6,10 9,15 5,-1 10,-1 15,-2l8 5c-5,0 -10,0 -14,0 -3,0 -5,0 -7,0l0 0c1,2 0,4 -1,5 -17,14 -29,32 -36,52l-1 1zm325 -3l-11 -6c2,1 4,2 6,2 2,1 3,3 5,4zm322 -3l-6 -4c5,-2 10,-4 14,-5 8,-3 19,-4 22,-13 2,-4 3,-9 4,-13 1,-4 3,-9 3,-13 -3,-2 -8,-3 -12,-4 -4,-1 -8,-3 -12,-4 -8,-3 -17,-5 -24,-9l0 0c-2,3 -4,5 -5,8 -4,5 -8,10 -12,15 -2,4 -5,9 -8,12l-1 0 0 0c1,4 3,7 4,10l-10 -6c-1,0 -1,-1 -1,-2l-1 -2c-1,-1 -3,-3 -3,-5l1 -1c-1,-1 -3,-2 -5,-2 -4,-1 -9,-2 -14,-3l10 -6c2,1 4,1 6,2 5,1 8,3 10,6 2,-2 4,-5 5,-6 2,-2 4,-5 6,-8 3,-5 7,-10 10,-15 0,0 0,0 1,0l16 -10c-3,4 -5,7 -7,11 15,2 31,8 46,13 6,-3 12,-5 18,-7l7 4c-7,2 -13,3 -19,5 6,0 12,3 18,5 4,1 9,2 13,3 1,0 1,0 1,0l-8 5c-1,0 -1,0 -2,0 -4,-1 -7,-3 -11,-4 -4,-1 -8,-2 -11,-4l0 0c-2,8 -5,16 -7,23 0,1 0,2 0,3l-36 21zm-462 -6c-10,-7 -19,-14 -29,-21 -11,-8 -25,-16 -34,-26 -4,0 -8,0 -12,0 -1,0 -2,0 -2,0l14 -8c1,0 3,0 4,-1 1,0 2,-2 2,-3l12 -6c-1,1 -1,1 -1,2 -3,6 -5,12 -10,14 11,6 22,15 32,23 11,7 21,14 32,22l-8 4zm288 -2c-3,-1 -5,-2 -8,-4 21,-10 41,-21 60,-33 -8,-9 -17,-17 -26,-26 0,0 -1,0 -2,0 -4,0 -8,-2 -11,-4 -2,0 -5,-1 -7,-2l8 -5c3,1 5,2 8,2 2,0 4,0 5,-2 0,0 1,0 1,0l7 4c-1,2 -3,4 -5,5 11,7 22,17 30,27l1 1c7,-3 15,-4 23,-4l12 7c-2,0 -4,-1 -6,-1 -1,0 -3,0 -4,0 -4,0 -7,0 -11,1 -3,0 -7,0 -10,0 -2,0 -3,0 -5,0l-1 1c-19,12 -39,23 -59,33zm-66 -16c-1,-3 -3,-6 -5,-9l6 -3c2,1 3,3 4,5 -2,2 -3,5 -5,7zm-146 -9l-6 -4c0,0 0,0 0,0 0,-2 1,-4 1,-7l66 -38c-2,4 -5,6 -8,9 -9,5 -19,10 -28,14 -4,2 -8,4 -11,6 -6,4 -11,10 -14,18 0,0 0,1 0,2zm139 -2c-2,-3 -4,-5 -5,-8 -2,-3 -3,-5 -5,-8l14 8c0,1 1,1 1,2 1,1 1,2 2,2l-7 4zm177 -7c0,0 -1,0 -1,0l-14 -7c1,0 2,0 2,0 8,0 16,0 23,1l-10 6zm-319 -6c2,-3 4,-6 7,-8 8,-9 20,-16 29,-22 5,-4 10,-7 14,-11 2,-2 4,-4 5,-6l14 8 0 0c-1,0 -1,-1 -2,-1 0,1 0,1 0,2l-67 38zm143 0l-13 -7c-3,-7 -5,-14 -6,-21 -15,-2 -30,-5 -45,-9l-5 -2 5 -3c16,3 32,6 48,7 2,1 4,1 4,3l0 2c4,0 7,-1 11,-1 5,-1 11,-2 17,-4 11,-2 21,-5 31,-8 -1,-8 -3,-16 -3,-23l7 4c0,6 1,12 2,18 4,0 8,2 11,3 6,2 12,4 18,6 0,0 0,0 1,0l-8 5c-3,-2 -7,-3 -10,-5 -4,-1 -8,-3 -12,-5l-1 2c-12,3 -24,6 -36,8 -7,1 -16,4 -25,4 -1,0 -1,0 -2,0 2,9 6,18 11,26zm-337 -4l-9 -5c10,-1 20,-1 30,-2 -1,1 -2,1 -2,2 -2,1 -3,3 -3,5 -6,0 -11,0 -16,0zm25 -1c0,-2 0,-4 0,-6 8,-1 16,-1 24,-2 1,0 1,0 2,0 0,0 1,0 1,0l-13 8c-1,0 -2,0 -3,0 -2,0 -3,0 -5,0 -2,0 -4,0 -6,0zm624 -5l-7 -4c2,0 4,-1 6,-2 5,-1 10,-2 15,-3 1,0 6,0 7,-1l1 -5c1,-16 13,-28 26,-39 -6,-8 -13,-15 -21,-21l1 0 21 12c2,2 3,4 5,6 7,2 15,9 19,13 2,1 3,3 5,5 2,-2 3,-3 4,-5l8 4c-2,3 -4,5 -6,7l1 2c0,0 0,0 1,1l-9 4c-1,-2 -3,-5 -5,-7 -3,-4 -6,-8 -10,-12 -1,-1 -5,-3 -8,-5 -7,6 -15,12 -20,21 -3,4 -5,9 -5,14 -1,3 0,7 -2,9 -2,3 -6,3 -9,3 -5,1 -10,2 -16,3 -1,0 -1,0 -2,0zm-583 -11c1,-1 1,-1 1,-1 2,-5 3,-9 5,-14 0,-2 1,-5 2,-8 2,-2 4,-4 7,-5l7 4c0,1 -1,1 -2,2 -5,2 -6,5 -7,10 -1,2 -1,4 -2,6l-11 6zm502 -5c5,-6 9,-13 14,-19l7 4c-2,2 -3,4 -5,6l-16 9zm-607 -1l-14 -8c0,0 -1,-1 -1,-1 -1,-2 -2,-4 -3,-5l7 -4c3,6 7,12 11,18zm485 -5l-7 -4c3,-3 5,-7 8,-10 1,-1 2,-2 3,-3l20 -12c-4,9 -13,16 -19,22 -1,2 -3,5 -5,7zm-181 -9l-15 -9 0 0 0 0 -1 -1c-2,-1 -3,-1 -4,-2 -6,-4 -12,-7 -17,-10l-16 -9c0,0 -1,0 -2,-1l0 -1c-1,0 -1,0 -2,0l-13 -7c10,1 20,3 30,6 4,2 9,4 15,6 1,-1 1,-2 2,-3 3,-4 6,-8 7,-13 1,-9 -2,-18 -2,-27 0,-3 0,-7 1,-11l16 -9c2,0 3,1 5,1l52 30c0,0 0,0 0,0 -23,-3 -41,-20 -64,-25 -2,7 -3,15 -2,23 2,8 3,16 0,24 -2,4 -4,11 -8,15 4,2 7,5 10,8 1,1 2,2 2,4 2,2 2,5 2,8 3,0 6,1 8,1l-4 2zm325 -2l-7 -4c1,-1 1,-2 2,-3 7,-10 15,-21 22,-32 1,-3 2,-2 0,-4 -2,-2 -6,-3 -8,-4 -4,-2 -8,-5 -12,-8 -7,-5 -13,-11 -19,-19l0 0 6 -4c5,7 11,12 18,17 4,3 8,6 12,8 4,2 8,3 11,6l1 1c3,-2 6,-3 8,-4 8,-4 16,-5 24,-7 1,0 1,-1 2,-1l9 5c-1,0 -1,1 -2,1 -9,3 -18,3 -26,7 -3,1 -5,3 -8,4 -2,1 -5,1 -7,1 -2,6 -7,11 -9,15 -6,8 -11,16 -17,25zm-499 -4l-8 -4c2,-1 4,-2 6,-4 4,-4 7,-9 8,-14l0 -2c1,-1 1,-3 1,-4 -1,-4 -1,-8 -3,-12 -1,-1 -1,-2 -2,-4 -10,3 -20,9 -29,14 -5,2 -11,4 -18,5l-13 -8c0,0 0,0 0,0 2,0 3,0 5,0 15,0 26,-6 39,-12 7,-4 15,-7 22,-7 1,0 1,0 2,0 -4,-9 -7,-18 -11,-27l6 -4c4,12 8,23 13,34 1,2 0,5 -3,5 0,0 0,0 -1,0 -1,0 -3,0 -4,0 2,3 3,8 4,12 0,2 0,4 0,7 0,0 0,0 0,0 11,0 20,-6 30,-9 6,-2 13,-3 20,-3 5,0 9,0 14,0 2,1 3,1 5,1l-5 3c-4,0 -7,0 -11,0 -2,0 -4,0 -7,0 -11,0 -20,5 -30,9 -5,2 -11,4 -17,4 0,0 0,0 0,0 -1,3 -1,5 -3,8 -2,5 -6,9 -10,12zm650 -5l-8 -4c11,-12 24,-23 38,-32 -1,-4 -2,-7 -3,-11 0,-4 1,-9 0,-13 -2,-3 -7,-6 -11,-8 -2,-2 -5,-4 -8,-7l4 -2c2,1 4,1 7,1 1,1 2,2 3,2 3,3 7,4 10,7 2,-1 3,-2 5,-3l5 3c-3,1 -5,2 -8,3 1,3 1,6 1,9 0,7 2,13 4,19 6,-1 13,-2 19,-2 2,0 4,0 7,0 4,0 8,0 12,1l-14 9c-2,-1 -4,-1 -6,-1 -7,0 -14,0 -21,-1 -13,9 -25,19 -36,30zm-286 -3c5,-6 9,-12 9,-20 0,-8 -1,-17 0,-25 -12,1 -24,5 -37,8 -7,1 -15,2 -22,2 -3,0 -5,1 -8,1 -2,0 -5,-1 -7,-1 -3,8 -3,16 -3,25l-6 -4c-1,-8 0,-16 2,-23l-1 -2c-3,-2 -7,-4 -10,-5l26 -15c1,0 1,0 2,0 2,2 2,5 0,7 -3,3 -5,6 -7,10l0 0c1,0 3,0 4,0 1,0 2,0 3,0 1,0 2,0 3,0 2,0 4,0 5,0 9,-1 17,-3 26,-5 10,-2 21,-5 31,-6l1 0c1,-1 1,-1 2,-1 1,0 2,0 3,1 1,0 2,0 3,1 0,-1 0,-1 0,-1l7 5c0,0 0,0 0,0l0 0c1,1 1,1 2,1 0,0 0,0 0,0l5 3c-1,0 -2,0 -3,0 -2,0 -3,0 -5,-1 -1,0 -2,1 -3,1 0,0 -1,0 -1,-1 -1,0 -2,0 -4,0 1,4 0,9 0,13 1,7 1,13 0,19 0,1 0,2 -1,3l-16 10zm-420 -16c-5,0 -9,-1 -13,-1 -6,-1 -11,-3 -17,-6l10 -5c0,0 1,1 2,1 3,1 7,2 10,2l15 8c-3,0 -5,1 -7,1zm164 -5c-8,-2 -17,-3 -26,-4l6 -3c3,0 6,1 10,1l10 6zm494 -3l-13 -8 2 -1c4,2 8,5 11,9zm-20 -7c-2,-2 -4,-3 -7,-5 -1,0 -1,-1 -2,-2l10 6 -1 1zm4 -2l-13 -8c0,0 0,-1 0,-2 -1,0 -1,1 -2,1l-8 -5c15,-5 28,-14 41,-22 -2,-6 -5,-13 -6,-20 -2,-6 -1,-17 -5,-22 -3,-4 -7,-8 -12,-12l5 -2 3 1c3,3 6,6 9,8 5,6 4,13 6,20 1,8 4,16 7,24 8,-5 17,-10 25,-14 0,0 0,0 0,0 2,1 3,3 5,4 -2,1 -4,3 -6,4 -7,3 -15,7 -22,10 0,2 -1,3 -2,3 -10,7 -20,14 -32,19 1,2 1,4 1,5 3,2 6,4 9,6l-3 2zm-350 -12l-36 -21c0,0 1,0 1,0 11,6 22,12 35,12 0,0 1,0 1,0 13,0 24,-7 37,-9 4,-1 7,-2 11,-2 6,0 13,2 19,4l-26 15c-3,-1 -6,-3 -9,-3l-1 0 -2 -1 -1 -2 -2 1c-9,3 -17,6 -27,6zm165 0l-5 -3c6,-2 12,-6 16,-9 3,-2 6,-3 9,-5 1,1 3,3 5,4 -5,2 -9,4 -13,6 -4,2 -8,5 -12,7zm-11 -6l-7 -4c2,-12 4,-25 7,-36 3,-1 6,-2 10,-3 -6,13 -8,28 -10,43zm374 -4c0,-1 0,-1 0,-1 -1,-5 -2,-11 -5,-15 -3,-6 -12,-6 -18,-6 -5,-1 -9,-1 -13,-2 -2,0 -4,1 -6,2 -2,0 -4,0 -6,0 -2,0 -5,0 -8,0 -2,0 -4,0 -7,1 8,-4 15,-8 23,-11 -2,-7 -4,-14 -4,-21l7 -4c0,9 2,18 6,25l1 3c3,0 6,0 9,0 1,1 2,1 3,1 0,0 1,0 2,0 0,0 1,0 2,0 2,0 3,0 5,0l2 -2c5,-2 12,-3 18,-5 5,-2 11,-5 16,-8 1,0 2,-1 3,-2l8 4c-2,2 -4,3 -6,5 -6,4 -12,7 -18,9 -4,1 -9,3 -13,4 3,4 4,10 6,14 0,1 1,3 1,4l-8 5zm-292 -8c-6,-1 -12,-1 -19,-1 -1,0 -3,0 -5,0 -2,0 -3,0 -4,0 -1,-5 1,-11 7,-15 0,0 0,-1 1,-1 3,-1 6,-2 9,-2 0,0 1,0 2,0 2,0 5,0 7,1 4,-1 8,-3 13,-5 1,-1 2,-1 4,-2l7 4c-1,1 -2,1 -2,1 -6,3 -11,5 -16,7 1,2 2,3 3,5 1,1 2,2 2,3l-9 5zm223 -3l-6 -3c2,-1 4,-2 6,-3 4,0 9,0 14,0 -5,2 -10,4 -14,6zm-537 -5c1,-5 3,-9 5,-14l6 4c0,1 0,2 0,2 0,1 0,1 1,1l-12 7zm498 -3c-1,0 -1,-1 -2,-2 1,0 2,1 4,1l-2 1zm-486 -9l-6 -4c3,-7 6,-13 9,-19 1,-4 3,-8 5,-11 4,-2 7,-4 9,-7 1,-3 1,-6 -1,-9 1,0 1,1 2,2l1 2c16,-2 33,-5 49,-7l8 4c-19,3 -38,5 -57,6 0,5 -4,11 -6,15 -4,9 -9,18 -13,28zm327 -2l-8 -4c2,-1 4,-2 6,-3 6,-3 8,-7 10,-13 1,-5 2,-11 3,-16 1,-1 2,-6 2,-7 -1,-1 -2,-1 -4,-2 -1,0 -2,-1 -3,-1 -9,-2 -18,-3 -27,-7 -2,1 -4,2 -6,3 -8,3 -16,7 -24,9 0,-2 0,-5 0,-8 1,0 3,-1 4,-1 9,-4 17,-7 26,-11 4,-2 8,-4 12,-6 1,0 10,-4 10,-5 1,-1 -3,-7 -4,-10l7 -4c1,4 3,7 5,11 1,3 0,6 -1,8 2,3 5,7 7,10 3,3 5,6 6,9 7,-3 15,-6 22,-8 4,-2 8,-3 12,-4l31 18 -4 3c-1,-1 -2,-2 -3,-3 -5,-5 -11,-9 -17,-13 -5,2 -12,3 -17,5 -8,2 -16,4 -23,5 0,2 -1,3 -3,4 0,6 -3,12 -4,18 -1,5 -1,12 -5,16 -3,3 -7,5 -10,7zm-1 -62l-1 1 2 1 -1 -2zm150 56c-1,0 -2,-1 -4,-1 0,0 0,-1 1,-1l3 2zm2 -1l-5 -3c4,-12 8,-24 12,-36 3,-7 5,-15 10,-22 -3,-1 -7,-3 -9,-5 -3,-1 -5,-2 -8,-3l9 -5c2,1 5,2 7,3 3,1 6,2 8,4 4,-2 8,-3 13,-4l10 6c-6,1 -12,2 -19,2 2,6 13,8 17,10 4,1 9,2 13,3 5,1 9,2 14,2 1,1 3,1 4,1 0,-1 0,-1 0,-1l15 8c-2,0 -4,-1 -6,-1l-3 1 0 1c-1,5 -3,10 -3,15 0,0 0,1 0,1l-7 4c0,0 0,-1 0,-2 0,-4 1,-9 2,-14 1,-2 2,-4 1,-6 -1,-1 -7,-1 -8,-1 -10,-2 -21,-3 -30,-8 -5,-2 -11,-4 -13,-9 -8,7 -11,20 -14,29 -3,10 -7,20 -10,30zm-257 -2c3,-7 6,-14 11,-20l19 -11 9 5c-1,0 -2,0 -3,1 -3,0 -6,1 -8,2 -2,0 -3,1 -4,1 -1,0 -1,0 -1,-1 0,2 -1,3 -2,3l-1 0c-4,6 -8,11 -10,17 -4,1 -7,2 -10,3zm15 -26c-23,-8 -46,-19 -66,-33 -4,2 -10,3 -14,4 -5,2 -10,3 -15,4 -11,3 -23,6 -34,8l20 -12c4,-1 9,-2 13,-3 5,-1 10,-3 15,-4 5,-1 10,-2 12,-6 2,-3 4,-6 5,-9l7 4c-2,1 -3,3 -4,5 -1,2 -2,5 -3,7 23,12 47,22 72,30l0 0c1,0 1,0 1,0l-9 5zm27 -2l-9 -5c0,0 0,0 1,0 7,-2 14,-4 21,-7 -2,2 -5,4 -7,6 -2,1 -3,4 -4,6 0,0 -1,0 -2,0zm-256 -7c-1,-1 -2,-1 -3,-2 -7,-4 -14,-7 -21,-11 -4,-2 -8,-4 -11,-6 0,0 0,0 0,0 1,0 1,0 2,0 1,0 2,1 4,1 9,5 18,10 27,16 1,0 2,1 2,2zm73 -3l-8 -5c15,-3 31,-6 46,-9l-19 11c-6,1 -12,2 -19,3zm313 -10l-8 -4c3,-1 5,-3 6,-6 6,-12 15,-21 26,-28 -4,-10 -11,-19 -20,-27 0,0 -1,-1 -2,-2l6 -3c2,1 3,2 4,3 8,8 15,17 18,28 2,0 3,0 5,0 12,0 25,2 36,5l1 1c2,-5 3,-10 4,-15l7 4c-1,5 -2,9 -3,13 4,2 7,3 11,5 0,0 0,0 0,0l-9 5c-2,-1 -4,-2 -6,-2 0,0 0,0 -1,0 -1,0 -3,-1 -4,-2l0 -1c-13,-4 -27,-5 -40,-8l-1 1c-8,4 -14,9 -19,16 -3,3 -5,6 -6,9 -1,3 -2,6 -4,7l-1 1zm-411 -7c-4,-1 -8,-1 -12,-2 -1,-1 -1,-1 -1,-1l4 -2c0,0 0,0 0,0 3,2 6,3 9,5zm341 -21c-2,-3 -3,-6 -4,-9 0,-1 0,-2 -1,-3l10 6c1,1 1,2 2,2l-7 4zm-143 0l-6 -3c1,-2 1,-3 2,-4l17 -10c-4,5 -8,9 -11,14 -1,1 -1,2 -2,3zm147 -10l-10 -6c0,-2 -1,-4 -2,-7 -1,-5 0,-9 -5,-12 -8,-5 -19,-7 -27,-10 -7,-2 -14,-4 -20,-6l-3 1c-1,0 -2,0 -3,0l-3 -2 0 0 10 -6c0,1 0,2 0,3 8,2 16,4 24,6 6,2 11,3 17,5 2,1 4,1 6,2 4,1 8,2 12,3 3,0 4,0 6,0 1,0 2,0 3,0 3,0 3,0 5,-3 2,-2 5,-4 7,-6 11,-7 24,-10 35,-17 2,-1 3,-2 4,-4l6 3c-1,1 -1,1 -2,2l0 1c1,0 3,0 5,0 1,0 2,0 2,0l12 7c-8,-1 -16,-2 -24,-3l-1 0c3,2 6,5 8,7 4,3 7,5 10,8l-6 4c-3,-4 -7,-7 -11,-10 -3,-1 -6,-3 -8,-6 -2,1 -3,1 -4,2 -9,3 -18,7 -26,13 -4,4 -6,8 -12,8 0,0 -2,0 -3,0 -3,-1 -6,-1 -9,-2 2,5 3,12 4,17 1,3 2,5 3,8zm-148 -2c1,-1 1,-1 2,-2 8,-10 18,-19 29,-27 -19,-4 -39,-8 -55,-18l-1 0c-10,2 -19,4 -28,8 -6,2 -13,8 -20,8 -1,0 -1,0 -2,0l-10 -6c2,-1 4,-2 6,-2 1,-3 2,-6 3,-8l37 -22c0,0 0,0 1,0 1,2 3,4 5,6 4,2 7,4 10,8 18,11 40,16 61,19 8,-3 17,-6 26,-7l6 3 -6 3c-7,1 -13,3 -20,4 1,2 0,4 -1,5 -8,5 -15,10 -21,16l-22 12zm-119 -23l18 -10c5,-1 9,-2 13,-3l9 5c-13,5 -26,7 -40,8zm190 -15l1 0 2 0c-1,0 -2,0 -3,0zm1 -4l-4 -2c3,0 6,-1 10,-1 -1,-12 2,-24 7,-34 3,-6 6,-11 10,-16 2,-2 4,-5 2,-8 -2,-2 -3,-3 -5,-3 -3,-2 -7,-3 -10,-4 -11,-3 -21,-7 -31,-11l7 -4c13,5 27,7 39,13 1,1 3,2 4,2 1,-1 4,-3 6,-4 0,0 0,0 0,0l9 6c-2,0 -4,0 -6,1 -2,1 -3,2 -5,4 1,0 1,1 1,2 0,6 -6,11 -9,16 -7,11 -11,23 -12,36l-13 7z"/>
    <path class="fil8" d="M839 1505l0 0c-1,0 -2,0 -3,-1l9 -5c0,0 1,1 1,1 1,0 1,0 1,1l-8 4zm128 -73c-1,-1 -2,-1 -3,-2l4 -2c0,1 1,2 1,2l-2 2zm115 -67c-1,0 -3,0 -4,-1l10 -6c2,1 3,1 4,1l-10 6zm48 -27c1,-2 2,-4 3,-6l16 -9c-1,2 -2,4 -3,5l-16 10zm111 -65c-1,0 -2,-1 -3,-1l1 -1 3 2 -1 0zm4 -2l-3 -1 3 -2c1,0 2,1 2,2l-2 1zm69 -40c0,0 -1,0 -1,-1 0,0 -1,0 -1,-1l2 -1c1,1 2,1 3,1 0,0 0,0 1,0l-4 2zm62 -36c0,-1 0,-2 0,-3l7 -4c0,1 0,2 0,3l-7 4z"/>
    <path class="fil8" d="M613 1541c0,-1 0,-2 0,-4l6 -3 2 1c0,1 0,1 -1,2l-7 4zm65 -38c-1,0 -2,-1 -3,-1l8 -5c1,1 2,1 3,2l-8 4zm141 -81c0,-1 1,-2 1,-4l7 -4 0 0 2 2c0,0 0,-1 1,-1l0 0 -11 7zm14 -8l0 -1 0 0c2,-1 4,-2 6,-3 2,-1 3,-1 4,-2l-10 6zm70 -41c-1,0 -1,-1 -2,-2l7 -4c0,1 1,2 1,3l-6 3zm77 -44c-1,-1 -2,-1 -3,-1l8 -5c1,1 2,1 3,1l-8 5zm35 -20c2,-2 4,-4 5,-6l16 -10c0,2 -1,3 -1,4l-20 12zm118 -68l0 0 -1 0c-1,-1 -3,-1 -4,-1l9 -5c1,1 1,1 2,2l-6 4zm104 -61c0,0 -1,-1 -2,-1l4 -3 3 2 -5 2zm67 -38c-1,-1 -2,-1 -3,-2l9 -5c1,1 2,1 3,2l-9 5z"/>
    <path class="fil8" d="M592 1455l11 -7c3,0 5,0 8,-1l-13 7c-2,1 -4,1 -6,1zm69 -37c1,-1 3,-2 4,-3l1 0 -5 3zm7 -4l-1 -1c6,-4 13,-9 20,-12l0 0c0,0 -1,0 -1,-1l8 -4c1,1 1,1 2,2l-28 16zm89 -52c1,-1 1,-2 2,-4l67 -38c-1,2 -2,3 -3,4l-66 38zm71 -43c0,0 0,0 0,0l0 0 0 0zm5 0l-3 -2 4 -2c1,0 3,1 4,1l-5 3zm104 -60c-1,-1 -2,-1 -3,-2l26 -15c1,1 2,1 3,2l-26 15zm121 -70c1,-2 3,-4 4,-6 0,0 0,0 0,0l9 -5c2,0 4,-1 5,-1l1 1 -19 11zm92 -53c-1,-1 -1,-1 -1,-1 0,-1 0,-1 0,-2l7 -4c0,1 0,2 1,3l-7 4zm71 -42c0,0 -1,-1 -2,-1l6 -4c1,1 2,1 2,2l-6 3z"/>
    <path class="fil8" d="M495 1419l-2 -1c0,-1 0,-1 0,-1l5 -3 3 1 -6 4zm7 -6l-1 -1 1 -1c0,1 0,1 0,2zm107 -60c-1,0 -2,0 -3,0 -1,0 -2,0 -2,0l13 -8c0,0 1,0 1,0 1,0 1,0 2,0 1,0 2,0 3,0l-14 8zm20 -12c1,-1 2,-3 2,-4l11 -6c0,1 -1,2 -1,4l-12 6zm109 -63c-1,0 -3,0 -4,0l5 -3c2,0 3,0 5,0l-6 3zm75 -43c0,-1 0,-2 1,-3l12 -7c1,0 2,0 3,1l-16 9zm112 -67l19 -11c3,-1 6,-2 9,-3l-20 12c-3,1 -6,1 -8,2zm77 -42c1,-2 2,-3 3,-5l22 -12c-3,2 -5,5 -8,7l-17 10zm67 -42l6 -3 2 2 -1 0c-2,1 -5,1 -7,1zm11 -3l-3 -2 13 -7c0,1 0,2 0,3l-10 6z"/>
    <path class="fil8" d="M1348 1239l-5 -3c1,-1 1,-1 2,-2l6 3c-1,1 -2,1 -3,2zm-38 -23c-2,-1 -5,-3 -8,-4l-3 -2c0,-1 0,-2 0,-2l5 3c0,0 0,0 0,1l1 0c2,1 4,2 5,4zm-65 -37l-3 -1 -3 -2 -31 -18c0,0 0,0 0,0 1,-1 2,-1 3,-1l8 4 -1 1c10,5 19,11 27,17zm-91 -52l-10 -6c0,-1 0,-2 -1,-4l10 6c0,1 1,3 1,4zm-75 -44l-2 0 -2 -2 -6 -3c1,-1 3,-1 4,-1l4 2 3 2 0 0 3 2c-1,0 -3,0 -4,0z"/>
    <path class="fil8" d="M1304 1308l-8 -4c1,-1 2,-1 2,-2l8 4c-1,1 -1,2 -2,2zm-41 -23l-21 -12 -3 -2 -10 -6c0,0 0,0 0,-1 0,0 0,-1 0,-2l13 8 3 1 13 8c2,2 3,4 5,6zm-39 -23l-9 -5c1,0 3,-1 4,-1l8 5c-1,0 -2,1 -3,1zm-74 -43l-7 -4c0,0 1,-1 2,-1l8 4c-1,0 -2,1 -3,1zm-64 -36l-9 -5 -1 -1c2,0 3,-1 4,-1l9 5c-1,1 -2,1 -3,2zm-81 -47l-7 -4c1,-1 1,-2 2,-2l6 3c0,1 -1,2 -1,3zm-79 -46l-9 -5c1,-1 2,-1 3,-1l10 6c0,0 -1,-1 -2,-1l0 0 0 0c-1,0 -2,1 -2,1z"/>
    <path class="fil8" d="M1210 1349l-7 -4c1,0 3,0 4,-1l7 4c-1,1 -3,1 -4,1zm-56 -32l-7 -4c0,-1 1,-2 1,-2l7 4c0,0 -1,1 -1,2zm-101 -58l-5 -3c1,0 3,-1 4,-1l5 3c-1,0 -3,0 -4,1zm-7 -4l-7 -5c0,-1 0,-2 0,-2l7 4c0,1 0,2 0,3zm-144 -84l-8 -4c1,-1 2,-1 4,-1l8 5c-1,0 -2,0 -4,0z"/>
    <path class="fil8" d="M1145 1407l-6 -4c1,0 2,0 3,-1l6 4 0 0c-1,0 -2,1 -3,1zm-28 -16l-11 -7c-1,-1 -1,-2 -1,-4l10 6c1,2 1,3 2,5zm-40 -27c-2,0 -4,0 -7,0l-12 -7c2,0 4,0 5,0l14 7zm-68 -36l-7 -4c0,-1 1,-1 2,-2l7 4c-1,1 -1,2 -2,2zm-56 -32l-7 -4c0,-1 0,-2 0,-3l6 4c1,1 1,2 1,3zm-61 -38c-2,0 -4,0 -6,-1l-52 -30c8,3 15,6 22,10l36 21c0,0 0,0 0,0zm-67 -36l-6 -4c0,-1 0,-1 1,-2l6 4c0,1 0,1 -1,2z"/>
    <path class="fil8" d="M1060 1453l-8 -5 2 -2 8 5 -2 2zm-91 -53l-7 -4c1,0 1,0 2,0 2,0 4,1 5,2 1,1 2,1 2,2 0,0 -1,0 -2,0zm-64 -37l-14 -8c0,-1 -1,-2 -2,-4l13 7c1,2 2,4 3,5zm-67 -42c-3,0 -7,-1 -10,-2l0 0 -14 -8c0,-1 0,-1 1,-2l0 -1 15 9 3 2 5 2zm-45 -26c-6,-2 -11,-5 -16,-9l16 9zm-20 -11c-3,-1 -6,-2 -9,-2l-10 -6c2,0 4,0 6,1l13 7z"/>
    <path class="fil8" d="M974 1498l-7 -4c1,-1 1,-1 2,-2l7 4c-1,1 -1,2 -2,2zm-121 -69l-23 -14 0 0c0,0 1,-1 1,-1l2 -1 0 1 22 13c0,0 -1,1 -2,2zm-26 -16l-24 -14c4,2 8,3 12,4l11 6c0,1 1,2 1,3l0 1zm-65 -37l-6 -4c0,-1 0,-2 0,-3l6 4c0,1 0,2 0,3zm-109 -63l-7 -4c0,-1 1,-1 2,-2l8 4c-1,1 -2,2 -3,2zm-46 -27l-15 -8c2,0 4,0 6,0l13 8c-1,0 -3,0 -4,0z"/>
    <path class="fil8" d="M943 1574c0,0 0,0 0,-1 -1,-1 -2,-1 -2,-2l4 2 -1 1 -1 0zm-99 -56l-7 -4c0,-1 0,-1 1,-2 0,0 0,0 0,0l7 4c-1,0 -1,1 -1,2zm-38 -23c1,-1 1,-1 1,-1l1 0c-1,0 -1,0 -2,1zm-128 -73l-12 -7 -1 0c1,-1 2,-1 2,-2l1 1 12 6c-1,1 -2,2 -2,2zm-118 -68l-8 -5c1,0 3,0 4,0l9 5c-1,0 -3,0 -5,0zm-32 -18l-14 -8c0,-2 -1,-3 -2,-5l14 8c0,2 1,3 2,5z"/>
    <path class="fil8" d="M812 1595l-7 -4c0,-1 0,-1 0,-1 0,-1 0,-1 1,-2l7 4c0,1 -1,2 -1,3zm-110 -63l-10 -6c1,-1 3,-1 4,-1l10 6c-1,0 -2,0 -4,1zm-69 -41l-10 -6c0,0 0,-1 1,-2l10 6c-1,1 -1,1 -1,2zm-60 -34l-9 -5c2,-1 3,-1 4,-1l9 5c-1,0 -3,0 -4,1zm-72 -42l0 0 -3 -1 -4 -3c0,0 0,0 0,-1 1,0 1,-1 1,-1l6 3 1 1c0,1 0,2 -1,2z"/>
    <path class="fil9" d="M1458 1207l-8 -4c9,-6 15,-13 21,-21 -3,-3 -5,-6 -8,-9 -3,-3 -4,-8 -8,-11l-1 0c0,0 -1,0 -2,0 0,0 -1,0 -1,0l-3 0c-3,0 -6,1 -9,2 -7,2 -13,3 -20,5 -6,1 -13,2 -20,2 -1,0 -2,0 -4,0l-15 -8c1,-4 0,-8 0,-11 -1,-3 -1,-6 -2,-8l0 0c-9,0 -18,1 -27,2l-10 -6c11,-3 22,-5 33,-6 5,-13 13,-23 22,-33 -14,-7 -29,-9 -36,-24 -3,0 -5,0 -8,0 -8,0 -16,1 -24,4 -5,2 -11,7 -18,7 0,0 -1,0 -2,0 -2,6 -3,12 -4,19 -1,3 -1,7 -2,10l-7 -4c0,-4 1,-8 2,-12 1,-6 2,-12 5,-18 -4,-1 -9,-3 -13,-4 -4,-1 -8,-2 -12,-4 -2,1 -3,1 -4,1 -8,1 -16,1 -24,1 -6,0 -12,0 -17,0l-12 -7c3,0 5,0 8,0 3,0 7,0 10,0 1,0 2,0 3,0 6,0 11,0 16,0 1,0 2,0 2,0 1,0 2,0 3,0 0,0 1,0 2,0 3,0 6,0 9,-1 3,-1 6,-6 8,-9 3,-4 7,-7 10,-10 5,-3 10,-6 15,-9 -9,-6 -18,-13 -26,-20 -6,-4 -11,-9 -16,-14 -4,-3 -8,-6 -11,-9 -4,4 -10,7 -15,10 -7,4 -14,10 -19,17l1 0c7,6 7,9 4,18 -3,7 -5,17 -9,24l-6 -3c4,-5 5,-13 7,-18 2,-3 6,-10 4,-13 -2,-3 -5,-5 -7,-6 -12,-10 -25,-18 -40,-20l-1 -1c-4,2 -10,3 -13,4 -9,2 -17,3 -25,3 -2,0 -3,-1 -4,-1 -2,0 -3,0 -5,0 -1,0 -3,0 -4,1l-9 -6c4,-2 9,-2 13,-2 2,0 4,0 5,0 2,0 4,0 5,0 0,0 0,0 1,0 10,0 20,-1 30,-5 4,-1 4,-1 4,-4 1,-1 1,-2 1,-3 2,2 4,3 7,3 0,2 0,4 -1,5 13,3 25,10 35,18l2 0c7,-9 15,-15 25,-21 2,-2 6,-3 8,-5l11 0c3,2 6,5 9,7 5,5 10,9 16,13 2,2 4,4 6,6 21,-4 43,-4 64,-5 0,-5 2,-10 3,-13 1,-4 2,-7 4,-10l8 4c-2,3 -3,5 -4,8 0,2 -1,4 -1,6 -1,1 -1,5 -2,5 0,0 0,0 0,0 4,2 2,8 -2,8 0,0 0,0 0,0 -2,0 -4,0 -6,0 -5,0 -9,0 -14,0 -4,1 -9,1 -14,1 -10,0 -21,-1 -32,-2 7,6 15,12 23,18l1 1c4,0 8,2 11,2 6,2 13,3 19,5 11,4 18,12 24,21 8,-2 16,-2 24,-2 1,0 1,0 2,0 1,0 1,0 2,0 7,0 15,0 22,-1 5,0 4,-2 6,-6 1,-3 3,-5 5,-7 3,-5 8,-9 13,-12 0,0 0,0 0,-1l7 5c-6,4 -13,9 -17,15 -2,4 -3,10 -6,12 6,4 14,8 21,11 5,3 10,5 15,7 1,1 2,1 3,1 -4,4 -8,8 -12,11 -9,0 -18,0 -27,0 -4,0 -9,1 -14,1 -2,0 -5,-1 -7,-1l-1 2c-9,11 -19,22 -24,36 6,7 7,17 7,26 8,-1 15,-1 23,-3 10,-3 20,-6 30,-9 3,0 5,-1 8,-1 0,0 1,0 2,0 5,-4 11,-8 16,-12 6,-1 13,-3 19,-4 -9,7 -18,14 -27,21 2,3 4,6 6,9 3,5 7,8 12,11 1,1 2,3 1,5l1 0c2,0 4,1 6,2 5,3 9,6 14,9 2,2 4,3 6,4l-10 6c0,-1 -1,-2 -2,-2 -4,-4 -7,-7 -12,-11 -1,-1 -4,-2 -5,-4 -6,8 -12,15 -20,21zm-85 -136l-1 1c1,1 2,2 3,3 8,8 17,13 28,16 2,1 3,2 3,4l0 0 1 1c2,0 3,0 5,0 5,-1 10,-1 16,-1 9,-1 19,-1 29,-2 -4,-2 -8,-4 -11,-6 -8,-4 -17,-8 -23,-14 0,0 -1,0 -2,0 -3,0 -6,-1 -9,-1 -5,0 -10,0 -14,0 -9,0 -17,0 -25,-1zm-86 -4c2,0 5,1 8,2 4,0 8,0 12,0 5,0 11,0 17,-1 11,-1 22,-3 32,-4 -5,-5 -10,-8 -18,-11 -5,-2 -11,-4 -17,-6 -1,-1 -3,-1 -5,-2l-1 1c-10,4 -18,9 -25,16 -2,2 -3,4 -5,6 1,-1 1,-1 2,-1zm302 83c-1,-1 -1,-1 -2,-2 -7,-8 -13,-16 -21,-23 -4,-4 -10,-5 -15,-5 -7,0 -13,1 -18,1 -6,1 -11,1 -16,1 0,0 0,0 0,0 0,-2 0,-4 0,-6 6,0 12,-1 18,-1 6,-1 12,-2 18,-2 4,0 8,1 11,2 -3,-2 -6,-4 -9,-6 -5,-3 -10,-7 -15,-11l-1 -2c-2,1 -3,1 -5,1 -1,0 -2,0 -4,0 -5,0 -10,0 -14,0 -2,0 -3,0 -4,0 -6,0 -13,0 -19,0 -1,0 -1,0 -2,0 -3,0 -7,0 -10,-1 2,-1 3,-3 5,-5 4,0 9,0 13,-1 6,0 12,-1 18,-1 3,0 6,0 8,0 0,0 0,0 0,0 2,0 4,0 6,0l42 25c-1,0 -2,0 -3,0 1,1 1,2 2,4 3,5 8,9 12,13l1 3c2,2 4,4 6,7 2,1 3,3 5,5l-7 4zm-102 -32c-3,-2 -6,-5 -9,-8 -2,-1 -4,-4 -6,-5 2,-2 4,-4 6,-6l1 1c6,5 11,10 17,13 -3,2 -6,4 -9,5zm-310 -130c0,0 0,-1 -1,-1l-1 -2c0,-1 1,-2 2,-3 0,2 0,4 0,6zm80 -9c-2,-1 -3,-3 -5,-5 -1,-2 -2,-4 -2,-6 1,-2 1,-4 1,-5 1,-2 1,-2 0,-3 1,-1 1,-2 1,-3 1,-2 2,-4 2,-5 2,0 5,0 7,0 9,0 18,0 27,0 0,-1 0,-2 0,-3l22 13c-4,-2 -8,-3 -11,-5 -1,2 -2,3 -4,3 0,0 0,0 0,0 -12,0 -24,-1 -36,-3 0,2 0,5 -1,9 0,4 0,9 -1,13zm174 -2l-5 -2 5 2c0,0 0,0 0,0zm-261 -1c0,0 0,0 0,-1 -18,-4 -34,-11 -49,-22 -2,-1 -4,-3 -7,-3 0,0 0,0 -1,0 -2,0 -5,1 -8,2 -5,1 -10,2 -16,3 -4,1 -8,1 -11,2l0 -5c5,-1 10,-2 15,-3 6,-1 14,-5 21,-5 2,0 3,0 5,1 4,1 7,5 11,7 4,3 9,5 14,7 1,1 2,1 4,2 -1,-5 0,-11 0,-16 0,-8 1,-15 2,-22 0,-8 1,-15 -1,-22 -2,-4 -4,-7 -5,-11 -2,-3 -3,-6 -6,-8 -4,-2 -9,-2 -13,-3 -3,-1 -7,-2 -11,-3 -4,0 -7,-1 -11,-2 -1,0 -2,0 -3,0 -4,0 -7,2 -11,5 -4,2 -8,5 -11,7l0 -9c2,-1 4,-3 7,-5l0 0c2,-5 6,-10 9,-14 4,-4 8,-8 11,-12l0 -1 -2 -2c-7,-5 -16,-9 -25,-12l0 -3 35 20c0,0 0,0 0,0 -5,4 -9,9 -14,14 -2,1 -3,4 -5,6 2,-1 4,-1 6,-1 4,0 9,1 14,2 9,1 18,3 27,6 1,0 2,1 3,1 7,1 14,1 21,2l13 7c-3,0 -5,0 -7,-1 -8,-1 -16,-2 -23,-4 2,3 3,7 4,11 4,7 6,14 6,22 0,8 -1,17 -2,25 0,5 0,10 0,14 0,4 1,8 0,12 5,2 11,4 18,5 0,-3 2,-5 3,-7 1,0 2,1 3,2 1,0 1,0 1,0 -1,3 -3,5 -4,7l0 1c0,1 0,1 0,1 -1,0 -3,1 -4,2 -1,0 -2,1 -3,1zm12 -16c-2,0 -3,0 -4,-1 2,-3 4,-7 6,-10 3,-5 6,-10 13,-10 0,-1 0,-3 0,-4 0,-5 0,-9 0,-13 0,-9 0,-19 -3,-27 0,0 0,0 0,0l9 5c3,13 3,27 2,40 6,1 12,3 18,5 7,1 13,3 20,4 -5,1 -10,2 -14,3 -1,0 -2,0 -2,1 0,0 0,0 0,0 -8,-2 -15,-5 -22,-6l-2 -1 -1 1 -1 0c0,0 -1,0 -1,0 -1,0 -3,0 -3,-2l0 0c-1,1 -2,1 -3,1 -3,3 -6,7 -8,10 -1,1 -1,3 -2,4 -1,0 -1,0 -2,0 0,0 0,0 0,0zm189 -18l-15 -8c0,0 0,0 0,0l15 8zm-68 -39l-6 -3c0,0 0,0 0,0l6 3c0,0 0,0 0,0zm-102 -59l-5 -2c0,0 0,0 0,0l5 2c0,0 0,0 0,0zm-34 -19l-5 -3c0,0 0,0 0,0l5 3c0,0 0,0 0,0z"/>
    <path class="fil10" d="M391 1359l-8 -4c1,-3 1,-5 2,-7 2,-11 2,-22 6,-32 2,-4 5,-8 8,-11 -18,-2 -37,-3 -55,-4 -16,-2 -36,0 -52,-8 -7,-3 -12,-9 -16,-16 -5,-8 -10,-14 -17,-20 -2,-2 -4,-3 -6,-5l6 -3c5,3 9,6 12,10 5,5 8,11 12,16 5,7 11,12 19,14 8,2 16,2 24,3 9,1 18,2 28,3 15,2 31,3 47,5 1,-1 2,-2 3,-3 -4,-17 -8,-35 -18,-50 -6,-8 -13,-16 -20,-23l-3 -2 -1 0c-1,2 -3,3 -6,3 0,0 0,0 -1,0 -2,-1 -4,-4 -2,-6 1,-1 3,-2 4,-3l-2 -2c-2,-2 -4,-4 -6,-5 -1,-1 -3,-4 -4,-4 -1,0 -2,1 -1,5l-1 0c0,-2 0,-5 0,-7l2 -1c4,4 9,8 13,12 7,-7 14,-14 21,-21 6,-6 13,-15 22,-18 9,-3 21,-3 31,-5 12,-1 23,-3 35,-5 5,0 9,0 13,0 9,0 17,1 24,7 10,-4 20,-6 30,-7 4,-1 7,-2 8,-6 0,-3 0,-7 0,-10 -1,-6 -1,-13 0,-20 1,-12 2,-25 5,-38 1,-3 1,-7 2,-11l8 -4c-8,21 -10,46 -10,68 0,6 1,13 -1,19 16,-3 34,-3 50,-4 10,0 20,0 29,-1 3,0 5,0 8,0 1,0 3,0 4,0 -2,-9 -6,-17 -12,-24 -8,-10 -18,-16 -28,-22 -10,-6 -19,-12 -26,-21 -4,-5 -8,-10 -11,-16l-1 -1 4 -2c5,7 9,14 14,20 9,9 21,15 32,21 16,10 29,26 34,44 6,-1 12,-2 18,-2 6,0 11,1 16,1 2,0 4,0 5,0 7,0 13,1 19,3 3,0 3,2 3,4 1,0 2,0 4,0 6,0 11,-4 16,-8 9,-6 19,-11 30,-15 0,2 1,5 2,7 0,0 0,0 0,0 -11,5 -22,11 -32,18 -5,3 -10,6 -15,6 -1,0 -1,0 -2,0l0 0c-1,1 -2,1 -3,2 -9,2 -19,3 -29,3 0,0 0,0 0,0 -2,0 -7,0 -12,0 -6,0 -11,-1 -15,-1 -1,0 -2,0 -2,1l-1 1c0,1 0,3 0,5 1,8 4,17 7,25 3,7 6,14 9,21l-6 4c-2,-6 -4,-11 -6,-17 -5,-13 -11,-28 -10,-42 0,-3 0,-4 0,-5 -2,0 -3,0 -5,-1l0 -2 0 -1c0,0 -1,0 -2,0 0,0 0,0 0,0 -1,0 -1,0 -1,0 0,0 0,0 0,0 -2,0 -3,0 -4,0 -3,0 -6,0 -10,0 -8,0 -16,0 -25,1 -12,0 -24,1 -37,1 -3,0 -7,0 -11,-1 -1,2 -3,2 -4,3 -7,2 -14,1 -20,3 -5,1 -9,2 -14,3 2,2 4,4 5,6 13,19 24,40 35,59 0,2 0,4 -1,5l-2 2 1 1c1,3 3,5 5,7 4,5 9,8 14,12 5,3 11,7 17,9l-10 5c-7,-3 -13,-8 -19,-13 -5,-3 -11,-9 -15,-16 -6,6 -13,12 -20,18 -9,7 -17,15 -27,22 10,2 17,7 23,17 1,1 2,3 3,5l-7 4c-6,-10 -12,-19 -24,-20 -3,-1 -6,-1 -10,-1 -9,0 -20,2 -29,2 -7,1 -14,1 -21,2 -2,0 -6,0 -10,0 0,1 -1,3 -2,4 -11,7 -16,18 -17,31 -1,5 -2,10 -3,16 0,2 -1,5 -1,8zm90 -187c-6,0 -12,1 -17,1 -10,2 -20,3 -30,4l-15 2c-5,1 -11,1 -16,3 -5,2 -9,6 -13,10 -3,3 -7,6 -10,10 -6,5 -11,11 -17,16 10,9 19,18 26,28 10,14 15,32 19,50 7,-2 14,-1 21,-2 16,-2 33,-4 49,-4 1,0 2,0 2,0 3,0 5,0 7,0l0 -1c6,-7 12,-13 19,-19 5,-2 10,-4 14,-6 1,-3 1,-5 1,-8 4,-4 9,-8 13,-12 0,-2 0,-4 1,-6l1 -1c-10,-16 -18,-31 -27,-46 -5,-9 -10,-16 -20,-19 -3,0 -5,0 -8,0zm314 -21c-2,0 -3,-1 -4,-1 0,0 0,0 0,0 -2,-1 -4,-2 -5,-3 0,-1 0,-1 0,-2 -1,-1 -3,-2 -5,-2 0,-1 -1,-1 -1,-2 -1,1 -2,1 -3,1 -6,-1 -12,-2 -18,-4 5,-1 10,-3 15,-4l0 0 0 -2c-3,-5 -5,-11 -8,-17 -3,-7 -2,-14 -1,-22 1,-14 1,-31 6,-45 -12,-3 -26,-3 -38,-7 -9,-2 -17,-6 -23,-13 -5,-5 -9,-11 -15,-14 -5,-3 -9,-3 -15,-3 -1,0 -2,0 -3,0 0,0 0,0 0,0 -2,0 -3,-2 -3,-3l8 -5c0,0 0,0 0,0 13,0 22,7 31,17 9,10 20,14 34,16 10,2 21,3 31,7 6,2 13,5 18,11 9,-16 20,-31 30,-45 6,-8 12,-15 18,-23 3,-4 6,-8 9,-11 1,-2 2,-3 3,-4l0 0c-2,-1 -3,-3 -2,-5 8,-12 16,-25 24,-38 7,-12 21,-27 18,-42 -1,-1 1,-2 2,-2 0,0 1,0 1,1 4,15 -5,28 -12,40 -8,13 -17,27 -25,41 26,7 52,11 78,16 1,2 2,3 2,5 0,1 0,3 0,4 -1,0 -3,0 -4,-1 -25,-4 -50,-10 -75,-17 -2,6 -9,11 -13,16 -6,8 -12,16 -19,23 -11,15 -22,30 -34,44 1,1 2,2 2,4 2,5 0,10 -3,15 -4,6 -7,12 -9,19 -1,4 -1,8 -1,12 5,-1 10,-2 12,-3 10,-1 20,-3 29,-4 19,-3 39,-6 58,-9 6,0 13,-1 19,-2l-18 10c-4,1 -9,1 -14,2 -21,3 -43,6 -65,9 -7,1 -13,3 -20,3 0,2 0,3 1,4 1,5 3,10 3,15 -1,4 -3,7 -6,8 4,4 9,7 14,10l-4 2zm134 -77c2,-7 4,-13 6,-19 2,0 4,0 6,0l-2 4c4,-3 9,-5 13,-8 0,0 0,0 -1,0l3 -2 0 -30 8 -4c0,10 0,22 -1,32 1,2 2,3 2,4l1 0c0,0 0,0 0,0 1,0 2,1 2,1l-37 22zm17 -26c-3,-1 -5,-2 -7,-3 2,-5 4,-10 7,-15l0 18zm8 -35l0 -5c0,-4 0,-7 0,-11 0,0 0,0 0,0l0 -2c2,-3 3,-6 3,-10 11,1 21,3 31,3 2,0 4,0 5,0 1,0 2,0 2,0 4,-1 6,-4 8,-6 3,-3 6,-6 10,-8l2 -2c1,-2 2,-3 3,-3 1,0 1,0 1,0l0 0c4,-2 9,-5 14,-7l0 5 -48 28c-1,-1 -1,-1 -2,-1 -7,0 -14,-1 -21,-3 2,5 1,11 1,17l-9 5zm102 -13c-5,-2 -10,-5 -15,-7l0 -8c6,4 13,8 20,10 1,1 1,1 2,1l-7 4zm-60 -5l9 -5c-2,2 -4,4 -7,5 -1,0 -1,0 -2,0zm37 -7c-4,-3 -8,-5 -11,-8l6 -4c2,1 3,2 5,4l0 8zm8 -24l0 -5c6,-2 12,-3 18,-4 -6,-9 -9,-19 -10,-30 -1,-7 -2,-15 -8,-19l0 -7c1,0 3,1 4,2l0 0c8,-7 16,-12 24,-17 3,-2 6,-4 9,-7l0 9c-10,6 -20,13 -30,18 3,3 5,7 5,12 1,7 1,14 3,20 2,7 5,13 9,18 4,0 8,-1 13,-2l0 5c-4,0 -8,1 -12,1 0,1 -1,2 -2,2 -8,0 -16,2 -23,4zm-8 -63c-5,-2 -9,-3 -14,-5 -4,-1 -8,-3 -12,-4l7 -4c6,2 12,4 18,6 0,1 1,1 1,1l0 6zm-33 -12c-9,-3 -18,-6 -27,-9 -7,-3 -13,-5 -19,-8l0 -7c10,6 22,9 33,13 6,2 13,5 20,7l-7 4zm-54 -22c-2,-1 -4,-3 -7,-4 -2,-2 0,-5 3,-5 0,0 1,0 2,0 1,1 1,2 2,2l0 7zm132 -36c-5,-1 -10,-3 -14,-4 -7,-3 -14,-6 -20,-10 -1,-1 -2,-1 -3,-2l0 -10c4,3 8,6 12,8 7,4 15,7 22,10 1,0 2,0 2,1l0 3 1 1 0 3zm-45 -23c-1,-1 -2,-2 -2,-4 -1,-2 0,-3 2,-3 0,0 0,0 0,0 2,1 4,2 6,3l-6 3 0 1z"/>
    <path class="fil9" d="M951 1051c-2,-1 -4,-2 -5,-3l0 -18c0,-1 0,-1 0,-1l0 -1c0,-2 1,-4 3,-5l1 -2c0,-2 2,-3 3,-4 1,-3 1,-6 1,-9l0 5 9 -5c-1,1 -1,3 -1,5 0,1 0,1 0,2l-8 4 0 30 -3 2zm3 -54c0,-1 0,-1 0,-2 0,0 0,0 0,0l0 2zm39 -2c-2,0 -5,0 -8,0l48 -28 0 -5c2,-1 5,-2 8,-3l0 5c-6,2 -11,5 -16,8l-1 1c2,1 3,2 4,3l-6 4c-1,-1 -3,-2 -4,-3 -4,3 -8,6 -11,10 -1,1 -1,2 -2,3l-9 5c-1,0 -2,0 -3,0zm48 -2c-3,-2 -6,-4 -8,-5l0 -8c2,1 5,3 8,5l0 8zm0 -87c-1,-1 -1,-1 -2,-2 -2,-1 -4,-2 -6,-3l0 -6c3,1 6,2 8,4l0 7zm-34 -14c-2,-1 -5,-2 -7,-3l7 -4c2,1 5,2 7,3l-7 4zm-53 -20c-2,-1 -5,-3 -8,-5l0 -7c3,2 5,4 8,5l0 7zm87 -57c-3,-2 -6,-4 -8,-7l0 -1 6 -3c1,0 2,1 2,1l0 10z"/>
    <polygon class="fil11" points="1659,1109 1659,1163 1077,827 1078,773 "/>
    <polygon class="fil12" points="1078,773 1077,827 230,1320 230,1266 "/>
    <polygon class="fil11" points="928,860 928,887 920,892 920,865 920,865 "/>
    <polygon class="fil11" points="1015,810 1015,837 1006,842 1006,815 "/>
    <polygon class="fil13" points="1659,1136 1659,1163 1077,827 1078,800 "/>
    <polygon class="fil4" points="1078,800 1077,827 230,1320 230,1293 "/>
    <polygon class="fil12" points="811,1645 811,1699 154,1320 154,1266 "/>
    <polygon class="fil11" points="1734,1109 1734,1163 811,1699 811,1645 "/>
    <path class="fil14" d="M811 1602l-581 -336 690 -401 8 -5 78 -45 9 -5 63 -37 581 336 -848 493zm266 -872l-923 536 657 379 923 -536 -657 -379z"/>
    <polygon class="fil11" points="1015,810 1006,815 985,802 994,798 "/>
    <polygon class="fil11" points="928,860 920,865 898,852 907,848 "/>
    <polygon class="fil15" points="899,1307 899,1307 "/>
    <path class="fil16" d="M439 1286l-3 0c-1,-1 -1,-3 -1,-4 1,-5 -5,-9 -10,-9 -1,-1 -2,-1 -3,-1 -2,0 -3,0 -5,1 -1,0 -3,0 -4,0 -1,0 -2,0 -2,0 -5,-1 -11,-4 -12,-9l4 -4c35,-2 69,-23 86,-54 5,3 7,10 5,16 -2,6 -7,11 -11,15 -9,8 -18,17 -27,25 3,2 7,3 11,3 5,0 11,-2 16,-4 8,-3 16,-9 24,-13 2,-1 4,-2 6,-2 1,0 1,1 1,1 4,0 6,3 7,7 0,0 0,1 0,2 -3,3 -5,5 -8,8 -2,2 -5,4 -7,6 -12,5 -25,7 -38,10 -9,2 -19,4 -29,6z"/>
    <path class="fil17" d="M506 1270c2,-2 5,-4 7,-6 3,-3 5,-5 8,-8 0,3 0,5 -1,8 -4,2 -9,4 -14,6z"/>
    <path class="fil18" d="M1435 1147l-2 0c-2,-1 -1,-2 -1,-4 0,-5 -5,-9 -10,-9 -1,0 -3,-1 -4,-1 -1,0 -3,1 -4,1 -2,0 -3,0 -5,0 -1,0 -1,0 -2,0 -5,-1 -11,-4 -11,-8l3 -5c21,-1 40,-8 57,-20 0,0 0,0 1,0 1,0 3,0 5,0 2,0 5,0 7,1 1,1 2,2 3,3 -6,6 -13,12 -20,18 4,2 7,3 11,3 6,0 11,-2 16,-4 3,-1 6,-2 8,-4 2,1 3,2 5,3 -8,7 -15,13 -23,19 -2,0 -3,1 -4,1 -10,2 -20,4 -30,6zm53 -11c5,-4 9,-9 14,-13l0 -1c2,1 4,1 6,1 3,0 6,0 9,-1 0,1 0,2 0,3 -9,5 -19,8 -29,11zm15 -18l-2 -2c-2,-1 -4,-2 -5,-3 2,-1 5,-3 8,-4 2,-1 4,-1 5,-1 1,0 1,0 2,0 3,0 5,3 6,7 0,0 0,1 0,1 0,0 0,0 0,0 -5,1 -10,0 -14,2zm-25 -19l-1 -1 0 -2c0,0 1,0 2,0 0,0 1,0 2,0 -1,1 -1,2 -2,2 0,0 -1,1 -1,1zm-5 -6c-2,-1 -3,-2 -5,-3 7,-7 13,-15 17,-23 6,3 7,10 5,16 -1,3 -2,6 -4,8 -5,0 -9,1 -13,2z"/>
    <path class="fil19" d="M1469 1140c8,-6 15,-12 23,-19 -2,-1 -3,-2 -5,-3 3,-1 6,-3 9,-5 1,1 3,2 5,3l2 2c4,-2 9,-1 14,-2 0,0 0,0 0,0 0,2 0,4 0,6 -3,1 -6,1 -9,1 -2,0 -4,0 -6,-1l0 1c-5,4 -9,9 -14,13 -6,1 -13,3 -19,4zm3 -35c-1,-1 -2,-2 -3,-3 -2,-1 -5,-1 -7,-1 -2,0 -4,0 -5,0 -1,0 -1,0 -1,0 4,-3 8,-7 12,-11 2,1 3,2 5,3 4,-1 8,-2 13,-2 -2,2 -3,4 -5,5 -1,0 -2,0 -2,0 -1,0 -2,0 -2,0l0 2 1 1c-2,2 -4,4 -6,6z"/>
    <path class="fil20" d="M592 1426c-11,-1 -21,-5 -27,-11 9,-6 17,-13 26,-19 4,-4 9,-7 8,-11 0,-5 -8,-9 -16,-10 -2,0 -4,0 -6,0 -2,0 -4,0 -7,0l13 -7 26 14c0,4 -1,7 -4,10 -3,2 -7,4 -10,6 -10,8 -7,19 -3,28zm-71 -34c8,-8 23,-12 38,-15 0,0 3,-1 6,-1l-5 2c-15,4 -32,9 -39,14zm87 -13l-22 -13 7 -4c1,1 2,2 3,3 6,4 10,9 12,14zm-36 -8c1,0 1,-1 2,-2 1,-1 2,-3 3,-5l4 2 -9 5zm11 -6l-5 -3c1,-3 1,-6 3,-8 3,0 6,-1 9,-1 0,1 0,2 0,3 0,1 0,3 1,4l-8 5zm3 -18c1,-1 3,-3 4,-4 0,1 0,3 0,4 -1,0 -2,0 -3,0 -1,0 -1,0 -1,0z"/>
    <path class="fil21" d="M560 1378l5 -2c0,0 0,-1 0,-1 3,-1 5,-2 7,-4l9 -5 2 2 -13 7c0,0 -1,0 -1,0 -3,1 -6,2 -9,3zm26 -12l-3 -1 8 -5c0,0 0,0 0,0 0,1 1,2 2,2l-7 4z"/>
    <path class="fil21" d="M609 1382l-26 -14 -2 -2 -4 -2c0,-1 1,-2 1,-2l5 3 3 1 22 13c0,1 1,2 1,3z"/>
    <path class="fil22" d="M581 1354c0,-2 1,-4 3,-5 0,-1 1,-1 2,-2 0,0 0,0 1,0 1,0 2,0 3,0 0,2 0,4 0,6 -3,0 -6,1 -9,1z"/>
    <path class="fil20" d="M1103 1252c-8,-1 -16,-4 -21,-7 0,-1 1,-1 1,-1 6,-2 11,-4 17,-5 0,5 2,9 3,13zm-26 -11c0,0 0,0 0,0 8,-7 17,-13 25,-20 5,-3 9,-6 9,-10 -1,-5 -8,-9 -17,-10 -2,0 -3,0 -5,0 -3,0 -6,0 -8,0 -8,3 -17,5 -25,8 0,-1 0,-2 1,-3 4,-1 9,-2 13,-3 1,0 4,-1 7,-2 3,-2 6,-4 9,-6 2,-3 3,-7 4,-10l27 16c4,5 5,12 -1,17 -2,2 -5,3 -8,5 -8,4 -16,9 -23,13 -3,2 -5,4 -8,5zm-45 -23c4,-4 9,-7 15,-9 0,1 0,2 -1,3 -6,2 -11,4 -14,6zm80 -24l-21 -12c0,0 0,-1 0,-1 2,-1 4,-1 6,-2 1,0 3,-1 5,-2 0,2 0,3 0,4 0,2 0,4 1,5 1,2 3,3 5,5 1,1 3,2 4,3zm-10 -25c0,0 0,0 0,0 0,0 0,0 0,0 0,0 0,0 0,0z"/>
    <path class="fil21" d="M1117 1201l-27 -16c0,-1 1,-2 1,-3l21 12c2,2 4,5 5,7z"/>
    <path class="fil22" d="M1082 1245c-2,-1 -4,-3 -5,-4 3,-1 5,-3 8,-5 7,-4 15,-9 23,-13 -1,0 -1,1 -1,1 -6,4 -8,10 -7,15 -6,1 -11,3 -17,5 0,0 -1,0 -1,1zm-36 -33c1,-1 1,-2 1,-3 3,-1 6,-2 10,-3 -1,1 -1,2 -1,3 -4,1 -7,2 -10,3zm45 -31c1,-2 2,-5 4,-6 2,-2 5,-4 7,-6 0,0 0,0 0,0 0,3 0,6 0,8 -2,1 -4,2 -5,2 -2,1 -4,1 -6,2z"/>
    <path class="fil16" d="M935 1055c-8,-1 -16,-3 -24,-5 -1,-1 -2,-1 -3,-2l1 -2c12,-18 33,-36 33,-55 1,0 3,0 4,1l0 13c-2,2 -5,4 -7,6 -8,8 -14,18 -9,26 2,3 5,6 9,8 -1,3 -2,7 -4,10zm22 -70c0,0 0,0 0,0 -1,0 -2,0 -3,0l0 -3c1,0 2,0 3,1l0 2c0,0 0,0 0,0zm-11 -2c-2,0 -4,-1 -6,-1 0,-1 0,-1 -1,-2 2,1 5,1 7,1l0 2z"/>
    <path class="fil18" d="M946 1005l0 -13c1,0 1,0 2,0 1,0 3,0 4,1 1,0 2,1 2,2 -2,3 -5,6 -8,10zm8 -20c0,-1 -1,-1 -1,-1 -3,0 -5,-1 -7,-1l0 -2c2,0 4,0 6,1 0,0 1,0 2,0l0 3z"/>
    <path class="fil17" d="M939 1059l2 -4c-2,0 -4,0 -6,0 2,-3 3,-7 4,-10 2,1 4,2 7,3l0 6 5 -3c1,0 1,0 1,0 -4,3 -9,5 -13,8zm15 -64l0 -10c1,0 2,0 3,0 0,0 0,0 0,0 0,4 -1,7 -3,10zm-8 -3c-1,-1 -3,-1 -4,-1 0,-1 0,-3 0,-4 0,-2 -1,-3 -2,-5 2,0 4,1 6,1l0 9z"/>
    <path class="fil19" d="M946 1054l0 -6c1,1 3,2 5,3l-5 3zm8 -59c0,-1 -1,-2 -2,-2 -1,-1 -3,-1 -4,-1 -1,0 -1,0 -2,0l0 -9c2,0 4,1 7,1 0,0 1,0 1,1l0 10c0,0 0,0 0,0z"/>
    <path class="fil20" d="M792 1558l2 -4c-10,-1 -20,-3 -29,-6l19 -11c4,5 13,9 21,13 -4,2 -9,5 -13,8zm-30 -11c0,0 0,0 0,0l0 -2c10,-15 26,-30 32,-45 3,-2 7,-3 10,-5l1 1c-3,5 -8,9 -12,13 -8,8 -14,17 -10,26l-21 12zm33 -57c0,0 0,0 0,0l1 0c0,0 -1,0 -1,0zm4 -1l-4 -2c0,0 0,-1 0,-1 0,-3 -1,-5 -3,-7 5,0 9,1 13,1 1,0 3,1 4,1 0,1 0,3 0,4 -3,1 -7,3 -10,4z"/>
    <path class="fil21" d="M765 1548c0,0 -1,0 -1,0 -1,0 -2,0 -2,-1l21 -12c0,0 0,1 0,1 1,0 1,1 1,1l-19 11z"/>
    <path class="fil21" d="M805 1496l-1 -1c1,0 2,0 2,0 0,0 0,0 -1,1zm-9 -6l-1 0c0,-1 0,-2 0,-3l4 2c-1,0 -2,1 -3,1z"/>
    <path class="fil22" d="M794 1500c1,-3 1,-7 1,-10 0,0 1,0 1,0l8 5c-3,2 -7,3 -10,5zm13 -6l-8 -5c3,-1 7,-3 10,-4 0,-1 0,-3 0,-4 0,0 1,0 1,1l1 2c0,3 -2,7 -4,10z"/>
    <path class="fil23" d="M804 1495l-8 -5c1,0 2,-1 3,-1l8 5c0,0 0,0 -1,1 0,0 -1,0 -2,0z"/>
    <path class="fil20" d="M736 1185l12 -7 0 0 -12 7 0 0zm15 -9l0 0 42 -24c0,0 0,0 0,0l-42 24z"/>
    <path class="fil20" d="M821 1188c0,0 0,0 0,0 4,-4 7,-7 11,-11l2 -2c0,0 0,-1 -1,-1 1,0 1,0 2,1 2,1 3,2 1,5l-1 2c0,1 -1,3 -1,4 -4,1 -8,2 -13,2zm-85 -3l12 -7 10 5 -22 2zm27 -2l-12 -7 42 -24c2,1 3,2 5,3 -2,0 -3,0 -4,1 -5,1 -10,3 -14,5 -2,5 -4,9 -5,13 -2,3 -3,7 -8,9l-4 0zm79 -13c-5,-4 -14,-7 -19,-10 -5,-2 -10,-4 -15,-6 2,0 4,0 6,0 0,0 0,0 0,0 -3,-3 -1,-8 5,-9 1,2 3,5 7,5 0,0 0,0 0,0 4,0 6,-1 8,-3 2,-1 5,-2 7,-2 1,0 2,0 2,1 -5,2 -10,5 -15,8 -1,1 -3,2 -3,3 -1,4 6,6 10,8 3,1 5,3 7,5z"/>
    <polygon class="fil21" points="758,1183 748,1178 748,1178 751,1176 751,1176 763,1183 "/>
    <path class="fil16" d="M714 1186c13,-8 35,-11 42,-21 4,-6 2,-12 0,-18 2,-1 5,-1 7,-2 4,-1 9,-2 14,-3 1,0 2,0 3,0 0,1 1,1 1,1 2,1 3,3 5,4 0,0 -1,1 -1,2 0,1 -1,2 -1,3l0 0c2,-1 4,-2 7,-2 0,0 0,0 0,0 0,1 1,1 2,2l-42 24 -3 2 -12 7 -22 1zm40 -46c-1,-2 -2,-4 -3,-6 2,2 5,3 8,4 0,0 0,0 0,0 0,0 -1,1 -2,1 -1,0 -2,1 -3,1z"/>
    <path class="fil22" d="M793 1152c0,0 0,0 0,0l2 -1c0,0 0,0 0,0l-2 1z"/>
    <path class="fil22" d="M834 1186c0,-1 1,-3 1,-4l1 -2c2,-3 1,-4 -1,-5 -1,-1 -1,-1 -2,-1 0,-1 -1,-2 -2,-2 -9,-6 -18,-11 -27,-16 -2,0 -3,-1 -4,-1 -1,0 -1,0 -2,0 0,0 0,0 0,0 -2,-1 -3,-2 -5,-3l2 -1c0,0 0,0 1,1 4,1 8,1 12,2 5,2 10,4 15,6 5,3 14,6 19,10 2,3 2,6 1,9 -2,3 -5,5 -9,7z"/>
    <path class="fil17" d="M793 1152c-1,-1 -2,-1 -2,-2 0,0 0,0 0,0 1,0 2,1 4,1l-2 1zm-37 -5c0,0 0,0 0,0 -1,-2 -2,-5 -2,-7 1,0 2,-1 3,-1 1,0 2,-1 2,-1 6,2 12,3 18,4 -5,1 -10,2 -14,3 -2,1 -5,1 -7,2zm30 0c-2,-1 -3,-3 -5,-4 2,0 4,1 5,2 0,1 0,1 0,2z"/>
    <path class="fil20" d="M962 1441c0,-2 7,-4 8,-6 0,-1 0,-1 0,-1 0,0 1,0 1,1 -3,2 -6,4 -9,6zm15 -11l-3 -3 18 -10c-1,3 -4,5 -7,8 -3,1 -5,3 -8,5zm-5 -4c-2,-1 -3,-2 -5,-3 1,-2 2,-3 4,-5 4,-3 8,-5 13,-7 -2,-2 -3,-3 -5,-5l13 8 -20 12zm-98 -4c-2,-4 -1,-9 2,-12 5,-4 10,-7 15,-9 4,-1 7,-2 11,-3 -1,1 -1,2 -2,2 -3,2 -7,3 -11,4 -8,4 -13,9 -14,15l-1 3zm117 -12l-19 -11c1,0 1,0 2,-1 1,1 3,2 4,3 5,2 10,5 13,9zm-26 -15l-47 -28c0,-1 1,-2 1,-3l12 -7c0,1 0,2 0,3 -1,3 -4,7 -3,10 1,5 10,9 18,11 9,1 18,2 25,6l3 1c-2,0 -4,0 -5,0 -3,0 -7,1 -7,2 -1,2 1,3 3,4 0,0 1,0 1,0 0,1 -1,1 -1,1zm-8 -2c-4,-1 -7,-1 -11,-1 -4,-1 -8,0 -11,-1 -3,-1 -4,-2 -6,-3 -3,-1 -6,-1 -8,-1 -1,0 -2,0 -3,0 -1,-4 -3,-8 -5,-12 1,-2 2,-3 3,-5l41 23zm-55 -3c0,-1 1,-2 2,-3 1,-1 3,-3 4,-5 1,2 2,4 3,7 -1,0 -1,0 -1,0 -1,0 -1,0 -2,0 -2,0 -4,0 -6,1zm18 -30c0,-1 0,-2 1,-3 0,-2 0,-5 4,-6 3,1 4,2 5,4l-10 5z"/>
    <path class="fil21" d="M974 1427l-2 -1c0,0 0,0 0,0l20 -12 1 0c0,0 0,1 0,2 0,0 0,0 -1,1l-18 10z"/>
    <path class="fil21" d="M919 1364c0,-1 1,-2 1,-4l10 -5c1,0 1,1 1,2l-12 7z"/>
    <path class="fil21" d="M993 1414l-1 0 -13 -8c-2,-2 -5,-4 -8,-6 1,-1 1,-1 1,-1l19 11c1,1 2,3 2,4zm-29 -18c-2,-1 -5,-2 -7,-3l-41 -23c1,-1 1,-2 2,-3l47 28c0,0 -1,0 -1,1z"/>
    <path class="fil22" d="M971 1435c0,-1 -1,-1 -1,-1 1,-1 0,-2 -1,-4l5 -3 3 3c-2,1 -4,3 -6,5zm-3 -7c0,0 0,0 -1,0 0,-2 0,-4 0,-5 2,1 3,2 5,3l-4 2zm-92 -18c2,-3 5,-6 10,-8 3,-1 5,-2 7,-3 2,-1 3,-3 4,-4 2,-2 3,-4 5,-5 2,-1 4,-1 6,-1 1,0 1,0 2,0 0,0 0,0 -1,0 -3,3 -4,6 -7,9 -4,1 -7,2 -11,3 -5,2 -10,5 -15,9zm96 -11l-7 -4c0,0 1,0 1,-1 3,2 5,3 8,4 -1,1 -1,1 -2,1zm-61 -10c-1,-3 -2,-5 -3,-7 2,-2 3,-5 5,-7 2,4 4,8 5,12 -2,0 -5,1 -7,2z"/>
    <path class="fil23" d="M969 1430c0,0 -1,-1 -1,-2l4 -2c0,0 0,0 0,0l2 1 -5 3z"/>
    <path class="fil23" d="M971 1400c0,-1 -1,-1 -2,-2 -1,-1 -3,-2 -5,-2 0,-1 1,-1 1,-1l7 4c0,0 0,0 -1,1z"/>
    <polygon class="fil24" points="985,803 994,798 994,741 985,746 "/>
    <path class="fil24" d="M1000 726l-8 5c-4,2 -6,7 -7,15l9 -5c0,-7 2,-12 6,-15z"/>
    <polygon class="fil24" points="985,746 994,741 994,740 994,740 994,740 994,739 994,739 994,739 994,738 994,738 994,738 994,738 994,738 994,738 994,737 994,737 994,737 994,736 994,736 994,736 994,736 994,736 994,736 994,735 994,735 994,735 995,734 995,734 995,734 995,734 995,734 995,734 995,734 995,733 995,733 995,733 995,733 995,733 995,732 995,732 995,732 996,732 996,732 996,732 996,731 996,731 996,731 996,731 996,731 996,730 996,730 996,730 997,730 997,730 997,729 997,729 997,729 997,729 997,729 997,729 998,729 998,728 998,728 998,728 998,728 998,728 999,728 999,727 999,727 999,727 999,727 999,727 1000,727 1000,727 1000,727 1000,727 1000,726 1000,726 992,731 992,731 992,731 992,731 991,732 991,732 991,732 991,732 991,732 990,732 990,732 990,733 990,733 990,733 990,733 989,733 989,733 989,734 989,734 989,734 989,734 989,734 988,734 988,735 988,735 988,735 988,735 988,735 988,736 988,736 987,736 987,736 987,737 987,737 987,737 987,737 987,737 987,738 987,738 987,738 987,738 987,738 986,739 986,739 986,739 986,740 986,740 986,740 986,740 986,740 986,740 986,740 986,740 986,741 986,741 986,741 986,741 986,741 986,742 986,742 986,742 986,742 986,742 986,743 986,743 986,743 986,743 986,743 986,744 986,744 986,744 986,744 986,744 986,744 985,745 985,745 985,745 985,745 985,745 985,745 "/>
    <path class="fil24" d="M997 721l-8 5c5,-3 12,-2 19,2l8 -5c-7,-4 -14,-5 -19,-2z"/>
    <polygon class="fil24" points="1008,728 1016,723 1016,723 1016,723 1016,723 1016,723 1016,723 1015,723 1015,722 1015,722 1015,722 1015,722 1015,722 1014,722 1014,722 1014,722 1014,722 1014,722 1014,722 1014,722 1013,722 1013,721 1013,721 1013,721 1013,721 1013,721 1012,721 1012,721 1012,721 1012,721 1012,721 1012,721 1011,721 1011,721 1011,721 1011,721 1011,721 1011,721 1011,720 1011,720 1010,720 1010,720 1010,720 1010,720 1010,720 1009,720 1009,720 1009,720 1009,720 1009,720 1009,720 1009,720 1008,720 1008,720 1008,720 1008,720 1008,720 1008,720 1008,720 1008,720 1007,720 1007,720 1007,720 1007,720 1007,720 1007,720 1007,720 1007,720 1006,720 1006,720 1006,719 1006,719 1006,719 1006,719 1006,719 1006,719 1005,719 1005,719 1005,719 1005,719 1005,719 1005,719 1005,719 1005,719 1004,719 1004,719 1004,719 1004,719 1004,719 1004,719 1004,719 1004,719 1003,719 1003,719 1003,719 1003,719 1003,719 1003,719 1003,719 1003,719 1002,720 1002,720 1002,720 1002,720 1002,720 1002,720 1002,720 1002,720 994,724 994,724 994,724 994,724 994,724 994,724 994,724 994,724 995,724 995,724 995,724 995,724 995,724 995,724 995,724 995,724 996,724 996,724 996,724 996,724 996,724 996,724 996,724 996,724 996,724 997,724 997,724 997,724 997,724 997,724 997,724 997,724 998,724 998,724 998,724 998,724 998,724 998,724 998,724 998,724 999,724 999,724 999,724 999,724 999,724 999,724 999,725 999,725 999,725 1000,725 1000,725 1000,725 1000,725 1000,725 1000,725 1001,725 1001,725 1001,725 1001,725 1001,725 1001,725 1001,725 1002,725 1002,725 1002,725 1002,725 1002,725 1002,725 1002,725 1002,725 1003,725 1003,725 1003,725 1003,725 1003,726 1003,726 1003,726 1004,726 1004,726 1004,726 1004,726 1004,726 1004,726 1004,726 1005,726 1005,726 1005,726 1005,726 1005,726 1005,726 1005,726 1006,727 1006,727 1006,727 1006,727 1006,727 1006,727 1006,727 1007,727 1007,727 1007,727 1007,727 1007,727 1007,727 1007,727 1008,728 1008,728 1008,728 "/>
    <g>
     <path class="fil24" d="M994 724l8 -4 0 0 0 0 0 0 0 0 0 0 0 0 -1 0 0 0 0 0 0 0 0 0 0 0 0 0 0 0 0 0 0 0 0 0 0 0 0 0 0 0 0 0 0 0 0 0 -1 0 0 0 0 0 0 0 0 0 0 0 0 0 0 0 0 0 0 0 0 0 0 0 0 0 0 0 0 0 0 0 0 0 0 0 -1 0 0 0 0 0 0 0 0 0 0 0 0 0 0 0 0 0 0 0 0 0 0 0 0 1 0 0 0 0 0 0 0 0 0 0 -1 0 0 0 0 0 0 0 0 0 0 0 0 0 0 0 0 0 0 0 -1 0 -5 3 -3 2 1 0 0 0 0 -1 0 0 0 0 0 0 0 0 0 0 1 0 0 0 0 0 0 0 0 0 0 0 0 0 0 0 0 0 0 0 0 0 0 0 0 0 0 0 0 0 0 0 1 0 0 0 0 0 0 0 0 0 0 0 0 0 0 0 0 0 0 0 0 0 0 0 0 0 0 0 0 0 0 0 0 0 1 0 0 0 0 0 0 0 0 0 0 0 0 0 0 0 0 0 0 0 0 0 0 0 0 -1 0 0 0 0 0 0 0 0 1 0 0 0 0 0zm-5 2l0 0 0 0z"/>
    </g>
    <polygon class="fil24" points="1053,754 1062,749 1016,723 1008,728 "/>
    <path class="fil24" d="M1085 809l8 -5c1,-20 -14,-45 -31,-55l-9 5c18,10 32,35 32,55z"/>
    <path class="fil24" d="M1085 809l8 -5 0 -1 0 0 0 0 0 0 0 -1 0 0 0 0 0 -1 0 0 0 -1 0 0 0 0 0 0 0 -1 0 0 0 0 0 0 0 -1 0 0 0 0 0 -1 0 0 0 0 0 0 0 -1 0 0 0 0 0 -1 0 0 -1 0 0 -1 0 0 0 0 0 -1 0 0 0 0 0 0 0 -1 0 0 0 0 0 -1 0 0 0 0 0 -1 -1 0 0 0 0 0 0 -1 0 0 0 0 0 -1 0 0 0 0 0 -1 -1 0 0 0 0 -1 0 0 0 0 0 -1 0 0 0 0 0 -1 -1 -1 0 0 -1 -2 0 0 0 0 0 -1 0 0c-1,-1 -1,-3 -2,-4l-8 5 0 1 0 0c1,1 1,3 2,4l0 0 1 1 0 0 0 1 0 0 0 0 0 1 0 0 0 0 0 0 1 1 0 0 0 1 0 0 0 0 0 1 0 0 0 0 0 1 1 0 0 0 0 0 0 1 0 0 0 0 0 1 0 0 0 0 0 1 0 0 1 0 0 1 0 0 0 0 0 0 0 1 0 0 0 0 0 1 0 0 0 0 0 1 0 0 0 0 0 1 0 0 1 0 0 0 0 1 0 0 0 0 0 1 0 0 0 0 0 1 0 0 0 0 0 0 0 1 0 0 0 0 0 1 0 0 0 1 0 0 0 0 0 1 0 0 0 0 0 1z"/>
    <path class="fil25" d="M1078 781l8 -5c-3,-5 -6,-9 -9,-14l0 0 -1 0 0 0 0 -1 -1 0 0 0 0 -1 0 0 -1 -1 0 0 -1 0 0 0 0 -1 0 0 -1 -1 0 0 0 0 -1 0 0 -1 -1 0 0 0 0 -1 0 0 -1 -1 0 0 0 0 -1 0 0 0 0 -1 -1 0 0 0 0 0 0 -1 -1 0 0 0 0 0 -1 0 0 -1 0 0 -1 0 0 0 -1 -1 0 0 -1 -1 -9 5 1 0 0 1 0 0 1 0 0 0 1 0 0 1 0 0m1 1l0 0 1 0 0 0 0 0 1 1 0 0 0 0 1 1 0 0 1 0 0 0 0 0 0 1 0 0 1 0 0 1 1 0 0 0 0 0c1,1 1,2 2,2l0 0c1,1 2,2 3,3l0 0 1 1 0 0 0 1 0 0 1 2 1 0 0 1 0 0 1 0 0 0 1 2 0 0c0,1 1,1 1,2l1 0 0 1 0 0 0 1 0 0c1,1 2,3 3,4"/>
    <polygon class="fil26" points="1003,870 1085,822 1085,829 1003,877 "/>
    <polygon class="fil24" points="898,853 907,848 907,791 898,796 "/>
    <path class="fil24" d="M913 776l-8 5c-4,2 -6,7 -7,15l9 -5c0,-7 2,-12 6,-15z"/>
    <path class="fil24" d="M898 796l9 -5c0,-7 2,-12 6,-15l-8 5c-4,2 -6,7 -7,15z"/>
    <path class="fil24" d="M910 771l-8 5c5,-3 12,-2 19,2l8 -5c-7,-4 -14,-5 -19,-2z"/>
    <path class="fil24" d="M921 778l3 -2 5 -3c0,0 -1,-1 -2,-1l0 0 -1 0 0 0 0 -1 0 0 0 0 0 0 -1 0 0 0 0 0 0 0 0 0 0 0 0 0 -1 0 0 0 0 0 0 0 0 0 0 0 0 -1 0 0 -1 0 0 0 0 0 0 0 0 0 0 0 0 0 -1 0 0 0 0 0 0 0 0 0 0 0 -1 0 0 0 0 0 0 0 0 0 0 0 0 0 0 0 -1 0 0 0 0 0 0 0 0 0 0 0 0 0 0 0 -1 0 0 0 0 0 0 0 0 -1 0 0 0 0 0 0 -1 0 0 0 0 0 0 0 0 0 0 0 0 0 0 0 -1 0 0 0 0 0 0 0 0 0 0 0 0 0 -1 0 0 0 0 0 0 0 0 0 0 1 0 0 0 0 -1 0 0 0 0 0 0 0 0 0 0 0 0 0 -8 4 0 0 0 0 0 0 0 0 1 0 0 0 0 0 1 0 0 0 0 0 0 0 1 0 0 0 0 0 0 0 0 0 0 0 0 0 1 0 0 0 0 0 0 0 0 0 0 0 0 0 0 0 1 0 0 0 0 0 0 0 0 0 0 1 0 0 0 0 0 0 1 0 0 0 0 0 0 0 0 0 0 0 0 0 1 0 0 0 0 0 0 0 0 0 0 0 1 0 0 0 0 0 0 0 0 0 0 0 0 0 0 0 1 0 0 0 0 1 0 0 0 0 0 0 0 0 1 0 0 0 0 0 0 0 0 0 0 0 0 0 1 0 0 0 0 0 0 0 0 0 0 0 0 0 1 1 0 0 0 0 0 0 0 0 0 0 1 0 0 0 0 0 0 0 0 0 0 0 0 1 1 0z"/>
    <path class="fil25" d="M907 774l8 -4 0 0 0 0 0 0 0 0 -1 0 0 0 0 0 0 0 0 0 0 0 0 0 0 0 0 0 0 0 0 0 0 0 0 0 0 0 0 0 0 0 0 0 0 0 -1 0 0 0 0 0 0 0 0 0 0 0 0 0 0 0 0 0 0 0 0 0 0 0 0 0 0 0 0 0 0 0 0 0 0 0 -1 0 0 0 0 0 0 0 0 0 0 0 0 0 0 0 0 0 0 0 0 0 0 1 0 0 0 0 0 0 0 0 0 0 0 0 -1 0 0 0 0 0 0 0 0 0 0 0 0 0 0 0 0 0 0 0 0 0 0 0 0 0 0 0 0 0 0 0 0 0 0 0 0 0 -1 0 0 0 0 0 0 0m-8 5l0 0 0 0 0 0 8 -5m-8 5l0 0 0 0 0 0 0 0 1 0 0 0 0 0 0 0 0 0 0 0 0 0 0 0 0 0 0 0 0 0 0 0 0 -1 0 0 0 0 0 0 0 0 0 0 0 0 1 0 0 0 0 0 0 0 0 0 0 0 0 0 0 0 0 0 0 0 0 0 0 0 0 0 1 0 0 0 0 0 0 0 0 0 0 0 0 0 0 0 0 0 0 0 0 0 0 0 0 0 0 0 0 0 1 0 0 0 0 0 0 0 0 0 0 0 0 0 0 0 1 -1"/>
    <polygon class="fil24" points="966,804 975,799 929,773 921,778 "/>
    <path class="fil24" d="M998 859l8 -5c1,-20 -14,-45 -31,-55l-9 5c18,10 32,35 32,55z"/>
    <path class="fil24" d="M998 859l8 -5 0 -1 0 0 0 0 0 0 0 -1 0 0 0 0 0 -1 0 0 0 -1 0 0 0 0 0 0 0 0 0 -1 0 0 0 0 0 -1 0 0 0 0 0 -1 0 0 0 0 0 0 0 -1 0 0 0 -1 0 0 -1 0 0 -1 0 0 0 0 0 0 0 -1 0 0 0 0 0 -1 0 0 0 0 0 -1 0 0 0 -1 -1 0 0 0 0 0 0 -1 0 0 0 0 0 -1 0 0 0 0 0 -1 -1 0 0 -1 0 0 0 0 0 -1 0 0 0 -1 -1 0 0 0 0 -1 0 0c0,-1 -1,-2 -1,-4l-1 0c0,-1 -1,-2 -1,-3l-8 5c1,2 1,4 2,5l0 0 1 1 0 0 0 1 0 0 0 0 0 1 0 0 0 0 1 1 0 0 0 1 0 0 0 1 0 0 0 0 0 1 1 0 0 0 0 0 0 1 0 0 0 0 0 1 0 0 0 0 0 1 0 0 1 0 0 1 0 0 0 0 0 0 0 1 0 0 0 0 0 1 0 0 0 0 0 1 0 0 0 0 0 1 0 0 1 0 0 0 0 1 0 0 0 0 0 1 0 0 0 0 0 1 0 0 0 0 0 0 0 1 0 0 0 0 0 1 0 0 0 1 0 0 0 0 0 1 0 0 0 0 0 1z"/>
    <path class="fil24" d="M991 831l8 -5c0,0 -1,-1 -1,-2l-1 -1 0 0 0 -1 0 0 -1 0 0 -1 0 0 0 0 0 -1 -1 0 0 0 0 -1 0 0 -1 0 0 -1 0 0 0 0 0 0 -1 -1 0 0 0 0 -1 -1 0 0 0 -1 0 0 0 0 -1 -1 0 0 0 0 0 -1 0 0 -1 0 0 -1 0 0 0 0 -1 0 0 0 -1 -1 0 0 0 -1 0 0 0 0 -1 -1 0 0 0 0 -1 0 0 0 0 -1 0 0 0 0 -1 -1 0 0 0 0 -1 0 0 -1 0 0 0 0 -1 0 0 -1 0 0 0 0 0 0 -1 -1 0 0 0 0 -1 0 0 0 0 0 0 -1 -1 0 0 0 0 0 0 -1 -1 0 0 0 0 0 -1 0 0 -1 0 0 -1 0 0 0 0 0 0 0 -1 -1 0 0 0 0 0 0 -1 0 0 -1 -9 5 1 0 0 1 1 0 0 0 1 0 0 1 1 0 0 0 0 0 0 0 1 1 0 0 0 0 1 1 0 0 0 0 1 0 0 1 1 0 0 0 0 0 0 1 0 0 1 0 1 1 0 0 0 0 0 1 1 0 0 0 0 1 0 0 1 0 0 0 0 0 0 1 1 0 0 0 0 1 1 0 0 0 0 1 0 0 0 0 1 0 0 0 0 1 1 0 0 0 0 1 0 0 0 0 1 1 0 0 0 0 0 1 1 0 0 0 0 1 0 0 1 0 0 0 0 1 0 0 1 0 0 1 0 0 1 1 0 0 0 1 0 0c1,2 3,4 4,6z"/>
    <path class="fil26" d="M998 859c0,-20 -14,-45 -32,-55l-45 -26c-15,-9 -27,-2 -27,15l0 57 4 3 0 -57c1,-15 11,-20 23,-13l45 26c16,9 28,30 28,48l0 76 4 3 0 -77z"/>
    <polygon class="fil27" points="994,933 993,1053 998,1056 998,936 "/>
    <polygon class="fil24" points="1093,804 1085,809 1085,885 1093,881 "/>
    <polygon class="fil28" points="1085,885 1085,1006 1093,1001 1093,881 "/>
    <path class="fil26" d="M1085 809c0,-20 -14,-45 -32,-55l-45 -26c-15,-9 -27,-2 -27,15l0 57 4 3 0 -57c1,-15 11,-21 23,-13l45 26c16,9 28,30 28,48l0 76 4 2 0 -76z"/>
    <polygon class="fil26" points="1003,920 1085,872 1085,879 1003,926 "/>
    <polygon class="fil24" points="998,917 1081,869 1085,872 1003,920 "/>
    <polygon class="fil24" points="998,867 1081,819 1085,822 1003,870 "/>
    <polygon class="fil27" points="1081,883 1080,1003 1085,1006 1085,885 "/>
    <polygon class="fil27" points="1003,968 1085,920 1085,927 1003,975 "/>
    <polygon class="fil29" points="998,965 1081,918 1085,921 1003,968 "/>
    <polygon class="fil27" points="1003,1016 1085,969 1085,975 1003,1023 "/>
    <polygon class="fil29" points="998,1014 1081,966 1085,969 1003,1017 "/>
    <polygon class="fil24" points="998,859 998,936 1006,931 1006,854 "/>
    <polygon class="fil28" points="998,1056 1006,1051 1006,931 998,936 "/>
    <g style="clip-path:url(#id0)">
     <image transform="matrix(0.824363 -0 -0 -0.824363 1157.08 1235.17)" x="0" y="0" width="286" height="360" xlink:href="pool_Images\pool_ImgID1.png"/>
    </g>
    <g>
     <path class="fil30" d="M1165 1235l0 0c0,0 -1,0 -2,0l0 0 1 -1 0 0c0,0 0,0 0,0 -1,0 -1,0 -1,0 0,0 0,0 -1,0l0 0 1 -1c0,0 0,0 0,0l0 -1 0 0 0 0c-1,0 0,-1 1,-1 0,-1 1,-1 2,-2 2,-2 5,-3 7,-5l0 0c5,-5 8,-11 15,-14 5,-3 15,-13 19,-17 4,-3 21,-11 21,-4 0,9 -17,14 -23,19 -4,4 -8,4 -12,8 -1,1 -12,8 -12,8 -1,1 -1,1 -2,1l0 1 0 0 -1 1c0,0 0,1 1,1 0,1 -1,2 -1,3l0 1c0,0 0,1 0,1 -1,1 -1,1 -1,2 0,0 0,1 -1,1 0,0 0,-1 0,-1 -1,0 -1,0 -1,-1 0,0 1,0 1,-1 0,0 -1,0 -1,0l1 -1c0,0 -1,0 -1,0 0,-1 0,-1 -1,-1 0,0 -1,1 -1,1 0,0 -1,1 -1,1 0,0 -1,0 -1,1 -1,0 -2,1 -2,1 -1,1 -2,1 -2,1l0 0 -1 -1c1,0 1,0 1,-1 1,0 1,0 1,-1 0,0 0,0 -1,1 0,0 -1,0 -2,1z"/>
     <path class="fil31" d="M1228 1189c0,-5 -12,-1 -18,2 2,2 3,3 5,4 2,1 2,2 2,4 0,0 -1,1 -2,1 -2,1 -4,2 -6,3 -5,4 -9,7 -15,10 0,0 -1,1 -1,1 -2,2 -5,4 -7,5 -1,0 -1,1 -2,1 -3,2 -6,4 -6,7 -1,2 0,4 -1,6 0,1 0,2 0,3 0,0 0,-1 0,-1 0,-1 0,-1 1,-2 0,0 0,-1 0,-1l0 -1c0,-1 1,-2 1,-3 -1,0 -1,-1 -1,-1l1 -1 0 0 0 -1c1,0 1,0 2,-1 0,0 11,-7 12,-8 4,-4 8,-4 12,-8 6,-5 23,-10 23,-19z"/>
     <path class="fil32" d="M1297 1149c0,0 6,-4 21,-11 5,-2 5,-7 13,-10 4,-1 20,-7 21,-7 0,-1 0,-3 1,-4 1,-2 1,-1 4,-1 3,-1 3,-1 5,-2 4,0 12,3 9,4 -4,4 -3,2 -9,5 -2,2 -9,5 -16,9 -4,2 -8,5 -11,7 -1,1 -17,14 -20,15 -3,2 -7,4 -10,6 0,0 -1,0 -1,0l0 0c1,6 2,12 2,15 -2,0 -11,4 -17,6 -4,-9 -10,-10 -15,-18 14,-16 23,-14 23,-14z"/>
     <path class="fil31" d="M1362 1114c-2,1 -2,1 -5,2 -3,0 -3,-1 -4,1 -1,1 -1,3 -1,4 -1,0 -17,6 -21,7 -8,3 -8,8 -13,10 -8,4 -14,7 -17,9 4,1 8,4 11,7 1,1 1,1 1,2 1,-1 2,-1 2,-2 3,-1 19,-14 20,-15 3,-2 7,-5 11,-7 7,-4 14,-7 16,-9 6,-3 5,-1 9,-5 3,-1 -5,-4 -9,-4z"/>
     <path class="fil33" d="M1370 1116c-5,4 -10,7 -15,10 -5,3 -11,4 -16,7 -3,2 -6,4 -9,6 -2,2 -3,3 -5,4 -1,1 -2,3 -3,4 -2,1 -4,2 -5,3 -1,0 -1,1 -2,1 -2,0 -5,0 -6,-1 -2,-2 -3,-3 -5,-5l0 0c-1,1 -2,1 -3,2 4,1 8,4 11,7 1,1 1,1 1,2 1,-1 2,-1 2,-2 3,-1 19,-14 20,-15 3,-2 7,-5 11,-7 7,-4 14,-7 16,-9 6,-3 5,-1 9,-5 1,-1 0,-1 -1,-2z"/>
     <path class="fil30" d="M1308 1157c6,-4 22,-11 27,-13 3,-2 7,-8 16,-11 4,-1 13,-3 14,-4 2,-2 0,-5 3,-5 2,-1 8,1 13,0 3,0 5,2 4,3 -7,2 -14,7 -14,7 0,0 -4,2 -10,6 -6,4 -8,9 -17,13 -9,4 -19,24 -44,28 -13,2 -32,-4 -12,-21 11,-8 20,-3 20,-3z"/>
     <path class="fil31" d="M1366 1129c1,2 2,5 0,6 -5,4 -10,8 -15,12 -2,2 -6,2 -9,4 -1,0 -1,2 -2,2 -6,3 -10,8 -15,13 0,1 -2,0 -2,-1 -2,-2 -3,-4 -4,-6 -2,-2 -4,-3 -5,-5 -2,1 -4,2 -6,3 0,0 -9,-5 -20,3 -20,17 -1,23 12,21 25,-4 35,-24 44,-28 9,-4 11,-9 17,-13 6,-4 10,-6 10,-6 0,0 7,-5 14,-7 0,-1 0,-1 0,-1 -5,3 -10,3 -15,6 -1,1 -2,-2 -4,-3z"/>
     <path class="fil30" d="M1381 1124c-5,1 -11,-1 -13,0 -3,0 -1,3 -3,5 -1,1 -10,3 -14,4 -9,3 -13,9 -16,11 -4,2 -14,6 -21,10 1,2 3,3 5,5 1,2 2,4 4,6 0,1 2,2 2,1 5,-5 9,-10 15,-13 1,0 1,-2 2,-2 3,-2 7,-2 9,-4 5,-4 10,-8 15,-12 2,-1 1,-4 0,-6 2,1 3,4 4,3 5,-3 10,-3 15,-6 0,-1 -2,-2 -4,-2z"/>
     <path class="fil30" d="M1265 1169c6,-1 8,-5 9,-6 5,7 34,16 34,16 0,0 -27,12 -38,16 -6,3 -30,4 -36,2 -21,-5 -21,2 -8,-6 5,-5 -7,-10 12,-18 7,-3 24,-4 27,-4z"/>
     <path class="fil30" d="M1234 1189c2,1 4,3 6,3 3,0 6,1 9,2 3,0 6,1 9,1 2,0 3,0 4,0 0,0 1,-1 1,-1 2,0 4,0 6,-1 1,0 3,0 4,-1 3,-1 6,-2 8,-4 7,-3 15,-6 20,-11 -9,-3 -24,-9 -27,-14 -1,1 -3,5 -9,6 -3,0 -18,-1 -25,1 -10,5 -13,10 -13,13 1,1 1,1 2,1 2,2 3,4 5,5z"/>
     <path class="fil31" d="M1247 1181c1,3 4,1 6,1 3,-1 4,-2 6,-3 4,-3 6,-6 9,-9 3,-2 5,-3 7,-6 0,0 -1,-1 -1,-1 -1,1 -3,5 -9,6 -1,0 -8,0 -14,1 -1,1 -2,3 -3,4 -1,2 -2,5 -1,7z"/>
     <path class="fil31" d="M1252 1196c-1,-1 -2,-1 -3,-1 0,0 -1,0 -2,0 -2,-1 -3,-2 -5,-2 -4,0 -8,-2 -12,-4 0,0 0,0 0,0 -1,-1 -2,-2 -3,-3 1,2 1,3 -1,5 -13,8 -13,1 8,6 3,1 15,1 24,0l0 0c-2,-1 -4,-1 -6,-1z"/>
     <path class="fil31" d="M1308 1179c0,0 -3,-1 -7,-2 -5,5 -13,8 -20,11 -2,2 -5,3 -8,4 -1,1 -3,1 -4,1 -2,1 -4,1 -6,1 0,0 -1,1 -1,1 -1,0 -2,0 -4,0 -3,0 -6,-1 -9,-1 -3,-1 -6,-2 -9,-2 -2,0 -4,-2 -6,-3 -2,-1 -3,-3 -5,-5 -1,0 -1,0 -2,-1 0,1 0,2 0,3 1,1 2,2 3,3 0,0 0,0 0,0 4,2 8,4 12,4 2,0 3,1 5,2 1,0 2,0 2,0 1,0 2,0 3,1 2,0 4,0 6,1l0 0c5,0 10,-1 12,-2 11,-4 38,-16 38,-16z"/>
     <path class="fil34" d="M1304 1160c0,0 1,0 1,0 3,-1 6,-3 8,-4 0,-1 0,-1 -1,-2 -3,-3 -7,-6 -11,-7 -3,1 -4,2 -4,2 0,0 -9,-2 -23,14 0,0 0,0 1,1 -1,-1 -1,-1 -1,-1 0,0 -1,1 -2,2 2,4 4,7 7,10 0,-2 1,-3 1,-5 4,3 7,5 9,11 6,-2 15,-6 17,-6 0,-3 -1,-9 -2,-15l0 0z"/>
     <path class="fil35" d="M1307 1154c-13,-2 -26,7 -30,19 1,1 1,2 2,2 0,-2 1,-3 1,-5 4,3 7,5 9,11 6,-2 15,-6 17,-6 0,-3 -1,-9 -2,-15l0 0c0,0 1,0 1,0 3,-1 6,-3 8,-4 0,-1 0,-1 -1,-2 0,0 0,0 0,0 -2,0 -4,0 -5,0z"/>
     <path class="fil36" d="M1322 1172c-1,-4 -3,-9 -5,-13 -1,-2 -3,-3 -4,-5 -2,1 -4,2 -5,3 0,0 -9,-5 -20,3 -5,5 -8,9 -9,12 0,1 0,2 0,3 0,1 0,1 1,2 3,4 8,6 12,9 9,-4 16,-7 16,-7l0 0c5,-2 10,-4 14,-7z"/>
     <path class="fil34" d="M1321 1171c-1,1 -3,1 -5,2 -9,3 -17,8 -26,12 1,0 1,1 2,1 9,-4 16,-7 16,-7l0 0c5,-2 10,-4 14,-7 -1,0 -1,-1 -1,-1z"/>
     <path class="fil30" d="M1274 1184c1,1 1,2 0,4 0,1 3,4 2,6 0,1 -2,-1 -2,-2 -1,-2 -4,-3 -4,-4 0,-1 0,-8 1,-8 2,-2 2,3 3,4z"/>
     <path class="fil30" d="M1277 1176c-1,-1 -7,1 -7,3 1,2 0,7 0,8 1,1 2,2 2,3 1,1 2,1 3,2 1,0 7,7 8,5 1,0 2,2 3,1 0,-1 -1,-2 -1,-2l1 0c2,-1 0,-3 -1,-4 0,0 1,1 1,0 0,-1 -2,-7 -3,-9 -1,-1 -5,-6 -6,-7z"/>
     <path class="fil30" d="M1271 1151c6,8 5,22 6,26 0,2 -6,6 -7,3 -1,-5 -2,-9 -8,-18 -1,-1 -5,-8 -2,-10 3,-3 7,-7 11,-1z"/>
     <path class="fil30" d="M1250 1163c4,-7 13,-14 13,-14 7,-3 7,5 5,7 -6,6 -17,36 -26,22 -2,-3 -3,-8 8,-15z"/>
     <path class="fil30" d="M1263 1149c0,0 -9,7 -13,14 -11,7 -10,12 -8,15 1,1 1,2 2,2l0 0c-1,-2 -1,-4 -1,-5 2,-4 5,-7 8,-10 1,-1 2,-2 3,-3 0,0 1,-1 1,-2 1,-1 1,-1 2,-2 2,-2 4,-4 6,-6 0,-1 1,-1 1,-2 1,-1 3,-1 4,0 0,0 2,-1 2,-1 -1,-1 -3,-2 -7,0z"/>
     <path class="fil30" d="M1233 1177c-8,1 -7,2 -7,2l-2 12c0,0 15,-2 16,-3 3,-3 -3,-12 -7,-11z"/>
     <path class="fil31" d="M1237 1188c0,0 -1,0 -1,-1 -2,0 -6,-8 -7,-10 -4,1 -3,2 -3,2l-2 12c0,0 15,-2 16,-3l0 0c-1,0 -2,0 -3,0z"/>
     <path class="fil30" d="M1231 1190c0,1 0,1 0,2 0,1 -1,4 -1,4 0,1 0,1 -1,1 0,1 0,1 -1,1 0,0 0,0 -1,0 0,0 0,0 -1,-1 0,0 -1,0 -1,0 0,0 -1,0 -2,-1 0,0 -1,0 -1,1 -1,0 -1,0 -1,0 -1,0 -1,0 -2,-1 0,0 0,-1 -1,-1 0,0 0,-1 0,-1l-1 0 0 -1 -1 0c0,0 0,0 -1,0 -1,-1 -3,-2 -4,-3 -2,-1 -3,-2 -4,-4 -2,-4 2,-7 5,-8 4,-1 8,-4 12,-2 1,0 1,0 2,0 0,1 0,1 1,1 0,0 1,0 1,1 1,2 1,2 2,4 0,1 1,3 1,4 0,0 0,1 0,2 0,1 0,1 0,2z"/>
     <path class="fil36" d="M1228 1177c0,-2 -1,-4 -2,-5 -6,-8 -21,-3 -22,6 0,8 6,13 7,12 0,0 -3,-2 -1,-6 4,-5 9,-6 16,-4 1,0 2,1 3,0 0,-1 0,-2 -1,-3z"/>
     <path class="fil37" d="M1217 1177c-5,1 -10,6 -9,11 1,2 3,2 3,2 0,0 -3,-2 -1,-6 4,-5 9,-6 16,-4 1,0 2,1 3,0 0,0 0,-1 0,-1 -4,-2 -8,-3 -12,-2z"/>
     <path class="fil35" d="M1219 1192c-1,1 -1,1 -2,2l0 -1c0,0 1,-1 1,-1l1 0z"/>
     <path class="fil34" d="M1222 1186c1,0 1,-1 1,-2 0,-1 1,-5 1,-6l1 1c0,0 -1,5 -1,5 0,0 0,1 0,1 0,0 0,1 0,1l-1 1 -1 -1z"/>
     <path class="fil35" d="M1220 1186c-2,0 -3,2 -3,4 0,0 0,2 1,2 1,1 2,0 2,0 2,0 4,-2 4,-4 0,-1 -1,-2 -1,-2 -1,-1 -2,-1 -3,0z"/>
     <path class="fil38" d="M1220 1186c-1,1 -2,3 -3,4 0,1 0,2 1,2 1,1 2,1 2,1 2,-1 3,-3 3,-5 0,0 0,-1 -1,-1 0,-1 -1,-1 -2,-1z"/>
     <path class="fil39" d="M1218 1192c-1,0 -1,-1 -1,-2 0,0 0,0 1,-1 0,1 1,2 2,2 2,-1 3,-2 3,-3l0 0c0,2 -1,4 -3,5 0,0 -1,0 -2,-1z"/>
     <path class="fil40" d="M1222 1187c-1,0 -2,0 -2,0 -1,0 -1,1 -1,1 0,0 1,1 1,1 1,0 2,0 2,-1 0,0 0,0 0,-1 0,0 0,0 0,0z"/>
    </g>
   </g>
  </g>
 </g>
</svg>
