<?xml version="1.0" encoding="UTF-8"?>
<!DOCTYPE svg PUBLIC "-//W3C//DTD SVG 1.1//EN" "http://www.w3.org/Graphics/SVG/1.1/DTD/svg11.dtd">
<!-- Creator: CorelDRAW X7 -->
<svg xmlns="http://www.w3.org/2000/svg" xml:space="preserve" width="1.9685in" height="1.9685in" version="1.1" style="shape-rendering:geometricPrecision; text-rendering:geometricPrecision; image-rendering:optimizeQuality; fill-rule:evenodd; clip-rule:evenodd"
viewBox="0 0 1077 1077"
 xmlns:xlink="http://www.w3.org/1999/xlink">
 <defs>
  <style type="text/css">
   <![CDATA[
    .str1 {stroke:#2F8B4D;stroke-width:1.64118}
    .str0 {stroke:#2F8B4D;stroke-width:1.64118}
    .fil7 {fill:#664730}
    .fil6 {fill:#483830}
    .fil21 {fill:#53BA66}
    .fil20 {fill:#4CB863}
    .fil19 {fill:#38B55F}
    .fil18 {fill:#2AAD58}
    .fil17 {fill:#30A755}
    .fil16 {fill:#2F9C52}
    .fil15 {fill:#2C9450}
    .fil14 {fill:#2F8B4D}
    .fil5 {fill:#2F8B4D}
    .fil13 {fill:#2E824B}
    .fil12 {fill:#2F7A47}
    .fil11 {fill:#2C7245}
    .fil10 {fill:#2D6841}
    .fil9 {fill:#2C623E}
    .fil8 {fill:#2B5839}
    .fil3 {fill:#2F8B4D}
    .fil2 {fill:#30A755}
    .fil23 {fill:#664730}
    .fil1 {fill:#8DBE6F}
    .fil4 {fill:#D5EDCD}
    .fil22 {fill:#E5D9B1}
    .fil0 {fill:#FFB76F}
   ]]>
  </style>
 </defs>
 <g id="Layer_x0020_1">
  <metadata id="CorelCorpID_0Corel-Layer"/>
  <g id="_2391692411184">
   <circle class="fil0" cx="538" cy="538" r="538"/>
   <path class="fil1" d="M569 654c186,0 354,22 479,59 -71,209 -268,360 -501,364 -12,0 -25,-1 -37,-1 -218,-11 -401,-152 -475,-346 128,-46 319,-76 534,-76z"/>
   <g>
    <path class="fil2" d="M271 888c0,-4 0,-9 2,-13l9 -9c14,9 11,10 12,16l-23 6zm66 -16c8,-1 4,-11 13,2 -2,12 -21,17 -33,18 2,-12 2,-15 -2,-25l-19 -2c2,-7 7,-9 12,-14 0,0 0,1 1,1 8,7 8,6 19,5l-4 14c16,-7 -3,3 13,1zm-116 -7c3,-4 6,-7 10,-10 10,4 4,5 16,5l-2 11c12,-4 -3,2 9,1 2,0 12,-6 10,2 -3,11 -14,11 -24,14l-2 -19 -17 -4zm58 -2c-8,-2 -6,-1 -11,-7 -5,1 -6,6 -7,4 -1,-1 -2,1 -3,1 1,-11 0,-8 4,-15 1,0 1,1 2,1 0,0 1,1 2,1 0,0 1,1 1,1l11 5c1,-1 2,0 2,1l-1 8zm-75 -30c6,-13 0,-23 8,-29 1,-1 9,-5 12,-4 5,2 1,4 -2,10 18,9 17,14 14,23 -7,-3 -6,-5 -12,-6 -9,8 -7,2 -9,17 -10,-2 -16,1 -14,9l-17 -17 20 -3zm10 -2c2,2 3,-7 0,-1 -4,5 0,1 0,1zm41 19c-7,3 -6,1 -14,-4 0,0 2,-1 2,-1 7,-4 9,-5 12,5zm73 -4c-9,-4 -5,-4 -6,-8 2,-4 22,-6 16,7 -5,3 -3,4 -10,1zm14 -17c24,0 18,-2 25,-18 2,16 13,29 -13,27 -5,22 -9,18 -11,19 -5,-11 -3,-1 6,-17l-7 -11zm51 -161l-6 4c-4,-1 -3,-1 -2,3 3,0 2,0 2,-3 10,-2 5,0 6,-4 8,-1 10,-2 16,-8 -1,-12 -7,-12 -14,-21 0,1 -1,2 -1,2l-6 9c-5,-9 -4,-6 0,-13l-7 -1c-7,4 -12,0 -17,-5 3,-5 2,-5 11,-4l3 2 3 1 -3 -1c-1,-4 0,-3 -3,-2 4,-16 2,-4 12,-14 -4,-9 -11,-10 -27,-34 3,-6 2,-4 5,-8 3,-4 3,-2 4,-9 -6,-5 -6,-5 -15,-7 0,-4 5,-2 -4,-3l4 3 -6 8c-6,-6 -7,-7 -16,-2 -5,3 -3,15 -4,11 0,0 0,1 0,2 -2,1 -3,0 -7,2 -14,5 -8,8 -23,-5 7,-7 -2,0 6,-4 3,-1 3,0 7,-1 9,-4 3,1 8,-7 5,-8 5,-16 -1,-21 1,-1 3,-3 4,-5 5,6 10,10 19,12l-1 -7c1,-2 13,-5 -13,-22 -5,10 2,3 -7,8 -2,-12 0,-8 5,-12l1 -5c3,2 3,-7 2,5l3 -7c-11,-1 -1,-1 -5,2l-1 5c-8,-1 -5,-1 -10,-3l-1 3c-10,0 -10,0 -17,-7 13,-1 2,1 7,-3l3 0c-3,-4 -1,-4 -3,0l-25 -4c-9,14 -3,23 -19,27l5 12 -16 -3c-1,26 -15,28 -17,30l11 15c-8,18 -16,14 -24,29l8 10c-9,19 -18,18 -25,32l10 9c3,4 3,7 5,12 6,16 7,10 1,27l-4 0 -2 3 -2 3 -3 2 3 -2 2 -3 2 -3 4 0 19 -5c-2,12 -1,15 2,24 6,3 12,3 20,3 -5,12 -17,13 -17,20 8,-12 -5,-12 -15,-12l3 -14c-15,8 3,-1 -12,-1 -6,0 -5,0 -9,5l-5 -11 -16 9c3,10 7,13 14,17 0,2 0,8 -1,11 -1,7 -3,6 -7,11l-6 9c-6,9 -14,9 -19,21 4,2 14,0 18,27 3,12 -8,15 -16,25l5 6c9,5 5,-1 9,10 12,31 0,5 28,21 11,8 10,4 20,15 33,-2 49,11 108,5l33 -10c-6,-1 -4,5 -8,-18l-15 -5 11 -10c1,7 3,6 13,7 0,11 -1,12 9,10 1,0 1,0 2,0 6,-1 0,-2 4,-1 7,12 -4,9 -13,18l23 -10c-4,-9 -4,0 8,-11l4 3 6 -3c-4,-6 -5,-2 0,-11 6,3 2,3 9,8l12 -11 1 -10c-6,-3 -12,-6 -16,-8 -1,4 -2,9 -5,10l-9 -5c-1,0 -6,3 -7,3 -5,2 -1,2 -5,0l3 13c-8,1 -9,-3 -12,5 -7,-10 1,-4 -8,-8 -9,-4 -7,0 -11,-9 12,-3 20,10 22,-9 1,-6 0,-8 -1,-14 12,2 18,0 24,7 2,-7 -2,-2 5,-5 -1,4 -2,3 2,3 1,-5 2,-5 -2,-3 -4,-5 -7,-4 0,-12l7 13c1,-12 -1,-5 6,-12 5,-6 4,-2 7,-11 -5,-8 -7,-5 -14,-11l-5 11c-11,-4 0,-4 -15,-6l-6 16c-4,1 -3,-1 -8,1l-8 5c0,0 -1,1 -1,1 -11,-9 -10,-6 -12,-15 -6,-16 -8,-10 0,-16 1,3 2,6 4,9 3,5 0,0 3,5 0,1 1,2 1,2 0,-1 1,1 1,1 15,-4 15,-11 11,-28 13,2 9,3 21,0 4,3 4,-5 3,6l4 -6c9,3 6,5 12,7 0,-12 -4,-7 3,-15 5,-6 6,-3 10,-14 -5,-6 -7,-6 -16,-9 0,-3 5,-2 -6,-3 3,4 -5,3 6,3l-3 10c-11,-7 -3,-7 -14,-5 -5,1 -1,8 -8,1l1 14c-10,-1 -10,0 -16,6l-15 -12c10,-5 22,4 24,-21l2 -9c0,0 0,-1 0,-1 0,-6 -9,0 2,-12l3 7c9,-5 14,-7 16,-18 -5,-6 -8,-6 -16,-10l-2 10c-13,-2 -2,-3 -15,-5l-2 2c0,1 -1,1 -1,2l-4 10c-4,15 -3,-5 -1,5l-2 12c-11,-8 -20,-10 -19,11 -11,-1 -14,3 -20,8 9,4 17,5 25,3 2,5 -3,2 3,8 2,3 1,2 4,3l5 3 -6 10c-4,-7 -4,-5 -12,-4 -8,1 -3,4 -9,0 2,5 3,8 3,15 -5,-1 -4,-1 -9,0 -7,2 -5,3 -7,6 2,4 2,10 12,8 9,-1 2,-4 16,-3 -4,17 -12,7 -25,10l-1 15c-16,-4 7,-3 -17,-1 -2,0 1,2 -5,-1 2,8 3,10 1,14 -3,0 -6,0 -10,0l-11 3c0,0 -1,0 -1,-1 -1,0 -3,-1 -4,-2 5,10 2,6 0,10l-16 -6c2,-13 2,-13 -1,-26 -7,-3 -11,-4 -22,-3l14 -14c8,6 5,6 19,7l6 15c0,-1 1,0 2,1 8,-3 4,-1 9,-6 6,5 5,12 16,8 4,-2 6,-5 6,-9 0,-9 -4,-6 -5,-6l3 -1c10,-6 2,-15 -10,-20l-9 19c-4,-5 0,0 -4,-6 3,-8 9,-8 10,-19 0,-14 -10,-2 -5,-20 8,5 9,12 10,11 0,-1 0,1 1,1 7,-4 9,-5 13,-12 7,-10 3,-6 12,-13 -10,-6 -12,-6 -13,-19 13,-6 14,-10 20,2 4,-9 1,-7 1,-19l14 6c27,-22 3,-40 3,-40 -3,-4 -2,-7 -4,-11 -5,-8 -9,-6 -21,-7 4,-9 7,-8 13,-15 7,6 7,8 19,7l-3 15c15,-8 1,14 21,-4l4 9zm-156 134c-1,0 -2,1 -2,1l-3 -14c0,0 1,0 1,0 7,4 5,7 6,6 0,-1 1,1 1,2 3,-2 5,-3 10,-5 -3,15 2,5 -7,7 -1,0 -1,0 -2,0 0,0 -1,1 -1,1 -1,0 -1,7 -3,2zm40 -19c5,-6 11,-15 20,-13 0,1 1,1 0,4l-4 13c0,0 -1,1 -1,3l-15 -7zm-44 -34c-10,4 -16,3 -17,-9 5,-1 7,-2 12,1 8,5 3,1 5,8zm28 1c12,-1 10,0 18,-9 -2,-11 -3,-1 -6,-15 12,1 11,2 19,8 7,6 8,5 17,7 -5,13 -2,4 -11,3 -17,-4 2,10 -14,0l3 15c-13,-1 -15,-1 -19,10l-11 -7c-25,19 -5,-8 -24,16 -15,-15 -8,2 -20,-3l2 13c-8,1 -5,-1 -12,3l-8 5 -12 -11c6,-7 -2,-1 6,-4 9,-3 22,2 16,-28 35,7 18,9 33,13l2 -14 21 -2zm62 -78c24,5 6,4 16,-3 3,4 5,6 8,11 7,11 0,3 10,9l-6 9c-7,-3 -4,-3 -12,-6 -14,12 -4,8 -8,17 -3,-4 -7,-8 -11,-12 6,-8 4,-13 3,-25zm-42 29c-10,-1 -1,-4 -16,3l-4 -9c17,-5 9,-14 10,-17 6,-13 18,0 24,4 -8,18 4,23 17,26 1,0 2,1 2,1 0,-1 1,0 2,1l-13 13c-7,-9 -7,-8 -18,-8l2 -14c-5,3 -2,1 -6,0zm35 -75c0,0 1,-1 1,-1l7 -8c11,14 -2,6 16,14 -6,14 2,13 -15,22 -6,3 0,-1 -5,2l3 10c-5,2 -22,3 -15,11 -9,-6 -12,-7 -17,-16 1,0 2,0 2,0l4 -1c14,-3 19,-6 17,-21 -1,-5 0,-2 -2,-6 -1,-4 -10,-20 4,-6zm11 5c5,-4 -5,-8 -5,0 1,8 -5,0 5,0 0,0 0,0 0,0zm-112 17c24,1 13,-4 29,-8l-16 22c-6,-6 -9,-5 -13,-14zm36 -43c4,-9 4,-14 2,-26 9,1 9,3 15,0 -5,-13 -8,-12 -23,-11 4,-10 6,-8 12,-16 7,6 7,8 20,8l-2 14c11,-6 0,-2 10,1 10,2 -2,-3 9,1l0 10c3,0 7,1 9,2 7,3 7,9 16,8 6,-1 1,-3 16,-10 16,-7 4,-6 16,-13 2,14 -4,19 1,29 3,7 10,7 16,9 8,4 -1,-4 6,3l-10 10c-14,-2 1,1 -7,-2 -33,-13 -2,-6 -22,-21 -11,3 -3,0 -11,6l-8 -9c-22,9 -7,-2 -18,14 -7,10 -13,5 -9,19 5,2 3,0 13,-2 -5,17 -12,16 -16,17 -14,4 0,7 -12,2l2 13c-11,1 -10,0 -18,8l-13 -14c5,-2 11,0 21,-6 2,-9 4,-13 0,-22 6,-3 7,-1 16,1 -4,-3 -5,-3 -4,-11l10 -5c-5,-5 -9,-9 -16,-14 -11,6 0,8 -12,3l3 15c-13,-2 -18,4 -15,8 -7,-5 -13,-8 -17,-16l20 -3zm38 -57c-9,2 -13,0 -19,-6l7 -5c8,2 9,4 12,11zm-16 -17c2,-8 10,-12 15,-17 1,9 8,9 18,8l-2 13c0,0 1,1 1,1l4 1c-2,13 -7,17 -18,21 1,-13 16,-28 -18,-27z"/>
    <path class="fil3 str0" d="M404 692c-12,-6 -1,-7 -20,-11l1 -6c-1,-4 -2,-4 2,-3l6 -4 -4 -9c-20,18 -6,-4 -21,4l3 -15c-12,1 -12,-1 -19,-7 -6,7 -9,6 -13,15 12,1 16,-1 21,7 2,4 1,7 4,11 0,0 24,18 -3,40l-14 -6c0,12 3,10 -1,19 -6,-12 -7,-8 -20,-2 1,13 3,13 13,19 -9,7 -5,3 -12,13 -4,7 -6,8 -13,12 -1,0 -1,-2 -1,-1 -1,1 -2,-6 -10,-11 -5,18 5,6 5,20 -1,11 -7,11 -10,19 4,6 0,1 4,6l9 -19c12,5 20,14 10,20l-3 1c1,0 5,-3 5,6 0,4 -2,7 -6,9 -11,4 -10,-3 -16,-8 -5,5 -1,3 -9,6 -1,-1 -2,-2 -2,-1l-6 -15c-14,-1 -11,-1 -19,-7l-14 14c11,-1 15,0 22,3 3,13 3,13 1,26l16 6c2,-4 5,0 0,-10 1,1 3,2 4,2 0,1 1,1 1,1l11 -3c4,0 7,0 10,0 2,-4 1,-6 -1,-14 6,3 3,1 5,1 24,-2 1,-3 17,1l1 -15c13,-3 21,7 25,-10 -14,-1 -7,2 -16,3 -10,2 -10,-4 -12,-8 2,-3 0,-4 7,-6 5,-1 4,-1 9,0 0,-7 -1,-10 -3,-15 6,4 1,1 9,0 8,-1 8,-3 12,4l6 -10 -5 -3c-3,-1 -2,0 -4,-3 -6,-6 -1,-3 -3,-8 -8,2 -16,1 -25,-3 6,-5 9,-9 20,-8 -1,-21 8,-19 19,-11l2 -12c-2,-10 -3,10 1,-5l4 -10c0,-1 1,-1 1,-2l2 -2c13,2 2,3 15,5l2 -10zm24 50c-11,0 -3,1 -6,-3 -7,-17 -8,1 -18,-19l-3 -7c-11,12 -2,6 -2,12 0,0 0,1 0,1l-2 9c-2,25 -14,16 -24,21l15 12c6,-6 6,-7 16,-6l-1 -14c7,7 3,0 8,-1 11,-2 3,-2 14,5l3 -10z"/>
    <path class="fil3 str0" d="M245 568c15,-1 18,-2 23,11 -6,3 -6,1 -15,0 2,12 2,17 -2,26l-20 3c4,8 10,11 17,16 -3,-4 2,-10 15,-8l-3 -15c12,5 1,3 12,-3 7,5 11,9 16,14l-10 5c-1,8 0,8 4,11 -9,-2 -10,-4 -16,-1 4,9 2,13 0,22 -10,6 -16,4 -21,6l13 14c8,-8 7,-7 18,-8l-2 -13c12,5 -2,2 12,-2 4,-1 11,0 16,-17 -10,2 -8,4 -13,2 -4,-14 2,-9 9,-19 11,-16 -4,-5 18,-14l8 9c8,-6 0,-3 11,-6 20,15 -11,8 22,21 8,3 -7,0 7,2l10 -10c-7,-7 2,1 -6,-3 -6,-2 -13,-2 -16,-9 -5,-10 1,-15 -1,-29 -12,7 0,6 -16,13 -15,7 -10,9 -16,10 -9,1 -9,-5 -16,-8 -2,-1 -6,-2 -9,-2l0 -10c-11,-4 1,1 -9,-1 -10,-3 1,-7 -10,-1l2 -14c-13,0 -13,-2 -20,-8 -6,8 -8,6 -12,16z"/>
    <path class="fil4" d="M423 871c4,6 2,2 4,0l-4 0 -5 -7 -6 3c-3,6 -5,9 -12,8l-23 10 -3 -1 -33 10c-59,6 -75,-7 -108,-5 -10,-11 -9,-7 -20,-15 -28,-16 -16,10 -28,-21 -4,-11 0,-5 -9,-10 9,16 8,33 39,51 51,28 133,31 181,-1 11,-7 17,-17 27,-22z"/>
    <path class="fil3 str0" d="M279 741c-8,9 -6,8 -18,9l-21 2 -2 14c-15,-4 2,-6 -33,-13 6,30 -7,25 -16,28 -8,3 0,-3 -6,4l12 11 8 -5c7,-4 4,-2 12,-3l-2 -13c12,5 5,-12 20,3 19,-24 -1,3 24,-16l11 7c4,-11 6,-11 19,-10l-3 -15c16,10 -3,-4 14,0 9,1 6,10 11,-3 -9,-2 -10,-1 -17,-7 -8,-6 -7,-7 -19,-8 3,14 4,4 6,15z"/>
    <path class="fil3 str0" d="M426 787c-7,-2 -7,-2 -11,-8 1,-11 1,-3 -3,-6 -12,3 -8,2 -21,0 4,17 4,24 -11,28 0,0 -1,-2 -1,-1 0,0 -1,-1 -1,-2 -3,-5 0,0 -3,-5 -2,-3 -3,-6 -4,-9 -8,6 -6,0 0,16 2,9 1,6 12,15 0,0 1,-1 1,-1l8 -5c5,-2 4,0 8,-1l6 -16c15,2 4,2 15,6l5 -11z"/>
    <path class="fil3 str0" d="M322 631c0,-8 10,-4 5,0 0,0 0,0 0,0 -10,0 -4,8 -5,0zm-6 -5c-14,-14 -5,2 -4,6 2,4 1,1 2,6 2,15 -3,18 -17,21l-4 1c0,0 -1,0 -2,0 5,9 8,10 17,16 -7,-8 10,-9 15,-11l-3 -10c5,-3 -1,1 5,-2 17,-9 9,-8 15,-22 -18,-8 -5,0 -16,-14l-7 8c0,0 -1,1 -1,1z"/>
    <path class="fil3 str0" d="M261 695l4 9c15,-7 6,-4 16,-3 4,1 1,3 6,0l-2 14c11,0 11,-1 18,8l13 -13c-1,-1 -2,-2 -2,-1 0,0 -1,-1 -2,-1 -13,-3 -25,-8 -17,-26 -6,-4 -18,-17 -24,-4 -1,3 7,12 -10,17z"/>
    <path class="fil3 str0" d="M214 830c3,-6 2,3 0,1 0,0 -4,4 0,-1zm-10 3l-20 3 17 17c-2,-8 4,-11 14,-9 2,-15 0,-9 9,-17 6,1 5,3 12,6 3,-9 4,-14 -14,-23 3,-6 7,-8 2,-10 -3,-1 -11,3 -12,4 -8,6 -2,16 -8,29z"/>
    <path class="fil3 str0" d="M354 555l-4 -3c-4,-3 0,-1 -3,-3 -6,-4 -1,-2 -6,-4 -9,-2 -14,-6 -19,-12 -1,2 -3,4 -4,5 6,5 6,13 1,21 -5,8 1,3 -8,7 -4,1 -4,0 -7,1 -8,4 1,-3 -6,4 15,13 9,10 23,5 4,-2 5,-1 7,-2 0,-1 0,-2 0,-2 1,4 -1,-8 4,-11 9,-5 10,-4 16,2l6 -8z"/>
    <path class="fil5 str1" d="M296 865l19 2c4,10 4,13 2,25 12,-1 31,-6 33,-18 -9,-13 -5,-3 -13,-2 -16,2 3,-8 -13,-1l4 -14c-11,1 -11,2 -19,-5 -1,0 -1,-1 -1,-1 -5,5 -10,7 -12,14z"/>
    <path class="fil3 str0" d="M218 698l-4 0 -2 3 -2 3 -3 2 -3 1 5 11c4,-5 3,-5 9,-5 15,0 -3,9 12,1l-3 14c10,0 23,0 15,12 0,-7 12,-8 17,-20 -8,0 -14,0 -20,-3 -3,-9 -4,-12 -2,-24l-19 5z"/>
    <path class="fil3 str0" d="M424 832c-8,-3 -4,-1 -9,-7 -6,-7 -12,-5 -24,-7 1,6 2,8 1,14 -2,19 -10,6 -22,9 4,9 2,5 11,9 9,4 1,-2 8,8 3,-8 4,-4 12,-5l-3 -13c4,2 0,2 5,0 1,0 6,-3 7,-3l9 5c3,-1 4,-6 5,-10z"/>
    <path class="fil3 str0" d="M323 672c1,12 3,17 -3,25 4,4 8,8 11,12 4,-9 -6,-5 8,-17 8,3 5,3 12,6l6 -9c-10,-6 -3,2 -10,-9 -3,-5 -5,-7 -8,-11 -10,7 8,8 -16,3z"/>
    <path class="fil3 str0" d="M273 531c34,-1 19,14 18,27 11,-4 16,-8 18,-21l-4 -1c0,0 -1,-1 -1,-1l2 -13c-10,1 -17,1 -18,-8 -5,5 -13,9 -15,17z"/>
    <path class="fil3 str0" d="M221 865l17 4 2 19c10,-3 21,-3 24,-14 2,-8 -8,-2 -10,-2 -12,1 3,-5 -9,-1l2 -11c-12,0 -6,-1 -16,-5 -4,3 -7,6 -10,10z"/>
    <path class="fil3 str0" d="M374 884l3 1c9,-9 20,-6 13,-18 -4,-1 2,0 -4,1 -1,0 -1,0 -2,0 -10,2 -9,1 -9,-10 -10,-1 -12,0 -13,-7l-11 10 15 5c4,23 2,17 8,18z"/>
    <path class="fil3 str0" d="M342 829l7 11c-9,16 -11,6 -6,17 2,-1 6,3 11,-19 26,2 15,-11 13,-27 -7,16 -1,18 -25,18z"/>
    <path class="fil3 str0" d="M271 888l23 -6c-1,-6 2,-7 -12,-16l-9 9c-2,4 -2,9 -2,13z"/>
    <path class="fil3 str0" d="M277 783l15 7c0,-2 1,-3 1,-3l4 -13c1,-3 0,-3 0,-4 -9,-2 -15,7 -20,13z"/>
    <path class="fil3 str0" d="M215 648c4,9 7,8 13,14l16 -22c-16,4 -5,9 -29,8z"/>
    <path class="fil3 str0" d="M258 861c1,0 2,-2 3,-1 1,2 2,-3 7,-4 5,6 3,5 11,7l1 -8c0,-1 -1,-2 -2,-1l-11 -5c0,0 -1,-1 -1,-1 -1,0 -2,-1 -2,-1 -1,0 -1,-1 -2,-1 -4,7 -3,4 -4,15z"/>
    <path class="fil3 str0" d="M322 838c1,4 -3,4 6,8 7,3 5,2 10,-1 6,-13 -14,-11 -16,-7z"/>
    <path class="fil3 str0" d="M233 749c-2,-7 3,-3 -5,-8 -5,-3 -7,-2 -12,-1 1,12 7,13 17,9z"/>
    <path class="fil3 str0" d="M381 636l0 -6 -3 -1 -3 -2c-9,-1 -8,-1 -11,4 5,5 10,9 17,5z"/>
    <path class="fil3 str0" d="M270 542c6,6 10,8 19,6 -3,-7 -4,-9 -12,-11l-7 5z"/>
    <path class="fil3 str0" d="M315 509l-1 -6 -7 -1 -3 0c-5,4 6,2 -7,3 7,7 7,7 17,7l1 -3z"/>
    <path class="fil3 str0" d="M418 864l5 7 4 0 -2 -9 14 -12 -12 11c-7,-5 -3,-5 -9,-8 -5,9 -4,5 0,11z"/>
    <path class="fil3 str0" d="M232 789l3 14c0,0 1,-1 2,-1 2,5 2,-2 3,-2 0,0 1,-1 1,-1 1,0 1,0 2,0 9,-2 4,8 7,-7 -5,2 -7,3 -10,5 0,-1 -1,-3 -1,-2 -1,1 1,-2 -6,-6 0,0 -1,0 -1,0z"/>
    <path class="fil3 str0" d="M388 637c-4,7 -5,4 0,13l6 -9c0,0 1,-1 1,-2l1 -8c-3,1 -3,1 -5,3 -2,2 -1,1 -3,3z"/>
    <path class="fil3 str0" d="M420 820c4,-2 3,-2 2,3l2 5c4,-4 2,3 3,-7l-7 -13c-7,8 -4,7 0,12z"/>
    <path class="fil3 str0" d="M400 875c7,1 9,-2 12,-8l-4 -3c-12,11 -12,2 -8,11z"/>
    <path class="fil3 str0" d="M325 512c-5,4 -7,0 -5,12 9,-5 2,2 7,-8l1 -4c1,-12 1,-3 -2,-5l-1 5z"/>
    <path class="fil3 str0" d="M241 846c8,5 7,7 14,4 -3,-10 -5,-9 -12,-5 0,0 -2,1 -2,1z"/>
   </g>
   <g>
    <path class="fil6" d="M539 777c-4,3 -5,2 -6,4 -1,2 2,4 2,5 0,1 7,-11 4,-9z"/>
    <path class="fil6" d="M566 777c3,5 6,3 7,5 1,1 -2,5 -2,6 0,1 -9,-14 -5,-11z"/>
    <path class="fil7" d="M532 786l0 0 0 0 1 0c8,-9 6,-82 6,-146l24 1c0,51 3,114 7,141 0,7 5,10 5,11 0,2 -7,0 -9,2 -1,2 0,6 -2,7 -2,1 -6,-2 -8,-1 -6,3 -14,3 -20,0 -2,-2 0,-4 -1,-6 0,0 -1,0 -2,-1 -3,-1 -4,-5 -1,-8z"/>
    <path class="fil6" d="M535 797c0,0 3,-8 2,-9 -2,4 -5,6 -5,6 0,1 3,1 3,1 0,1 0,2 0,2z"/>
    <path class="fil6" d="M561 802c-2,-3 -3,-8 -4,-8 -1,0 -1,6 -1,7 2,-1 4,1 5,1z"/>
    <path class="fil6" d="M571 794c0,0 -4,-4 -6,-4 -1,1 1,5 1,6 1,-2 3,-2 5,-2z"/>
    <path class="fil8" d="M513 674l-1 0c-2,0 -4,0 -6,-1 -1,-1 -1,-2 -1,-3 0,-1 -1,-2 -1,-2 -3,0 -6,-1 -9,-3 -3,-2 -3,-5 0,-6l-1 -1c-5,-4 -5,-9 0,-13l0 0c-5,-3 -5,-9 1,-11 3,-2 6,-2 9,-2 0,-1 0,-3 2,-4 2,-1 5,-1 8,0 0,-1 1,-2 3,-3 1,-1 3,-1 5,-1 0,-2 0,-3 2,-4 3,-2 8,-1 10,1l1 0c2,-1 4,-1 6,-1 1,-1 1,-1 2,-1 2,-2 6,-1 8,0 0,1 1,1 1,2l0 0c3,-2 9,-1 12,1 0,0 1,1 1,2 1,-1 3,-1 4,-1l0 0c2,-1 5,-1 7,0 1,1 1,1 1,1 5,-1 12,0 16,3 3,2 4,5 3,7 2,0 5,1 6,2 4,2 4,6 0,7l0 1 0 0c3,1 3,4 2,6 0,0 1,0 2,1 2,1 2,4 -1,5l0 0 1 1c3,2 2,4 0,5 -1,1 -2,1 -3,1l0 0c3,2 2,4 0,6 -2,0 -3,0 -4,0 1,2 0,5 -2,6 -3,1 -5,2 -8,1 0,1 -1,2 -3,2 -2,2 -5,2 -8,2 1,1 0,3 -2,4 -4,1 -9,1 -12,-1l-1 -1c-2,1 -5,1 -8,0 0,1 -1,1 -2,2 -3,1 -7,1 -10,-1 0,0 -1,-1 -1,-1 0,0 -1,1 -2,1 -4,2 -9,2 -12,-1 -1,0 -2,-1 -2,-2 -1,0 -2,0 -3,0 -3,1 -7,0 -9,-1 -2,-2 -2,-3 -1,-5z"/>
    <path class="fil9" d="M590 658l1 -1c2,1 5,1 7,0 2,-1 2,-3 1,-4 1,0 2,-1 2,-2 4,1 8,0 11,-2 3,-2 4,-5 1,-8l0 0c8,-4 8,-11 2,-15l0 0c6,-4 6,-10 0,-14 -3,-2 -7,-3 -10,-3 0,-2 0,-3 -2,-4 -3,-2 -7,-2 -10,-1 0,-2 -1,-4 -3,-5 -2,-1 -4,-1 -6,-2 1,-1 0,-3 -2,-4 -3,-2 -9,-2 -12,0l-1 0c-2,-1 -5,-1 -7,-2 -1,0 -1,-1 -2,-1 -2,-2 -7,-2 -9,0 -1,0 -2,1 -2,1l0 0c-4,-2 -10,-2 -14,0 -1,1 -1,2 -2,2 -1,0 -2,0 -4,0l-1 -1c-2,-1 -5,-1 -8,0 0,0 -1,1 -1,1 -6,-2 -14,-2 -19,1 -4,3 -5,6 -4,9 -3,0 -5,0 -8,2 -4,2 -4,6 0,8l0 0 0 1c-3,1 -4,4 -2,7 -1,0 -2,0 -3,1 -3,1 -3,4 0,6l0 0c0,0 -1,1 -1,1 -3,1 -3,4 0,6 1,1 2,1 3,1l0 0c-3,2 -3,5 0,7 1,1 3,1 5,1 -2,2 -2,5 1,7 3,2 6,2 9,2 1,1 2,2 3,3 3,2 6,2 9,2 0,2 1,4 3,5 4,3 11,3 14,0 1,0 1,0 2,-1 2,2 6,2 9,2 0,0 1,1 1,1 4,2 9,2 12,0 1,0 2,0 2,-1 1,1 1,1 2,2 4,2 11,2 15,0 1,-1 2,-1 2,-2 1,0 2,0 3,-1 4,2 8,2 11,0 3,-1 3,-3 2,-5z"/>
    <path class="fil10" d="M501 629l0 -1c-3,1 -7,1 -9,-1 -2,-1 -2,-3 -1,-4 -1,-1 -2,-2 -2,-3 -4,0 -9,-1 -12,-3 -4,-3 -4,-6 -1,-9l0 0c-8,-6 -8,-13 0,-18l0 0c-8,-5 -7,-12 1,-16 3,-2 8,-2 12,-2 -1,-2 0,-4 3,-5 3,-1 7,-1 10,0 1,-2 2,-4 5,-5 2,-1 4,-1 6,-2 0,-1 1,-3 3,-5 4,-2 11,-1 14,2l1 0c3,-1 6,-1 9,-2 0,0 1,-1 2,-1 3,-2 8,-1 10,0 1,1 2,2 2,3l0 0c5,-2 12,-2 16,1 1,1 2,2 2,3 2,-1 3,-1 5,-1 0,0 0,0 1,-1 2,-1 7,0 9,1 1,1 1,1 1,2 7,-3 16,-1 22,2 4,3 5,7 3,11 4,0 7,1 10,2 4,4 4,8 -1,11l0 0 0 0c4,2 4,5 2,8 1,0 2,1 3,1 3,3 3,6 -1,8l0 0c1,0 1,0 2,1 3,2 3,5 -1,7 -1,0 -2,1 -4,1l0 0c4,2 4,6 0,8 -2,0 -4,1 -6,1 3,2 2,6 -2,8 -3,1 -7,1 -10,1 -1,1 -2,2 -4,3 -3,1 -7,2 -11,2 0,2 -1,4 -4,5 -4,2 -12,2 -16,-1 -1,0 -1,-1 -1,-1 -3,1 -7,1 -11,0 0,1 -1,2 -2,2 -4,2 -10,2 -14,-1 0,0 -1,-1 -1,-2 -1,1 -2,2 -3,3 -5,2 -13,1 -17,-2 -1,-1 -2,-2 -3,-3 -1,0 -2,0 -3,0 -4,1 -9,1 -12,-2 -3,-2 -3,-4 -2,-6z"/>
    <path class="fil11" d="M599 606l1 0c2,1 6,0 8,-1 2,-1 3,-3 2,-4 1,-1 2,-2 2,-3 5,1 9,0 12,-2 5,-2 5,-6 2,-9l0 -1c9,-4 9,-12 2,-18l0 0c8,-4 8,-12 0,-16 -3,-2 -7,-3 -12,-4 1,-1 0,-3 -2,-5 -3,-1 -8,-2 -11,-1 0,-2 -2,-4 -4,-5 -2,-1 -4,-2 -7,-2 1,-2 0,-4 -2,-5 -4,-3 -11,-3 -15,0l0 0c-3,-1 -6,-2 -10,-2 0,-1 0,-2 -1,-2 -3,-2 -8,-2 -11,0 -1,0 -2,1 -2,2l-1 0c-4,-3 -11,-3 -16,0 -1,0 -2,1 -2,2 -2,0 -3,0 -5,-1 0,0 0,0 -1,0 -2,-2 -7,-2 -9,0 -1,0 -1,0 -2,1 -7,-3 -16,-2 -22,1 -5,3 -6,7 -4,10 -4,0 -7,1 -10,2 -5,3 -5,8 0,11l0 0 0 0c-4,2 -5,5 -3,8 -1,0 -2,1 -3,1 -4,2 -4,6 0,8l0 0c-1,0 -1,1 -2,1 -3,2 -3,5 0,7 1,1 3,1 4,1l0 1c-4,2 -4,5 0,8 2,0 3,1 5,1 -2,3 -1,6 3,8 2,2 6,3 10,3 1,1 2,2 4,3 3,2 6,3 10,3 0,2 1,4 4,6 4,2 12,2 17,0 0,-1 1,-1 1,-1 3,1 7,2 10,1 1,1 2,1 3,2 4,2 10,2 14,0 1,0 1,-1 2,-2 0,1 1,2 2,3 5,3 13,3 18,0 1,-1 2,-2 3,-3 1,0 2,0 3,0 4,2 9,1 13,-1 3,-1 3,-4 2,-6z"/>
    <path class="fil12" d="M503 573l-1 0c-3,0 -6,0 -8,-2 -2,-1 -3,-3 -2,-4 -1,-1 -1,-2 -2,-3 -4,0 -8,-1 -11,-3 -4,-3 -5,-6 -1,-9l0 0c-8,-6 -8,-13 -1,-18l0 0c-7,-5 -7,-12 2,-16 3,-2 7,-3 11,-3 0,-1 1,-3 3,-4 3,-2 8,-2 11,-1 0,-1 2,-3 4,-4 2,-1 5,-2 7,-2 -1,-2 0,-4 3,-5 4,-2 10,-1 14,1l1 1c2,-1 5,-2 9,-2 0,-1 1,-1 2,-2 3,-1 8,-1 10,1 1,1 2,2 2,2l0 0c5,-2 12,-1 16,2 1,0 2,1 2,2 2,0 3,0 5,0 0,0 0,-1 1,-1 3,-1 7,-1 9,1 1,0 1,1 1,1 7,-2 17,-1 22,3 5,3 6,7 4,10 3,1 6,2 9,3 5,3 4,8 -1,10l0 0 0 1c4,2 5,5 3,8 1,0 2,1 2,1 4,3 4,6 0,8l0 0c0,0 1,0 1,1 3,2 3,5 0,7 -2,0 -3,1 -4,1l0 0c3,2 3,6 -1,8 -1,0 -3,1 -5,1 2,3 1,6 -3,8 -3,1 -7,1 -10,1 -1,1 -2,2 -4,3 -3,2 -7,2 -11,2 1,2 -1,4 -3,5 -5,3 -13,2 -17,-1 0,0 -1,-1 -1,-1 -3,1 -7,1 -11,0 0,1 -1,2 -2,2 -4,2 -10,2 -14,-1 0,0 -1,-1 -1,-2 -1,1 -2,2 -3,3 -5,2 -13,1 -17,-2 -2,-1 -2,-1 -3,-2 -1,-1 -2,-1 -3,-1 -4,1 -9,1 -13,-2 -2,-1 -3,-4 -1,-6z"/>
    <path class="fil13" d="M592 548l1 -1c2,1 6,1 8,0 2,-1 2,-3 1,-4 1,-1 2,-1 2,-2 4,0 8,0 11,-2 4,-2 4,-6 2,-9l0 0c7,-4 8,-11 1,-16l0 0c7,-4 7,-11 0,-15 -3,-1 -6,-2 -10,-3 0,-1 0,-3 -3,-4 -2,-2 -6,-2 -9,-1 -1,-2 -2,-4 -4,-5 -2,-1 -4,-1 -6,-2 1,-1 0,-3 -2,-4 -4,-3 -9,-3 -13,0l-1 0c-2,-1 -5,-2 -8,-2 0,-1 0,-1 -1,-2 -3,-2 -7,-2 -10,0 -1,1 -1,1 -2,2l0 0c-4,-2 -10,-2 -14,0 -1,1 -2,1 -3,2 -1,0 -2,0 -4,-1l-1 0c-2,-2 -6,-2 -8,0 -1,0 -1,0 -1,1 -6,-3 -15,-2 -20,1 -4,2 -6,6 -4,9 -3,0 -6,0 -9,2 -4,2 -4,7 0,9l0 0 0 0c-3,2 -4,5 -3,8 -1,0 -2,0 -2,1 -4,2 -4,5 0,7l0 0c-1,0 -1,0 -2,0 -3,2 -3,5 0,7 1,0 3,1 4,1l0 0c-4,2 -4,5 0,7 1,1 3,1 5,1 -3,3 -2,6 2,8 2,1 5,2 9,2 0,1 1,2 3,3 3,2 6,2 10,2 -1,2 0,4 3,6 4,2 10,2 15,0 0,-1 1,-1 1,-1 2,1 6,1 9,1 1,1 1,1 2,2 4,2 9,2 13,0 0,-1 1,-1 1,-2 1,1 2,2 3,3 4,2 11,2 15,0 2,-1 2,-2 3,-3 1,0 2,0 3,0 3,1 8,1 11,-1 3,-1 4,-3 2,-5z"/>
    <path class="fil14" d="M509 518l-1 0c-2,0 -5,0 -7,-1 -2,-2 -2,-3 -1,-4 -1,-1 -2,-2 -2,-2 -4,0 -8,-1 -10,-3 -4,-2 -4,-6 -1,-8l0 0c-7,-5 -7,-12 0,-15l0 -1c-7,-4 -6,-10 1,-14 3,-1 6,-2 10,-2 0,-1 0,-3 2,-4 3,-1 7,-1 10,0 0,-1 1,-3 3,-4 2,-1 4,-1 6,-1 0,-2 0,-4 3,-5 3,-1 9,-1 12,1l0 1c3,-1 5,-1 8,-2 0,0 1,-1 2,-1 2,-1 7,-1 9,1 1,0 1,1 1,2l1 -1c4,-1 10,-1 13,2 1,0 2,1 2,2 1,0 3,0 4,0l1 -1c2,-1 6,-1 8,1 0,0 1,0 1,1 6,-2 14,-1 19,2 4,3 5,6 3,9 3,0 6,1 8,2 4,3 3,7 -1,9l0 0 0 0c3,3 4,5 2,8 1,0 2,0 3,1 3,2 2,5 -1,6l0 0c0,0 1,1 1,1 3,2 3,5 0,6 -1,1 -2,1 -4,1l0 0c4,2 3,5 0,7 -1,0 -3,1 -5,1 2,2 1,5 -2,7 -3,1 -6,1 -9,1 -1,1 -2,2 -3,2 -3,2 -6,2 -9,2 0,2 -1,3 -4,5 -4,2 -10,1 -14,-2 0,0 -1,0 -1,-1 -2,2 -6,2 -9,1 0,0 -1,1 -2,2 -3,1 -9,1 -12,-1 0,-1 -1,-1 -1,-2 -1,1 -2,1 -3,2 -4,2 -10,1 -14,-1 -1,-1 -2,-2 -2,-3 -1,0 -2,0 -3,0 -4,1 -8,1 -11,-1 -2,-2 -3,-4 -1,-6z"/>
    <path class="fil15" d="M588 496l0 -1c2,1 5,1 7,0 2,-1 2,-2 1,-3 1,-1 2,-2 2,-2 3,0 7,0 9,-2 4,-2 4,-5 2,-7l0 0c7,-4 7,-10 1,-14l0 0c6,-4 6,-10 0,-13 -2,-2 -6,-2 -9,-3 1,-1 0,-2 -2,-4 -2,-1 -5,-1 -8,-1 -1,-1 -2,-2 -3,-3 -2,-1 -4,-2 -6,-2 1,-2 0,-3 -2,-4 -3,-2 -8,-2 -11,0l0 0c-2,-1 -5,-1 -7,-2 0,0 -1,-1 -2,-1 -2,-2 -6,-2 -8,0 -1,0 -1,1 -2,1l0 0c-3,-2 -9,-2 -12,0 -1,1 -2,1 -2,2 -1,0 -2,0 -4,0l0 -1c-2,-1 -6,-1 -8,0 0,0 -1,1 -1,1 -5,-2 -12,-2 -17,1 -4,2 -5,5 -4,8 -2,0 -5,0 -7,1 -4,3 -4,6 0,8l0 0 0 1c-3,1 -4,4 -2,6 -1,0 -2,0 -3,1 -3,1 -3,4 0,6l0 0c0,0 0,0 -1,0 -3,2 -3,5 0,6 1,1 2,1 3,1l0 0c-3,2 -3,5 0,6 1,1 3,1 4,1 -2,3 -1,5 2,7 2,1 5,2 8,2 0,1 1,1 3,2 2,2 5,2 8,2 0,2 0,4 3,5 3,2 9,2 13,0l1 -1c2,1 5,2 8,1 0,1 1,1 1,2 3,2 8,2 11,0 1,-1 1,-1 2,-1 0,0 1,1 2,1 4,3 10,3 13,0 1,0 2,-1 3,-2 0,0 1,0 2,0 3,1 7,1 10,0 2,-2 3,-3 2,-5z"/>
    <path class="fil16" d="M520 465l-1 -1c-2,1 -4,0 -5,-1 -2,-1 -2,-2 -1,-3 -1,0 -2,-1 -2,-1 -3,0 -5,-1 -8,-2 -2,-2 -2,-5 0,-7l0 0c-6,-4 -6,-9 0,-12l0 0c-5,-3 -5,-8 0,-11 3,-1 6,-1 8,-1 0,-1 1,-3 2,-3 2,-1 5,-1 8,-1 0,-1 1,-2 3,-3 1,0 2,-1 4,-1 0,-1 0,-2 2,-3 3,-2 7,-1 9,1l1 0c2,-1 4,-1 6,-1 0,-1 1,-1 1,-1 2,-1 6,-1 7,0 1,1 1,1 2,2l0 0c3,-2 8,-1 10,1 1,0 2,1 2,1 1,0 2,0 3,0l1 0c1,-1 4,-1 6,0l1 1c4,-1 11,-1 14,2 3,2 4,5 3,7 2,0 4,1 6,2 3,2 3,5 -1,7l0 0 1 0c2,1 2,4 1,5 1,1 1,1 2,1 2,2 2,4 0,5l-1 0 1 1c3,2 2,4 0,5 -1,0 -2,0 -3,0l0 0c3,2 3,5 0,6 -1,0 -2,0 -4,0 2,2 1,5 -2,6 -1,1 -4,1 -6,1 -1,0 -2,1 -3,2 -2,1 -5,1 -7,1 0,1 -1,3 -3,4 -3,1 -8,1 -11,-1l-1 -1c-2,1 -4,1 -7,0 0,1 0,1 -1,2 -3,1 -7,1 -9,-1 -1,-1 -1,-1 -2,-1 0,0 -1,1 -2,1 -3,2 -8,1 -11,-1 -1,0 -1,-1 -2,-2 0,0 -1,0 -2,0 -2,1 -6,0 -8,-1 -2,-1 -2,-3 -1,-4z"/>
    <path class="fil17" d="M524 436l-1 0c-1,0 -3,0 -4,-1 -1,-1 -2,-2 -1,-3 -1,0 -1,0 -1,-1 -2,0 -5,0 -6,-2 -3,-1 -3,-3 -1,-5l0 0c-5,-3 -4,-7 0,-10l0 0c-4,-3 -4,-7 0,-9 2,-1 5,-1 7,-1 0,-1 0,-2 2,-3 1,0 4,0 6,0 0,-1 1,-2 2,-2 1,-1 2,-1 4,-1 -1,-1 0,-2 1,-3 2,-1 6,-1 8,1l0 0c2,-1 4,-1 5,-1 1,0 1,-1 1,-1 2,-1 5,-1 6,1 1,0 1,0 1,1l0 0c3,-1 7,-1 9,0 1,1 1,1 1,2 1,0 2,0 3,0l1 -1c1,0 3,0 5,1l0 0c4,-1 9,0 12,2 3,2 3,4 2,6 2,0 4,0 5,1 3,2 3,5 0,6l0 0 0 0c2,1 2,3 1,5 1,0 1,0 2,0 2,2 2,4 0,5l-1 0 1 0c2,1 2,3 0,4 -1,0 -1,1 -2,1l0 0c2,1 2,3 -1,4 0,0 -1,0 -2,1 1,1 0,3 -2,4 -2,1 -4,1 -6,1 0,0 -1,1 -2,1 -2,1 -4,1 -6,1 0,1 0,3 -2,3 -2,2 -7,1 -9,0l-1 -1c-1,1 -3,1 -5,0 -1,1 -1,1 -2,1 -2,1 -5,1 -7,0 -1,-1 -1,-1 -1,-1 -1,0 -1,1 -2,1 -3,1 -7,1 -9,-1 -1,0 -1,-1 -2,-1 0,0 -1,-1 -1,-1 -3,1 -6,1 -7,-1 -2,-1 -2,-2 -1,-3z"/>
    <path class="fil18" d="M571 412l0 0c1,0 3,0 4,0 1,-1 1,-2 1,-2 0,-1 1,-1 1,-1 1,0 3,0 5,-1 2,-1 2,-3 1,-4l0 0c3,-2 3,-6 0,-8l0 0c4,-2 4,-5 0,-7 -1,-1 -3,-1 -5,-1 1,-1 0,-2 -1,-3 -1,0 -3,-1 -4,0 -1,-1 -1,-2 -2,-2 -1,-1 -2,-1 -3,-1 0,-1 0,-2 -1,-3 -2,-1 -4,-1 -6,0l0 1c-2,-1 -3,-1 -4,-1l-1 -1c-1,-1 -3,-1 -5,0 0,0 0,0 -1,1l0 0c-2,-1 -5,-1 -7,0 0,0 0,0 -1,1 0,0 -1,-1 -2,-1l0 0c-1,-1 -3,-1 -4,0l-1 1c-3,-2 -7,-1 -9,0 -2,1 -3,3 -2,4 -2,0 -3,1 -4,1 -2,2 -2,4 0,5l0 0 0 0c-2,1 -2,2 -1,3 -1,0 -1,1 -2,1 -1,1 -1,2 0,3l0 0 0 0c-2,1 -2,3 0,4 0,0 1,0 1,0l0 0c-1,1 -1,3 0,4 1,0 2,0 3,0 -2,1 -1,3 0,4 2,0 3,1 5,1 0,0 1,1 1,1 2,1 3,1 5,1 0,1 0,2 1,3 2,1 6,1 8,0l0 -1c1,1 3,1 5,1 0,0 0,1 1,1 1,1 4,1 6,0l0 -1c1,1 1,1 2,1 2,1 5,1 7,0 1,0 1,0 1,-1 1,0 1,0 2,0 1,1 4,1 5,0 1,-1 2,-2 1,-3z"/>
    <path class="fil19" d="M534 392l0 0c-1,0 -2,0 -3,0 -1,-1 -1,-1 0,-2l-1 -1c-2,0 -3,0 -4,-1 -2,-1 -2,-2 -1,-3l0 0c-2,-2 -2,-5 0,-7l0 0c-2,-1 -2,-4 1,-5 1,-1 2,-1 4,-1 0,-1 0,-1 1,-2 1,0 2,0 4,0 0,-1 0,-1 1,-2 1,0 2,0 3,0 -1,-1 0,-1 1,-2 1,-1 3,0 5,1l0 0c1,-1 2,-1 3,-1l1 0c1,-1 2,-1 3,0l1 1 0 0c2,-1 4,-1 6,0l1 1c0,0 1,0 1,0l0 0c1,-1 3,-1 4,0l0 0c3,0 6,0 8,1 1,2 2,3 1,4 1,0 2,0 3,1 2,1 2,3 0,4l0 0 0 0c1,1 2,2 1,3l1 0c1,1 1,2 0,3l0 0 0 0c1,1 1,2 0,3 0,0 -1,0 -1,0l0 0c1,1 1,2 -1,3 0,0 -1,0 -2,0 1,1 1,2 -1,3 -1,0 -2,1 -3,0 0,1 -1,1 -1,1 -2,1 -3,1 -4,1 0,1 -1,2 -2,2 -1,1 -4,1 -5,0l-1 -1c-1,1 -2,1 -3,0l-1 1c-2,1 -4,0 -5,0l-1 -1c0,0 0,1 -1,1 -2,1 -4,0 -6,-1 0,0 0,0 -1,-1l-1 0c-1,0 -3,0 -4,-1 -1,0 -1,-1 -1,-2z"/>
    <path class="fil20" d="M565 378l0 0c1,0 2,0 3,0 0,-1 0,-1 0,-2l1 0c1,0 2,0 3,-1 2,-1 2,-2 1,-3l0 0c3,-1 3,-4 0,-5l0 0c3,-1 3,-4 0,-5 0,-1 -2,-1 -3,-1 0,0 0,-1 -1,-1 -1,-1 -2,-1 -3,-1 0,0 0,-1 -1,-1 -1,-1 -1,-1 -2,-1 0,0 0,-1 -1,-1 -1,-1 -3,-1 -4,0l0 0c-1,-1 -2,-1 -3,-1l0 -1c-1,0 -3,0 -4,0l0 1 0 0c-1,-1 -4,-1 -5,0l-1 1c0,0 0,0 -1,0l0 -1c-1,0 -2,0 -3,0l0 1c-2,-1 -5,-1 -7,0 -1,1 -2,2 -1,3 -1,0 -2,0 -3,1 -1,0 -1,2 0,3l0 0 0 0c-1,0 -1,1 -1,2l-1 0c-1,1 -1,2 0,3l0 0 0 0c-1,0 -1,1 0,2l1 0 0 0c-1,1 -1,2 0,3 0,0 1,0 1,0 0,1 0,2 1,3 1,0 2,0 3,0 0,1 1,1 1,1 1,1 2,1 3,1 0,1 0,1 1,2 2,1 4,1 5,0l1 -1c0,1 2,1 3,1l0 1c1,0 3,0 4,0l1 -1 1 1c1,1 3,1 5,0l1 -1 1 0c1,0 2,0 3,0 1,-1 1,-1 1,-2z"/>
    <path class="fil21" d="M540 363l0 0c-1,0 -2,0 -2,0 -1,-1 -1,-1 0,-1l-1 -1c-1,0 -2,0 -3,-1 -1,0 -1,-1 0,-2l0 0c-2,-1 -2,-3 0,-4l0 0c-2,-1 -2,-3 0,-4 1,0 2,0 3,0 0,-1 0,-1 1,-2 1,0 2,0 2,0 0,0 1,0 1,-1 1,0 1,0 2,0 0,-1 0,-1 1,-1 1,-1 2,-1 3,0l0 0c1,0 1,0 2,0l1 -1c0,0 0,0 1,0l0 0c0,0 1,0 1,1l1 0 0 0c1,0 2,0 3,0l1 1 1 0 0 0c1,-1 2,0 2,0l1 0c1,0 3,0 5,1 1,1 1,2 1,2 0,0 1,1 2,1 1,1 1,2 0,2l0 0 0 0c0,1 1,2 0,2l1 1c1,0 1,1 0,1l0 1 0 0c1,0 1,1 0,1l-1 1 0 0c1,0 1,1 0,1 -1,1 -1,1 -2,1 1,0 1,1 0,2 -1,0 -2,0 -3,0 0,0 0,0 0,1 -1,0 -2,0 -3,0 0,0 0,1 -1,1 -1,1 -3,1 -4,0l0 0c-1,0 -2,0 -2,0l-1 0c-1,1 -2,1 -3,0l-1 0 0 0c-1,1 -3,0 -4,0l-1 -1 -1 0c-1,0 -2,0 -3,0 0,-1 0,-1 0,-2z"/>
   </g>
   <g>
    <path class="fil6" d="M816 888c3,3 5,2 5,4 1,2 -2,3 -2,4 1,1 -7,-10 -3,-8z"/>
    <path class="fil6" d="M790 888c-3,5 -5,3 -6,4 -1,2 2,5 2,6 0,1 8,-12 4,-10z"/>
    <path class="fil7" d="M821 896l0 0 0 0 -1 0c-7,-8 -7,-142 -7,-200l-22 1c0,46 -1,171 -4,195 -1,7 -5,10 -5,10 0,3 7,1 8,2 1,2 0,6 2,7 2,1 5,-2 7,-1 6,2 13,3 18,0 3,-2 1,-3 1,-6 0,0 2,0 3,0 2,-1 3,-5 0,-8z"/>
    <path class="fil6" d="M818 906c0,0 -2,-7 -1,-8 1,3 4,5 4,5 0,1 -2,1 -2,2 -1,0 -1,1 -1,1z"/>
    <path class="fil6" d="M795 911c1,-3 3,-7 3,-7 1,-1 1,5 2,6 -2,-1 -4,1 -5,1z"/>
    <path class="fil6" d="M785 904c0,-1 5,-4 6,-4 1,1 -1,5 -1,5 0,-2 -3,-1 -5,-1z"/>
    <path class="fil8" d="M755 740l-1 -1c-2,1 -5,1 -7,-1 -2,-1 -2,-2 -1,-4 -1,0 -2,-1 -2,-2 -4,0 -7,-1 -10,-2 -4,-3 -4,-6 -1,-9l0 0c-7,-5 -7,-11 0,-15l0 0c-7,-5 -6,-11 1,-14 3,-2 6,-2 10,-2 0,-2 1,-3 3,-4 2,-2 6,-2 9,-1 0,-1 2,-3 4,-4 1,-1 3,-1 6,-1 -1,-2 0,-3 2,-4 4,-2 9,-2 12,0l1 1c2,-1 5,-1 8,-2 0,0 0,-1 1,-1 3,-1 7,-1 10,1 1,0 1,1 1,2l0 0c4,-2 10,-2 14,1 1,0 2,1 2,2 1,0 3,0 4,0 0,-1 0,-1 1,-1 2,-1 6,-1 8,1 0,0 1,0 1,1 6,-2 14,-1 19,2 4,3 5,6 3,9 3,0 6,1 8,3 4,3 4,6 -1,9l0 0 0 0c4,2 4,5 2,7 1,0 2,1 3,1 3,2 3,5 -1,7l0 0c0,0 1,0 1,0 3,2 3,5 0,7 -1,0 -2,0 -3,0l0 1c3,2 2,5 -1,6 -1,1 -3,1 -5,1 2,3 1,6 -2,7 -2,1 -6,2 -9,1 0,1 -2,2 -3,3 -3,1 -6,2 -9,1 0,2 -1,4 -4,5 -4,2 -10,2 -14,-1 0,0 -1,0 -1,-1 -3,1 -6,1 -9,1 -1,0 -1,1 -2,1 -4,2 -9,2 -12,-1 -1,0 -1,-1 -2,-1 0,1 -1,1 -2,2 -4,2 -11,1 -15,-1 -1,-1 -2,-2 -2,-3 -1,0 -2,0 -3,-1 -3,2 -8,1 -11,-1 -2,-1 -3,-3 -1,-5z"/>
    <path class="fil9" d="M861 719l1 -1c3,2 8,2 11,0 3,-2 4,-4 2,-6 2,-1 3,-2 4,-3 5,0 11,0 15,-3 6,-3 7,-9 3,-13l0 0c11,-6 12,-17 2,-24l0 0c11,-6 11,-16 0,-22 -4,-2 -10,-4 -15,-4 0,-2 -1,-5 -4,-7 -4,-2 -9,-2 -14,-1 0,-3 -2,-5 -5,-7 -3,-2 -6,-2 -9,-3 1,-2 0,-5 -4,-7 -5,-3 -13,-3 -19,0 0,0 0,0 -1,1 -3,-2 -7,-3 -11,-4 -1,-1 -2,-1 -3,-2 -4,-3 -10,-3 -14,0 -2,1 -3,2 -3,3l0 0c-6,-4 -16,-4 -22,0 -1,0 -2,2 -3,3 -2,-1 -4,-1 -6,-1 0,-1 -1,-1 -1,-1 -4,-2 -9,-2 -13,0 -1,0 -1,1 -2,1 -9,-3 -21,-3 -29,2 -7,4 -9,9 -6,13 -5,0 -9,1 -13,3 -6,4 -6,10 0,14l0 0 0 0c-5,3 -7,7 -4,11 -2,0 -3,1 -4,2 -5,2 -5,7 0,10l0 0c0,0 -1,1 -2,1 -5,3 -5,7 0,10 1,1 3,1 5,1l0 0c-5,3 -5,8 0,11 2,1 5,2 7,2 -3,4 -2,8 3,11 4,2 9,3 14,3 0,2 2,3 4,5 4,2 10,3 15,3 -1,3 0,6 4,8 6,3 16,3 22,0 1,-1 2,-1 2,-2 4,3 9,3 14,2 1,1 2,2 3,3 5,3 14,3 19,0 1,-1 2,-1 2,-2 1,1 2,2 4,3 6,4 17,4 23,0 2,-1 3,-2 4,-3 1,0 3,-1 4,-1 5,2 12,2 17,0 4,-3 5,-6 3,-9z"/>
    <path class="fil10" d="M724 692c0,0 -1,-1 -1,-1 -4,1 -9,0 -12,-2 -3,-2 -4,-4 -2,-6 -2,-2 -3,-3 -4,-4 -6,0 -12,-2 -17,-5 -6,-4 -6,-10 -1,-14l-1 0c-11,-8 -11,-20 0,-27l0 0c-11,-7 -10,-18 2,-24 5,-3 11,-4 18,-4 -1,-2 0,-5 4,-7 5,-2 11,-2 16,0 1,-3 3,-5 7,-7 2,-1 6,-2 9,-3 0,-2 1,-5 5,-7 6,-3 15,-2 21,2 0,0 0,0 1,1 4,-2 9,-3 13,-3 1,-1 2,-2 3,-3 5,-2 12,-1 16,2 2,1 3,2 3,3l0 0c7,-3 17,-3 24,2 1,1 3,2 3,4 2,-1 5,-1 7,-1 0,0 1,-1 2,-1 3,-2 10,-1 13,1 1,1 2,1 2,2 11,-3 24,-1 33,5 6,4 8,10 5,15 5,0 10,2 14,4 7,5 6,12 -1,15l0 0 0 1c5,3 6,8 3,12 2,0 3,1 5,2 5,4 4,9 -1,11l-1 0c1,1 2,1 3,2 5,3 4,8 -1,10 -2,1 -4,2 -6,2l0 0c5,4 5,9 -1,12 -2,1 -5,1 -8,1 3,4 2,9 -4,12 -4,2 -10,3 -15,2 -1,2 -3,3 -6,5 -5,2 -10,3 -16,2 1,3 -1,7 -6,9 -7,3 -18,2 -24,-2 -1,-1 -2,-2 -2,-2 -5,2 -11,2 -16,1 0,1 -1,2 -3,3 -6,2 -15,2 -21,-2 -1,-1 -2,-2 -2,-3 -1,1 -3,3 -5,4 -7,3 -18,2 -25,-3 -2,-1 -3,-2 -4,-4 -2,0 -3,0 -5,-1 -5,2 -14,2 -19,-2 -4,-3 -4,-6 -2,-9z"/>
    <path class="fil11" d="M865 673l1 -1c4,1 9,1 12,-1 3,-1 4,-4 3,-6 1,-1 2,-2 3,-4 6,1 13,0 17,-3 7,-3 8,-9 3,-13l0 -1c13,-7 13,-18 2,-26l1 0c11,-6 11,-17 0,-24 -5,-3 -11,-4 -17,-5 0,-2 -1,-5 -4,-7 -4,-2 -10,-3 -16,-2 0,-2 -2,-5 -6,-7 -2,-2 -6,-3 -9,-3 1,-3 0,-6 -4,-8 -6,-3 -15,-3 -21,0 0,0 0,1 -1,1 -4,-2 -8,-3 -13,-4 0,-1 -1,-2 -2,-3 -5,-2 -12,-2 -16,0 -2,1 -3,2 -3,4l-1 -1c-6,-3 -16,-3 -23,0 -2,1 -3,3 -4,4 -2,-1 -4,-1 -6,-1 -1,0 -1,-1 -2,-1 -3,-2 -9,-2 -13,0 -1,0 -2,1 -2,2 -10,-4 -24,-4 -33,1 -7,4 -9,10 -6,15 -5,0 -10,1 -14,3 -7,4 -7,11 0,15l0 0 0 0c-6,4 -7,8 -5,12 -1,1 -3,1 -4,2 -5,3 -5,8 0,11l0 0c0,1 -1,1 -2,1 -5,3 -5,8 0,11 2,1 4,1 6,2l-1 0c-5,3 -5,8 0,11 3,2 5,2 8,3 -3,4 -2,8 3,12 4,2 10,3 15,3 1,2 3,3 6,5 4,2 9,4 15,4 -1,3 1,6 5,8 7,4 18,4 24,0 1,0 2,-1 2,-1 5,2 10,3 15,2 1,1 2,2 4,3 5,3 14,3 20,0 1,-1 2,-2 3,-3 1,2 2,3 4,4 7,4 18,4 25,0 2,-1 3,-2 4,-4 2,0 3,0 5,-1 5,3 13,3 19,0 4,-2 5,-6 3,-9z"/>
    <path class="fil12" d="M734 645l-1 -1c-4,1 -8,0 -11,-2 -3,-2 -4,-4 -2,-6 -2,-1 -3,-2 -3,-3 -6,0 -12,-2 -16,-4 -5,-4 -6,-10 -1,-13l0 0c-11,-8 -11,-18 0,-24l-1 -1c-10,-7 -9,-16 2,-22 5,-2 10,-3 16,-3 0,-2 1,-4 4,-6 4,-2 10,-2 15,-1 0,-2 2,-4 6,-6 2,-1 5,-2 8,-2 0,-3 1,-5 4,-7 6,-2 14,-2 19,2l1 0c4,-1 8,-2 13,-2 0,-1 1,-2 2,-2 4,-2 11,-2 15,1 1,1 2,2 2,3l0 0c7,-3 16,-2 22,2 1,1 2,2 3,3 2,0 4,0 6,0 0,-1 1,-1 1,-1 4,-2 10,-2 13,1 1,0 1,1 2,1 9,-2 21,-1 29,5 6,4 8,9 5,13 4,1 9,2 12,4 7,4 6,11 -1,14l0 0 1 0c5,4 5,8 2,11 2,1 3,2 4,2 5,4 5,8 0,10l-1 1c1,0 2,0 2,1 5,3 5,7 0,9 -2,1 -4,2 -6,2l1 0c4,3 4,8 -1,10 -2,1 -5,2 -8,2 3,4 2,8 -3,11 -4,2 -9,2 -14,1 -1,2 -3,3 -5,5 -5,2 -10,2 -15,2 1,3 -1,6 -5,7 -6,3 -16,3 -22,-1 -1,-1 -2,-1 -2,-2 -4,2 -9,2 -14,1 -1,1 -2,2 -3,2 -6,3 -14,2 -19,-1 -1,-1 -2,-2 -2,-3 -1,2 -2,3 -4,3 -7,4 -17,3 -23,-1 -2,-2 -3,-3 -4,-4 -1,0 -3,-1 -4,-1 -5,2 -13,1 -17,-2 -4,-2 -4,-6 -2,-8z"/>
    <path class="fil13" d="M853 627l1 -1c3,1 7,1 10,-1 2,-1 2,-3 1,-5 2,-1 3,-1 3,-3 5,1 10,0 14,-2 5,-3 6,-7 2,-11l0 0c10,-6 10,-15 2,-21l0 0c9,-5 9,-13 0,-19 -4,-2 -8,-3 -13,-4 0,-2 -1,-4 -3,-5 -4,-2 -9,-3 -13,-2 0,-2 -2,-4 -5,-6 -2,-1 -4,-2 -7,-2 1,-2 0,-4 -3,-6 -5,-3 -12,-3 -16,0l-1 1c-3,-2 -7,-3 -11,-3 0,-1 -1,-2 -2,-3 -3,-2 -9,-2 -12,0 -2,1 -2,2 -2,3l-1 0c-5,-3 -13,-3 -18,0 -2,1 -2,2 -3,3 -2,-1 -4,-1 -5,-1 -1,-1 -1,-1 -1,-1 -3,-2 -8,-2 -11,0 -1,0 -2,1 -2,1 -8,-3 -19,-2 -26,2 -5,3 -7,7 -5,11 -4,0 -8,1 -11,3 -5,3 -5,8 0,12l0 0 0 0c-4,2 -5,6 -3,9 -1,1 -3,1 -4,2 -4,2 -4,6 0,8l1 1c-1,0 -2,0 -2,0 -4,3 -4,6 0,9 1,0 2,1 4,1l0 0c-4,3 -4,7 0,9 2,1 4,2 6,2 -3,3 -2,7 3,10 3,2 7,2 11,2 1,2 3,3 5,4 3,2 7,3 12,3 -1,3 0,5 4,7 5,3 14,3 19,0 1,0 1,-1 2,-1 3,2 8,2 12,1 0,1 1,2 2,3 5,2 12,2 16,0 1,-1 2,-1 2,-2 1,1 2,2 4,3 5,3 14,3 19,0 2,-1 3,-2 4,-3 1,0 2,-1 4,-1 4,2 10,2 14,0 4,-2 4,-5 3,-7z"/>
    <path class="fil14" d="M748 608l-1 -1c-3,1 -6,0 -8,-1 -2,-1 -3,-3 -2,-5 -1,0 -1,-1 -2,-2 -4,0 -8,-1 -12,-3 -4,-3 -4,-7 -1,-10l0 0c-8,-6 -8,-13 0,-18l0 0c-8,-5 -7,-13 1,-17 4,-1 8,-2 12,-2 0,-2 1,-4 3,-5 3,-1 8,-2 11,0 1,-2 2,-4 5,-5 2,-1 4,-2 6,-2 0,-2 1,-4 3,-5 5,-2 11,-1 15,1l0 1c3,-1 6,-2 10,-2 0,-1 1,-1 2,-2 3,-1 8,-1 11,1 1,1 1,2 1,3l1 -1c4,-2 11,-1 16,2 1,1 2,1 2,2 1,0 3,0 5,0 0,0 0,-1 1,-1 2,-1 7,-1 9,1 1,0 1,1 1,1 7,-2 17,-1 23,3 4,4 5,8 3,11 4,0 7,1 10,3 4,3 4,8 -1,10l0 0 0 0c4,3 4,6 2,9 1,0 2,1 3,1 4,3 3,6 0,8l-1 0c1,0 1,0 2,1 3,2 3,5 -1,7 -1,1 -2,1 -4,1l1 0c3,3 3,6 -1,8 -2,1 -4,1 -6,1 3,3 2,6 -3,8 -2,2 -6,2 -10,2 -1,1 -2,2 -4,3 -3,1 -7,2 -11,2 1,2 -1,4 -4,5 -4,3 -12,2 -16,-1 -1,0 -1,-1 -2,-1 -3,1 -7,1 -10,0 -1,1 -1,2 -3,2 -4,2 -10,2 -14,-1 0,0 -1,-1 -1,-2 -1,1 -2,2 -3,3 -5,2 -13,1 -18,-2 -1,-1 -2,-2 -2,-3 -1,0 -3,0 -4,0 -4,1 -9,0 -12,-2 -3,-2 -4,-4 -2,-6z"/>
    <path class="fil15" d="M835 595l1 -1c2,1 4,1 6,0 2,-1 2,-2 1,-3 1,-1 2,-1 2,-2 3,0 6,0 9,-2 3,-2 4,-4 1,-7l0 0c7,-3 7,-9 1,-13l1 0c5,-3 5,-9 0,-12 -3,-1 -6,-2 -9,-2 0,-2 0,-3 -2,-4 -2,-1 -5,-2 -8,-1 0,-1 -1,-3 -3,-4 -1,-1 -3,-1 -5,-1 1,-2 0,-3 -2,-4 -2,-2 -7,-2 -10,0l0 0c-2,-1 -5,-1 -7,-2 0,0 -1,-1 -1,-1 -3,-1 -6,-1 -8,0 -1,0 -2,1 -2,2l0 -1c-3,-1 -8,-1 -12,0 -1,1 -1,2 -2,2 -1,0 -2,0 -3,0l-1 -1c-2,-1 -5,-1 -7,0 0,0 0,1 -1,1 -5,-2 -11,-2 -16,1 -3,2 -4,5 -3,7 -3,0 -5,1 -7,2 -4,2 -4,5 0,7l0 0 0 1c-3,1 -4,4 -2,6 -1,0 -2,0 -3,0 -2,2 -2,5 0,6l1 0c-1,0 -1,0 -2,1 -2,1 -2,4 0,5 1,0 2,1 3,1l0 0c-3,2 -3,4 0,6 1,0 3,1 4,1 -2,2 -1,4 2,6 2,1 4,2 7,2 1,0 1,1 3,2 2,1 5,2 8,2 -1,2 0,3 2,4 3,2 9,2 12,0 1,0 1,0 1,0 2,1 5,1 8,1 0,0 1,1 2,1 2,2 7,2 10,0 0,0 1,-1 1,-1 1,1 1,1 2,2 4,2 9,2 13,0 1,-1 2,-1 2,-2 1,0 2,0 2,-1 3,2 7,2 10,0 2,-1 2,-3 1,-4z"/>
    <path class="fil16" d="M775 582l0 0c-1,0 -3,0 -4,-1 -1,0 -2,-1 -1,-2 -1,0 -1,-1 -1,-1 -2,0 -4,-1 -6,-2 -2,-1 -2,-3 -1,-5l0 0c-4,-3 -4,-6 0,-9l0 0c-4,-3 -3,-6 1,-8 2,-1 4,-1 6,-1 0,-1 0,-2 2,-3 1,0 3,-1 5,0 0,-1 1,-2 2,-2 1,-1 2,-1 4,-1 -1,-1 0,-2 1,-3 2,-1 5,0 7,1l1 0c1,0 3,-1 4,-1 1,0 1,0 1,-1 2,0 4,0 6,1 0,0 1,1 1,1l0 0c2,-1 6,-1 8,1 0,0 1,1 1,1 1,0 2,0 2,0l1 -1c1,0 3,0 5,1l0 1c4,-2 9,-1 12,1 2,2 2,4 1,5 2,0 4,1 5,2 2,1 2,4 0,5l0 0 0 0c2,1 2,3 1,4 0,1 1,1 1,1 2,1 2,3 0,4l0 0 1 0c1,2 1,3 -1,4 0,0 -1,0 -2,1l0 0c2,1 2,3 0,4 -1,0 -2,0 -3,0 1,2 1,3 -1,4 -2,1 -3,1 -5,1 -1,0 -1,1 -2,1 -2,1 -4,1 -6,1 0,1 0,2 -2,3 -2,1 -6,1 -8,-1l-1 0c-1,1 -3,1 -5,0 0,0 -1,1 -1,1 -2,1 -6,1 -7,0 -1,-1 -1,-1 -1,-1 -1,0 -1,0 -2,1 -2,1 -6,1 -8,-1 -1,0 -2,-1 -2,-1 0,0 -1,-1 -1,-1 -2,1 -5,1 -7,-1 -1,0 -2,-2 -1,-3z"/>
    <path class="fil17" d="M785 572l0 0c-1,0 -2,0 -3,-1 -1,0 -1,-1 0,-1l-1 -1c-1,0 -3,0 -4,-1 -1,-1 -2,-3 0,-3l0 0c-3,-2 -3,-5 0,-7l0 0c-3,-1 -3,-4 0,-5 1,-1 3,-1 4,-1 0,-1 0,-1 1,-2 1,0 2,0 4,0 0,0 0,-1 1,-1 1,-1 2,-1 2,-1 0,0 1,-1 1,-2 2,0 4,0 5,1l1 0c0,0 2,0 3,-1l0 0c1,-1 3,0 4,0l1 1 0 0c1,-1 4,-1 5,0 0,1 1,1 1,1 0,0 1,0 1,0l1 0c1,0 2,0 3,0l0 1c3,-1 6,-1 8,1 1,1 2,2 1,3 1,0 2,1 3,1 2,1 2,3 0,4l0 0 0 0c1,1 1,2 1,3l1 0c1,1 1,2 0,3l-1 0 1 0c1,1 1,2 0,2 -1,1 -1,1 -2,1l0 0c2,1 2,2 0,2 0,1 -1,1 -2,1 1,1 1,2 -1,3 -1,0 -2,0 -3,0 0,0 -1,1 -1,1 -1,1 -3,1 -4,1 0,0 0,1 -1,2 -2,0 -5,0 -6,-1l0 0c-1,0 -3,0 -4,0 0,0 0,0 -1,1 -1,0 -3,0 -5,-1l0 -1c0,1 -1,1 -1,1 -2,1 -4,1 -6,0 0,-1 -1,-1 -1,-1 0,0 -1,0 -1,0 -1,0 -3,0 -4,-1 -1,-1 -1,-1 -1,-2z"/>
   </g>
   <g>
    <path class="fil22" d="M426 860l252 7c5,0 11,0 18,1 3,0 7,0 9,0 0,0 0,0 1,1l3 4 11 -7c2,-11 5,-8 -26,-9l-179 -5c-9,0 -68,0 -69,-3l258 7c30,0 18,2 24,4 5,2 6,-10 6,28 3,-10 -3,-22 3,-31 1,-1 1,-2 2,-3l0 -6c-1,-1 -2,-1 -9,-2l-70 -1c-6,0 -13,0 -18,-1l-70 -1c-12,0 -24,-2 -34,-2 -6,0 -12,1 -19,1 -6,-1 -9,-2 -15,-2l-35 0c-1,0 -2,1 -2,1 -6,4 -6,4 -10,4 2,-1 8,-4 6,-5 -5,1 -6,1 -11,3 0,0 -3,3 -3,3 -4,2 -2,1 -3,3l-11 5c-6,3 -7,4 -9,6 -3,2 -7,3 -11,6 -1,1 -4,3 -5,3 -5,4 0,-1 -4,4 5,-1 4,1 12,-3 3,-2 1,-3 7,-3l-1 -1c-1,1 -1,1 -2,2 0,0 0,0 0,1l-2 3c19,2 201,5 241,7 27,0 21,-2 30,4 0,0 0,0 1,1 10,-7 10,-6 11,-15l-140 -3c-8,-1 -134,-2 -137,-6zm38 -24c0,1 -1,1 -1,2 3,0 4,0 8,-1l-7 -1zm12 1c0,0 0,0 0,1 12,-2 23,1 34,0 21,0 51,4 69,3l18 0c0,0 1,0 1,0l52 1 -174 -5zm214 6c3,0 6,1 9,1l35 0 1 0 -45 -1z"/>
    <path class="fil23" d="M650 896c10,4 5,38 3,40 -10,1 -5,3 -6,-18 0,-6 -2,-16 3,-22zm-224 -36c3,4 129,5 137,6l140 3c-1,9 -1,8 -11,15 -1,-1 -1,-1 -1,-1 -9,-6 -3,-4 -30,-4 -40,-2 -222,-5 -241,-7l2 -3c0,-1 0,-1 0,-1 1,-1 1,-1 2,-2l1 1c-6,0 -4,1 -7,3 -8,4 -7,2 -12,3l0 1 18 0c83,2 179,7 260,7 -1,10 -2,8 -12,15 -8,-4 12,-5 -31,-6l-109 -3c-23,-1 -137,-2 -142,-3l0 5c4,-2 3,-2 3,1 5,0 8,-1 13,1 4,0 6,1 9,1 2,0 4,0 8,1 6,0 10,0 17,-1 -5,1 -4,0 -4,3 5,-1 5,0 4,-3 12,-2 86,2 104,2 17,0 34,1 51,1 12,1 37,2 50,1 1,20 -8,50 13,39 11,-6 8,-13 8,-27 15,-7 31,-20 48,-29 0,6 -2,13 1,16 2,2 0,2 4,0l-4 0c0,-5 -2,-14 3,-20 7,0 5,-2 6,3 2,3 1,14 -4,17 4,-1 0,1 7,-3 2,-1 6,-3 7,-4 0,-38 -1,-26 -6,-28 -6,-2 6,-4 -24,-4l-258 -7c1,3 60,3 69,3l179 5c31,1 28,-2 26,9l-11 7 -3 -4c-1,-1 -1,-1 -1,-1 -2,0 -6,0 -9,0 -7,-1 -13,-1 -18,-1l-252 -7z"/>
    <path class="fil22" d="M390 889c-1,2 -2,2 3,1 0,-3 1,-3 -3,-1l0 -5c5,1 119,2 142,3l109 3c43,1 23,2 31,6 10,-7 11,-5 12,-15 -81,0 -177,-5 -260,-7l-18 0c-8,2 -17,6 -19,12 0,7 0,3 3,3z"/>
    <path class="fil7" d="M436 895c0,-3 -1,-2 4,-3 -7,1 -11,1 -17,1 -4,-1 -6,-1 -8,-1 -3,0 -5,-1 -9,-1l0 40c10,0 10,-2 19,-7 0,-30 -1,-17 11,-29z"/>
    <path class="fil7" d="M463 838l0 2c2,1 -4,4 -6,5 4,0 4,0 10,-4 0,0 1,-1 2,-1l35 0c6,0 9,1 15,2 7,0 13,-1 19,-1 10,0 22,2 34,2l70 1c5,1 12,1 18,1l70 1c7,1 8,1 9,2l0 -3 -4 -1 -1 0 -35 0c-3,0 -6,-1 -9,-1l-40 -1 -52 -1c0,0 -1,0 -1,0l-18 0c-18,1 -48,-3 -69,-3 -11,1 -22,-2 -34,0 0,-1 0,-1 0,-1l-5 0c-4,1 -5,1 -8,1z"/>
    <path class="fil23" d="M650 896c-5,6 -3,16 -3,22 1,21 -4,19 6,18 2,-2 7,-36 -3,-40z"/>
    <path class="fil7" d="M715 895l4 0 1 0c5,-3 6,-14 4,-17 -1,-5 1,-3 -6,-3 -5,6 -3,15 -3,20z"/>
    <polygon class="fil23" points="462,838 739,846 741,740 472,733 465,736 "/>
    <path class="fil22" d="M462 838l269 8 0 -22c-17,0 -35,-1 -47,-1 -25,-1 -51,-2 -78,-2 -23,-1 -105,-4 -143,-3l-1 20zm269 -23l1 -14c-88,-1 -182,-5 -269,-7l0 15c51,1 107,2 125,3l143 3zm1 -17l0 -14 -96 -2c-9,0 -114,-2 -172,-4l-1 14c69,2 192,5 269,6zm0 -16l0 -15 -170 -4c-12,0 -74,0 -98,-2l0 15 268 6zm0 -17l1 -20 -268 -9 -1 23 268 6z"/>
   </g>
  </g>
 </g>
</svg>
