<?xml version="1.0" encoding="UTF-8"?>
<!DOCTYPE svg PUBLIC "-//W3C//DTD SVG 1.1//EN" "http://www.w3.org/Graphics/SVG/1.1/DTD/svg11.dtd">
<!-- Creator: CorelDRAW X7 -->
<svg xmlns="http://www.w3.org/2000/svg" xml:space="preserve" width="1.9685in" height="1.9685in" version="1.1" style="shape-rendering:geometricPrecision; text-rendering:geometricPrecision; image-rendering:optimizeQuality; fill-rule:evenodd; clip-rule:evenodd"
viewBox="0 0 1969 1969"
 xmlns:xlink="http://www.w3.org/1999/xlink">
 <defs>
  <style type="text/css">
   <![CDATA[
    .fil3 {fill:#FEFEFE}
    .fil2 {fill:#173D43}
    .fil1 {fill:#1C5056}
    .fil0 {fill:#FFB76F}
   ]]>
  </style>
 </defs>
 <g id="Layer_x0020_1">
  <metadata id="CorelCorpID_0Corel-Layer"/>
  <g id="_2391666627872">
   <circle class="fil0" cx="984" cy="984" r="984"/>
   <circle class="fil1" cx="984" cy="979" r="591"/>
   <circle class="fil2" cx="984" cy="979" r="417"/>
   <path class="fil3" d="M1117 1115c-16,-12 -28,-87 -32,-106 -4,-18 -8,-36 -13,-54 -2,-9 -4,-19 -6,-27 -1,-6 -2,-8 -4,-14 -4,-8 -1,-3 -5,-7 -9,19 9,126 13,158 8,61 8,116 55,144 24,15 35,11 47,51 8,29 14,56 19,84 13,68 38,299 101,411 10,18 27,25 36,26 11,1 26,-14 25,-41 -6,-132 -106,-369 -120,-415 -9,-26 -20,-60 -25,-87 -5,-28 13,-41 22,-62 21,-47 -7,-96 -29,-148 -14,-33 -48,-121 -64,-143 -5,8 -5,10 1,28l25 83c7,24 33,81 24,100 -30,-10 -52,-183 -80,-201 -5,36 57,176 49,212 -16,0 -13,3 -25,-42 -10,-37 -34,-148 -47,-163l-1 14c2,39 45,176 34,199z"/>
   <path class="fil3" d="M829 841l0 1 0 0c-1,0 -2,0 -3,1l0 0 0 0 -1 0 -1 0c0,1 -1,1 -2,2l0 0 0 0 -2 0c-1,1 -2,1 -3,2l0 0c-69,38 -129,171 -106,235 9,26 20,39 29,48l0 0 1 1 1 0 0 0 1 1 0 0 0 1 2 1 0 1 1 0 0 1 0 0c1,1 2,1 2,2l1 0 0 1 1 0 0 0c0,1 1,2 1,2l1 1 0 0 0 1 0 0 1 0 0 1 0 0 1 1 0 0 0 1 0 0 1 1 0 1 0 0 1 1 0 1 0 0 1 1 0 0 0 2 0 0 0 1 1 0c0,1 0,2 0,2l0 0 0 1 0 2 0 0 0 1 0 0 0 1 0 0 0 1 0 1 0 0 0 1 0 1 0 2 0 0 0 1 0 1c0,0 0,1 0,2l0 1 0 1 0 1 -1 2 0 1 0 1 0 1 0 2 -1 1 0 1 0 2 -1 2 0 2 0 1 -1 1 0 0 0 3 0 0 -1 2 0 1 -1 2 0 3 -1 1 0 0 -1 3 0 1 0 0 -1 3 0 0 -1 2 0 1 -1 3 0 0 -1 3 0 1 -1 2c-1,3 -2,6 -3,10 -9,26 -18,55 -28,84l0 0 0 1 -1 1 0 0 0 0 0 1 0 1 -1 1 0 0 0 0 0 1 0 1 -1 1 0 0 0 0 0 1 0 1 -1 0 0 1 0 0 0 1 0 1 -1 0 0 1 0 0 0 1 -1 1 0 0 0 1 0 1 0 0 -1 1 0 0 0 1 0 1 0 0 -1 1 0 0 0 1 0 1 0 0 -1 1 0 0 0 1 0 1 0 0 0 0 -1 1 0 1 0 1 0 0 -1 0 0 1 0 1 0 1 0 0 -1 0 0 1 0 1 0 1 0 0 -1 0 0 1 0 1 0 1 0 0 -1 0 0 1 0 1 0 0 -1 1 0 0 0 1 0 1 0 0 -1 1 0 0 0 1 0 1 0 0 -1 1 0 0 0 1c-38,104 -84,227 -85,307 0,20 11,36 18,41 9,6 31,0 43,-23 56,-109 47,-154 72,-286l0 -1 1 -4 0 -1 1 -3 1 -3 0 -2 0 -2 1 -2 0 -1 1 -4 0 0 0 -3 1 -2 0 -2 1 -3 0 -1 1 -4 0 0 0 -3 1 -2 0 -2 1 -3 0 -1 1 -4 0 0 0 -4 1 -2 0 -2 1 -3 0 -1 1 -5 0 0 1 -4 0 -1 1 -3 0 -3 0 -1 1 -4 0 0 1 -4 0 -2 1 -3 0 -2 1 -2 1 -4 0 0 0 -4 1 -1 0 -3 1 -3 0 -1 1 -4 0 0 1 -5 0 -1 1 -3 0 -2 0 -2 1 -3 0 -1 1 -4 0 0 1 -3 0 -3 1 -1 0 -4 0 0 1 -4 0 -1 1 -3 0 -1 1 -2 0 -3 1 -1 0 -3 0 -1 1 -3 0 -1 1 -2 0 -3 0 0 1 -3 0 -1 1 -2 0 -2 0 -1 1 -3 0 0 1 -3 0 0 0 -3 1 -1 0 -1 0 -2 1 -1 0 -2 0 0 1 -2 0 -1 0 -1 0 0 1 -2 0 -2 0 0 0 -2 1 0 0 -1 0 -1 0 -1 1 -1 0 0c0,-1 0,-2 0,-2l1 0 0 -1 0 -1 1 -1 0 0 0 -1 0 0 1 -1 0 0 0 -1 0 0 1 -1 0 0 0 -1 1 0 0 -1 0 0 1 -1 0 0 1 -1 0 0 0 0 0 -1 1 0 0 -1 1 0 0 0 0 -1 0 0 1 -1 0 0 1 -1 0 0 1 -1 0 0 1 0 0 0 0 -1 0 0 1 -1 0 0 1 0 0 0 1 -1 0 0 0 0 1 -1 0 0 1 0 0 0 0 -1 1 0 0 0 1 -1 1 0 0 0 1 -1 0 0 1 0 0 -1 1 0 0 0 1 0 0 -1 1 0 0 0 0 0 1 -1 1 0 0 0 1 -1 0 0 1 0 1 0 1 0 0 -1 1 0 0 0 1 0 0 0 1 -1 0 0 1 0 0 0 1 0 0 0 1 -1 0 0 1 0 0 0 1 0 1 0 0 0 1 -1 0 0 1 0 0 0 1 0 0 0 1 -1 0 0 1 0 0 0 1 0 0 0 1 0 1 -1 0 0 1 0 0 0 1 0 0 0 1 0 0 -1 1 0 0 0 1 0 0 0 1 0 0 -1 0 0 1 0c4,-1 7,-2 10,-3 89,-37 91,-201 53,-271l0 0 -1 -1 0 0 0 0 0 0 -1 -2 0 0 -1 -1 0 -1c0,0 -1,-1 -1,-2l0 0 0 0 -1 -1c0,-1 -1,-1 -2,-2l0 -1c-1,-1 -1,-2 -2,-3 -3,-3 -6,-7 -10,-10 -20,-15 -41,-16 -62,-9z"/>
  </g>
 </g>
</svg>
