<?xml version="1.0" encoding="UTF-8"?>
<!DOCTYPE svg PUBLIC "-//W3C//DTD SVG 1.1//EN" "http://www.w3.org/Graphics/SVG/1.1/DTD/svg11.dtd">
<!-- Creator: CorelDRAW X7 -->
<svg xmlns="http://www.w3.org/2000/svg" xml:space="preserve" width="1.9685in" height="1.9685in" version="1.1" style="shape-rendering:geometricPrecision; text-rendering:geometricPrecision; image-rendering:optimizeQuality; fill-rule:evenodd; clip-rule:evenodd"
viewBox="0 0 14748 14748"
 xmlns:xlink="http://www.w3.org/1999/xlink">
 <defs>
  <style type="text/css">
   <![CDATA[
    .fil11 {fill:#FEFEFE}
    .fil4 {fill:#EF4937}
    .fil10 {fill:#B6E3EE}
    .fil12 {fill:#A6DEF1}
    .fil5 {fill:#46312D}
    .fil7 {fill:#6C6E76}
    .fil8 {fill:#4FC8F1}
    .fil6 {fill:#54565B}
    .fil9 {fill:#27B0D1}
    .fil3 {fill:#35946B}
    .fil2 {fill:#2C7B4D}
    .fil1 {fill:#23583A}
    .fil0 {fill:#FAA954}
   ]]>
  </style>
 </defs>
 <g id="Layer_x0020_1">
  <metadata id="CorelCorpID_0Corel-Layer"/>
  <circle class="fil0" cx="7374" cy="7374" r="7374"/>
  <g id="_2391678448224">
   <path class="fil1" d="M9151 6890c-612,-292 -409,-818 -73,-565 -16,-24 -12,-56 9,-77 21,-20 54,-22 77,-5 -7,-139 87,-262 222,-291 136,-28 272,46 321,176 22,-52 70,-89 126,-96 57,-7 113,17 147,62 34,46 41,106 19,158 13,-8 30,-5 39,8 9,12 7,30 -5,39 71,-12 143,23 175,88 33,65 19,144 -33,194l-1024 309z"/>
   <path class="fil2" d="M9138 6894c-579,-277 -387,-775 -69,-535 -15,-23 -12,-54 8,-73 21,-20 51,-22 74,-6 -8,-131 82,-248 210,-275 129,-27 258,44 304,166 21,-49 67,-84 120,-90 53,-7 106,16 139,59 32,42 39,99 18,149 12,-8 29,-5 37,7 9,12 7,29 -5,38 68,-12 135,22 166,83 31,61 18,137 -32,184l-970 293z"/>
   <path class="fil3" d="M9014 6601c-20,-2 -38,-11 -53,-27 -14,-15 -21,-35 -22,-54 19,3 38,11 52,27 14,15 22,35 23,54z"/>
   <path class="fil3" d="M9028 6571c-9,-17 -13,-37 -9,-58 4,-20 15,-37 30,-50 9,17 13,37 9,58 -4,21 -15,38 -30,50z"/>
   <path class="fil3" d="M9383 6404c-7,-20 -7,-43 2,-64 8,-21 23,-37 42,-47 6,20 7,43 -2,64 -8,21 -24,37 -42,47z"/>
   <path class="fil3" d="M9357 6379c-20,-7 -38,-20 -50,-39 -12,-19 -15,-41 -12,-62 20,7 37,20 49,39 12,19 16,41 13,62z"/>
   <path class="fil3" d="M9766 6367c-14,4 -27,5 -40,4 6,-20 19,-39 38,-51 7,-4 15,-7 23,-10 13,-4 26,-4 39,-3 -6,20 -19,38 -38,50 -7,5 -15,8 -22,10z"/>
   <path class="fil3" d="M9719 6335c-12,-17 -19,-38 -17,-61 2,-22 12,-42 26,-57 13,17 19,38 18,61 -2,22 -12,42 -27,57z"/>
   <path class="fil3" d="M9637 6502c-20,-6 -39,-18 -52,-37 -12,-19 -17,-41 -15,-61 20,5 39,18 52,36 12,19 17,41 15,62z"/>
   <path class="fil3" d="M9572 6525c-10,3 -20,4 -30,4 -23,-1 -43,-10 -59,-25 9,-6 19,-12 30,-15 10,-3 20,-4 31,-4 22,1 42,11 58,25 -9,6 -19,12 -30,15z"/>
   <path class="fil3" d="M9140 6725c-14,-13 -23,-32 -25,-53 -2,-21 4,-40 15,-56 14,14 23,32 25,53 2,21 -4,40 -15,56z"/>
   <path class="fil3" d="M9192 6707c-7,2 -15,3 -23,4 3,-20 12,-38 28,-52 9,-9 20,-15 32,-18 7,-3 15,-4 22,-4 -2,19 -11,38 -27,52 -10,8 -21,14 -32,18z"/>
   <path class="fil4" d="M9231 6504c8,-2 13,-11 11,-19 -3,-8 -11,-13 -20,-10 -8,2 -12,11 -10,19 3,8 11,13 19,10zm-41 -84c-11,4 -16,15 -13,25 3,11 14,17 24,13 11,-3 17,-14 14,-24 -4,-11 -15,-17 -25,-14zm-9 80c2,10 -3,20 -13,23 -10,3 -20,-2 -23,-12 -3,-10 2,-20 12,-23 10,-3 21,2 24,12z"/>
   <path class="fil4" d="M9562 6356c9,-3 13,-11 11,-19 -3,-9 -11,-13 -19,-11 -9,3 -13,11 -11,19 3,9 11,13 19,11zm-41 -84c-10,3 -16,14 -13,25 3,10 14,16 24,13 11,-3 17,-14 14,-25 -3,-10 -14,-16 -25,-13zm-9 80c3,9 -3,20 -13,23 -10,3 -20,-3 -23,-13 -3,-9 3,-20 12,-23 10,-3 21,3 24,13z"/>
   <path class="fil4" d="M9723 6647c8,-3 13,-11 11,-19 -3,-8 -12,-13 -20,-11 -8,3 -12,11 -10,20 2,8 11,12 19,10zm-41 -84c-11,3 -17,14 -13,25 3,10 14,16 24,13 11,-3 17,-14 14,-25 -4,-10 -15,-16 -25,-13zm-10 80c3,10 -2,20 -12,23 -10,3 -20,-3 -23,-13 -3,-9 2,-20 12,-23 10,-3 20,3 23,13z"/>
  </g>
  <g id="_2391678453280">
   <path class="fil1" d="M5331 6313c-405,-823 252,-1211 396,-660 4,-40 35,-71 74,-75 40,-4 76,21 87,59 108,-154 311,-206 479,-123 169,84 251,277 194,456 67,-37 149,-36 215,4 66,40 105,112 103,189 -1,77 -44,147 -111,183 20,3 36,21 35,42 -1,21 -18,37 -39,38 86,46 132,144 113,240 -20,96 -101,169 -199,178l-1347 -531z"/>
   <path class="fil2" d="M5314 6307c-384,-780 239,-1149 376,-627 3,-37 32,-67 70,-70 37,-4 72,19 82,56 102,-146 295,-195 455,-117 159,79 237,263 183,432 64,-35 141,-33 204,4 62,38 99,106 98,179 -2,73 -42,139 -106,174 20,2 34,20 33,39 -1,20 -17,36 -37,36 82,44 126,137 107,228 -18,91 -95,160 -188,168l-1277 -502z"/>
   <path class="fil3" d="M5427 5891c-18,-19 -31,-44 -33,-72 -2,-28 7,-55 22,-76 19,19 31,44 33,72 2,28 -7,55 -22,76z"/>
   <path class="fil3" d="M5468 5872c4,-26 17,-51 38,-70 22,-18 48,-27 74,-28 -4,26 -17,51 -38,70 -22,19 -48,27 -74,28z"/>
   <path class="fil3" d="M5985 5991c10,-26 29,-50 55,-66 27,-15 57,-19 85,-14 -10,27 -29,50 -55,66 -27,15 -56,19 -85,14z"/>
   <path class="fil3" d="M5978 5943c-15,-24 -23,-53 -20,-83 4,-30 18,-57 39,-76 16,23 24,52 20,83 -4,30 -18,57 -39,76z"/>
   <path class="fil3" d="M6423 6274c-18,-7 -33,-17 -45,-30 23,-16 52,-25 83,-21 11,1 22,4 32,8 17,6 32,17 45,30 -24,15 -53,24 -84,20 -11,-1 -21,-3 -31,-7z"/>
   <path class="fil3" d="M6400 6201c2,-29 12,-57 33,-79 21,-23 48,-36 76,-39 -1,28 -12,56 -33,79 -20,22 -48,35 -76,39z"/>
   <path class="fil3" d="M6173 6309c-17,-24 -26,-52 -24,-83 3,-30 16,-57 36,-78 16,23 26,52 23,83 -2,30 -15,57 -35,78z"/>
   <path class="fil3" d="M6084 6279c-12,-5 -24,-12 -35,-22 -23,-20 -37,-46 -41,-74 15,0 30,3 45,8 12,5 24,12 35,22 23,20 37,47 41,75 -15,-1 -30,-4 -45,-9z"/>
   <path class="fil3" d="M5457 6129c-3,-26 2,-53 18,-77 15,-24 38,-40 64,-48 3,27 -3,54 -18,78 -16,24 -39,40 -64,47z"/>
   <path class="fil3" d="M5528 6153c-9,-4 -18,-9 -27,-15 19,-18 44,-30 73,-32 17,-1 34,2 49,8 10,4 19,9 27,15 -19,18 -44,30 -73,32 -17,1 -34,-2 -49,-8z"/>
   <path class="fil4" d="M5740 5971c11,4 23,-1 27,-12 4,-10 -1,-22 -12,-27 -11,-4 -23,1 -27,12 -4,11 1,23 12,27zm26 -124c-14,-5 -29,2 -35,15 -5,14 2,30 16,35 13,6 29,-1 34,-15 6,-14 -1,-29 -15,-35zm-77 77c-5,13 -19,19 -32,14 -13,-5 -20,-19 -15,-32 5,-13 20,-20 33,-15 13,6 19,20 14,33z"/>
   <path class="fil4" d="M6216 6091c11,4 23,-1 27,-12 5,-11 -1,-23 -11,-27 -11,-4 -23,1 -27,12 -5,10 1,23 11,27zm27 -124c-14,-5 -30,1 -35,15 -5,14 1,29 15,35 14,5 30,-1 35,-15 5,-14 -1,-30 -15,-35zm-77 77c-5,13 -20,19 -33,14 -13,-5 -19,-20 -14,-33 5,-13 20,-19 33,-14 13,5 19,20 14,33z"/>
   <path class="fil4" d="M6143 6535c11,4 23,-1 27,-12 4,-10 -1,-22 -12,-27 -10,-4 -22,1 -27,12 -4,11 1,23 12,27zm27 -124c-14,-5 -30,2 -35,15 -6,14 1,30 15,35 14,6 29,-1 35,-15 5,-14 -2,-29 -15,-35zm-77 77c-5,13 -20,19 -33,14 -13,-5 -19,-19 -14,-32 5,-13 19,-20 32,-15 13,6 20,20 15,33z"/>
  </g>
  <g id="_2391678456928">
   <path class="fil5" d="M2661 6095c-228,-826 -48,-665 -87,-1160 -38,-496 112,-730 112,-730l-306 265c267,815 -53,852 36,1458l245 167z"/>
   <path class="fil2" d="M3713 4228c0,78 -75,148 -197,198 -115,48 -271,78 -445,78 -94,0 -183,-10 -264,-25 10,13 15,26 15,40 0,93 -228,168 -509,168 -281,0 -509,-75 -509,-168 0,-30 23,-58 64,-82 -260,-25 -463,-76 -551,-139 -31,-22 -48,-46 -48,-71 0,-49 63,-93 171,-130 90,-31 211,-56 352,-73 -62,-17 -114,-36 -153,-56 -52,-27 -80,-58 -80,-89 0,-16 7,-32 21,-47 92,-100 471,-175 925,-175 523,0 946,99 946,222l0 3c-2,35 -40,69 -106,98 120,25 219,64 284,113 31,23 54,49 68,75 10,20 16,40 16,60z"/>
   <path class="fil3" d="M3515 4094c-310,0 -736,-20 -1010,-117 -109,-38 -243,-53 -385,-53 -159,0 -327,19 -481,44l0 0c-52,-27 -80,-58 -80,-89 0,-16 7,-32 21,-47 180,-25 343,-34 494,-34 238,0 445,24 636,47 191,24 366,48 544,48 65,0 130,-4 197,-11 -2,35 -40,69 -106,98l0 0c120,25 219,64 284,113 -36,1 -74,1 -114,1z"/>
   <path class="fil3" d="M3516 4426c-338,-10 -720,-46 -988,-140 -135,-48 -301,-67 -477,-67 -246,0 -511,37 -734,79l0 0c-31,-22 -48,-46 -48,-71 0,-49 63,-93 171,-130 200,-24 382,-34 552,-34 297,0 553,29 791,59 237,29 456,59 677,59 78,0 157,-4 237,-13 10,20 16,40 16,60 0,78 -75,148 -197,198l0 0z"/>
   <g>
    <path class="fil5" d="M2488 5332c245,-253 220,-171 383,-300 163,-129 268,-150 268,-150l-141 -8c-235,259 -300,193 -493,361l-17 97z"/>
    <path class="fil2" d="M3300 5127c-27,19 -63,18 -100,2 -35,-15 -71,-45 -100,-85 -15,-22 -27,-45 -35,-68 -3,5 -6,10 -11,13 -32,23 -95,-12 -142,-78 -46,-66 -58,-137 -26,-160 10,-7 24,-8 39,-4 -35,-67 -51,-127 -44,-163 3,-12 8,-22 17,-28 16,-12 42,-8 72,9 26,13 54,35 83,64 -4,-18 -6,-35 -6,-49 1,-19 7,-33 18,-40 5,-4 12,-6 19,-7 49,-2 137,68 212,174 86,122 122,245 81,275l-2 0c-12,8 -30,8 -51,-1 12,34 15,67 9,94 -3,13 -8,24 -15,34 -5,7 -11,13 -18,18z"/>
    <path class="fil3" d="M3313 5049c-51,-73 -114,-177 -126,-265 -5,-34 -22,-69 -45,-102 -27,-37 -61,-72 -95,-102l0 0c1,-19 7,-33 18,-40 5,-4 12,-6 19,-7 38,37 68,72 93,107 39,56 65,110 89,160 23,51 44,98 73,139 11,15 23,30 36,43 -12,8 -30,8 -51,-1l0 0c12,34 15,67 9,94 -7,-8 -13,-17 -20,-26z"/>
    <path class="fil3" d="M3200 5129c-52,-81 -103,-179 -115,-265 -6,-43 -27,-86 -56,-127 -40,-58 -96,-111 -148,-153l0 0c3,-12 8,-22 17,-28 16,-12 42,-8 72,9 42,40 75,81 103,120 49,70 81,137 110,199 29,63 55,121 92,173 13,18 27,35 43,52 -5,7 -11,13 -18,18 -27,19 -63,18 -100,2l0 0z"/>
   </g>
  </g>
  <g id="_2391678459072">
   <path class="fil5" d="M4277 5078c-118,-626 -24,-504 -44,-879 -20,-375 57,-552 57,-552l-158 200c138,618 -27,645 19,1104l126 127z"/>
   <path class="fil2" d="M4821 3664c0,59 -38,112 -101,150 -60,36 -141,59 -230,59 -49,0 -95,-7 -137,-19 5,10 8,20 8,30 0,71 -118,128 -264,128 -145,0 -263,-57 -263,-128 0,-22 12,-43 33,-61 -134,-19 -239,-58 -285,-106 -16,-17 -24,-35 -24,-54 0,-37 32,-70 88,-98 46,-23 109,-43 182,-55 -32,-13 -59,-28 -79,-43 -27,-21 -42,-44 -42,-67 0,-13 4,-25 11,-36 48,-76 244,-132 479,-132 270,0 489,75 489,168l0 2c-1,27 -21,52 -55,74 62,19 114,49 147,86 16,18 28,37 35,57 6,14 8,30 8,45z"/>
   <path class="fil3" d="M4719 3563c-160,0 -380,-15 -522,-89 -57,-29 -126,-40 -199,-40 -82,0 -170,14 -249,33l0 0c-27,-21 -42,-44 -42,-67 0,-13 4,-25 11,-36 94,-18 178,-26 256,-26 123,0 230,18 329,36 98,18 189,36 281,36 34,0 68,-2 102,-8 -1,27 -21,52 -55,74l0 0c62,19 114,49 147,86 -18,0 -38,1 -59,1z"/>
   <path class="fil3" d="M4720 3814c-175,-8 -373,-35 -511,-106 -70,-37 -156,-51 -247,-51 -127,0 -264,28 -380,60l0 0c-16,-17 -24,-35 -24,-54 0,-37 32,-70 88,-98 103,-19 198,-26 285,-26 154,0 287,22 409,45 123,22 236,44 351,44 40,0 81,-3 122,-9 6,14 8,30 8,45 0,59 -38,112 -101,150l0 0z"/>
  </g>
  <g id="_2391678461440">
   <path class="fil5" d="M9609 4127c-112,678 34,1287 51,1690 17,404 -34,547 -180,670l221 816c0,0 28,-366 96,-645 69,-279 -103,-781 -96,-1253 6,-471 -148,-671 0,-1434l-92 156z"/>
   <path class="fil5" d="M9604 4959c-210,-141 -229,-242 -270,-806 0,0 28,364 82,493 53,129 111,228 188,212 77,-15 0,101 0,101z"/>
   <path class="fil5" d="M9613 4599c251,90 446,2 399,-249 -47,-251 79,-498 79,-498 0,0 -103,254 -60,432 43,178 37,272 -80,349 -117,77 -292,48 -338,22l0 -56z"/>
   <path class="fil2" d="M10555 3581c8,6 15,11 21,16 37,29 57,62 57,96 0,73 -91,137 -230,175 -10,3 -20,6 -31,8 49,33 80,71 86,112 1,5 1,10 1,16 0,115 -190,210 -440,227 4,9 8,19 8,29l0 1c0,101 -208,183 -465,183 -256,0 -464,-82 -464,-183 0,-63 82,-119 207,-151 46,-12 98,-21 154,-27 -21,-24 -33,-51 -33,-79 0,-15 3,-30 10,-45 -207,-13 -367,-47 -420,-89 -12,-9 -19,-20 -19,-30 0,-51 156,-96 378,-115 -108,-14 -184,-36 -201,-62l-4 -12c0,-13 14,-24 39,-36 -220,-21 -362,-54 -362,-92 0,-16 24,-30 68,-44 38,-11 90,-22 155,-32 -5,-8 -8,-15 -8,-23 0,-90 296,-162 663,-162 365,0 662,72 662,162 0,4 -1,10 -3,14 181,21 294,51 294,85 0,21 -45,41 -123,58z"/>
   <path class="fil2" d="M10091 5115c0,-63 -186,-114 -416,-114 -231,0 -417,51 -417,114 0,46 102,86 248,104 -6,6 -10,13 -10,20 0,39 105,70 235,70 130,0 235,-31 235,-70 0,-13 -12,-25 -32,-35 96,-21 157,-53 157,-89z"/>
   <path class="fil3" d="M10403 3868c-218,-26 -426,-66 -595,-126 -163,-57 -362,-79 -573,-79 -20,0 -40,0 -61,0l0 0 -4 -12c0,-13 14,-24 39,-36l0 0c-220,-21 -362,-54 -362,-92 0,-16 24,-30 68,-44 85,-4 168,-5 248,-5 556,0 995,85 1413,123 37,29 57,62 57,96 0,73 -91,137 -230,175l0 0z"/>
   <path class="fil3" d="M10027 4260c-64,-17 -126,-35 -183,-56 -157,-55 -342,-84 -539,-94 46,-12 98,-21 154,-27l0 0c-21,-24 -33,-51 -33,-79 0,-15 3,-30 10,-45l0 0c-207,-13 -367,-47 -420,-89 5,0 10,0 16,0 546,0 1003,66 1426,118 1,5 1,10 1,16 0,115 -190,210 -440,227l0 0c4,9 8,19 8,29z"/>
  </g>
  <g id="_2391678463808">
   <g>
    <path class="fil5" d="M12602 6374c-118,-626 -24,-504 -44,-879 -20,-375 57,-553 57,-553l-158 201c138,618 -27,645 19,1104l126 127z"/>
    <path class="fil2" d="M13146 4960c0,59 -38,112 -101,150 -60,36 -141,58 -230,58 -49,0 -95,-7 -137,-18 5,10 8,20 8,30 0,70 -118,127 -264,127 -145,0 -263,-57 -263,-127 0,-22 12,-44 33,-62 -134,-19 -239,-57 -285,-105 -16,-17 -24,-35 -24,-54 0,-37 32,-71 88,-98 46,-24 109,-43 182,-56 -32,-13 -59,-27 -79,-42 -27,-21 -42,-44 -42,-68 0,-12 4,-24 11,-35 48,-76 244,-133 479,-133 270,0 489,75 489,168l0 3c-1,26 -21,52 -55,74 62,19 114,49 147,86 16,17 28,36 35,57 6,14 8,29 8,45z"/>
    <path class="fil3" d="M13044 4858c-160,0 -380,-15 -522,-88 -57,-29 -126,-41 -199,-41 -82,0 -170,15 -249,34l0 0c-27,-21 -42,-44 -42,-68 0,-12 4,-24 11,-35 94,-19 178,-26 256,-26 123,0 230,18 329,36 98,18 189,36 281,36 34,0 68,-3 102,-8 -1,26 -21,52 -55,74l0 0c62,19 114,49 147,86 -18,0 -38,0 -59,0z"/>
    <path class="fil3" d="M13045 5110c-175,-8 -373,-35 -511,-107 -70,-36 -156,-50 -247,-50 -127,0 -264,28 -380,60l0 0c-16,-17 -24,-35 -24,-54 0,-37 32,-71 88,-98 103,-19 198,-26 285,-26 154,0 287,22 409,44 123,23 236,45 351,45 40,0 81,-3 122,-9 6,14 8,29 8,45 0,59 -38,112 -101,150l0 0z"/>
   </g>
   <g>
    <path class="fil5" d="M12520 5842c131,-135 118,-92 205,-161 88,-69 144,-80 144,-80l-76 -4c-126,139 -161,103 -264,193l-9 52z"/>
    <path class="fil2" d="M12955 5732c-14,10 -33,10 -53,1 -19,-8 -38,-24 -54,-45 -8,-12 -14,-25 -19,-37 -1,3 -3,6 -6,7 -17,12 -51,-6 -75,-42 -25,-35 -32,-73 -15,-85 6,-4 13,-5 21,-3 -18,-35 -27,-68 -23,-87 1,-7 4,-12 9,-15 9,-6 22,-4 39,5 13,7 29,19 44,34 -2,-10 -3,-19 -3,-26 0,-10 3,-18 9,-22 3,-2 7,-3 11,-3 26,-2 73,36 113,93 47,66 66,131 43,147l0 1c-7,4 -16,4 -28,-1 7,18 8,36 5,50 -2,7 -4,13 -8,19 -3,3 -6,7 -10,9z"/>
    <path class="fil3" d="M12963 5690c-28,-39 -62,-95 -68,-141 -3,-19 -12,-38 -25,-56 -14,-19 -32,-38 -50,-54l0 0c0,-10 3,-18 9,-22 3,-2 7,-3 11,-3 20,19 36,39 49,57 22,30 35,59 48,86 13,27 24,52 39,74 6,9 13,16 20,24 -7,4 -16,4 -28,-1l0 0c7,18 8,36 5,50 -3,-4 -7,-9 -10,-14z"/>
    <path class="fil3" d="M12902 5733c-28,-43 -55,-96 -62,-142 -3,-23 -14,-46 -30,-68 -22,-31 -52,-59 -79,-82l0 0c1,-7 4,-12 9,-15 9,-6 22,-4 39,5 22,22 40,43 55,64 26,38 43,74 59,107 15,34 29,65 49,93 7,9 14,19 23,28 -3,3 -6,7 -10,9 -14,10 -33,10 -53,1l0 0z"/>
   </g>
   <g>
    <path class="fil5" d="M12534 5646c-97,-84 -87,-48 -151,-85 -65,-37 -106,-31 -106,-31l55 -25c94,88 119,46 195,97l7 44z"/>
    <path class="fil2" d="M12173 5656c18,8 38,5 57,-7 18,-11 35,-30 46,-54 6,-13 10,-26 12,-39 2,3 5,5 8,6 20,10 52,-14 70,-53 18,-39 16,-79 -4,-88 -7,-3 -15,-3 -23,0 12,-38 13,-72 5,-91 -3,-6 -7,-11 -13,-14 -11,-5 -25,-1 -40,11 -12,9 -26,23 -39,41 0,-11 0,-20 -2,-27 -3,-10 -8,-17 -15,-21 -4,-1 -7,-2 -12,-1 -28,2 -69,47 -98,110 -34,73 -40,142 -12,154l0 1c8,3 18,1 29,-5 -2,19 0,37 7,51 3,7 7,13 12,18 4,3 8,6 12,8z"/>
    <path class="fil3" d="M12156 5615c20,-43 43,-105 40,-153 -2,-19 4,-39 13,-59 10,-22 25,-43 41,-62l0 0c-3,-10 -8,-17 -15,-21 -4,-1 -7,-2 -12,-1 -17,22 -30,44 -39,65 -16,33 -24,64 -31,93 -7,29 -13,56 -25,80 -4,9 -9,18 -15,27 8,3 18,1 29,-5l0 0c-2,19 0,37 7,51 2,-4 5,-10 7,-15z"/>
    <path class="fil3" d="M12230 5649c20,-48 36,-105 33,-152 -2,-23 5,-48 16,-73 16,-34 41,-67 65,-94l0 0c-3,-6 -7,-11 -13,-14 -11,-5 -25,-1 -40,11 -18,25 -32,49 -43,73 -19,41 -29,80 -38,116 -9,36 -17,69 -31,100 -5,11 -11,21 -18,32 4,3 8,6 12,8 18,8 38,5 57,-7l0 0z"/>
   </g>
  </g>
  <g id="_2391678465440">
   <g>
    <path class="fil6" d="M12350 12815l307 -6215c0,0 -57,-206 364,-206 421,0 -10,243 780,243 148,0 249,18 319,47l0 3671c-416,940 -1022,1776 -1770,2460z"/>
    <path class="fil7" d="M13305 11756l74 -4873 130 4583c-66,99 -134,195 -204,290z"/>
    <polygon class="fil7" points="13484,6680 13541,10449 13608,6699 "/>
    <path class="fil6" d="M13708 6734l-8 4430c53,-87 104,-176 153,-266l-16 -4136 -129 -28z"/>
   </g>
   <g>
    <path class="fil6" d="M1698 12081l0 -6356 0 -48c12,-59 77,-151 364,-151 421,0 -11,235 780,235 790,0 249,475 639,616 390,141 16,488 406,501 390,13 655,-26 655,135 0,76 75,73 154,70 87,-3 179,-6 179,97 0,142 -22,224 354,259l0 6731 -721 0c-1097,-463 -2060,-1185 -2810,-2089z"/>
    <polygon class="fil7" points="3237,13332 3403,6542 3613,13218 "/>
    <path class="fil7" d="M2313 12737l107 -6739 206 7017c-107,-90 -211,-182 -313,-278z"/>
    <polygon class="fil7" points="3751,13188 3651,10093 3894,10184 4052,13197 "/>
    <polygon class="fil7" points="3665,9904 3522,6954 3851,9976 "/>
    <polygon class="fil7" points="4524,7134 4624,10075 4724,7134 "/>
    <polygon class="fil7" points="3494,6503 3737,8402 3587,6602 "/>
    <polygon class="fil7" points="4317,6963 4474,8009 4424,6981 "/>
    <polygon class="fil7" points="2525,5802 2582,9435 2649,5820 "/>
    <polygon class="fil6" points="3708,6927 4180,13206 4367,13206 "/>
    <path class="fil6" d="M2749 5853l-14 7253c53,42 105,84 159,125l13 -7 -29 -7344 -129 -27z"/>
   </g>
   <g>
    <path class="fil6" d="M8154 6811c811,-143 946,-299 946,-476 0,-145 -42,-144 98,-142 31,0 70,0 121,-1 281,-7 -5,-187 374,-275 380,-89 583,-82 531,-269 -52,-187 395,-211 894,-272 499,-61 874,808 967,669 94,-140 832,-327 832,214l0 5977c-579,661 -1275,1217 -2055,1636l-6976 0c-298,-160 -583,-340 -854,-538 76,-2473 -97,-5083 89,-7534 43,-574 855,-464 873,-787 0,0 -57,-206 364,-206 421,0 -10,243 780,243 790,0 250,493 640,639 390,146 15,506 405,520 390,14 655,-27 655,140 0,79 76,76 155,73 87,-4 178,-7 178,100 0,204 -41,289 983,289z"/>
    <polygon class="fil7" points="5533,12903 5699,5860 5909,12785 "/>
    <polygon class="fil7" points="4597,13087 4716,5296 4931,12894 "/>
    <polygon class="fil7" points="10577,13141 10456,5642 9740,12903 10084,12950 10341,9787 10370,12988 "/>
    <path class="fil7" d="M12028 13094l-84 -6582 -140 6757c76,-57 150,-115 224,-175z"/>
    <polygon class="fil7" points="11729,6231 11658,10499 11386,10424 "/>
    <polygon class="fil7" points="11357,10592 11715,10723 11658,13334 11300,13334 "/>
    <polygon class="fil7" points="6047,12754 5947,9544 6191,9638 6348,12763 "/>
    <polygon class="fil7" points="5962,9348 5818,6288 6148,9422 "/>
    <polygon class="fil7" points="8996,6699 8824,10152 8781,6793 "/>
    <polygon class="fil7" points="6820,6475 6921,9525 7021,6475 "/>
    <polygon class="fil7" points="12207,6018 12054,8351 12436,5955 "/>
    <polygon class="fil7" points="10556,5542 10594,6946 10794,5467 "/>
    <polygon class="fil7" points="10836,5538 11227,5482 10931,5601 "/>
    <polygon class="fil7" points="11171,5544 11749,5801 11431,5600 "/>
    <polygon class="fil7" points="11991,6216 12152,6031 11794,6270 "/>
    <polygon class="fil7" points="5790,5820 6033,7790 5883,5923 "/>
    <polygon class="fil7" points="6613,6297 6770,7382 6720,6316 "/>
    <polygon class="fil7" points="4821,5093 4879,8861 4945,5112 "/>
    <polygon class="fil6" points="6004,6260 6477,12773 6663,12773 "/>
    <polygon class="fil6" points="5046,5146 5031,12885 5203,12791 5174,5174 "/>
   </g>
   <path class="fil8" d="M5849 14590c64,-13 -7,-26 -173,-39 -913,-215 -1760,-600 -2507,-1119l0 -49c1102,0 1324,-113 1324,-113l0 -81c5613,-88 6876,175 7094,237 -1194,833 -2646,1322 -4213,1322 -523,0 -1033,-55 -1525,-158z"/>
   <path class="fil9" d="M11087 13746c-89,-13 -214,-22 -395,-25 -1228,-20 1134,321 -1309,328 -2442,7 -255,-236 -2226,-256 -1970,-20 -2281,249 -1985,-65 285,-302 -185,-75 -1669,-77 -114,-70 -225,-143 -334,-219l0 -49c1102,0 1324,-113 1324,-113l0 -81c5613,-88 6876,175 7094,237 -162,113 -329,220 -500,320z"/>
   <path class="fil8" d="M9255 13579l-2836 0c0,0 398,-500 83,-723 -315,-224 414,-120 27,-573 -249,-294 453,-432 298,-541 -154,-109 -243,-166 0,-348 243,-183 -89,-422 100,-730 188,-306 139,-2635 139,-3288 0,-111 -2,-204 -2,-282 2,-377 66,-391 738,-391 558,0 691,59 691,59l13 300c34,798 114,2932 42,3311 -88,469 -175,948 319,1229 497,280 -285,489 89,770 377,281 -274,427 45,624 319,198 254,583 254,583z"/>
   <path class="fil9" d="M6614 12888c219,-158 272,-230 246,-420 -27,-191 -54,-276 107,-79 162,197 108,532 216,322 108,-210 203,-539 216,-328 14,209 -135,446 68,282 202,-164 256,-374 243,-230 -14,144 526,262 432,-39 -95,-302 553,-355 310,-558 -243,-203 324,6 243,203 -81,197 -540,138 -338,342 203,203 567,65 351,406 -216,341 -1916,328 -1916,328l-178 -229z"/>
   <path class="fil10" d="M3882 13444c-72,-59 -53,-135 45,-186 98,-50 253,-62 380,-31 -16,-19 -8,-41 19,-57 28,-16 71,-23 113,-19 42,4 76,19 88,39 -14,-115 120,-223 336,-269 217,-47 470,-23 635,60 66,-94 252,-155 454,-148 203,6 372,78 412,174 22,-61 123,-109 250,-119 127,-10 253,21 313,76 20,-38 87,-67 168,-71 82,-4 160,17 196,53 115,-162 406,-278 754,-302 347,-24 693,49 895,188 145,-36 321,-20 429,39 108,59 120,146 29,211 80,-20 177,-17 251,9 73,25 111,69 97,112 75,-61 228,-89 367,-66 139,23 227,89 212,160 152,18 274,74 320,147l-6763 0z"/>
   <path class="fil11" d="M10156 13579c51,-43 38,-96 -32,-131 -69,-36 -178,-45 -267,-22 11,-14 5,-30 -14,-41 -19,-11 -50,-16 -79,-13 -30,3 -54,13 -63,27 11,-81 -84,-157 -236,-189 -153,-33 -331,-16 -448,42 -46,-66 -177,-109 -320,-104 -143,4 -261,54 -290,122 -15,-43 -86,-77 -176,-84 -89,-6 -178,15 -220,54 -14,-27 -62,-47 -119,-50 -57,-3 -112,12 -138,37 -81,-114 -286,-196 -531,-212 -245,-17 -488,34 -631,132 -102,-25 -226,-14 -302,27 -76,42 -85,103 -21,150 -56,-15 -124,-13 -176,5 -52,18 -79,49 -68,79 -53,-43 -161,-62 -259,-46 -98,16 -160,63 -150,113 -107,13 -193,52 -225,104l4765 0z"/>
   <path class="fil9" d="M8506 7073c-99,-112 -180,-68 -188,336 -28,1135 -326,781 -271,191 53,-592 -256,-421 -270,-165 -13,256 -189,781 -229,263 -40,-519 -203,-539 -190,-355 8,116 -146,-166 -294,-237 2,-388 66,-403 738,-403 558,0 691,61 691,61l13 309z"/>
   <path class="fil12" d="M8262 10806c-63,0 -265,-1330 -168,-2173 31,-266 53,-383 71,-383 51,0 59,1031 112,2282 8,192 0,274 -15,274z"/>
   <path class="fil12" d="M7314 11121c-94,0 -43,-1973 18,-3069 0,-10 1,-15 2,-15 22,0 141,2599 11,3027 -11,39 -22,57 -31,57z"/>
   <path class="fil12" d="M7616 9687c-65,0 -117,-772 -41,-1432 7,-64 26,-103 47,-103 57,0 133,276 74,1081 -23,323 -53,454 -80,454z"/>
   <g>
    <path class="fil6" d="M129 5994c71,40 211,72 532,72 879,0 278,475 711,616 434,141 17,488 451,501 433,13 728,-26 728,135 0,76 84,73 172,70 96,-3 198,-6 198,97 0,142 -24,224 394,259l0 5787c-1997,-1320 -3315,-3584 -3315,-6157 0,-472 45,-933 129,-1380z"/>
    <path class="fil7" d="M1163 11350l122 -4503 172 4928c-103,-138 -201,-280 -294,-425z"/>
    <path class="fil7" d="M148 8848l44 -2545 103 3140c-57,-195 -107,-393 -147,-595z"/>
    <path class="fil7" d="M1618 11982l-57 -1583 270 90 109 1869c-112,-122 -219,-247 -322,-376z"/>
    <polygon class="fil7" points="1577,10209 1417,7259 1783,10281 "/>
    <polygon class="fil7" points="2531,7439 2643,10380 2754,7439 "/>
    <polygon class="fil7" points="1386,6808 1656,8707 1489,6907 "/>
    <polygon class="fil7" points="2300,7268 2475,8315 2420,7286 "/>
    <polygon class="fil7" points="309,6107 372,9691 374,9696 447,6125 "/>
    <path class="fil6" d="M1624 7232l440 5258c64,67 129,132 196,196l-636 -5454z"/>
    <path class="fil6" d="M558 6158l-8 4014c53,130 110,258 171,385l-19 -4372 -144 -27z"/>
   </g>
   <g>
    <path class="fil6" d="M13494 11488l0 -5458 0 -48c14,-59 86,-151 405,-151 442,0 39,209 733,233 76,425 116,863 116,1310 0,1524 -462,2939 -1254,4114z"/>
    <path class="fil7" d="M14230 10093l67 -3790 108 3300c-53,166 -111,330 -175,490z"/>
    <path class="fil7" d="M14414 6107l57 3275c5,-18 10,-36 15,-54l66 -3203 -138 -18z"/>
    <path class="fil6" d="M14663 6250l-5 2277c59,-375 90,-761 90,-1153 0,-382 -29,-758 -85,-1124z"/>
   </g>
  </g>
 </g>
</svg>
