<?xml version="1.0" encoding="UTF-8"?>
<!DOCTYPE svg PUBLIC "-//W3C//DTD SVG 1.1//EN" "http://www.w3.org/Graphics/SVG/1.1/DTD/svg11.dtd">
<!-- Creator: CorelDRAW X7 -->
<svg xmlns="http://www.w3.org/2000/svg" xml:space="preserve" width="1.9685in" height="1.9685in" version="1.1" style="shape-rendering:geometricPrecision; text-rendering:geometricPrecision; image-rendering:optimizeQuality; fill-rule:evenodd; clip-rule:evenodd"
viewBox="0 0 1055 1055"
 xmlns:xlink="http://www.w3.org/1999/xlink">
 <defs>
  <style type="text/css">
   <![CDATA[
    .fil2 {fill:#2C7B4D}
    .fil3 {fill:#94BF82}
    .fil1 {fill:#A3D690}
    .fil0 {fill:#CDECF7}
   ]]>
  </style>
 </defs>
 <g id="Layer_x0020_1">
  <metadata id="CorelCorpID_0Corel-Layer"/>
  <g id="_2356038744464">
   <circle class="fil0" cx="528" cy="528" r="528"/>
   <g>
    <path class="fil1" d="M46 744c27,-19 51,-29 70,-26 105,17 62,-47 179,-9 0,0 346,-259 447,-244 102,15 253,225 253,225 0,0 19,-14 43,-29 -58,223 -258,388 -497,394 -91,-2 -177,-23 -255,-58 -106,-55 -191,-144 -240,-253z"/>
    <g>
     <path class="fil2" d="M210 542c1,6 5,20 0,20l0 4 -1 0c0,-2 0,-3 0,-4 -4,0 0,-13 1,-20z"/>
     <path class="fil2" d="M238 554c1,5 5,19 1,19l0 4 -1 0c0,-2 0,-3 0,-4 -5,0 -1,-13 0,-19z"/>
    </g>
    <g>
     <path class="fil2" d="M800 397c1,6 5,19 1,19l0 4 -1 0c0,-1 0,-2 0,-4 -5,0 -1,-13 0,-19z"/>
     <path class="fil2" d="M849 426c1,5 5,19 1,19l0 4 -1 0c0,-1 0,-3 0,-4 -5,0 -1,-13 0,-19z"/>
     <path class="fil2" d="M785 389c1,6 5,19 1,19l0 4 -1 0c0,-1 0,-2 0,-4 -5,0 -1,-13 0,-19z"/>
    </g>
    <g>
     <g>
      <path class="fil2" d="M541 380c-1,6 -5,19 -1,19l0 4 1 0c0,-1 0,-3 0,-4 5,0 1,-13 0,-19z"/>
      <path class="fil2" d="M532 385c-1,6 -5,19 0,19l0 4 1 0c0,-1 0,-2 0,-4 5,0 0,-13 -1,-19z"/>
      <path class="fil2" d="M516 397c-1,6 -5,19 0,19l0 4 1 0c0,-1 0,-2 0,-4 5,0 0,-13 -1,-19z"/>
     </g>
     <path class="fil2" d="M438 454c-1,6 -5,19 -1,19l0 4 1 0c0,-1 0,-2 0,-4 5,0 1,-12 0,-19z"/>
     <path class="fil2" d="M378 501c-1,5 -5,19 -1,19l0 4 2 0c0,-1 0,-3 0,-4 4,0 0,-13 -1,-19z"/>
    </g>
    <path class="fil1" d="M1 558c30,-18 58,-28 79,-26 95,12 112,36 218,61 0,0 256,-239 348,-229 91,9 228,150 228,150 0,0 87,-50 126,-39 13,3 32,18 55,37 0,5 0,10 0,16 0,94 -24,182 -68,258l-919 0c-39,-68 -62,-145 -67,-228z"/>
    <path class="fil3" d="M656 365c0,0 104,92 134,152 26,52 94,198 154,334 41,-53 72,-113 91,-179 -118,-168 -253,-311 -379,-307z"/>
    <path class="fil3" d="M80 532c312,38 452,223 667,475 -43,20 -90,35 -139,42 -89,-117 -291,-376 -378,-435 -32,-22 -150,-82 -150,-82z"/>
    <path class="fil3" d="M1000 475c18,9 37,22 55,36 0,-5 -1,-11 -1,-17 -32,-13 -54,-19 -54,-19z"/>
    <path class="fil2" d="M58 643c-3,18 -16,62 -2,62l0 13 4 0c0,-4 0,-9 0,-13 15,0 1,-42 -2,-62z"/>
    <path class="fil2" d="M638 946c-4,25 -23,87 -3,87l0 11c1,0 3,-1 5,-1l0 -10c22,0 2,-59 -2,-87z"/>
    <path class="fil2" d="M688 931c-11,42 -39,100 -8,102 10,-3 19,-6 28,-9 7,-18 -12,-58 -20,-93z"/>
    <path class="fil2" d="M842 586c-3,19 -17,64 -3,64l0 14 5 0c0,-5 0,-9 0,-14 16,0 1,-43 -2,-64z"/>
    <path class="fil2" d="M809 525c-4,19 -17,64 -3,64l0 14 4 0c0,-5 0,-9 0,-14 16,0 2,-43 -1,-64z"/>
    <path class="fil2" d="M899 494c-3,19 -16,64 -2,64l0 13 4 0c0,-4 0,-9 0,-13 16,0 2,-43 -2,-64z"/>
    <path class="fil2" d="M869 472c-3,19 -17,64 -3,64l0 14 4 0c0,-5 0,-9 0,-14 16,0 2,-43 -1,-64z"/>
    <path class="fil2" d="M957 569c-3,19 -17,64 -3,64l0 13 5 0c0,-4 0,-9 0,-13 16,0 1,-43 -2,-64z"/>
    <path class="fil2" d="M16 654c0,1 0,2 0,3 1,5 3,11 4,16 -1,-7 -3,-14 -4,-19z"/>
    <path class="fil2" d="M97 662c-4,26 -23,87 -3,87l0 18 5 0c0,-6 0,-12 0,-18 22,0 3,-58 -2,-87z"/>
    <path class="fil2" d="M137 678c-3,21 -19,71 -3,71l0 15 5 0c0,-5 0,-10 0,-15 18,0 2,-48 -2,-71z"/>
    <path class="fil2" d="M456 557c-2,11 -10,37 -2,37l0 8 3 0c0,-3 0,-5 0,-8 9,0 1,-25 -1,-37z"/>
    <path class="fil2" d="M435 563c-3,17 -15,56 -2,56l0 11 3 0c0,-4 0,-8 0,-11 14,0 2,-38 -1,-56z"/>
    <path class="fil2" d="M404 574c-1,9 -8,31 -1,31l0 6 2 0c0,-2 0,-4 0,-6 7,0 1,-21 -1,-31z"/>
    <path class="fil2" d="M999 693c-7,32 -30,77 -4,77l0 3c6,-12 12,-24 17,-37 -3,-13 -9,-28 -13,-43z"/>
   </g>
  </g>
 </g>
</svg>
