<?xml version="1.0" encoding="UTF-8"?>
<!DOCTYPE svg PUBLIC "-//W3C//DTD SVG 1.1//EN" "http://www.w3.org/Graphics/SVG/1.1/DTD/svg11.dtd">
<!-- Creator: CorelDRAW X7 -->
<svg xmlns="http://www.w3.org/2000/svg" xml:space="preserve" width="1.9685in" height="1.9685in" version="1.1" style="shape-rendering:geometricPrecision; text-rendering:geometricPrecision; image-rendering:optimizeQuality; fill-rule:evenodd; clip-rule:evenodd"
viewBox="0 0 1969 1969"
 xmlns:xlink="http://www.w3.org/1999/xlink">
 <defs>
  <style type="text/css">
   <![CDATA[
    .fil4 {fill:#2E4C5E}
    .fil3 {fill:#94DFFB}
    .fil7 {fill:#9AE8FE}
    .fil8 {fill:#C5F2FE}
    .fil0 {fill:#F9F6F1}
    .fil2 {fill:#FEBC52}
    .fil6 {fill:#FFE58B}
    .fil1 {fill:#FFECA9}
    .fil5 {fill:url(#id0)}
   ]]>
  </style>
  <linearGradient id="id0" gradientUnits="userSpaceOnUse" x1="1071.36" y1="695.508" x2="1071.36" y2="310.094">
   <stop offset="0" style="stop-opacity:1; stop-color:#FFEB9A"/>
   <stop offset="0.721569" style="stop-opacity:1; stop-color:#FFF5CC"/>
   <stop offset="1" style="stop-opacity:1; stop-color:white"/>
  </linearGradient>
 </defs>
 <g id="Layer_x0020_1">
  <metadata id="CorelCorpID_0Corel-Layer"/>
  <circle class="fil0" cx="984" cy="984" r="984"/>
  <path class="fil1" d="M1734 1622c-181,212 -450,347 -750,347 -482,0 -884,-348 -968,-806 129,-26 308,-58 234,33 -86,105 -59,150 111,127 136,-19 280,-123 272,34 -2,29 190,-20 213,26 25,50 -29,78 69,118 41,17 382,-87 323,8 -44,70 -102,186 135,164 59,-5 159,20 284,7 27,-18 53,-37 77,-58z"/>
  <path class="fil2" d="M984 0c544,0 985,441 985,984 0,35 -2,70 -6,104 -3,-17 -6,-35 -10,-52 -262,-40 -556,-63 -866,-63 -75,0 -149,1 -222,4 -22,0 -45,1 -67,2 -15,1 -29,2 -43,3 -271,14 -525,47 -747,93 -1,4 -2,9 -3,13 -3,-34 -5,-69 -5,-104 0,-543 441,-984 984,-984z"/>
  <path class="fil3" d="M1665 1695c-119,9 -249,-7 -304,-2 -237,21 -184,-104 -140,-174 59,-94 -285,17 -326,0 -97,-40 -44,-86 -68,-136 -23,-46 -196,3 -194,-26 8,-157 -136,-53 -272,-34 -170,23 -197,-22 -111,-127 74,-91 -105,-59 -234,-33 -5,-31 -10,-62 -12,-93 310,-63 734,-97 1083,-97 349,0 621,26 880,66 -14,258 -127,489 -302,656z"/>
  <path class="fil3" d="M1067 981c11,13 -4,88 -8,100 -11,44 -26,55 -36,82 -114,-8 -118,32 -140,43 -24,-27 -78,-64 -144,-73 -65,-9 -91,18 -110,52 -9,15 -12,12 -24,25 -6,-4 -21,-26 -36,-41l-44 -38c43,-5 98,-3 137,-9 -13,-5 -32,-1 -43,-7 20,-7 150,-15 183,-17l-80 -4c-1,-1 -2,-1 -3,-1l-7 -3c20,-5 75,-10 101,-11 12,-1 24,0 32,-5 -29,-8 -67,-6 -102,-8 7,-7 3,-5 17,-8 42,-9 97,-12 140,-14 -9,-15 -114,-7 -137,-15 23,-11 146,-6 170,-15 -44,-6 -148,-7 -158,-13 37,-9 248,-15 292,-8l0 -12 -18 -1c-8,2 -15,2 -24,1 -4,0 -9,0 -13,-1 -10,-2 -6,-1 -9,-2l46 2c12,-1 8,-2 18,1z"/>
  <path class="fil4" d="M1410 990c-18,-8 -11,-6 -34,-3l-85 -6c-131,-6 -268,-4 -399,4 -133,9 -250,30 -378,42 11,-25 75,-72 97,-90 25,-19 45,-29 77,-36 56,-11 108,7 175,6 94,-3 279,-53 336,-105 4,-1 7,-3 8,-5 19,-8 32,-13 41,-24 34,-18 59,-23 108,-34l7 0 2 -2c31,0 58,-15 85,-23 4,-1 2,-2 5,-2l1 3c124,-41 178,133 264,105 85,-28 98,-120 203,-131 30,93 46,192 46,295 0,27 -2,53 -4,79 -141,-32 -327,-63 -433,-66l-1 -5c-30,5 -98,-18 -121,-2z"/>
  <circle class="fil5" cx="1071" cy="503" r="193"/>
  <path class="fil6" d="M1826 475c-2,0 -5,0 -8,0 -60,0 -101,-2 -150,25 -92,49 -96,10 -162,33 -16,6 -74,3 -9,24 20,6 126,-13 163,-13 84,2 109,-18 206,11 1,1 3,1 5,2 -14,-28 -28,-56 -45,-82z"/>
  <path class="fil6" d="M282 295c18,4 37,9 56,16 215,70 226,15 381,47 39,8 175,4 23,34 -49,10 -299,-18 -387,-17 -56,0 -100,-2 -141,-4 21,-26 44,-52 68,-76z"/>
  <g id="_2391692467696">
   <path class="fil4" d="M224 975c17,31 22,47 16,50l69 -8c-5,0 -11,0 -18,1 -6,-22 -14,-31 -21,-67 -1,-6 -5,-32 -6,-53 -4,-23 1,-56 13,-98l0 0c4,-21 28,-58 37,-73l2 -1 2 -2 1 -2c0,-3 -1,-3 2,-2l16 -19 2 -2 2 -2 2 -1 2 -2 2 -2 7 -3 -2 36c4,-3 2,-2 7,-3l-4 11c-2,9 -8,18 -13,22 1,4 4,2 5,8l-11 21 -4 11 6 -3c3,-1 2,-1 6,-2 1,11 1,2 -2,6 -9,13 -12,16 -22,25 0,0 -3,3 -9,8 0,0 5,-1 17,-3 5,-4 17,-7 25,-11 9,-5 13,-11 20,-15l-1 14c6,-2 14,-13 17,-19 2,-5 2,-5 5,-10l7 9c1,-3 1,-7 1,-10l3 -7 3 -24 8 0 -4 -33c4,-3 1,3 7,-7 4,7 9,18 9,29l4 6c0,0 1,-1 5,-1l2 5 9 32 6 -10 2 7c1,6 1,10 1,17 0,9 0,9 -1,16 7,-7 8,-10 11,-21 2,-9 3,-16 3,-26 8,3 1,5 10,9l0 -18 0 -3 -3 -11 12 2c-4,-6 -16,-20 -19,-29 -4,0 -3,1 -2,-3 -3,1 -2,1 -1,-2 -2,-1 -2,0 -4,-2 14,0 4,0 7,-3 -25,-30 -37,-25 -42,-37 13,3 25,14 31,21l7 -3c4,-1 3,-1 2,2 4,-1 3,-2 3,1 5,0 2,-1 3,3 3,-1 3,-2 3,1l20 12c-1,-1 -1,-5 -1,-6 0,-6 -2,-1 2,-6l25 28 -6 -23 -14 -23 13 3c-6,-11 -13,-17 -23,-22l9 -8 -35 -8 -6 -2c1,-3 0,-1 2,-3l3 -4c-22,-2 -30,-1 -51,0l10 -22 2 -14 1 0c0,-12 -5,-27 -14,-44l-1 -1 -3 -5c-3,-4 -4,-7 -6,-10 -2,-4 -4,-7 -7,-11l-2 15c-5,-5 -2,0 -3,-5 -7,-7 -10,-12 -18,-18 -7,-5 -16,-9 -23,-13 -7,5 -6,-7 -5,4l3 3 2 2c6,10 9,15 13,28l-12 -8c0,14 6,18 5,20 8,23 11,39 8,48l1 2c1,2 2,3 2,7 -1,11 0,3 -3,6l-1 -4 -1 -2c-4,2 -2,-1 -3,5l-4 9 -3 -14 -2 -10c-4,-10 -15,-23 -33,-41 -1,-2 -3,-4 -9,-7l-1 8 -40 -22 4 13c-12,-2 -25,-3 -36,0l13 8c-20,7 -46,12 -56,32 12,-4 30,-6 43,-3 0,0 2,4 7,12 4,-5 17,-5 39,0 0,0 -4,2 -11,7l23 7c4,1 7,2 16,5 6,4 8,3 11,9l-15 -2c-4,-1 -4,-2 -5,-3l-14 0c3,7 -1,1 4,7l-42 3 0 0 -2 1 7 8c-6,4 -17,7 -29,19l15 1c-5,6 -9,10 -15,18 -5,7 -7,13 -11,22l-4 16c11,-8 18,-19 36,-25 -2,5 -4,7 -5,13l9 -3 27 -13c2,2 0,-1 2,3 4,7 -1,-1 2,3 8,-6 23,-14 37,-15 0,1 -1,0 -3,7l7 1c-2,4 0,1 -3,4l-30 32c-3,6 -10,14 -13,18 -3,6 -7,12 -10,17l-18 38c-10,24 -17,49 -21,73l0 8c-4,30 -5,64 -3,95z"/>
   <path class="fil4" d="M226 1024c-23,43 4,35 -57,28 3,0 7,0 12,1 4,-15 10,-21 14,-45 1,-4 4,-21 4,-35 3,-16 -1,-38 -9,-66l0 0c-3,-14 -19,-38 -24,-49l-2 0 -1 -2 -1 -1c0,-2 1,-2 -1,-1l-11 -13 -1 -1 -1 -1 -2 -1 -1 -2 -1 -1 -5 -2 1 24c-2,-2 -1,-1 -5,-2l3 8c2,5 6,11 9,14 -1,3 -3,2 -3,5l7 15 3 7 -4 -2c-2,-1 -2,-1 -4,-1 -1,7 -1,1 1,4 6,8 8,10 15,16 0,0 2,2 6,5 0,0 -4,0 -11,-2 -4,-2 -12,-4 -17,-7 -6,-3 -9,-7 -14,-10l1 10c-4,-2 -10,-9 -12,-13 -1,-4 -1,-3 -2,-7l-6 6c0,-2 0,-5 0,-6l-2 -5 -2 -16 -5 0 2 -22c-3,-2 -1,2 -5,-5 -2,5 -6,12 -6,20l-2 4c0,0 -1,-1 -3,-1l-2 3 -6 21 -4 -6 -1 4c-1,5 -1,7 -1,12 0,6 0,6 1,10 -5,-4 -5,-6 -7,-13 -2,-6 -2,-11 -3,-18 -5,2 0,4 -7,6l1 -12 0 -2 2 -7 -8 1c3,-4 11,-14 12,-19 3,0 2,0 2,-2 2,0 1,0 1,-2 1,0 1,0 2,-1 -9,0 -2,0 -4,-2 16,-20 24,-17 28,-25 -9,2 -17,10 -21,15l-5 -2c-2,-1 -2,-2 -1,1 -3,-1 -2,-2 -2,0 -3,1 -2,0 -2,2 -2,0 -2,-1 -2,1l-13 8c0,0 0,-4 0,-4 0,-4 2,-1 -1,-4l-17 19 4 -16 10 -15 -9 2c4,-7 8,-11 15,-15l-6 -5 23 -5 5 -2c-1,-1 -1,0 -2,-2l-2 -2c15,-2 20,-1 34,-1l-6 -14 -2 -9 0 0c0,-9 3,-18 9,-30l1 0 1 -4c3,-2 3,-5 4,-7 2,-2 3,-4 5,-7l1 11c4,-4 2,-1 3,-4 4,-5 6,-8 12,-12 4,-3 11,-6 15,-9 5,3 4,-5 3,3l-2 2 -1 1c-4,7 -6,10 -9,19l8 -5c0,9 -4,12 -3,13 -5,15 -7,26 -5,32l-1 1c-1,2 -1,2 -1,5 0,7 0,2 1,4l1 -3 1 -1c3,1 1,-1 2,3l3 6 1 -9 2 -7c3,-6 10,-15 22,-27 1,-1 2,-3 6,-4l1 4 26 -14 -2 8c7,-1 17,-1 24,0l-9 6c13,4 31,8 38,21 -8,-2 -21,-4 -29,-2 0,0 -2,3 -5,8 -3,-3 -12,-3 -26,0 0,0 2,2 7,5l-15 5c-3,0 -5,1 -11,3 -4,3 -5,2 -7,6l10 -1c3,-1 2,-2 3,-2l9 0c-1,4 1,0 -2,4l28 2 0 0 2 1 -5 5c4,3 11,5 19,13l-10 1c3,4 6,7 10,12 4,4 5,9 8,14l2 11c-7,-5 -12,-13 -24,-17 1,4 3,5 4,9l-6 -2 -19 -9c-1,2 0,0 -1,3 -3,4 1,-1 -1,2 -6,-4 -15,-10 -25,-11 0,1 1,1 2,5l-5 1c2,2 1,1 2,2l21 22c2,4 6,9 8,12 2,4 5,8 7,11l12 26c6,16 11,32 14,48l-1 6c4,19 4,43 3,63z"/>
  </g>
  <path class="fil6" d="M788 772c-20,-1 -36,-15 -79,-15 -32,0 -54,-1 -80,16 -48,31 -50,7 -85,21 -9,4 -39,2 -5,15 11,4 67,-8 86,-8 45,1 58,-11 109,7 20,7 197,2 203,-20 1,-6 -130,3 -134,-7 -4,-1 -21,-9 -15,-9z"/>
  <path class="fil7" d="M1768 1019l34 5 -2 24c-80,-21 -479,-45 -550,-33 19,13 214,32 295,50 -47,15 -276,-16 -322,2 41,20 240,22 255,51 -82,-2 -185,-5 -265,6 -27,4 -20,0 -33,11 64,10 136,13 190,34 -15,8 -38,5 -61,4 -49,-2 -153,-2 -192,4l14 8c1,0 3,1 4,2l151 22c-62,-2 -308,-9 -348,3 20,13 57,7 81,20 -75,4 -177,-8 -260,-4 -18,-7 -26,-20 -45,-30 -17,-9 -37,-15 -50,-24l-17 -11c23,-3 65,-7 76,-17 -54,-7 -88,5 -170,-1 -22,-1 -40,1 -56,-9l230 -49c-55,4 -110,7 -166,10 -44,3 -138,14 -178,4l1 0c7,-16 -11,-7 51,-22 51,-12 169,-27 191,-38 -22,-10 -154,10 -191,15 -13,1 -21,3 -32,5l-31 -2c10,-17 82,-30 86,-30 -58,-6 -69,22 -100,1l0 -7c75,-7 196,-35 269,-32l9 1c36,-9 89,-9 133,-11 39,-2 83,-6 125,-9 130,2 250,-3 385,2 133,6 271,16 403,33 6,2 -1,1 17,6 8,2 16,4 24,5 16,2 31,3 45,1z"/>
  <path class="fil8" d="M1452 998l19 2 -1 13c-43,-11 -255,-24 -292,-17 10,7 113,17 156,26 -25,8 -146,-8 -170,1 21,11 127,12 135,28 -44,-2 -98,-4 -140,2 -15,2 -11,1 -18,6 34,6 72,7 101,18 -8,5 -21,3 -33,2 -26,-1 -81,0 -101,3l7 4c1,0 1,0 2,1l80 11c-33,0 -163,-4 -184,2 10,7 30,4 42,11 -39,2 -93,-5 -137,-3 -9,-3 -14,-10 -24,-15 -9,-5 -20,-8 -27,-13l-9 -6c13,-2 35,-4 41,-9 -29,-4 -47,3 -90,0 -12,-1 -21,0 -30,-5l122 -26c-29,2 -58,3 -88,5 -23,2 -73,8 -94,3l0 -1c4,-8 -6,-3 27,-11 27,-7 89,-15 101,-20 -12,-6 -81,5 -101,7 -7,1 -11,2 -17,3l-16 -1c5,-9 43,-16 45,-16 -30,-3 -36,12 -53,1l0 -4c40,-4 104,-19 143,-17l4 1c20,-5 48,-5 71,-6 21,-1 44,-3 67,-5 68,1 132,-2 203,1 71,3 144,9 214,17 3,2 -1,1 9,4 4,1 8,2 13,2 8,1 16,2 23,1z"/>
  <path class="fil4" d="M258 978l-2 0 0 0c-34,-14 -24,-7 -55,8 -24,11 -41,-8 -54,-17 -6,0 -5,1 -4,-4l-4 -2 -4 -2c-6,1 -5,2 -3,-3l-12 -7c-8,-7 -3,-6 -19,-17l-10 -10c-7,-6 -2,-3 -9,-5 -29,-10 -48,16 -68,30 -4,4 -9,7 -14,11 0,8 0,16 0,24 0,45 3,89 9,132 1,0 2,-1 4,-1 47,-17 94,-40 145,-38 7,0 33,-3 33,-10l5 0c28,-13 153,5 186,-11 -18,-23 -68,-17 -79,-51 -8,-5 -27,-15 -28,-16 -11,-3 -11,-8 -17,-11z"/>
 </g>
</svg>
