<?xml version="1.0" encoding="UTF-8"?>
<!DOCTYPE svg PUBLIC "-//W3C//DTD SVG 1.1//EN" "http://www.w3.org/Graphics/SVG/1.1/DTD/svg11.dtd">
<!-- Creator: CorelDRAW X7 -->
<svg xmlns="http://www.w3.org/2000/svg" xml:space="preserve" width="1.9685in" height="1.9685in" version="1.1" style="shape-rendering:geometricPrecision; text-rendering:geometricPrecision; image-rendering:optimizeQuality; fill-rule:evenodd; clip-rule:evenodd"
viewBox="0 0 1107 1107"
 xmlns:xlink="http://www.w3.org/1999/xlink">
 <defs>
  <style type="text/css">
   <![CDATA[
    .fil4 {fill:#7E6036}
    .fil3 {fill:#745B35}
    .fil2 {fill:#5E4A2F}
    .fil1 {fill:#7DB358}
    .fil10 {fill:#70A14C}
    .fil9 {fill:#62BB51}
    .fil5 {fill:#354232}
    .fil8 {fill:#4B8D4B}
    .fil7 {fill:#407443}
    .fil6 {fill:#3B5F3B}
    .fil0 {fill:#CDECF7}
   ]]>
  </style>
 </defs>
 <g id="Layer_x0020_1">
  <metadata id="CorelCorpID_0Corel-Layer"/>
  <g id="_2391692413552">
   <circle class="fil0" cx="553" cy="553" r="553"/>
   <path class="fil1" d="M959 929c-153,-78 -457,-191 -921,-174 64,162 202,288 373,333l285 0c102,-27 193,-83 263,-159z"/>
   <g>
    <path class="fil2" d="M940 786l-17 -116c-1,-4 -1,-8 1,-13l8 -30 -59 0 -1 0 9 30c2,4 2,9 1,14l-19 114c-1,3 -1,5 -1,7l48 0 30 0c0,-2 0,-4 0,-6z"/>
    <path class="fil2" d="M940 786l-17 -116c-1,-4 -1,-8 1,-13l8 -30 -59 0c21,19 59,68 37,165l30 0c0,-2 0,-4 0,-6z"/>
    <path class="fil3" d="M882 672l-19 113c-1,3 -1,5 -1,7l31 0c20,-83 3,-111 -11,-120z"/>
    <path class="fil4" d="M873 627l-1 0 9 30c2,4 2,9 1,14l0 1c14,9 31,37 11,120l17 0c22,-97 -16,-146 -37,-165z"/>
    <path class="fil5" d="M1024 631c-1,-4 1,-8 4,-6 7,3 18,6 26,0 0,0 -41,-16 -51,-90l-64 0 0 0 -126 -13 0 0c-3,9 -35,84 -69,103l12 0c3,-1 5,4 4,7l-2 18c0,0 13,-15 27,-18 2,0 5,3 4,6 -2,13 -2,25 1,33 0,0 8,-11 18,-23l0 0c2,-2 5,-1 6,2l1 2c3,8 10,20 25,24 0,0 -4,-12 -7,-25 0,-2 -1,-4 -1,-6l0 0c0,-3 3,-5 4,-2 2,5 8,17 16,36 0,0 1,-24 9,-36l1 2c-2,24 5,38 5,38 5,-29 19,-36 19,-36 9,-2 17,38 17,38 0,-6 1,-11 1,-16l0 0c6,-41 14,-28 14,-28 0,0 1,4 3,10 6,15 18,43 31,49 0,0 -12,-25 -11,-43 1,-6 3,-11 7,-13 1,-1 3,-2 4,-2l2 0c3,0 6,6 8,26l0 4c1,5 1,10 1,17 0,0 9,-40 17,-37 0,0 14,9 16,38 0,0 8,-13 7,-37 0,-4 3,-6 5,-4 13,9 44,29 53,0 0,0 -24,16 -37,-18z"/>
    <path class="fil6" d="M839 450l0 -1 141 13c0,0 20,49 63,82 0,0 -24,6 -37,-6 -1,-1 -2,1 -1,2 2,6 8,15 21,23 -7,3 -16,4 -28,2 -6,-1 -11,7 -8,13 2,6 8,13 20,21 0,0 -40,2 -54,-30 0,0 -12,-17 -17,43 0,0 -9,-40 -18,-38 0,0 -17,8 -21,36 0,0 -9,-14 -7,-38l0 -2c-10,13 -11,37 -11,37 -9,-20 -15,-31 -17,-37 -2,-2 -5,-1 -5,2l0 0c1,2 1,4 1,6 3,14 8,25 8,25 -17,-4 -24,-16 -28,-24l-1 -2c-1,-3 -4,-4 -6,-2l0 0c-12,12 -20,23 -20,23 -4,-7 -4,-20 -2,-32 1,-4 -2,-7 -5,-7 -15,3 -30,18 -30,18l3 -17c1,-4 -1,-8 -4,-8l-14 0c38,-19 73,-94 77,-102z"/>
    <path class="fil7" d="M970 393l0 -1 -132 0c0,0 -21,48 -64,76 0,0 22,9 35,-2 1,-1 2,1 1,2 -2,6 -9,14 -21,21 6,3 15,6 26,5 6,-1 10,7 7,13 -2,6 -8,12 -20,20 0,0 38,5 52,-26 0,0 12,-16 14,45 0,0 10,-39 19,-36 0,0 15,9 18,38 0,0 9,-14 8,-38l0 -2c9,14 8,38 8,38 10,-19 16,-30 19,-35 1,-3 4,-1 4,2l0 0c-1,2 -1,4 -2,6 -3,13 -9,24 -9,24 17,-2 25,-14 28,-21l1 -2c1,-3 4,-4 6,-1l0 0c10,13 18,25 18,25 4,-8 4,-20 3,-33 -1,-3 2,-6 5,-6 14,5 27,21 27,21l-2 -18c-1,-4 1,-8 4,-7l13 2c-34,-23 -63,-101 -66,-110z"/>
    <path class="fil8" d="M967 404c-1,-3 2,-7 5,-6 7,3 20,6 28,0 0,0 -45,-16 -56,-89l-75 -1c0,0 -21,48 -64,76 0,0 29,11 39,-8 0,0 -3,18 -24,28 6,4 15,7 26,5 6,0 10,8 7,14 -2,5 -8,12 -20,19 0,0 38,5 52,-25 0,0 12,-16 14,45 0,0 10,-39 19,-36 0,0 15,8 18,37 0,0 9,-13 8,-37 0,-3 3,-6 5,-4 14,9 49,30 59,1 0,0 -26,15 -41,-19z"/>
    <path class="fil9" d="M837 328c0,0 54,-73 58,-122 0,0 35,93 76,116l-15 -1c-3,-1 -6,3 -4,7l1 18c0,0 -14,-16 -30,-21 -3,0 -6,3 -6,6 2,13 4,38 0,46 0,0 -12,-32 -23,-45 -2,-2 -6,-2 -7,1 -4,8 -13,21 -33,24 0,0 8,-15 12,-30 1,-5 -3,-9 -7,-6 -6,4 -14,9 -22,7z"/>
   </g>
   <path class="fil10" d="M160 942c155,-77 453,-183 901,-169 -85,196 -280,334 -508,334 -154,0 -293,-63 -393,-165z"/>
   <g>
    <path class="fil2" d="M197 751l-13 -66c-1,-2 0,-5 0,-7l7 -17 -46 0 -1 0 8 16c1,3 1,6 1,9l-15 64c-1,2 -1,3 -1,4l37 0 23 0c0,-1 0,-2 0,-3z"/>
    <path class="fil2" d="M197 751l-13 -66c-1,-2 0,-5 0,-7l7 -17 -46 0c17,10 46,38 29,93l23 0c0,-1 0,-2 0,-3z"/>
    <path class="fil3" d="M153 686l-15 64c-1,2 -1,3 -1,4l24 0c15,-47 2,-63 -8,-68z"/>
    <path class="fil4" d="M145 661l-1 0 8 16c1,3 1,6 1,9l0 0c10,5 23,21 8,68l13 0c17,-55 -12,-83 -29,-93z"/>
    <path class="fil5" d="M262 663c-1,-2 1,-5 3,-4 5,2 14,4 20,0 0,0 -32,-9 -39,-50l-50 -1 0 0 -97 -7 0 0c-2,5 -27,48 -53,58l10 0c2,0 4,3 3,5l-2 10c0,0 10,-9 21,-10 2,-1 3,1 3,3 -2,7 -2,14 1,19 0,0 6,-7 14,-13l0 -1c1,-1 4,0 4,2l1 1c2,4 8,11 19,13 0,0 -3,-6 -5,-14 0,-1 -1,-2 -1,-3l0 0c0,-2 2,-3 3,-1 2,3 6,9 12,20 0,0 1,-13 7,-21l1 2c-2,13 4,21 4,21 3,-16 15,-20 15,-20 6,-1 12,21 12,21 1,-3 1,-6 2,-9l0 0c4,-23 10,-15 10,-15 0,0 1,2 3,5 4,9 13,24 23,28 0,0 -9,-14 -8,-24 0,-4 2,-6 5,-8 1,0 2,-1 4,-1l1 0c2,0 5,3 6,15l0 2c1,3 1,6 1,9 0,0 7,-22 13,-20 0,0 10,5 12,21 0,0 6,-7 6,-21 0,-2 2,-3 3,-2 10,5 34,17 41,0 0,0 -18,9 -28,-10z"/>
    <path class="fil6" d="M119 560l0 0 108 7c0,0 16,28 49,46 0,0 -18,4 -28,-3 -1,0 -2,0 -1,1 2,4 7,9 17,13 -6,2 -13,3 -22,1 -5,0 -9,4 -7,8 2,3 7,7 16,12 0,0 -31,1 -42,-17 0,0 -9,-10 -13,24 0,0 -7,-23 -14,-21 0,0 -12,4 -16,20 0,0 -7,-8 -5,-21l0 -2c-8,7 -8,21 -8,21 -7,-11 -12,-18 -14,-21 -1,-1 -4,0 -3,1l0 0c0,2 0,3 1,4 2,8 6,14 6,14 -13,-2 -19,-9 -22,-14l-1 -1c0,-2 -3,-2 -5,-1l0 0c-8,7 -15,13 -15,13 -3,-4 -3,-11 -1,-18 0,-2 -2,-4 -4,-4 -12,2 -23,10 -23,10l2 -10c1,-2 -1,-4 -3,-4l-11 0c29,-11 57,-53 59,-58z"/>
    <path class="fil7" d="M220 528l0 0 -102 0c0,0 -16,27 -48,42 0,0 17,6 26,-1 1,0 2,1 1,1 -2,4 -7,9 -16,12 5,2 11,4 20,3 5,0 8,4 5,8 -1,3 -6,7 -15,11 0,0 29,3 40,-15 0,0 9,-9 11,26 0,0 8,-23 14,-21 0,0 12,5 14,22 0,0 7,-8 6,-22l1 -1c6,8 6,21 6,21 7,-10 12,-16 14,-19 1,-2 3,-1 3,1l0 0c0,1 -1,2 -1,3 -3,8 -7,14 -7,14 13,-1 19,-8 21,-12l1 -1c1,-2 3,-2 5,-1l0 0c7,8 13,14 13,14 3,-4 4,-11 3,-18 -1,-2 1,-4 3,-3 11,2 21,11 21,11l-1 -10c-1,-2 1,-4 3,-4l10 1c-26,-13 -49,-57 -51,-62z"/>
    <path class="fil8" d="M218 534c-1,-2 1,-4 3,-3 6,2 16,3 23,0 0,0 -36,-9 -44,-51l-58 0c0,0 -16,27 -49,43 0,0 22,6 30,-5 0,0 -2,10 -18,16 5,2 11,4 20,3 4,0 8,4 5,8 -2,3 -6,7 -15,11 0,0 29,3 40,-15 0,0 9,-9 11,26 0,0 8,-22 14,-21 0,0 12,5 14,22 0,0 7,-8 6,-21 0,-2 2,-4 4,-3 11,6 38,17 45,1 0,0 -20,9 -31,-11z"/>
    <path class="fil9" d="M118 491c0,0 42,-41 45,-69 0,0 26,52 58,66l-11 -1c-3,0 -5,2 -4,4l1 10c0,0 -11,-9 -23,-11 -3,-1 -5,1 -4,3 1,7 3,22 -1,26 0,0 -9,-18 -17,-26 -2,-1 -5,-1 -6,1 -3,4 -9,12 -25,13 0,0 6,-8 9,-17 1,-2 -2,-4 -5,-3 -5,3 -11,5 -17,4z"/>
   </g>
   <g>
    <path class="fil2" d="M698 821l-18 -119c0,-4 0,-9 1,-13l9 -31 -61 0 -1 0 9 30c2,5 2,10 2,15l-20 118c-1,2 -1,4 -1,7l49 0 31 0c0,-2 0,-5 0,-7z"/>
    <path class="fil2" d="M698 821l-18 -119c0,-4 0,-9 1,-13l9 -31 -61 0c22,19 61,70 38,170l31 0c0,-2 0,-5 0,-7z"/>
    <path class="fil3" d="M638 704l-19 117c-1,2 -1,4 -1,7l32 0c20,-86 2,-115 -12,-124z"/>
    <path class="fil4" d="M629 658l-1 0 9 30c2,5 2,10 2,15l-1 1c14,9 32,38 12,124l17 0c23,-100 -16,-151 -38,-170z"/>
    <path class="fil5" d="M785 662c-2,-4 1,-8 4,-7 7,4 18,7 26,1 0,0 -42,-17 -52,-92l-66 -1 0 0 -130 -13 0 0c-3,9 -36,86 -70,106l12 -1c3,0 5,5 4,8l-2 18c0,0 13,-15 27,-18 3,0 5,3 5,7 -2,12 -3,25 1,33 0,0 8,-11 18,-23l1 -1c2,-2 5,-1 6,2l0 2c4,8 11,21 27,25 0,0 -5,-12 -8,-26 0,-2 -1,-4 -1,-6l0 0c0,-3 3,-5 4,-2 3,6 8,18 16,38 0,0 1,-25 10,-38l0 2c-2,25 6,40 6,40 5,-30 20,-37 20,-37 8,-3 16,39 16,39 1,-7 2,-12 2,-17l0 0c6,-42 14,-28 14,-28 0,0 2,4 4,10 6,15 18,44 31,50 0,0 -12,-26 -11,-44 1,-6 3,-11 7,-14 2,-1 3,-1 5,-2l2 0c2,1 6,6 8,27l0 4c0,5 1,11 1,17 0,0 9,-40 17,-37 0,0 14,9 17,39 0,0 8,-14 7,-39 0,-3 3,-6 5,-4 13,10 45,31 54,1 0,0 -24,16 -37,-19z"/>
    <path class="fil6" d="M594 476l0 -1 145 13c0,0 20,51 65,84 0,0 -25,7 -38,-5 -1,-2 -2,0 -2,1 3,7 9,16 23,24 -7,3 -17,5 -29,2 -7,-1 -12,7 -9,14 3,5 9,13 21,21 0,0 -41,2 -56,-31 0,0 -12,-17 -17,45 0,0 -9,-42 -19,-39 0,0 -17,7 -22,37 0,0 -9,-15 -6,-39l-1 -3c-9,13 -10,38 -10,38 -10,-20 -16,-32 -19,-38 -1,-2 -5,-1 -4,2l0 0c0,2 1,4 1,6 3,14 8,26 8,26 -17,-4 -25,-16 -29,-25l0 -1c-2,-4 -5,-5 -7,-2l-1 0c-11,12 -20,23 -20,23 -4,-7 -4,-21 -2,-33 1,-4 -1,-7 -5,-7 -15,3 -30,19 -30,19l2 -19c2,-3 0,-8 -4,-7l-14 0c39,-20 75,-97 79,-105z"/>
    <path class="fil7" d="M728 417l0 0 -135 0c0,0 -22,49 -65,77 0,0 22,10 35,-2 1,-1 2,1 2,2 -3,7 -10,15 -22,22 6,3 15,6 27,5 6,-1 10,7 7,14 -3,5 -9,12 -21,20 0,0 39,5 54,-27 0,0 12,-16 14,47 0,0 11,-41 19,-37 0,0 16,9 19,38 0,0 9,-13 8,-38l1 -3c8,14 8,39 8,39 10,-19 16,-30 19,-36 1,-2 4,0 4,3l0 0c-1,2 -1,4 -2,6 -3,14 -9,25 -9,25 17,-3 25,-14 29,-22l0 -2c2,-3 5,-4 7,-1l0 0c10,13 18,25 18,25 4,-7 5,-20 3,-33 0,-4 2,-7 5,-6 15,4 28,21 28,21l-1 -18c-2,-4 1,-8 4,-8l13 2c-35,-23 -66,-104 -69,-113z"/>
    <path class="fil8" d="M726 429c-1,-4 1,-8 4,-7 8,4 21,7 30,1 0,0 -47,-17 -58,-92l-77 -1c0,0 -22,49 -65,78 0,0 28,12 39,-8 0,0 -2,18 -25,29 7,4 16,6 28,5 6,-1 10,8 7,14 -3,6 -9,13 -21,20 0,0 39,5 54,-26 0,0 12,-16 14,46 0,0 10,-40 19,-37 0,0 16,9 19,39 0,0 9,-14 8,-39 0,-3 3,-6 5,-4 15,10 51,31 61,1 0,0 -27,16 -42,-19z"/>
    <path class="fil9" d="M592 351c0,0 56,-76 60,-126 0,0 36,95 77,120l-14 -2c-4,-1 -7,4 -5,7l1 19c0,0 -14,-17 -31,-21 -3,-1 -6,2 -6,6 2,13 5,39 0,47 0,0 -12,-33 -24,-46 -2,-3 -5,-2 -7,1 -4,8 -13,21 -33,24 0,0 8,-15 12,-31 1,-5 -4,-8 -7,-6 -6,5 -15,9 -23,8z"/>
   </g>
   <g>
    <path class="fil2" d="M457 903l-19 -126c0,-5 0,-9 1,-14l10 -33 -65 0 -2 0 11 32c1,5 2,11 1,16l-21 125c-1,2 -1,5 -1,7l52 0 33 0c1,-2 0,-4 0,-7z"/>
    <path class="fil2" d="M457 903l-19 -126c0,-5 0,-9 1,-14l10 -33 -65 0c23,20 65,74 40,180l33 0c1,-2 0,-4 0,-7z"/>
    <path class="fil3" d="M394 779l-21 124c-1,2 -1,5 -1,7l34 0c21,-91 3,-121 -12,-131z"/>
    <path class="fil4" d="M384 730l-2 0 11 32c1,5 2,11 1,16l0 1c15,10 33,40 12,131l18 0c25,-106 -17,-160 -40,-180z"/>
    <path class="fil5" d="M549 734c-1,-4 1,-8 4,-7 8,4 20,7 29,1 0,0 -45,-18 -56,-98l-70 -1 0 0 -138 -14 0 0c-3,10 -38,92 -75,113l14 -1c3,0 5,5 3,9l-2 19c0,0 14,-16 29,-20 3,0 6,3 5,7 -2,14 -2,28 2,36 0,0 8,-12 19,-25l0 0c2,-3 6,-2 7,2l1 2c3,8 10,22 27,26 0,0 -5,-12 -8,-27 0,-2 0,-5 -1,-7l0 0c0,-3 3,-5 4,-2 3,6 9,19 18,40 0,0 1,-26 10,-40l0 2c-2,26 7,42 7,42 4,-31 21,-39 21,-39 9,-3 17,41 17,41 1,-6 1,-12 2,-17l0 -1c6,-44 15,-29 15,-29 0,0 1,4 4,10 6,16 19,47 33,54 0,0 -13,-28 -11,-47 0,-7 2,-12 7,-15 1,-1 3,-1 5,-2l2 0c3,1 6,6 8,29l1 4c0,5 0,11 0,18 0,0 10,-43 19,-39 0,0 15,9 17,41 0,0 9,-15 8,-41 0,-4 3,-6 5,-5 14,11 49,33 58,1 0,0 -26,17 -40,-20z"/>
    <path class="fil6" d="M347 536l0 -1 153 14c0,0 22,55 70,90 0,0 -27,7 -40,-6 -1,-1 -3,0 -2,2 3,7 9,16 23,25 -7,3 -17,5 -31,2 -6,-1 -12,7 -8,14 2,7 8,14 22,23 0,0 -44,2 -60,-33 0,0 -12,-18 -18,48 0,0 -10,-44 -20,-42 0,0 -18,8 -23,40 0,0 -10,-16 -7,-42l-1 -3c-10,14 -11,41 -11,41 -10,-22 -16,-34 -19,-40 -2,-3 -6,-2 -5,2l0 0c0,2 1,4 1,6 3,15 9,28 9,28 -19,-5 -27,-18 -31,-27l-1 -2c-1,-3 -5,-4 -7,-2l0 0c-12,13 -22,26 -22,26 -4,-9 -4,-23 -2,-36 1,-4 -2,-8 -5,-7 -17,3 -32,19 -32,19l2 -19c2,-4 -1,-8 -4,-8l-15 0c41,-21 80,-103 84,-112z"/>
    <path class="fil7" d="M490 474l0 -1 -144 0c0,0 -24,52 -70,83 0,0 24,10 38,-2 1,-1 2,1 2,2 -4,7 -10,16 -24,23 7,4 16,6 29,5 6,-1 11,8 7,15 -2,6 -9,13 -22,21 0,0 41,6 58,-28 0,0 12,-17 15,49 0,0 11,-43 20,-39 0,0 17,9 20,41 0,0 9,-14 9,-41l0 -2c9,15 9,41 9,41 10,-20 17,-32 20,-38 1,-3 5,-1 4,2l0 0c0,3 -1,5 -1,7 -4,14 -10,26 -10,26 18,-2 26,-15 30,-23l1 -2c1,-3 5,-4 7,-1l0 0c11,14 19,27 19,27 5,-8 5,-22 3,-36 0,-4 3,-7 6,-6 15,5 29,22 29,22l-1 -19c-2,-4 1,-9 4,-8l14 2c-37,-25 -69,-110 -72,-120z"/>
    <path class="fil8" d="M487 486c-2,-4 1,-8 5,-7 8,4 22,8 31,1 0,0 -50,-18 -62,-98l-82 -1c0,0 -23,52 -69,83 0,0 31,13 42,-8 0,0 -3,19 -26,31 7,3 16,6 29,5 6,-1 11,8 7,15 -2,6 -9,13 -22,21 0,0 41,6 58,-28 0,0 12,-17 15,49 0,0 11,-43 20,-39 0,0 17,9 20,41 0,0 9,-15 8,-41 0,-3 3,-6 6,-4 15,10 54,32 64,1 0,0 -28,17 -44,-21z"/>
    <path class="fil9" d="M344 404c0,0 60,-81 64,-134 0,0 38,101 83,127l-16 -2c-4,0 -7,4 -5,8l1 20c0,0 -15,-18 -33,-23 -3,-1 -6,3 -6,7 2,13 5,41 0,49 0,0 -13,-35 -25,-48 -3,-3 -7,-2 -8,1 -4,8 -14,23 -35,25 0,0 8,-15 12,-33 1,-4 -3,-8 -7,-6 -7,5 -16,10 -25,9z"/>
   </g>
  </g>
 </g>
</svg>
