<?xml version="1.0" encoding="UTF-8"?>
<!DOCTYPE svg PUBLIC "-//W3C//DTD SVG 1.1//EN" "http://www.w3.org/Graphics/SVG/1.1/DTD/svg11.dtd">
<!-- Creator: CorelDRAW X7 -->
<svg xmlns="http://www.w3.org/2000/svg" xml:space="preserve" width="1.9685in" height="1.9685in" version="1.1" style="shape-rendering:geometricPrecision; text-rendering:geometricPrecision; image-rendering:optimizeQuality; fill-rule:evenodd; clip-rule:evenodd"
viewBox="0 0 1969 1969"
 xmlns:xlink="http://www.w3.org/1999/xlink">
 <defs>
  <style type="text/css">
   <![CDATA[
    .fil1 {fill:#AECF97}
    .fil3 {fill:#664730}
    .fil2 {fill:#C1C2C3}
    .fil0 {fill:#FFB76F}
    .fil4 {fill:#FFC58B}
   ]]>
  </style>
 </defs>
 <g id="Layer_x0020_1">
  <metadata id="CorelCorpID_0Corel-Layer"/>
  <g id="_2391665386864">
   <circle class="fil0" cx="984" cy="984" r="984"/>
   <path class="fil1" d="M984 1423c335,0 631,48 809,122 -178,256 -474,424 -809,424 -335,0 -631,-168 -809,-424 178,-74 474,-122 809,-122z"/>
   <g>
    <rect class="fil2" x="423" y="791" width="1123" height="754"/>
    <g>
     <g>
      <polygon class="fil3" points="555,1466 692,1466 692,1365 416,1365 416,1466 554,1466 "/>
      <polygon class="fil3" points="545,1545 545,1480 406,1480 386,1480 386,1545 "/>
      <polygon class="fil3" points="843,1545 843,1480 701,1480 565,1480 565,1545 "/>
      <polygon class="fil3" points="824,1250 700,1250 548,1250 548,1351 700,1351 824,1351 "/>
      <polygon class="fil3" points="996,1250 844,1250 844,1351 996,1351 998,1351 1121,1351 1121,1250 998,1250 "/>
      <polygon class="fil3" points="1295,1250 1139,1250 1139,1351 1295,1351 1420,1351 1420,1250 "/>
      <polygon class="fil3" points="1007,1365 1007,1466 1144,1466 1285,1466 1285,1365 1130,1365 "/>
      <polygon class="fil3" points="996,1480 858,1480 858,1545 1135,1545 1135,1480 998,1480 "/>
      <polygon class="fil3" points="987,1365 833,1365 709,1365 709,1466 849,1466 987,1466 "/>
      <polygon class="fil3" points="1440,1466 1577,1466 1577,1365 1300,1365 1300,1466 1438,1466 "/>
      <polygon class="fil3" points="1429,1545 1429,1480 1291,1480 1151,1480 1151,1545 "/>
      <polygon class="fil3" points="1582,1545 1582,1480 1449,1480 1449,1545 "/>
     </g>
     <g>
      <path class="fil3" d="M599 512c-4,0 -8,4 -8,8l0 92 -114 0 0 -92c0,-4 -4,-8 -7,-8 -4,0 -8,4 -8,8l0 92 -114 0 0 -92c0,-4 -4,-8 -8,-8 -3,0 -7,4 -7,8l0 100 0 100c0,41 18,81 49,108 0,239 3,478 3,717l165 0c3,-88 7,-178 7,-260l0 -457c31,-27 49,-67 49,-108l0 -100 0 -100c0,-4 -4,-8 -7,-8z"/>
      <g>
       <polygon class="fil3" points="555,1007 692,1007 692,906 416,906 416,1007 554,1007 "/>
       <polygon class="fil3" points="554,1135 402,1135 402,1236 554,1236 555,1236 678,1236 678,1135 555,1135 "/>
       <polygon class="fil3" points="545,1122 545,1021 406,1021 386,1021 386,1122 391,1122 "/>
       <polygon class="fil3" points="565,1122 687,1122 843,1122 843,1021 701,1021 565,1021 "/>
       <polygon class="fil3" points="852,1135 697,1135 697,1236 852,1236 978,1236 978,1135 "/>
       <polygon class="fil3" points="824,791 700,791 548,791 548,892 700,892 824,892 "/>
       <polygon class="fil3" points="996,791 844,791 844,892 996,892 998,892 1121,892 1121,791 998,791 "/>
       <polygon class="fil3" points="1295,791 1139,791 1139,892 1295,892 1420,892 1420,791 "/>
       <polygon class="fil3" points="1007,906 1007,1007 1144,1007 1285,1007 1285,906 1130,906 "/>
       <polygon class="fil3" points="996,1021 858,1021 858,1122 1135,1122 1135,1021 998,1021 "/>
       <polygon class="fil3" points="987,906 833,906 709,906 709,1007 849,1007 987,1007 "/>
       <polygon class="fil3" points="1266,1135 1142,1135 990,1135 990,1236 1142,1236 1266,1236 "/>
       <polygon class="fil3" points="1440,1007 1577,1007 1577,906 1300,906 1300,1007 1438,1007 "/>
       <polygon class="fil3" points="1438,1135 1286,1135 1286,1236 1438,1236 1440,1236 1563,1236 1563,1135 1440,1135 "/>
       <polygon class="fil3" points="1429,1122 1429,1021 1291,1021 1151,1021 1151,1122 1275,1122 "/>
       <polygon class="fil3" points="1449,1122 1572,1122 1582,1122 1582,1021 1449,1021 "/>
       <polygon class="fil3" points="1582,1135 1581,1135 1581,1236 1582,1236 "/>
      </g>
      <path class="fil3" d="M1628 512c-4,0 -8,4 -8,8l0 92 -113 0 0 -92c0,-4 -4,-8 -8,-8 -4,0 -8,4 -8,8l0 92 -113 0 0 -92c0,-4 -4,-8 -8,-8 -4,0 -8,4 -8,8l0 100 0 100c0,41 18,81 49,108 0,239 3,478 4,717l165 0c2,-88 7,-178 7,-260l0 -457c31,-27 49,-67 49,-108l0 -100 0 -100c0,-4 -4,-8 -8,-8z"/>
     </g>
    </g>
   </g>
   <g>
    <path class="fil4" d="M323 1102c-1,-15 -10,-27 -21,-27 1,-7 0,-14 -5,-18 -4,-4 -9,-4 -13,0 -2,-3 -5,-6 -8,-7 -3,0 -6,1 -8,4 4,-31 -7,-63 -28,-79 -21,-16 -47,-12 -65,9 -5,-6 -12,-6 -17,0 1,-21 -6,-42 -19,-53 -14,-12 -31,-13 -45,-2 -14,10 -22,30 -22,51 -9,-3 -18,3 -21,15 0,-9 -3,-18 -10,-22 -6,-3 -13,-1 -18,5 -6,-9 -15,-11 -22,-5l-1 0c0,4 0,8 0,11 0,40 2,79 7,118l316 0z"/>
    <path class="fil4" d="M1459 122c-2,5 -2,11 -2,18 -9,-4 -18,2 -21,14 0,-9 -4,-18 -10,-21 -6,-4 -14,-2 -18,4 -6,-8 -15,-11 -23,-5 -7,6 -10,17 -8,28 -7,-26 -28,-40 -48,-33 -20,6 -33,32 -31,60 -12,-10 -28,-7 -38,7 -10,14 -12,35 -4,51 -4,-2 -8,-2 -11,2 -3,4 -3,9 -1,14l408 0c-59,-54 -123,-101 -193,-139z"/>
   </g>
  </g>
 </g>
</svg>
