<?xml version="1.0" encoding="UTF-8"?>
<!DOCTYPE svg PUBLIC "-//W3C//DTD SVG 1.1//EN" "http://www.w3.org/Graphics/SVG/1.1/DTD/svg11.dtd">
<!-- Creator: CorelDRAW X7 -->
<svg xmlns="http://www.w3.org/2000/svg" xml:space="preserve" width="1.96851in" height="1.96851in" version="1.1" style="shape-rendering:geometricPrecision; text-rendering:geometricPrecision; image-rendering:optimizeQuality; fill-rule:evenodd; clip-rule:evenodd"
viewBox="0 0 1968 1968"
 xmlns:xlink="http://www.w3.org/1999/xlink">
 <defs>
  <style type="text/css">
   <![CDATA[
    .fil4 {fill:#7E6036}
    .fil3 {fill:#745B35}
    .fil2 {fill:#5E4A2F}
    .fil10 {fill:#7E808B}
    .fil12 {fill:#6C6E76}
    .fil11 {fill:#6C6E76}
    .fil13 {fill:#54565B}
    .fil9 {fill:#62BB51}
    .fil5 {fill:#354232}
    .fil8 {fill:#4B8D4B}
    .fil7 {fill:#407443}
    .fil6 {fill:#3B5F3B}
    .fil1 {fill:#30A755}
    .fil14 {fill:black}
    .fil0 {fill:#FAA954}
   ]]>
  </style>
 </defs>
 <g id="Layer_x0020_1">
  <metadata id="CorelCorpID_0Corel-Layer"/>
  <g id="_2391697643664">
   <circle class="fil0" cx="984" cy="984" r="984"/>
   <path class="fil1" d="M1067 1964c-27,2 -54,4 -81,4l-7 0c-462,-2 -849,-323 -952,-754 323,-91 703,-143 1110,-143 289,0 566,27 818,75 -73,439 -437,781 -888,818z"/>
   <g>
    <path class="fil2" d="M321 1220l-26 -135c-1,-5 -1,-11 1,-15l13 -36 -91 0 -2 0 15 35c2,5 3,11 2,17l-30 133c-1,3 -1,6 -1,9l73 0 47 0c0,-3 0,-5 -1,-8z"/>
    <path class="fil2" d="M321 1220l-26 -135c-1,-5 -1,-11 1,-15l13 -36 -91 0c33,22 92,80 57,194l47 0c0,-3 0,-5 -1,-8z"/>
    <path class="fil3" d="M232 1087l-29 132c-1,3 -1,6 -1,9l48 0c30,-98 3,-131 -18,-141z"/>
    <path class="fil4" d="M218 1034l-2 0 15 35c2,5 3,11 2,17l-1 1c21,10 48,43 18,141l25 0c35,-114 -24,-172 -57,-194z"/>
    <path class="fil5" d="M451 1038c-2,-4 2,-8 6,-7 11,4 27,8 40,1 0,0 -63,-19 -78,-105l-99 -1 0 0 -194 -16 0 1c-5,10 -53,98 -105,121l18 -1c5,0 8,5 6,9l-3 21c0,0 19,-17 41,-21 4,-1 7,3 6,7 -3,15 -3,30 2,39 0,0 13,-13 28,-27l0 -1c3,-2 8,-1 9,3l1 2c5,9 16,23 39,28 0,0 -7,-13 -11,-29 0,-3 -1,-5 -1,-7l0 0c-1,-4 4,-6 6,-2 3,6 11,20 24,42 0,0 1,-28 14,-43l1 3c-3,28 9,45 9,45 6,-34 29,-42 29,-42 13,-3 25,44 25,44 1,-7 1,-13 2,-19l0 0c9,-48 21,-32 21,-32 0,0 2,4 6,11 9,18 27,50 47,58 0,0 -18,-30 -16,-50 0,-7 3,-13 10,-16 2,-1 4,-2 6,-2l3 -1c4,1 9,7 12,31 1,2 1,3 1,5 0,5 1,12 1,19 0,0 14,-46 26,-42 0,0 21,10 25,44 0,0 12,-16 11,-44 0,-4 4,-7 7,-5 19,11 68,35 81,1 0,0 -36,18 -56,-22z"/>
    <path class="fil6" d="M166 826l0 -1 216 15c0,0 31,59 98,96 0,0 -37,8 -57,-6 -1,-1 -3,0 -2,2 4,7 13,18 33,27 -11,3 -25,5 -44,2 -9,-1 -16,8 -12,16 4,6 12,15 31,24 0,0 -61,2 -83,-35 0,0 -18,-20 -27,51 0,0 -13,-47 -27,-45 0,0 -26,9 -33,42 0,0 -13,-16 -10,-44l0 -3c-15,15 -16,43 -16,43 -15,-23 -23,-36 -28,-43 -2,-3 -7,-1 -6,2l0 0c0,3 1,5 2,8 4,15 12,29 12,29 -26,-5 -38,-19 -43,-28l-2 -3c-1,-3 -6,-4 -10,-2l0 1c-17,13 -31,26 -31,26 -6,-9 -5,-24 -2,-38 1,-4 -3,-8 -8,-7 -23,3 -45,20 -45,20l3 -20c3,-4 -1,-9 -6,-9l-21 0c58,-22 113,-110 118,-120z"/>
    <path class="fil7" d="M367 760l0 -1 -203 0c0,0 -32,56 -97,89 0,0 34,10 53,-3 1,-1 3,1 2,3 -4,7 -14,17 -33,24 10,4 23,7 41,6 9,-1 15,8 10,16 -3,6 -12,14 -30,22 0,0 57,6 80,-30 0,0 18,-18 21,53 0,0 16,-46 29,-42 0,0 23,10 27,44 0,0 14,-16 13,-44l1 -3c12,16 12,45 12,45 14,-22 24,-35 28,-41 2,-3 7,-1 6,2l0 0c-1,3 -1,5 -2,7 -6,16 -14,29 -14,29 25,-3 37,-16 43,-25l1 -2c2,-4 7,-5 10,-2l0 0c15,15 27,29 27,29 6,-8 7,-23 4,-38 0,-4 4,-7 8,-6 22,5 41,23 41,23l-2 -20c-2,-5 2,-9 7,-9l19 2c-52,-26 -97,-118 -102,-128z"/>
    <path class="fil8" d="M363 773c-2,-4 2,-9 7,-8 12,4 31,8 44,1 0,0 -70,-19 -87,-105l-115 -1c0,0 -33,56 -97,89 0,0 43,13 59,-9 0,0 -4,20 -37,33 10,4 23,7 40,6 9,-1 16,9 11,16 -4,6 -13,14 -31,23 0,0 58,6 81,-30 0,0 17,-19 21,52 0,0 15,-46 29,-42 0,0 23,10 27,44 0,0 14,-15 13,-43 -1,-4 4,-7 7,-5 22,11 76,35 91,1 0,0 -40,18 -63,-22z"/>
    <path class="fil9" d="M163 684c0,0 84,-86 90,-144 0,0 53,109 116,137l-23 -2c-5,-1 -9,4 -7,9l3 20c0,0 -22,-18 -47,-23 -5,-2 -9,2 -9,6 3,15 7,45 -1,54 0,0 -17,-38 -35,-53 -3,-2 -8,-2 -11,2 -5,9 -18,24 -49,27 0,0 12,-17 18,-35 1,-5 -5,-10 -11,-7 -9,5 -22,11 -34,9z"/>
   </g>
   <g>
    <path class="fil2" d="M1773 1147l-27 -136c-1,-5 0,-10 2,-15l13 -36 -91 0 -2 0 14 35c3,6 3,12 2,17l-30 134c-1,3 -1,5 -1,8l73 0 47 0c0,-2 0,-5 0,-7z"/>
    <path class="fil2" d="M1773 1147l-27 -136c-1,-5 0,-10 2,-15l13 -36 -91 0c32,23 91,80 56,194l47 0c0,-2 0,-5 0,-7z"/>
    <path class="fil3" d="M1684 1013l-30 133c-1,3 -1,5 -1,8l48 0c30,-98 4,-130 -17,-141z"/>
    <path class="fil4" d="M1670 960l-2 0 14 35c3,6 3,12 2,17l0 1c21,11 47,43 17,141l25 0c35,-114 -24,-171 -56,-194z"/>
    <path class="fil5" d="M1902 965c-2,-4 2,-9 6,-8 11,4 28,8 40,1 0,0 -63,-19 -78,-105l-99 -1 0 0 -193 -15 0 1c-5,10 -54,98 -106,120l19 0c4,-1 7,4 5,9l-3 20c0,0 20,-17 41,-21 4,0 8,4 7,8 -3,14 -4,29 2,38 0,0 12,-13 27,-27l0 0c3,-3 8,-2 10,2l1 2c4,10 15,24 39,29 0,0 -7,-14 -12,-30 0,-2 -1,-4 -1,-7l0 0c-1,-4 4,-5 6,-2 4,6 12,20 24,43 0,0 2,-29 15,-43l0 2c-3,28 9,45 9,45 7,-34 29,-42 29,-42 13,-3 25,44 25,44 1,-7 2,-13 3,-18l0 -1c8,-48 21,-32 21,-32 0,0 2,5 5,12 9,17 27,50 47,57 0,0 -18,-30 -16,-50 0,-7 3,-13 10,-16 2,-1 4,-2 7,-2l3 0c4,0 9,7 12,31 0,1 0,3 0,4 1,6 1,12 1,19 0,0 14,-46 26,-42 0,0 21,10 25,44 0,0 12,-15 11,-43 0,-4 4,-7 7,-5 19,11 68,35 81,1 0,0 -36,18 -56,-22z"/>
    <path class="fil6" d="M1617 753l1 -1 215 15c0,0 31,58 98,96 0,0 -37,8 -56,-7 -2,-1 -4,1 -3,2 4,8 13,18 33,27 -10,4 -25,5 -43,3 -10,-1 -17,7 -13,15 4,7 13,15 32,25 0,0 -62,2 -84,-36 0,0 -18,-20 -26,51 0,0 -14,-47 -28,-44 0,0 -25,8 -32,42 0,0 -14,-17 -11,-45l0 -3c-15,15 -16,43 -16,43 -14,-22 -23,-36 -27,-42 -2,-3 -8,-2 -7,2l0 0c1,2 1,5 2,7 4,16 12,29 12,29 -26,-4 -38,-19 -43,-28l-1 -2c-2,-4 -7,-5 -11,-2l0 0c-17,14 -31,27 -31,27 -6,-9 -5,-24 -2,-39 1,-4 -3,-8 -7,-7 -24,4 -46,21 -46,21l4 -21c2,-4 -1,-9 -7,-9l-20 1c57,-23 112,-111 117,-120z"/>
    <path class="fil7" d="M1818 686l0 -1 -202 0c0,0 -33,56 -98,89 0,0 34,11 53,-2 2,-1 4,0 3,2 -5,7 -14,17 -34,24 10,4 24,7 41,6 9,-1 15,9 11,16 -4,6 -13,14 -31,23 0,0 57,6 80,-30 0,0 18,-19 21,53 0,0 16,-47 29,-43 0,0 23,10 28,45 0,0 13,-16 12,-44l1 -3c12,16 12,44 12,44 15,-21 24,-35 28,-41 2,-3 7,-1 6,3l0 0c0,2 -1,5 -2,7 -5,15 -14,28 -14,28 26,-3 38,-16 43,-25l1 -2c2,-4 7,-4 10,-1l0 0c15,15 27,29 27,29 6,-9 7,-24 5,-38 -1,-5 3,-8 7,-7 22,5 42,24 42,24l-2 -21c-2,-4 1,-9 6,-9l19 2c-52,-26 -97,-118 -102,-128z"/>
    <path class="fil8" d="M1815 699c-3,-4 2,-9 6,-7 12,4 31,8 45,0 0,0 -71,-18 -87,-105l-116 0c0,0 -32,55 -97,88 0,0 43,14 59,-8 0,0 -4,20 -37,33 10,4 23,7 41,5 9,0 15,9 10,16 -3,7 -12,14 -31,23 0,0 58,6 81,-30 0,0 18,-18 21,53 0,0 16,-46 29,-42 0,0 23,10 27,44 0,0 14,-16 13,-44 0,-4 4,-7 8,-5 21,11 75,35 90,1 0,0 -40,18 -62,-22z"/>
    <path class="fil9" d="M1614 610c0,0 84,-85 90,-143 0,0 53,108 116,136l-22 -2c-6,0 -10,5 -7,9l2 21c0,0 -22,-19 -47,-24 -5,-1 -9,2 -8,7 2,14 6,45 -1,53 0,0 -18,-37 -35,-52 -4,-3 -9,-2 -11,1 -6,9 -19,24 -50,28 0,0 13,-17 18,-36 2,-5 -5,-9 -10,-6 -10,5 -23,10 -35,8z"/>
   </g>
   <g>
    <path class="fil10" d="M1512 1362l-995 0c0,0 27,-238 13,-312 -13,-73 50,-170 27,-226 -23,-56 12,-114 58,-176 22,-28 27,-45 27,-55 -1,-9 10,-17 25,-17 13,0 28,0 43,2 41,6 19,-17 22,-57 2,-41 35,-21 65,-14 5,1 9,1 12,0 86,-25 -43,-61 106,-69 115,-52 61,-8 365,29 0,0 96,-18 96,0 0,5 2,12 4,19 7,20 21,44 42,54 29,14 2,62 37,131 35,69 53,691 53,691z"/>
    <path class="fil11" d="M877 1362l-298 0c-16,-62 -28,-146 -3,-204 43,-101 -12,-177 22,-236 35,-59 5,-122 39,-190 35,-68 3,-74 95,-126 74,-42 83,-47 54,-99 1,0 3,-1 4,-2l0 0 0 0 0 0 0 0 1 0 0 0 0 1 0 0 0 0 0 0 0 0 0 0 0 0 0 0 0 0 1 0 0 0 0 0 0 0 0 0 0 0 0 0 0 0 0 0 0 0 1 0 0 0 0 0 0 0 0 0 0 0 0 0 0 0 0 0 0 0 1 0 0 0 0 0 0 0 0 0 0 0 0 0 0 0 1 1 0 0 0 0 0 0 0 0 0 0 0 0 0 0 0 0 0 0 1 0 0 0 0 0 0 0 0 0 0 0 0 0 0 0 1 0c5,1 9,1 12,0 1,0 2,-1 3,-1l1 0c1,0 2,-1 2,-1 73,-25 -45,-59 100,-67l2 0c1,0 3,1 5,1 -49,1 -61,49 -66,72 -4,24 -14,38 -35,50 -21,12 -26,33 -52,47 -25,13 -63,18 -62,61 2,43 5,50 -9,69 -14,19 -49,31 -47,88 2,56 -35,99 -38,159 -2,59 8,51 0,132 -8,80 -20,186 -14,239l279 3 -1 3z"/>
    <path class="fil12" d="M1298 1362l-64 0c-3,-20 -33,-199 -11,-287 23,-94 25,-155 15,-193 -10,-39 -22,-84 -7,-122 15,-38 -16,-97 -14,-117 2,-20 7,-46 0,-72 -5,-20 -13,-59 16,-84 7,-7 17,-12 31,-16 5,-2 10,-3 16,-4l0 0c0,0 43,-8 71,-8 15,0 25,2 25,8 0,5 2,12 4,19 -129,20 -201,35 -94,105 112,74 -53,73 -14,182 39,109 30,139 7,209 -18,56 -19,244 19,380z"/>
    <path class="fil13" d="M1061 1128c-6,27 -6,28 -5,56 0,27 -15,142 -18,87 -3,-56 -9,-78 -15,-94 -6,-15 -8,-3 -16,15 -8,19 -13,34 -10,-26 4,-59 0,-137 2,-171 1,-34 1,-78 -11,-13 -14,65 -36,146 -39,176 -2,30 5,130 -13,160 -17,30 -10,-36 -10,-86 0,-51 -12,-127 -11,-155 1,-28 18,-66 6,-128 0,-1 0,-2 0,-3 -12,-63 26,-115 22,-133 -4,-17 -14,-24 0,-52 12,-24 21,-32 22,-44 0,-2 0,-5 0,-7 -3,-16 9,-23 17,-27 30,-13 17,-35 36,-35 14,0 22,40 28,80 2,15 10,67 11,77 3,32 4,64 4,124 0,79 6,171 0,199z"/>
    <path class="fil10" d="M852 1044c-18,55 -6,79 -15,115 -9,36 4,83 -14,87 -17,4 -20,-105 -21,-133 -1,-28 11,-129 -6,-85 -16,44 -38,141 -42,109 -5,-33 -5,-54 -17,-16 -12,39 -23,27 -8,-37 15,-64 18,-140 7,-102 -11,37 -8,67 -23,106 -15,39 -29,189 -40,194 -10,5 7,-104 8,-167 1,-59 3,-150 18,-216 1,-6 2,-12 4,-18 29,-98 41,-120 58,-118 17,3 21,17 35,9 15,-8 29,11 36,38 6,27 20,73 25,95 2,7 4,20 5,35 2,29 1,69 -10,104z"/>
    <path class="fil13" d="M1278 1395c-6,-2 -10,-6 -9,-10l32 -200c0,0 28,-300 20,-321 -5,-13 -3,-23 -1,-29 1,-3 6,-5 11,-6 14,0 38,-2 42,-11 6,-13 52,-30 77,-55 24,-25 27,-32 53,-9 26,23 17,50 40,54 23,3 41,94 29,179 -12,85 14,202 14,259 0,47 12,118 15,139 1,3 -3,7 -9,7 -15,2 -46,4 -80,-2 -49,-8 -70,7 -122,3 -45,-4 -87,7 -112,2z"/>
    <polygon class="fil10" points="1380,864 1355,1370 1373,1370 1403,807 "/>
    <polygon class="fil10" points="1520,1231 1538,1385 1497,1377 "/>
    <polygon class="fil10" points="1492,1284 1532,842 1476,1299 "/>
    <polygon class="fil12" points="592,1286 619,1230 621,1256 "/>
    <path class="fil14" d="M1093 1362l-298 0c4,-103 6,-189 3,-204 -5,-25 -4,-44 -1,-56 1,-6 6,-11 13,-11 15,-1 44,-5 49,-23 7,-25 60,-57 89,-106 28,-49 32,-63 62,-19 30,45 20,98 46,105 25,7 45,160 37,314z"/>
    <path class="fil13" d="M679 1390c7,0 11,-2 10,-4l-33 -88c0,0 -27,-132 -20,-142 5,-5 3,-10 1,-12 -1,-2 -5,-3 -11,-3 -13,0 -37,-1 -42,-5 -6,-6 -52,-13 -76,-24 -24,-11 -28,-14 -54,-4 -26,10 -16,22 -39,23 -23,2 -42,42 -29,79 12,38 -14,90 -14,115 0,21 -12,52 -16,61 -1,2 4,3 10,3 15,1 45,2 79,0 49,-4 70,2 122,1 45,-2 88,3 112,0z"/>
    <polygon class="fil10" points="468,1157 442,1380 461,1380 490,1131 "/>
    <polygon class="fil10" points="607,1318 626,1386 584,1383 "/>
    <polygon class="fil10" points="580,1342 620,1147 563,1348 "/>
    <polygon class="fil10" points="548,1119 500,1293 566,1111 "/>
    <polygon class="fil11" points="727,1139 702,1362 720,1362 750,1114 "/>
   </g>
  </g>
 </g>
</svg>
