<?xml version="1.0" encoding="UTF-8"?>
<!DOCTYPE svg PUBLIC "-//W3C//DTD SVG 1.1//EN" "http://www.w3.org/Graphics/SVG/1.1/DTD/svg11.dtd">
<!-- Creator: CorelDRAW X7 -->
<svg xmlns="http://www.w3.org/2000/svg" xml:space="preserve" width="1.9685in" height="1.9685in" version="1.1" style="shape-rendering:geometricPrecision; text-rendering:geometricPrecision; image-rendering:optimizeQuality; fill-rule:evenodd; clip-rule:evenodd"
viewBox="0 0 1969 1969"
 xmlns:xlink="http://www.w3.org/1999/xlink">
 <defs>
  <style type="text/css">
   <![CDATA[
    .fil7 {fill:#B9CFD9}
    .fil4 {fill:#ABB3B7}
    .fil6 {fill:#7C949E}
    .fil1 {fill:#7DB358}
    .fil8 {fill:#617783}
    .fil2 {fill:#5B6971}
    .fil3 {fill:#444F56}
    .fil5 {fill:#2F3234}
    .fil0 {fill:#FFB76F}
    .fil9 {fill:#FFC58B}
   ]]>
  </style>
 </defs>
 <g id="Layer_x0020_1">
  <metadata id="CorelCorpID_0Corel-Layer"/>
  <g id="_2391666640192">
   <circle class="fil0" cx="984" cy="984" r="984"/>
   <path class="fil1" d="M1055 1008c332,0 640,63 894,171 -90,450 -488,790 -965,790 -455,0 -839,-310 -951,-730 277,-144 633,-231 1022,-231z"/>
   <g>
    <path class="fil2" d="M504 1115l-113 0 -7 -125c0,-35 29,-63 64,-63 35,0 63,28 63,63l-7 125z"/>
    <path class="fil3" d="M504 1115l-113 0 -7 -125c0,-35 29,-63 64,-63 35,0 63,28 63,63l-7 125z"/>
    <path class="fil2" d="M518 967l-3 2 1 3 -7 4 4 -5 0 -5 3 -2c-10,-22 -32,-37 -58,-37 -35,0 -63,28 -63,63l7 125 113 0 7 -125c0,-8 -2,-16 -4,-23z"/>
   </g>
   <g>
    <polygon class="fil2" points="188,1161 190,1148 147,1144 155,1080 193,1085 195,1062 157,1057 161,1019 138,1017 134,1055 96,1050 93,1074 131,1078 124,1141 82,1136 81,1148 70,1147 54,1283 185,1283 199,1162 "/>
    <polygon class="fil3" points="129,1142 124,1141 131,1078 137,1078 "/>
    <polygon class="fil3" points="139,1055 134,1055 138,1017 143,1017 "/>
    <polygon class="fil4" points="59,1283 54,1283 59,1283 "/>
    <polygon class="fil3" points="59,1283 54,1283 70,1147 75,1148 "/>
    <polygon class="fil4" points="98,1074 93,1074 "/>
    <polygon class="fil3" points="98,1074 93,1074 96,1050 101,1051 "/>
    <polygon class="fil3" points="86,1149 81,1148 82,1136 87,1137 "/>
   </g>
   <g>
    <path class="fil2" d="M1641 1146l111 21 30 -121c6,-35 -17,-68 -51,-74 -35,-7 -68,16 -74,51l-16 123z"/>
    <path class="fil4" d="M1657 1022c6,-34 39,-57 74,-50 -35,-7 -68,16 -74,50z"/>
    <path class="fil3" d="M1752 1167l-111 -21 16 -123c0,-1 0,-1 0,-1 6,-34 39,-57 74,-50l0 0c34,6 57,39 51,74l-30 121z"/>
    <path class="fil2" d="M1654 999l3 2 -2 3 6 5 -3 -6 1 -5 -2 -3c13,-19 38,-30 63,-25 34,6 57,39 51,74l-30 121 -111 -21 16 -123c1,-8 4,-16 8,-22z"/>
    <polygon class="fil5" points="1668,1032 1694,1037 1698,1011 1714,1014 1709,1040 1735,1045 1732,1061 1706,1056 1696,1115 1680,1112 1691,1053 1665,1048 "/>
   </g>
   <polygon class="fil2" points="800,864 798,846 960,828 962,846 978,844 1000,1029 805,1049 784,866 "/>
   <g>
    <polygon class="fil2" points="1253,916 1300,929 1314,882 1342,890 1329,937 1376,950 1368,979 1321,965 1291,1072 1261,1072 1292,958 1245,944 "/>
    <polygon class="fil3" points="1329,937 1325,936 1339,889 1342,890 "/>
    <polygon class="fil3" points="1368,979 1368,979 1365,978 1373,949 1376,950 "/>
    <polygon class="fil3" points="1291,1072 1287,1072 1318,965 1321,965 "/>
   </g>
   <g>
    <path class="fil2" d="M553 1670l-182 12 -24 -201c-4,-56 39,-105 96,-109 56,-4 105,39 109,96l1 202z"/>
    <path class="fil3" d="M553 1670l-182 12 -24 -201c-4,-56 39,-105 96,-109 56,-4 105,39 109,96l1 202z"/>
    <path class="fil2" d="M560 1430l-4 3 1 5 -10 7 6 -9 0 -8 4 -3c-18,-35 -55,-57 -97,-54 -56,4 -99,52 -96,109l25 200 182 -11 -2 -202c0,-13 -4,-26 -9,-37z"/>
   </g>
   <g>
    <path class="fil6" d="M1146 1295l15 -8 5 -71 -44 0c-9,-64 -64,-114 -131,-114 -67,0 -122,50 -131,114l-43 0 14 231 7 4 0 6 18 6 -14 0 -11 -6 4 61 312 0 13 -211 -7 -8 -10 11 -19 0 18 -8 4 -7z"/>
    <path class="fil7" d="M1094 1186c-4,-6 -7,-11 -11,-16 -4,-4 -8,-9 -12,-13 -4,-5 -8,-9 -13,-13 -5,-4 -10,-7 -15,-12 7,1 13,3 19,6 6,3 11,7 16,12 5,5 9,10 11,16 3,6 5,13 5,20z"/>
    <path class="fil8" d="M856 1463l0 0zm0 0l-18 -6 0 -6 -7 -4 -14 -231 17 0 12 227 4 6 0 8 6 6z"/>
    <polygon class="fil8" points="849,1518 835,1518 831,1457 842,1463 856,1463 847,1468 "/>
   </g>
   <g>
    <path class="fil2" d="M1497 1586l191 0 12 -212c0,-59 -48,-108 -107,-108 -60,0 -108,49 -108,108l12 212z"/>
    <path class="fil4" d="M1485 1373c0,-59 48,-107 108,-107 -60,0 -108,48 -108,107z"/>
    <path class="fil3" d="M1688 1586l-191 0 -12 -212c0,0 0,-1 0,-1 0,-59 48,-107 108,-107l0 0c59,0 107,49 107,108l-12 212z"/>
    <path class="fil2" d="M1474 1335l4 3 -1 6 11 6 -7 -9 0 -8 -5 -4c17,-37 55,-63 98,-63 60,0 108,49 108,108l-12 212 -191 0 -13 -212c0,-14 3,-27 8,-39z"/>
    <polygon class="fil5" points="1506,1387 1551,1387 1551,1342 1578,1342 1578,1387 1623,1387 1623,1414 1578,1414 1578,1516 1551,1516 1551,1414 1506,1414 "/>
   </g>
   <g>
    <path class="fil9" d="M1795 427c-10,-2 -21,6 -24,20 0,-12 -5,-24 -13,-29 -9,-4 -18,-2 -25,7 -7,-12 -20,-15 -30,-7 -9,7 -14,23 -10,37 -10,-34 -38,-54 -65,-45 -27,9 -44,44 -40,81 -17,-13 -38,-9 -52,10 -13,18 -15,46 -5,68 -5,-4 -11,-3 -14,2 -4,5 -5,12 -2,19l371 0c-25,-58 -56,-112 -91,-163z"/>
    <path class="fil9" d="M659 444c-1,-20 -13,-36 -28,-36 2,-9 0,-18 -6,-24 -5,-5 -13,-5 -18,1 -2,-5 -6,-9 -10,-10 -4,0 -9,1 -12,5 7,-41 -8,-84 -36,-105 -28,-21 -63,-16 -87,12 -6,-8 -17,-8 -23,0 2,-28 -8,-56 -26,-71 -8,-8 -18,-12 -28,-13 -19,15 -38,31 -56,47 -3,10 -4,21 -4,32 -12,-5 -25,4 -29,19 1,-6 0,-12 -3,-17 -49,48 -93,102 -132,160l498 0z"/>
    <path class="fil9" d="M313 819c-1,-10 -13,-18 -28,-18 2,-5 0,-9 -6,-12 -5,-3 -13,-3 -18,0 -2,-2 -6,-4 -10,-4 -4,-1 -9,0 -12,2 6,-21 -8,-42 -36,-52 -28,-11 -63,-9 -87,6 -6,-5 -17,-5 -23,0 2,-15 -8,-28 -26,-36 -7,-4 -16,-6 -25,-6 -12,39 -21,79 -28,120l299 0z"/>
   </g>
  </g>
 </g>
</svg>
